<svg width="150" height="150" version="1.1" viewBox="0 0 39.687 39.688" xmlns="http://www.w3.org/2000/svg" xmlns:xlink="http://www.w3.org/1999/xlink"><g transform="translate(0 -257.31)"><rect x=".11479" y="257.2" width="39.688" height="39.688" style="fill:#f9f9f9;paint-order:markers fill stroke"/><g transform="matrix(.92604 0 0 .92604 -7.9373 255.33)" style="fill:#c8c8c8;opacity:.25;stroke:#c8c8c8"><g style="fill:#c8c8c8;stroke:#c8c8c8"><path d="m25.5 20.5c.46022 2.1767.71709 3.8233.34375 6-2.911 2.415-10.355 3.5-10.344 6l-1 7.5c0 2.4853 6.9396 4.5 15.5 4.5s15.5-2.0147 15.5-4.5l-1-7.5c-.012-2.14-7.5-3.5-10.375-6-.246-2.02-.05-3.98.375-6h-9z" style="fill:#c8c8c8;stroke:#c8c8c8"/><path transform="translate(4.125,-39.5)" d="m22.531 61c.30464 1.6903.51076 3.2715.1875 5.1562a1.0027 1.0027 0 01-.375.625c-1.7218 1.4285-4.3454 2.2543-6.5312 3.125-1.0929.43533-2.0659.86976-2.6875 1.2812-.62165.41149-.75057.6854-.75.8125a1.0027 1.0027 0 010 .125l-1 7.375c0 .003-.00011.02807 0 .03125.0055.15834.15008.47302.78125.90625.64383.44193 1.6943.89312 3.0312 1.2812 2.675.776 6.487 1.281 10.689 1.281 4.2015 0 8.0137-.50498 10.688-1.2812 1.3369-.38813 2.3874-.83932 3.0312-1.2812.63117-.43323.77575-.74791.78125-.90625v-.03125l-1-7.375a1.0027 1.0027 0 010-.125c.000137.02464.01573.0028-.09375-.125-.10948-.12777-.33441-.29902-.65625-.5-.64368-.40196-1.6457-.85747-2.75-1.3125-2.209-.91-4.836-1.838-6.531-3.312a1.0027 1.0027 0 01-.344-.625c-.212-1.743-.057-3.441.219-5.125h-6.6875z" style="fill:#c8c8c8;stroke:#c8c8c8"/><path d="m30 5.5c-4.1421 0-7.5 3.134-7.5 7 .03246 1.4307.15457 3.1304 1 7 .5 1.5 4.9598 5.5 5 6 .96967.5 2.5.5 3.5 0 0-.5 4-4.5 4.5-6 .95138-4.0217.94897-5.5 1-7 0-3.866-3.3579-7-7.5-7z" style="fill:#c8c8c8;stroke:#c8c8c8"/><path d="m21 43.2c-2.3623-1.9822-1.2359-6.3829-1-9.2-1 2-1 8-3 8 1.3626.45855 2.7496.96579 4 1.2z" style="fill:#c8c8c8;opacity:.3;stroke:#c8c8c8"/><path d="m39 43.2c2.35-1.7437 1.1567-6.4859 1-9.2 1 2 1 8 3 8-1.3626.45855-2.7496.96579-4 1.2z" style="fill:#c8c8c8;opacity:.3;stroke:#c8c8c8"/><path d="m25.312 27c.6863 1.7448 2.5189 3 4.6875 3s4.0012-1.2552 4.6875-3z" style="fill:#c8c8c8;opacity:.2;stroke:#c8c8c8"/><path transform="matrix(1.0045 0 0 1.0034 -.1356 -.051359)" d="m30 6.5312c-3.6136 0-6.4504 2.679-6.4688 5.9375.000142.0063-.000145.02499 0 .03125.03183 1.3739.15643 2.9814.96875 6.7188.04059.09664.33476.58291.78125 1.125.46068.55932 1.0398 1.1939 1.625 1.8125.58521.61863 1.1773 1.2325 1.625 1.7188.22386.24314.40533.4577.5625.65625.01424.01799.01751.04473.03125.0625.57991.22794 1.5899.23044 2.2188 0 .14029-.2036.3001-.44272.5-.6875.3998-.48956.91074-1.0678 1.4375-1.6875.52676-.61971 1.0788-1.2822 1.5-1.8438.40031-.53374.65761-.97666.71875-1.125.0033-.01388-.0033-.01744 0-.03125.92253-3.9093.91824-5.2123.96875-6.7188 0-.01056 5.9e-5-.0207 0-.03125-.019-3.2587-2.855-5.9378-6.469-5.9378z" style="fill:#c8c8c8;opacity:.7;stroke:#c8c8c8"/></g></g></g></svg>
