<?xml version="1.0" encoding="UTF-8"?>
<svg id="svg11300" width="128" height="128" style="enable-background:new" version="1.0" viewBox="0 0 128 128" xmlns="http://www.w3.org/2000/svg" xmlns:cc="http://creativecommons.org/ns#" xmlns:dc="http://purl.org/dc/elements/1.1/" xmlns:rdf="http://www.w3.org/1999/02/22-rdf-syntax-ns#" xmlns:xlink="http://www.w3.org/1999/xlink">
 <title id="title4162">Adwaita Icon Template</title>
 <defs id="defs3">
  <linearGradient id="linearGradient1496" x1="280" x2="280" y1="172" y2="20" gradientUnits="userSpaceOnUse">
   <stop id="stop1490" style="stop-color:#babdb6" offset="0"/>
   <stop id="stop1492" style="stop-color:#babdb6;stop-opacity:0" offset="1"/>
  </linearGradient>
  <linearGradient id="linearGradient2155" x1="301.62" x2="318.91" y1="113.77" y2="59.234" gradientTransform="matrix(.25 0 0 .25 -1e-5 225)" gradientUnits="userSpaceOnUse">
   <stop id="stop1190" style="stop-color:#5e5c64" offset="0"/>
   <stop id="stop1192" style="stop-color:#77767b" offset="1"/>
  </linearGradient>
  <linearGradient id="linearGradient1057" x1="249" x2="249" y1="125" y2="-112.15" gradientTransform="matrix(.25 0 0 .25 -1e-5 225)" gradientUnits="userSpaceOnUse">
   <stop id="stop1184" style="stop-color:#c0bfbc" offset="0"/>
   <stop id="stop1186" style="stop-color:#f6f5f4" offset="1"/>
  </linearGradient>
  <linearGradient id="linearGradient1284" x1="347" x2="323" y1="217" y2="-172" gradientTransform="matrix(.25 0 0 .25 -1e-5 225)" gradientUnits="userSpaceOnUse">
   <stop id="stop1278" style="stop-color:#f6f5f4" offset="0"/>
   <stop id="stop1280" style="stop-color:#fff" offset="1"/>
  </linearGradient>
  <linearGradient id="linearGradient1444-3-9" x1="177" x2="496" y1="619.96" y2="619.96" gradientTransform="matrix(.25 0 0 .24306 -20 91.564)" gradientUnits="userSpaceOnUse">
   <stop id="stop1366" style="stop-color:#424048" offset="0"/>
   <stop id="stop1368" style="stop-color:#f6f5f4" offset=".047022"/>
   <stop id="stop1370" style="stop-color:#949390" offset=".097179"/>
   <stop id="stop1372" style="stop-color:#d5d3cf" offset=".89969"/>
   <stop id="stop1374" style="stop-color:#f6f5f4" offset=".94984"/>
   <stop id="stop1376" style="stop-color:#424048" offset="1"/>
  </linearGradient>
  <linearGradient id="linearGradient1121" x1="176" x2="495" y1="799.96" y2="799.96" gradientTransform="matrix(.25 0 0 .24306 -20 91.564)" gradientUnits="userSpaceOnUse">
   <stop id="stop1352" offset="0"/>
   <stop id="stop1354" style="stop-color:#424048" offset=".047022"/>
   <stop id="stop1356" style="stop-color:#241f31" offset=".097179"/>
   <stop id="stop1358" style="stop-color:#241f31" offset=".89969"/>
   <stop id="stop1360" style="stop-color:#424048" offset=".94984"/>
   <stop id="stop1362" offset="1"/>
  </linearGradient>
  <radialGradient id="radialGradient1131" cx="128" cy="199.58" r="16" gradientUnits="userSpaceOnUse">
   <stop id="stop979" style="stop-opacity:.25098" offset="0"/>
   <stop id="stop981" style="stop-opacity:.031373" offset="1"/>
  </radialGradient>
  <radialGradient id="radialGradient1133" cx="127.94" cy="200.07" r="8" gradientTransform="matrix(1.3757 0 0 1.3757 -47.997 -75.472)" gradientUnits="userSpaceOnUse">
   <stop id="stop1231" style="stop-color:#949390" offset="0"/>
   <stop id="stop1233" style="stop-color:#424048" offset="1"/>
  </radialGradient>
  <linearGradient id="linearGradient9681" x1="298.66" x2="328.1" y1="125.79" y2="70.897" gradientTransform="matrix(.25 0 0 .25 -1e-5 225)" gradientUnits="userSpaceOnUse">
   <stop id="stop10228" style="stop-color:#47454b" offset="0"/>
   <stop id="stop10230" style="stop-color:#dfdee0" offset="1"/>
  </linearGradient>
  <radialGradient id="radialGradient10249" cx="62.562" cy="221.95" r="36.044" gradientTransform="matrix(.59826 .63515 -.11523 .10854 50.709 158.17)" gradientUnits="userSpaceOnUse">
   <stop id="stop10243" style="stop-color:#010101" offset="0"/>
   <stop id="stop10245" style="stop-color:#010101;stop-opacity:0" offset="1"/>
  </radialGradient>
 </defs>
 <metadata id="metadata4">
  <rdf:RDF>
   <cc:Work rdf:about="">
    <dc:format>image/svg+xml</dc:format>
    <dc:type rdf:resource="http://purl.org/dc/dcmitype/StillImage"/>
    <dc:creator>
     <cc:Agent>
      <dc:title>GNOME Design Team</dc:title>
     </cc:Agent>
    </dc:creator>
    <dc:source/>
    <cc:license rdf:resource="http://creativecommons.org/licenses/by-sa/4.0/"/>
    <dc:title>Adwaita Icon Template</dc:title>
    <dc:subject>
     <rdf:Bag/>
    </dc:subject>
    <dc:date/>
    <dc:rights>
     <cc:Agent>
      <dc:title/>
     </cc:Agent>
    </dc:rights>
    <dc:publisher>
     <cc:Agent>
      <dc:title/>
     </cc:Agent>
    </dc:publisher>
    <dc:identifier/>
    <dc:relation/>
    <dc:language/>
    <dc:coverage/>
    <dc:description/>
    <dc:contributor>
     <cc:Agent>
      <dc:title/>
     </cc:Agent>
    </dc:contributor>
   </cc:Work>
   <cc:License rdf:about="http://creativecommons.org/licenses/by-sa/4.0/">
    <cc:permits rdf:resource="http://creativecommons.org/ns#Reproduction"/>
    <cc:permits rdf:resource="http://creativecommons.org/ns#Distribution"/>
    <cc:requires rdf:resource="http://creativecommons.org/ns#Notice"/>
    <cc:requires rdf:resource="http://creativecommons.org/ns#Attribution"/>
    <cc:permits rdf:resource="http://creativecommons.org/ns#DerivativeWorks"/>
    <cc:requires rdf:resource="http://creativecommons.org/ns#ShareAlike"/>
   </cc:License>
  </rdf:RDF>
 </metadata>
 <g id="layer1" transform="translate(0,-172)">
  <g id="layer9">
   <circle id="path907" cx="32.5" cy="172" r="0" style="fill:#ac1d2e;opacity:.05;paint-order:normal"/>
   <rect id="rect1480-3-7-1-2" x="24" y="222" width="80" height="70" rx="8" ry="8" style="enable-background:new;fill:url(#linearGradient1121);paint-order:normal"/>
   <rect id="rect1480-3-7-1" x="24" y="216" width="80" height="70" rx="8" ry="8" style="enable-background:new;fill:url(#linearGradient1444-3-9);paint-order:normal"/>
   <rect id="rect1480-6-7" x="24" y="180" width="80" height="104" rx="8" ry="8.4571" style="enable-background:new;fill:url(#linearGradient1284);paint-order:normal"/>
   <g id="g1036" transform="matrix(.25 0 0 .25 -1e-5 225)" style="enable-background:new">
    <circle id="path1137-3" cx="128" cy="204" r="16" style="enable-background:new;fill:url(#radialGradient1131);paint-order:normal"/>
    <circle id="path1137" cx="128" cy="204" r="8" style="fill:url(#radialGradient1133);paint-order:normal"/>
   </g>
   <path id="path905" d="m42 184c-2.216 0-4 1.784-4 4 0 3.3137-2.6863 6-6 6-2.216 0-4 1.784-4 4v8c0 2.216 1.784 4 4 4 3.3137 0 6 2.6863 6 6-3e-3 1.4772-0.55015 2.9014-1.5376 4-5.9222 6.5926-8.4482 15.138-8.4624 24 0 19.882 16.118 36 36 36s36-16.118 36-36c-0.0159-8.8628-2.5389-17.408-8.4634-24-0.98709-1.0988-1.5342-2.523-1.5366-4 0-3.3137 2.6863-6 6-6 2.216 0 4-1.784 4-4v-8c0-2.216-1.784-4-4-4-3.3137 0-6-2.6863-6-6 0-2.216-1.784-4-4-4zm22 56a6 6 0 0 1 6 6 6 6 0 0 1-6 6 6 6 0 0 1-6-6 6 6 0 0 1 6-6z" style="enable-background:new;fill:#9a9996;paint-order:normal"/>
   <path id="path905-2" d="m42 182c-2.216 0-4 1.784-4 4 0 3.3137-2.6863 6-6 6-2.216 0-4 1.784-4 4v8c0 2.216 1.784 4 4 4 3.3137 0 6 2.6863 6 6-3e-3 1.4772-0.55015 2.9014-1.5376 4-5.9222 6.5926-8.4482 15.138-8.4624 24 0 19.882 16.118 36 36 36s36-16.118 36-36c-0.0159-8.8628-2.5389-17.408-8.4634-24-0.98709-1.0988-1.5342-2.523-1.5366-4 0-3.3137 2.6863-6 6-6 2.216 0 4-1.784 4-4v-8c0-2.216-1.784-4-4-4-3.3137 0-6-2.6863-6-6 0-2.216-1.784-4-4-4zm22 56a6 6 0 0 1 6 6 6 6 0 0 1-6 6 6 6 0 0 1-6-6 6 6 0 0 1 6-6z" style="enable-background:new;fill:url(#linearGradient1057);paint-order:normal"/>
   <use id="use1038" transform="translate(64)" width="100%" height="100%" style="enable-background:new" xlink:href="#g1036"/>
   <path id="path10234" transform="translate(0,172)" d="m61.398 42.943c-2.3977 0-4.683 0.54876-6.7617 1.2715a0.92705 0.92705 0 0 0-0.34961 1.5312l10.646 10.619c1.8405 1.8355 1.8406 4.6839 0 6.5195l-4.0137 4.0039c-1.8404 1.8353-4.7065 1.8353-6.5469 0l-10.648-10.619a0.92705 0.92705 0 0 0-1.5293 0.34961c-0.72494 2.0734-1.2754 4.3555-1.2754 6.748 0 11.27 9.1813 20.426 20.479 20.426 2.1853 0 4.258-0.48367 6.1855-1.1113l28.621 28.605c0.23462 0.23462 0.4741 0.44444 0.71289 0.6543 3.996-0.47904 7.082-4.0419 7.082-8.3984v-10.789l-23.234-23.219c0.62901-1.9221 1.1113-3.9891 1.1113-6.168 0-11.27-9.1814-20.424-20.479-20.424z" style="color:#000000;enable-background:accumulate;opacity:.1;text-decoration-line:none;text-indent:0;text-transform:none"/>
   <path id="path9673" d="m61.398 209.95c-2.55 0-4.9421 0.58013-7.0879 1.3262a1.9221 1.9221 0 0 0-0.72656 3.1758l10.646 10.619c1.4674 1.4633 1.4674 3.6459 0 5.1094l-4.0137 4.0039c-1.467 1.4629-3.6736 1.4629-5.1406 0l-10.648-10.619a1.9221 1.9221 0 0 0-3.1719 0.72657c-0.74851 2.1408-1.3301 4.5304-1.3301 7.0762 0 11.81 9.6391 21.42 21.473 21.42 2.0986 0 4.0527-0.43747 5.8887-0.99219l28.215 28.195c5.2373 5.2373 11.93 4.6845 15.596 1.0254 3.6657-3.6591 4.2486-10.328-0.83204-15.408l-28.387-28.367c0.55573-1.8313 0.99219-3.7804 0.99219-5.873 0-11.81-9.6393-21.418-21.473-21.418z" style="color:#000000;enable-background:accumulate;fill:url(#linearGradient9681);text-decoration-line:none;text-indent:0;text-transform:none"/>
   <use id="use1038-9" transform="translate(64,-60)" width="100%" height="100%" style="enable-background:new" xlink:href="#g1036"/>
   <use id="use1038-7" transform="translate(64,-88)" width="100%" height="100%" style="enable-background:new" xlink:href="#g1036"/>
   <use id="use1038-2" transform="translate(0,-88)" width="100%" height="100%" style="enable-background:new" xlink:href="#g1036"/>
   <use id="use1038-3" transform="translate(0,-60)" width="100%" height="100%" style="enable-background:new" xlink:href="#g1036"/>
   <path id="path10241" d="m61.398 209.85c-2.5653 0-4.9686 0.58169-7.1211 1.3301a2.0223 2.0223 0 0 0-0.76367 3.3418l10.646 10.619c1.4298 1.4259 1.4299 3.5428 0 4.9688l-4.0137 4.0039c-1.4294 1.4255-3.5706 1.4255-5 0l-10.648-10.619a2.0223 2.0223 0 0 0-3.3359 0.76367c-0.75088 2.1476-1.3359 4.5482-1.3359 7.1094 0 11.864 9.6848 21.52 21.572 21.52 2.0903 0 4.0337-0.4324 5.8613-0.98047l28.172 28.154c5.2673 5.2673 12.036 4.7228 15.738 1.0273s4.2779-10.439-0.83398-15.551l-28.346-28.326c0.54872-1.8224 0.98047-3.7602 0.98047-5.8438 0-11.864-9.685-21.518-21.572-21.518z" style="color:#000000;enable-background:accumulate;fill:url(#radialGradient10249);opacity:.58;text-decoration-line:none;text-indent:0;text-transform:none"/>
   <path id="path2141" d="m61.399 211.87c-2.2559 0-4.4425 0.51766-6.4587 1.2187l10.648 10.619c2.1882 2.1822 2.1882 5.6514 0 7.8336l-4.0149 4.0039c-2.1882 2.1822-5.667 2.1822-7.8552 0l-10.648-10.619c-0.70299 2.0106-1.2219 4.1912-1.2219 6.441 0 10.768 8.7532 19.497 19.551 19.497 2.2559 0 4.4425-0.51766 6.4588-1.2186l29.003 28.985c9.3224 9.3224 21.008-2.7004 12.045-11.663l-29.177-29.159c0.70298-2.0106 1.2219-4.1912 1.2219-6.441 0-10.768-8.7532-19.497-19.551-19.497z" style="color:#000000;enable-background:accumulate;fill:url(#linearGradient2155);text-decoration-line:none;text-indent:0;text-transform:none"/>
  </g>
 </g>
</svg>
