<?xml version="1.0" encoding="UTF-8"?>
<!-- Created with Inkscape (http://www.inkscape.org/) -->
<svg id="svg2" width="48" height="48" version="1.0" xmlns="http://www.w3.org/2000/svg" xmlns:xlink="http://www.w3.org/1999/xlink">
 <defs id="defs4">
  <linearGradient id="linearGradient14414">
   <stop id="stop14422" style="stop-color:#fff" offset="0"/>
   <stop id="stop14418" style="stop-color:#fff;stop-opacity:0" offset="1"/>
  </linearGradient>
  <radialGradient id="radialGradient6101" cx="24.5" cy="12.5" r="2.5" gradientTransform="matrix(1.1784 0 0 1.2065 -18.371 8.4183)" gradientUnits="userSpaceOnUse" xlink:href="#linearGradient14414"/>
  <radialGradient id="radialGradient6103" cx="24.5" cy="12.5" r="2.5" gradientTransform="matrix(1.1784 0 0 1.2065 -15.371 -3.5817)" gradientUnits="userSpaceOnUse" xlink:href="#linearGradient14414"/>
  <radialGradient id="radialGradient6105" cx="24.5" cy="12.5" r="2.5" gradientTransform="matrix(1.1784 0 0 1.2065 -9.3708 3.4183)" gradientUnits="userSpaceOnUse" xlink:href="#linearGradient14414"/>
  <radialGradient id="radialGradient6107" cx="24.5" cy="12.5" r="2.5" gradientTransform="matrix(1.1784 0 0 1.2065 -1.3708 -1.1159)" gradientUnits="userSpaceOnUse" xlink:href="#linearGradient14414"/>
  <linearGradient id="linearGradient6112" x1="12.938" x2="15.25" y1="8.4375" y2="19.812" gradientTransform="matrix(.90476 0 0 1.2 2.2857 2.4)" gradientUnits="userSpaceOnUse">
   <stop id="stop6594" style="stop-color:#fff;stop-opacity:.27451" offset="0"/>
   <stop id="stop6596" style="stop-color:#fff;stop-opacity:0" offset="1"/>
  </linearGradient>
  <radialGradient id="radialGradient6121" cx="12.244" cy="4.8631" r="21" gradientTransform="matrix(1.3156 .019277 -.012249 1.0776 -3.2306 6.0779)" gradientUnits="userSpaceOnUse">
   <stop id="stop6714" style="stop-color:#243b53" offset="0"/>
   <stop id="stop6716" style="stop-color:#121d29" offset="1"/>
  </radialGradient>
  <linearGradient id="linearGradient6123" x1="24.875" x2="25" y1="29" y2="3" gradientTransform="matrix(.95121 0 0 1.08 1.171 1.7202)" gradientUnits="userSpaceOnUse">
   <stop id="stop6720" style="stop-color:#0c131b" offset="0"/>
   <stop id="stop6722" style="stop-color:#243b53" offset="1"/>
  </linearGradient>
  <radialGradient id="radialGradient6126" cx="1" cy="5.5643" r="23" gradientTransform="matrix(.95555 0 0 .69715 1.0668 7.8457)" gradientUnits="userSpaceOnUse" xlink:href="#linearGradient14414"/>
  <linearGradient id="linearGradient6129" x1="20.147" x2="20.104" y1="-.0004971" y2="31.983" gradientTransform="matrix(.959 0 0 1.0656 .98368 1.9503)" gradientUnits="userSpaceOnUse">
   <stop id="stop6546" style="stop-color:#f0f0f0" offset="0"/>
   <stop id="stop6548" style="stop-color:#d2d2d2" offset="1"/>
  </linearGradient>
  <radialGradient id="radialGradient6132" cx="24" cy="38.641" r="8" gradientTransform="matrix(1.8286 -3.144e-8 0 .43815 -19.887 26.069)" gradientUnits="userSpaceOnUse" xlink:href="#linearGradient14414"/>
  <linearGradient id="linearGradient6135" x1="320.28" x2="320.28" y1="86.913" y2="93.38" gradientTransform="matrix(.99641 0 0 1.0001 -294.88 -51.013)" gradientUnits="userSpaceOnUse">
   <stop id="stop6622" style="stop-color:#787878" offset="0"/>
   <stop id="stop6624" style="stop-color:#bebebe" offset=".35047"/>
   <stop id="stop6626" style="stop-color:#c8c8c8" offset=".58327"/>
   <stop id="stop6628" style="stop-color:#e6e6e6" offset=".7227"/>
   <stop id="stop6630" style="stop-color:#8c8c8c" offset="1"/>
  </linearGradient>
  <linearGradient id="linearGradient6137" x1="21.718" x2="21.686" y1="35.909" y2="42.361" gradientUnits="userSpaceOnUse">
   <stop id="stop6734" style="stop-color:#505050" offset="0"/>
   <stop id="stop6736" style="stop-color:#a0a0a0" offset=".35047"/>
   <stop id="stop6738" style="stop-color:#aaa" offset=".58327"/>
   <stop id="stop6740" style="stop-color:#bebebe" offset=".7227"/>
   <stop id="stop6742" style="stop-color:#6e6e6e" offset="1"/>
  </linearGradient>
  <radialGradient id="radialGradient6140" cx="6.7027" cy="73.616" r="7.2284" gradientTransform="matrix(1.9368 0 0 .41503 11.018 12.447)" gradientUnits="userSpaceOnUse">
   <stop id="stop10693" offset="0"/>
   <stop id="stop10695" style="stop-opacity:0" offset="1"/>
  </radialGradient>
 </defs>
 <g id="g6912">
  <path id="path2589" d="m38 43c0 1.6569-6.268 3-14 3-7.732 0-14-1.3431-14-3 0-1.6569 6.268-3 14-3 7.732 0 14 1.3431 14 3z" style="fill:url(#radialGradient6140);opacity:.5"/>
  <path id="path4675" d="m18.489 31.499v7.001c-0.02202 1.8022-1.8685 3.0004-1.8685 3.0004-0.74866 0.08844-1.121 0.44607-1.121 1.0002s0.50401 1.0001 1.121 1.0001h14.76c0.61695 0 1.121-0.44606 1.121-1.0001s-0.3723-0.91171-1.121-1.0002c0 0-1.8465-1.1982-1.8685-3.0004v-7.001h-11.023z" style="enable-background:new;fill:url(#linearGradient6135);stroke-dashoffset:.5;stroke-linecap:round;stroke-linejoin:round;stroke-width:.99827;stroke:url(#linearGradient6137)"/>
  <rect id="rect4703" x="16" y="42" width="16" height="1" rx=".44444" ry=".5" style="enable-background:new;fill:url(#radialGradient6132);opacity:.8"/>
  <rect id="rect2722" x="1.5001" y="2.5001" width="45" height="33" rx="1" ry="1" style="fill:url(#linearGradient6129);stroke-dashoffset:.5;stroke-linecap:round;stroke-linejoin:round;stroke-width:1.0002;stroke:#aaa"/>
  <rect id="rect4642" x="2.5001" y="3.5001" width="43" height="31" rx="0" ry="0" style="enable-background:new;fill:none;stroke-dashoffset:.5;stroke-linecap:round;stroke-linejoin:round;stroke-width:1.0003;stroke:url(#radialGradient6126)"/>
  <rect id="rect2716" x="4.5002" y="5.5002" width="39" height="27" style="enable-background:new;fill-rule:evenodd;fill:url(#radialGradient6121);stroke-width:1.0004;stroke:url(#linearGradient6123)"/>
  <g id="g6063">
   <path id="path18918" d="m10.506 20-0.50567 3-3 0.42369 3 0.57631 0.54986 3 0.45014-3 3-0.46582-3-0.53418-0.49433-3z" style="fill-rule:evenodd;fill:url(#radialGradient6101)"/>
   <path id="path23408" d="m36.924 13.443c0.42447 1.0181 0.64726 2.145 0.64726 3.3195 0 4.6979-3.7519 8.5061-8.3803 8.5061-1.3517 0-2.6162-0.32154-3.7473-0.89902 1.2734 3.0542 4.2618 5.1867 7.733 5.1867 4.6283 0 8.3803-3.8083 8.3803-8.5061 0-3.3258-1.8911-6.2073-4.633-7.6071z" style="fill:#eeeeec;opacity:.7;stroke-linejoin:round;stroke-opacity:.28962;stroke-width:.88674;stroke:#fff"/>
   <path id="path6044" d="m13.506 8-0.50567 3-3 0.42369 3 0.57631 0.54986 3 0.45014-3 3-0.46582-3-0.53418-0.49433-3z" style="fill-rule:evenodd;fill:url(#radialGradient6103)"/>
   <path id="path6048" d="m19.506 15-0.50567 3-3 0.42369 3 0.57631 0.54986 3 0.45014-3 3-0.46582-3-0.53418-0.49433-3z" style="fill-rule:evenodd;fill:url(#radialGradient6105)"/>
   <path id="path6052" d="m27.506 10.466-0.50567 3-3 0.42369 3 0.57631 0.54986 3 0.45014-3 3-0.46582-3-0.53418-0.49433-3z" style="fill-rule:evenodd;fill:url(#radialGradient6107)"/>
  </g>
  <path id="rect6588" d="m5 6h38v9.6l-38 8.4v-18z" style="fill:url(#linearGradient6112)"/>
 </g>
</svg>
