<?xml version="1.0" encoding="UTF-8" standalone="no"?>
<svg
   xmlns:dc="http://purl.org/dc/elements/1.1/"
   xmlns:cc="http://creativecommons.org/ns#"
   xmlns:rdf="http://www.w3.org/1999/02/22-rdf-syntax-ns#"
   xmlns:svg="http://www.w3.org/2000/svg"
   xmlns="http://www.w3.org/2000/svg"
   xmlns:xlink="http://www.w3.org/1999/xlink"
   version="1.1"
   width="48"
   height="48"
   id="svg4031">
  <defs
     id="defs4033">
    <linearGradient
       id="linearGradient3820-7-2-1">
      <stop
         id="stop3822-2-6-3"
         style="stop-color:#3d3d3d;stop-opacity:1"
         offset="0" />
      <stop
         id="stop3864-8-7-7"
         style="stop-color:#686868;stop-opacity:0.49803922"
         offset="0.5" />
      <stop
         id="stop3824-1-2-5"
         style="stop-color:#686868;stop-opacity:0"
         offset="1" />
    </linearGradient>
    <radialGradient
       cx="99.157013"
       cy="186.17059"
       r="62.769119"
       fx="99.157013"
       fy="186.17059"
       id="radialGradient3018"
       xlink:href="#linearGradient3820-7-2-1"
       gradientUnits="userSpaceOnUse"
       gradientTransform="matrix(0.27083381,0,0,0.08762273,-2.855072,25.187228)" />
    <linearGradient
       id="linearGradient4011-7">
      <stop
         id="stop4013-4"
         style="stop-color:#ffffff;stop-opacity:1"
         offset="0" />
      <stop
         id="stop4015-61"
         style="stop-color:#ffffff;stop-opacity:0.23529412"
         offset="0.507761" />
      <stop
         id="stop4017-2"
         style="stop-color:#ffffff;stop-opacity:0.15686275"
         offset="0.83456558" />
      <stop
         id="stop4019-2"
         style="stop-color:#ffffff;stop-opacity:0.39215687"
         offset="1" />
    </linearGradient>
    <linearGradient
       id="linearGradient8838-4">
      <stop
         id="stop8840-4"
         style="stop-color:#000000;stop-opacity:1"
         offset="0" />
      <stop
         id="stop8842-8"
         style="stop-color:#000000;stop-opacity:0"
         offset="1" />
    </linearGradient>
    <linearGradient
       x1="71.204407"
       y1="7.8309216"
       x2="71.204407"
       y2="42.883553"
       id="linearGradient3741"
       xlink:href="#linearGradient4011-7"
       gradientUnits="userSpaceOnUse"
       gradientTransform="matrix(0.5135135,0,0,0.5135135,-0.836132,22.978716)" />
    <radialGradient
       cx="62.625"
       cy="4.625"
       r="10.625"
       fx="62.625"
       fy="4.625"
       id="radialGradient3748"
       xlink:href="#linearGradient8838-4"
       gradientUnits="userSpaceOnUse"
       gradientTransform="matrix(1.1294118,0,0,0.2823525,-34.729414,43.694118)" />
    <linearGradient
       id="linearGradient4632-92-3-0-8-1-6-6">
      <stop
         id="stop4634-68-8-0-2-9-1-1"
         style="stop-color:#fafafa;stop-opacity:1"
         offset="0" />
      <stop
         id="stop4636-8-21-7-1-4-9-4"
         style="stop-color:#e1e1e1;stop-opacity:1"
         offset="1" />
    </linearGradient>
    <radialGradient
       r="19.99999"
       fy="8.4497671"
       fx="6.2751122"
       cy="8.4497671"
       cx="6.2751122"
       gradientTransform="matrix(0,1.2189437,-1.289497,-3.3177771e-8,46.896006,18.350992)"
       gradientUnits="userSpaceOnUse"
       id="radialGradient3398"
       xlink:href="#linearGradient4632-92-3-0-8-1-6-6" />
    <linearGradient
       y2="5.1757793"
       x2="-95.837799"
       y1="54.199703"
       x1="-95.837799"
       gradientTransform="matrix(0.80749834,0,0,0.83374395,113.01159,-2.35899)"
       gradientUnits="userSpaceOnUse"
       id="linearGradient4200-6"
       xlink:href="#linearGradient3104-8-8-97-4-6-2-0-1-4-0-5-8-3-9-1" />
    <linearGradient
       id="linearGradient3104-8-8-97-4-6-2-0-1-4-0-5-8-3-9-1">
      <stop
         id="stop3106-5-4-3-5-0-1-61-9-2-7-3-3-2-6-9"
         style="stop-color:#000000;stop-opacity:0.32173914"
         offset="0" />
      <stop
         id="stop3108-4-3-7-8-2-4-01-9-9-0-6-4-3-7-7"
         style="stop-color:#000000;stop-opacity:0.27826086"
         offset="1" />
    </linearGradient>
    <linearGradient
       id="linearGradient4011-8">
      <stop
         offset="0"
         style="stop-color:#ffffff;stop-opacity:1"
         id="stop4013-9" />
      <stop
         offset="0.507761"
         style="stop-color:#ffffff;stop-opacity:0.23529412"
         id="stop4015-2" />
      <stop
         offset="0.83456558"
         style="stop-color:#ffffff;stop-opacity:0.15686275"
         id="stop4017-28" />
      <stop
         offset="1"
         style="stop-color:#ffffff;stop-opacity:0.39215687"
         id="stop4019-23" />
    </linearGradient>
    <linearGradient
       xlink:href="#linearGradient4011-8"
       id="linearGradient3540"
       gradientUnits="userSpaceOnUse"
       gradientTransform="matrix(1.054054,0,0,1.054054,-51.611004,-2.7279013)"
       x1="71.204407"
       y1="6.2375584"
       x2="71.204407"
       y2="44.340794" />
    <radialGradient
       xlink:href="#radialGradient2444"
       id="radialGradient3543"
       gradientUnits="userSpaceOnUse"
       gradientTransform="matrix(0,3.3289417,-3.5216229,-9.060867e-8,53.757011,-15.987738)"
       cx="1.4009665"
       cy="8.5012016"
       fx="1.4009665"
       fy="8.5012016"
       r="19.99999" />
    <radialGradient
       id="radialGradient2444"
       gradientUnits="userSpaceOnUse"
       cy="14.113"
       cx="63.969002"
       gradientTransform="matrix(1.5647,-9.5143e-8,6.1772e-8,1.0159,-59.14917,8.1461003)"
       r="23.097">
      <stop
         id="stop3618"
         style="stop-color:#ADC980"
         offset="0" />
      <stop
         id="stop3270"
         style="stop-color:#87A556"
         offset="0.6875183" />
      <stop
         id="stop3620"
         style="stop-color:#688933"
         offset="1" />
    </radialGradient>
  </defs>
  <metadata
     id="metadata4036">
    <rdf:RDF>
      <cc:Work
         rdf:about="">
        <dc:format>image/svg+xml</dc:format>
        <dc:type
           rdf:resource="http://purl.org/dc/dcmitype/StillImage" />
        <dc:title />
      </cc:Work>
    </rdf:RDF>
  </metadata>
  <path
     d="m 40.999999,41.499999 a 17,5.4999999 0 1 1 -33.999999,0 17,5.4999999 0 1 1 33.999999,0 z"
     id="path3818-0-5"
     style="fill:url(#radialGradient3018);fill-opacity:1;stroke:none" />
  <path
     d="M 24.000003,3.4999978 C 12.68881,3.4999978 3.5,12.688804 3.5,23.999998 3.5,35.311192 12.68881,44.500003 24.000003,44.5 35.311191,44.5 44.500011,35.311192 44.5,23.999998 44.5,12.688804 35.311191,3.4999978 24.000003,3.4999978 z"
     id="path2555"
     style="color:#000000;fill:url(#radialGradient3543);fill-opacity:1;fill-rule:nonzero;stroke:none;stroke-width:1;marker:none;visibility:visible;display:inline;overflow:visible;enable-background:accumulate" />
  <path
     d="m 43.5,23.999308 c 0,10.7699 -8.73109,19.50069 -19.499753,19.50069 C 13.230598,43.499998 4.5,34.769109 4.5,23.999308 4.5,13.229906 13.230598,4.4999998 24.000247,4.4999998 34.76891,4.4999998 43.5,13.229906 43.5,23.999308 l 0,0 z"
     id="path8655-4"
     style="opacity:0.5;color:#000000;fill:none;stroke:url(#linearGradient3540);stroke-width:1;stroke-linecap:round;stroke-linejoin:round;stroke-miterlimit:4;stroke-opacity:1;stroke-dasharray:none;stroke-dashoffset:0;marker:none;visibility:visible;display:inline;overflow:visible;enable-background:accumulate" />
  <path
     d="M 24.000003,3.4999976 C 12.68881,3.4999976 3.5,12.688804 3.5,23.999998 3.5,35.311192 12.68881,44.500003 24.000003,44.5 35.311191,44.5 44.500011,35.311192 44.5,23.999998 44.5,12.688804 35.311191,3.4999976 24.000003,3.4999976 z"
     id="path2555-6-0"
     style="opacity:0.3;color:#000000;fill:none;fill-opacity:1;fill-rule:nonzero;stroke:#000000;stroke-width:1;stroke-linecap:round;stroke-linejoin:round;stroke-miterlimit:4;stroke-opacity:1;stroke-dasharray:none;stroke-dashoffset:0;marker:none;visibility:visible;display:inline;overflow:visible;enable-background:accumulate;clip-rule:nonzero;isolation:auto;mix-blend-mode:normal;color-interpolation:sRGB;color-interpolation-filters:linearRGB;solid-color:#000000;solid-opacity:1;filter-blend-mode:normal;filter-gaussianBlur-deviation:0;color-rendering:auto;image-rendering:auto;shape-rendering:auto;text-rendering:auto" />
  <path
     d="m 27.453125,9.2128906 a 0.83100856,0.83100856 0 0 0 -0.857422,0.8300784 l -0.0098,9.414062 a 0.83100856,0.83100856 0 0 0 1.251953,0.714844 l 7.972656,-4.707031 a 0.83100856,0.83100856 0 0 0 0,-1.429688 L 27.847656,9.328125 A 0.83100856,0.83100856 0 0 0 27.453125,9.2128906 Z M 24,11.632812 c -5.499891,0 -10.239689,3.350805 -12.285156,8.119141 a 0.83100856,0.83100856 0 0 0 0.341797,1.042969 l 1.476562,0.871094 a 0.83100856,0.83100856 0 0 0 1.193359,-0.404297 C 16.19989,17.598951 19.785832,15.019531 24,15.019531 c 0.536418,0 1.063482,0.04862 1.583984,0.132813 a 0.83100856,0.83100856 0 0 0 0.962891,-0.820313 l 0,-1.74414 A 0.83100856,0.83100856 0 0 0 25.830078,11.765625 C 25.237122,11.683323 24.628601,11.632812 24,11.632812 Z m 0,4.261719 c -3.953504,0 -7.339238,2.550379 -8.585938,6.097657 a 0.83100856,0.83100856 0 0 0 0.359376,0.990234 l 1.529296,0.908203 A 0.83100856,0.83100856 0 0 0 18.525391,23.40625 C 19.211131,21.024587 21.377478,19.291014 24,19.291016 c 0.519115,0 1.019307,0.06837 1.494141,0.195312 a 0.83100856,0.83100856 0 0 0 1.044921,-0.802734 l 0,-1.771485 a 0.83100856,0.83100856 0 0 0 -0.658203,-0.8125 C 25.280762,15.972139 24.651359,15.894531 24,15.894531 Z M 34.080078,16.6875 a 0.83100856,0.83100856 0 0 0 -0.449219,0.115234 l -1.486328,0.88086 a 0.83100856,0.83100856 0 0 0 -0.234375,1.222656 c 1.297285,1.68397 2.070313,3.791859 2.070313,6.09375 0,2.346202 -0.801622,4.483592 -2.144531,6.183594 a 0.83100856,0.83100856 0 0 0 0.228515,1.230468 l 1.486328,0.88086 a 0.83100856,0.83100856 0 0 0 1.083985,-0.210938 C 36.34406,30.838867 37.367188,28.030383 37.367188,25 c 0,-2.98267 -0.984348,-5.750144 -2.646485,-7.978516 A 0.83100856,0.83100856 0 0 0 34.080078,16.6875 Z m -3.757812,2.197266 a 0.83100856,0.83100856 0 0 0 -0.398438,0.113281 l -1.503906,0.880859 a 0.83100856,0.83100856 0 0 0 -0.195313,1.275391 c 0.922507,1.014432 1.484376,2.35334 1.484375,3.845703 0,1.535013 -0.595908,2.900604 -1.568359,3.921875 a 0.83100856,0.83100856 0 0 0 0.179687,1.287109 l 1.521485,0.898438 a 0.83100856,0.83100856 0 0 0 1.050781,-0.171875 C 32.266588,29.340786 33.105469,27.258095 33.105469,25 c 0,-2.208765 -0.805932,-4.240638 -2.125,-5.818359 A 0.83100856,0.83100856 0 0 0 30.322266,18.884766 Z M 9.515625,19.462891 a 0.83100856,0.83100856 0 0 0 -0.8574219,0.830078 l -0.00977,9.414062 a 0.83100856,0.83100856 0 0 0 1.2519531,0.714844 l 7.9726564,-4.707031 a 0.83100856,0.83100856 0 0 0 0,-1.429688 L 9.9101562,19.578125 A 0.83100856,0.83100856 0 0 0 9.515625,19.462891 Z m 8.203125,6.53125 a 0.83100856,0.83100856 0 0 0 -0.412109,0.113281 l -1.529297,0.898437 a 0.83100856,0.83100856 0 0 0 -0.365235,0.992188 c 1.243926,3.551205 4.630989,6.107422 8.587891,6.107422 0.651354,0 1.280752,-0.0776 1.880859,-0.205078 a 0.83100856,0.83100856 0 0 0 0.658203,-0.8125 l 0,-1.779297 A 0.83100856,0.83100856 0 0 0 25.498047,30.505859 C 25.018401,30.631821 24.516862,30.701172 24,30.701172 c -2.623571,0 -4.78907,-1.728335 -5.474609,-4.107422 A 0.83100856,0.83100856 0 0 0 17.71875,25.994141 Z m -3.773438,2.224609 a 0.83100856,0.83100856 0 0 0 -0.412109,0.115234 l -1.476562,0.871094 a 0.83100856,0.83100856 0 0 0 -0.341797,1.042969 c 2.045467,4.768337 6.785265,8.119141 12.285156,8.119141 0.622886,0 1.228955,-0.05137 1.814453,-0.132813 a 0.83100856,0.83100856 0 0 0 0.714844,-0.822266 l 0,-1.734375 A 0.83100856,0.83100856 0 0 0 25.570312,34.857422 C 25.058396,34.938204 24.536735,34.980469 24,34.980469 c -4.214168,0 -7.80011,-2.579421 -9.273438,-6.242188 a 0.83100856,0.83100856 0 0 0 -0.78125,-0.519531 z m 13.498047,1.646484 a 0.83100856,0.83100856 0 0 0 -0.857421,0.830078 l -0.0078,9.404297 a 0.83100856,0.83100856 0 0 0 1.251953,0.714844 l 7.972656,-4.707031 a 0.83100856,0.83100856 0 0 0 0,-1.429688 l -7.964843,-4.697265 a 0.83100856,0.83100856 0 0 0 -0.394532,-0.115235 z"
     id="path4844"
     style="color:#000000;font-style:normal;font-variant:normal;font-weight:normal;font-stretch:normal;font-size:medium;line-height:normal;font-family:Sans;-inkscape-font-specification:Sans;text-indent:0;text-align:start;text-decoration:none;text-decoration-line:none;letter-spacing:normal;word-spacing:normal;text-transform:none;direction:ltr;block-progression:tb;writing-mode:lr-tb;baseline-shift:baseline;text-anchor:start;clip-rule:nonzero;display:inline;overflow:visible;visibility:visible;opacity:0.05;isolation:auto;mix-blend-mode:normal;color-interpolation:sRGB;color-interpolation-filters:linearRGB;solid-color:#000000;solid-opacity:1;fill:#000000;fill-opacity:1;fill-rule:nonzero;stroke:none;stroke-width:1;stroke-linecap:butt;stroke-linejoin:miter;stroke-miterlimit:4;stroke-dasharray:none;stroke-dashoffset:0;stroke-opacity:1;marker:none;color-rendering:auto;image-rendering:auto;shape-rendering:auto;text-rendering:auto;enable-background:accumulate" />
  <path
     id="path9-6"
     d="m 27.425781,10.04336 -0.0098,9.414062 7.972691,-4.707031 -7.962891,-4.707031 z M 24,12.463282 c -5.162284,0 -9.603557,3.146169 -11.521484,7.617187 l 1.476562,0.871094 C 15.552577,16.9801 19.446395,14.189844 24,14.189844 c 0.585747,0 1.157807,0.05216 1.716797,0.142578 l 0,-1.74414 C 25.154704,12.510264 24.58404,12.463282 24,12.463282 Z M 24,16.725 c -3.595806,0 -6.670678,2.321892 -7.802734,5.542969 l 1.529296,0.908203 C 18.512179,20.447621 21.009538,18.461328 24,18.461329 c 0.59129,0 1.164315,0.07704 1.708984,0.222656 l 0,-1.771485 C 25.157073,16.795265 24.584801,16.725 24,16.725 Z m 10.054688,0.792969 -1.486329,0.88086 c 1.405067,1.823879 2.242188,4.113306 2.242188,6.601562 0,2.535883 -0.868323,4.858659 -2.322266,6.699219 l 1.486328,0.880859 c 1.604085,-2.106927 2.5625,-4.736395 2.5625,-7.580078 0,-2.800045 -0.923114,-5.391911 -2.482421,-7.482422 z m -3.710938,2.197266 -1.503906,0.880859 c 1.055761,1.160965 1.699219,2.702484 1.699218,4.404297 0,1.751556 -0.684695,3.326128 -1.796874,4.494141 l 1.521484,0.898437 c 1.250158,-1.45101 2.011719,-3.340015 2.011719,-5.392578 0,-2.007216 -0.730304,-3.848252 -1.931641,-5.285156 z M 9.4882812,20.29336 9.4785156,29.707422 17.451172,25.000391 9.4882812,20.29336 Z m 8.2382808,6.53125 -1.529296,0.898437 c 1.129663,3.225003 4.204153,5.552735 7.802734,5.552735 0.584801,0 1.157073,-0.07026 1.708984,-0.1875 l 0,-1.779297 C 25.16417,31.452061 24.591402,31.531641 24,31.531641 c -2.990462,0 -5.48782,-1.980633 -6.273438,-4.707031 z m -3.771484,2.224609 -1.476562,0.871094 C 14.396443,34.391332 18.837716,37.5375 24,37.5375 c 0.577047,0 1.143855,-0.04775 1.699219,-0.125 l 0,-1.734375 c -0.55411,0.08744 -1.119154,0.132813 -1.699219,0.132813 -4.553605,0 -8.447423,-2.790257 -10.044922,-6.761719 z m 13.460938,1.646484 -0.0078,9.404297 7.972656,-4.707031 -7.964843,-4.697266 z"
     style="color:#000000;font-style:normal;font-variant:normal;font-weight:normal;font-stretch:normal;font-size:medium;line-height:normal;font-family:Sans;-inkscape-font-specification:Sans;text-indent:0;text-align:start;text-decoration:none;text-decoration-line:none;letter-spacing:normal;word-spacing:normal;text-transform:none;direction:ltr;block-progression:tb;writing-mode:lr-tb;baseline-shift:baseline;text-anchor:start;display:inline;overflow:visible;visibility:visible;fill:#000000;fill-opacity:1;stroke:none;stroke-width:1;marker:none;enable-background:accumulate;clip-rule:nonzero;opacity:0.15;isolation:auto;mix-blend-mode:normal;color-interpolation:sRGB;color-interpolation-filters:linearRGB;solid-color:#000000;solid-opacity:1;fill-rule:nonzero;stroke-linecap:butt;stroke-linejoin:miter;stroke-miterlimit:4;stroke-dasharray:none;stroke-dashoffset:0;stroke-opacity:1;filter-blend-mode:normal;filter-gaussianBlur-deviation:0;color-rendering:auto;image-rendering:auto;shape-rendering:auto;text-rendering:auto" />
  <path
     id="path9"
     d="M 27.425781 9.0429688 L 27.416016 18.457031 L 35.388672 13.75 L 27.425781 9.0429688 z M 24 11.462891 C 18.837716 11.462891 14.396443 14.60906 12.478516 19.080078 L 13.955078 19.951172 C 15.552577 15.979709 19.446395 13.189453 24 13.189453 C 24.585747 13.189453 25.157807 13.24161 25.716797 13.332031 L 25.716797 11.587891 C 25.154704 11.509873 24.58404 11.462891 24 11.462891 z M 24 15.724609 C 20.404194 15.724609 17.329322 18.046501 16.197266 21.267578 L 17.726562 22.175781 C 18.512179 19.44723 21.009538 17.460937 24 17.460938 C 24.59129 17.460938 25.164315 17.537975 25.708984 17.683594 L 25.708984 15.912109 C 25.157073 15.794874 24.584801 15.724609 24 15.724609 z M 34.054688 16.517578 L 32.568359 17.398438 C 33.973426 19.222317 34.810547 21.511744 34.810547 24 C 34.810547 26.535883 33.942224 28.858659 32.488281 30.699219 L 33.974609 31.580078 C 35.578694 29.473151 36.537109 26.843683 36.537109 24 C 36.537109 21.199955 35.613995 18.608089 34.054688 16.517578 z M 30.34375 18.714844 L 28.839844 19.595703 C 29.895605 20.756668 30.539063 22.298187 30.539062 24 C 30.539062 25.751556 29.854367 27.326128 28.742188 28.494141 L 30.263672 29.392578 C 31.51383 27.941568 32.275391 26.052563 32.275391 24 C 32.275391 21.992784 31.545087 20.151748 30.34375 18.714844 z M 9.4882812 19.292969 L 9.4785156 28.707031 L 17.451172 24 L 9.4882812 19.292969 z M 17.726562 25.824219 L 16.197266 26.722656 C 17.326929 29.947659 20.401419 32.275391 24 32.275391 C 24.584801 32.275391 25.157073 32.20513 25.708984 32.087891 L 25.708984 30.308594 C 25.16417 30.45167 24.591402 30.53125 24 30.53125 C 21.009538 30.53125 18.51218 28.550617 17.726562 25.824219 z M 13.955078 28.048828 L 12.478516 28.919922 C 14.396443 33.390941 18.837716 36.537109 24 36.537109 C 24.577047 36.537109 25.143855 36.489355 25.699219 36.412109 L 25.699219 34.677734 C 25.145109 34.765174 24.580065 34.810547 24 34.810547 C 19.446395 34.810547 15.552577 32.02029 13.955078 28.048828 z M 27.416016 29.695312 L 27.408203 39.099609 L 35.380859 34.392578 L 27.416016 29.695312 z "
     style="color:#000000;font-style:normal;font-variant:normal;font-weight:normal;font-stretch:normal;font-size:medium;line-height:normal;font-family:Sans;-inkscape-font-specification:Sans;text-indent:0;text-align:start;text-decoration:none;text-decoration-line:none;letter-spacing:normal;word-spacing:normal;text-transform:none;direction:ltr;block-progression:tb;writing-mode:lr-tb;baseline-shift:baseline;text-anchor:start;display:inline;overflow:visible;visibility:visible;fill:#ffffff;fill-opacity:1;stroke:none;stroke-width:1.17073166;marker:none;enable-background:accumulate" />
  <path
     d="m 48,45 c 0,1.656854 -5.372583,3 -12,3 -6.627417,0 -12,-1.343146 -12,-3 0,-1.656854 5.372583,-3 12,-3 6.627417,0 12,1.343146 12,3 l 0,0 z"
     id="path8836-2"
     style="opacity:0.3;fill:url(#radialGradient3748);fill-opacity:1;fill-rule:evenodd;stroke:none;stroke-width:0.99999988;marker:none;visibility:visible;display:inline;overflow:visible" />
  <path
     d="M 36.000001,25.5 C 30.206463,25.5 25.5,30.206461 25.5,36 c 0,5.793538 4.706463,10.500002 10.500001,10.5 C 41.793537,46.5 46.500005,41.793538 46.5,36 46.5,30.206461 41.793537,25.5 36.000001,25.5 z"
     id="path2555-6-4"
     style="opacity:0.80000000000000004;color:#000000;fill:none;fill-opacity:0;fill-rule:nonzero;stroke:url(#linearGradient4200-6);stroke-width:1;stroke-linecap:butt;stroke-linejoin:miter;stroke-miterlimit:4;stroke-opacity:1;stroke-dasharray:none;stroke-dashoffset:0;marker:none;visibility:visible;display:inline;overflow:visible;enable-background:accumulate" />
  <path
     d="M 36.000001,26 C 30.482346,26 26,30.482344 26,36 26,41.517655 30.482346,46.000002 36.000001,46 41.517654,46 46.000005,41.517655 46,36 46,30.482344 41.517654,26 36.000001,26 z"
     id="path2555-03"
     style="color:#000000;fill:url(#radialGradient3398);fill-opacity:1;fill-rule:nonzero;stroke:none;stroke-width:1;marker:none;visibility:visible;display:inline;overflow:visible;enable-background:accumulate" />
  <path
     d="M 31.522514,37 31.5,38 l 4.5,5 4.5,-5 -0.008,-1 z"
     id="rect3005-5-6"
     style="color:#000000;fill:#ffffff;fill-opacity:1;fill-rule:nonzero;stroke:none;stroke-width:1;marker:none;visibility:visible;display:inline;overflow:visible;enable-background:accumulate" />
  <path
     d="m 35,31 0,6 -3.5,0 4.5,5 4.5,-5 -3.5,0 0,-6 z"
     id="rect3005-5"
     style="color:#000000;fill:#87a556;fill-opacity:1;fill-rule:nonzero;stroke:none;stroke-width:1;marker:none;visibility:visible;display:inline;overflow:visible;enable-background:accumulate" />
  <path
     style="opacity:0.15;color:#000000;fill:#000000;fill-opacity:1;fill-rule:nonzero;stroke:none;stroke-width:1;marker:none;visibility:visible;display:inline;overflow:visible;enable-background:accumulate"
     d="m 35,31 0,1 2,0 0,-1 z m -3.5,6 0.903444,1 L 35,38 35,37 z m 5.5,0 0,1 2.607146,0 L 40.5,37 z"
     id="rect4305" />
  <path
     d="M 45.5,35.999663 C 45.5,41.246537 41.246391,45.5 36.000121,45.5 30.753368,45.5 26.5,41.246489 26.5,35.999663 c 0,-5.24663 4.253368,-9.499662 9.500121,-9.499662 5.24627,0 9.499879,4.253032 9.499879,9.499662 l 0,0 z"
     id="path8655-6-4"
     style="opacity:1;color:#000000;fill:none;stroke:url(#linearGradient3741);stroke-width:0.99999987999999995;stroke-linecap:round;stroke-linejoin:round;stroke-miterlimit:4;stroke-opacity:1;stroke-dasharray:none;stroke-dashoffset:0;marker:none;visibility:visible;display:inline;overflow:visible;enable-background:accumulate" />
</svg>
