<?xml version="1.0" encoding="UTF-8"?>
<!-- Created with Inkscape (http://www.inkscape.org/) -->
<svg id="svg3769" width="48" height="48" version="1.0" xmlns="http://www.w3.org/2000/svg" xmlns:xlink="http://www.w3.org/1999/xlink">
 <defs id="defs3771">
  <linearGradient id="linearGradient2605" x1="302.86" x2="302.86" y1="366.65" y2="609.51" gradientTransform="matrix(.065534 0 0 .024706 .31399 31.942)" gradientUnits="userSpaceOnUse">
   <stop id="stop5050-5" style="stop-opacity:0" offset="0"/>
   <stop id="stop5056-9" offset=".5"/>
   <stop id="stop5052-6" style="stop-opacity:0" offset="1"/>
  </linearGradient>
  <radialGradient id="radialGradient2602" cx="605.71" cy="486.65" r="117.14" gradientTransform="matrix(.065534 0 0 .024706 .32688 31.942)" gradientUnits="userSpaceOnUse" xlink:href="#linearGradient5060-6"/>
  <linearGradient id="linearGradient5060-6">
   <stop id="stop5062-3" offset="0"/>
   <stop id="stop5064-1" style="stop-opacity:0" offset="1"/>
  </linearGradient>
  <radialGradient id="radialGradient2599" cx="605.71" cy="486.65" r="117.14" gradientTransform="matrix(-.065534 0 0 .024706 47.673 31.942)" gradientUnits="userSpaceOnUse" xlink:href="#linearGradient5060-6"/>
  <linearGradient id="linearGradient2596" x1="10.014" x2="10.014" y1="44.96" y2="2.8765" gradientTransform="matrix(.95745 0 0 .90347 1.0212 4.3056)" gradientUnits="userSpaceOnUse">
   <stop id="stop4334" style="stop-color:#595959" offset="0"/>
   <stop id="stop4336" style="stop-color:#b3b3b3" offset="1"/>
  </linearGradient>
  <linearGradient id="linearGradient2594" x1="24" x2="24" y1="7.96" y2="43.865" gradientUnits="userSpaceOnUse">
   <stop id="stop4324" style="stop-color:#d8d8d8" offset="0"/>
   <stop id="stop2860" style="stop-color:#afafaf" offset=".085525"/>
   <stop id="stop2862" style="stop-color:#aaa" offset=".92166"/>
   <stop id="stop4326" style="stop-color:#8f8f8f" offset="1"/>
  </linearGradient>
  <radialGradient id="radialGradient2591" cx="16.352" cy="12.225" r="19.17" gradientTransform="matrix(0 .96364 -2.2356 0 48.282 6.3239)" gradientUnits="userSpaceOnUse">
   <stop id="stop4130" style="stop-color:#3d434a" offset="0"/>
   <stop id="stop4132" offset="1"/>
  </radialGradient>
  <linearGradient id="linearGradient2588" x1="23.071" x2="23.071" y1="36.047" y2="33.296" gradientTransform="matrix(.99105 0 0 1.0115 .2205 5.8121)" gradientUnits="userSpaceOnUse">
   <stop id="stop2225-6" style="stop-color:#fff" offset="0"/>
   <stop id="stop2229-2" style="stop-color:#fff;stop-opacity:0" offset="1"/>
  </linearGradient>
  <linearGradient id="linearGradient2582" x1="16.626" x2="20.055" y1="15.298" y2="24.628" gradientTransform="matrix(.95782 0 0 1.0183 1.0122 1.9221)" gradientUnits="userSpaceOnUse">
   <stop id="stop2687-1-9" style="stop-color:#fff" offset="0"/>
   <stop id="stop2689-5-4" style="stop-color:#fff;stop-opacity:0" offset="1"/>
  </linearGradient>
  <linearGradient id="linearGradient2579" x1="12.579" x2="12.579" y1="-7.8074" y2="41.827" gradientTransform="matrix(.95464 0 0 .89653 1.0875 5.3852)" gradientUnits="userSpaceOnUse">
   <stop id="stop2240-1-6" style="stop-color:#fff" offset="0"/>
   <stop id="stop2242-7-3" style="stop-color:#fff;stop-opacity:0" offset="1"/>
  </linearGradient>
  <filter id="filter3499" x="-.069845" y="-.15347" width="1.1397" height="1.3069" color-interpolation-filters="sRGB">
   <feGaussianBlur id="feGaussianBlur3501" stdDeviation="1.0231264"/>
  </filter>
 </defs>
 <g id="layer1">
  <rect id="rect2512" x="8.1781" y="41" width="31.644" height="6" style="fill:url(#linearGradient2605);opacity:.40206"/>
  <path id="path2514" d="m39.822 41v5.9997c3.3749 0.01129 8.1588-1.3442 8.1588-3.0002 0-1.656-3.7661-2.9994-8.1588-2.9994z" style="fill:url(#radialGradient2602);opacity:.40206"/>
  <path id="path2516" d="m8.1781 41v5.9997c-3.3749 0.01129-8.1588-1.3442-8.1588-3.0002 0-1.656 3.7661-2.9994 8.1588-2.9994z" style="fill:url(#radialGradient2599);opacity:.40206"/>
  <rect id="rect2551" x="1.5011" y="7.5011" width="44.998" height="36.998" rx="1.4989" ry="1.4989" style="fill-rule:evenodd;fill:url(#linearGradient2594);stroke-linecap:round;stroke-linejoin:round;stroke-width:1.0021;stroke:url(#linearGradient2596)"/>
  <rect id="rect1314" x="5.5011" y="11.501" width="36.998" height="28.998" rx="0" ry="0" style="fill-rule:evenodd;fill:url(#radialGradient2591);stroke-linecap:round;stroke-linejoin:round;stroke-width:1.0021;stroke:#1e1f1f"/>
  <rect id="rect2221" x="4.5011" y="10.501" width="38.998" height="30.998" rx="0" ry="0" style="fill:none;opacity:.4;stroke-linecap:round;stroke-linejoin:round;stroke-width:1.0021;stroke:url(#linearGradient2588)"/>
  <path id="path3333" d="m4.0952 8c-1.1573 0-2.0952 0.99713-2.0952 2.2275v16.293c0.0027 0.13706 0.05919 0.26668 0.15589 0.35738 0.09669 0.0907 0.2247 0.1342 0.35296 0.11994l43.102-7.2553c0.22172-0.03717 0.38602-0.23872 0.38912-0.47732v-9.0373c0-1.2304-0.93792-2.2275-2.0952-2.2275h-39.81z" style="fill-rule:evenodd;fill:url(#linearGradient2582);opacity:.2"/>
  <rect id="rect2556" x="2.5019" y="8.5019" width="42.996" height="34.996" rx=".49813" ry=".49813" style="fill:none;opacity:.4;stroke-linecap:round;stroke-linejoin:round;stroke-width:1.0037;stroke:url(#linearGradient2579)"/>
  <path id="path2233" d="m6.5 13.5h35" style="fill:none;opacity:.1;stroke-linecap:square;stroke-width:1px;stroke:#b9ffeb"/>
  <path id="path2235" d="m6.5 17.5h35" style="fill:none;opacity:.1;stroke-linecap:square;stroke-width:1px;stroke:#b9ffeb"/>
  <path id="path2237" d="m6.5 21.5h35" style="fill:none;opacity:.1;stroke-linecap:square;stroke-width:1px;stroke:#b9ffeb"/>
  <path id="path2239" d="m6.5 25.5h35" style="fill:none;opacity:.1;stroke-linecap:square;stroke-width:1px;stroke:#b9ffeb"/>
  <path id="path2241" d="m6.5 29.5h35" style="fill:none;opacity:.1;stroke-linecap:square;stroke-width:1px;stroke:#b9ffeb"/>
  <path id="path2243" d="m6.5 33.5h35" style="fill:none;opacity:.1;stroke-linecap:square;stroke-width:1px;stroke:#b9ffeb"/>
  <path id="path2245" d="m6.5 37.5h35" style="fill:none;opacity:.1;stroke-linecap:square;stroke-width:1px;stroke:#b9ffeb"/>
  <path id="path3497" d="m6.9276 27.5h6.5724l2-10 4 15 3-9 3 6 3-2h12.584" style="fill:none;filter:url(#filter3499);stroke-linecap:round;stroke-linejoin:round;stroke-width:2;stroke:#3a7d6b"/>
  <path id="path3477" d="m6.9276 27.5h6.5724l2-10 4 15 3-9 3 6 3-2h12.584" style="fill:none;stroke-linecap:round;stroke-linejoin:round;stroke-width:1px;stroke:#b9ffeb"/>
 </g>
</svg>
