<svg width="160" height="160" version="1.1" viewBox="0 0 42.333 42.333" xmlns="http://www.w3.org/2000/svg">
  <g transform="translate(0 -254.67)">
    <g transform="matrix(.26458 0 0 .26458 2.6667e-7 18.569)">
      <path d="m80 892.36c-44.184 0-80 35.814-80 79.979 0 44.144 35.816 80.023 80 80.023 44.183 0 80.002-35.808 80.002-79.977v-.0456c0-44.166-35.823-79.979-80.002-79.979zm13.368 21.672 31.077 18.363-31.112 18.363zm-13.368 9.442c2.2789 0 4.5082.18162 6.7016.48598v6.8038c-2.1811-.35213-4.416-.55542-6.7016-.55542-17.77 0-32.967 10.889-39.2 26.382l-5.764-3.4019c7.4845-17.443 24.818-29.715 44.964-29.715zm0 16.628c2.2822 0 4.5135.27132 6.6668.72897v6.9079c-2.1256-.56762-4.359-.86783-6.6668-.86783-11.67 0-21.412 7.7532-24.478 18.398l-5.9724-3.5408c4.4178-12.567 16.418-21.626 30.45-21.626zm39.235 3.0895c6.089 8.1556 9.6899 18.27 9.6899 29.194 0 11.095-3.7335 21.355-10 29.569l-5.8009-3.4322c5.6778-7.1792 9.0671-16.243 9.0671-26.137 0-9.7073-3.2678-18.641-8.7567-25.757zm-14.477 8.5742c4.689 5.6051 7.5327 12.788 7.5327 20.62 0 8.0078-2.9674 15.374-7.8452 21.036l-5.9376-3.5082c4.3378-4.5565 7.0162-10.694 7.0162-17.528 0-6.6393-2.512-12.653-6.6343-17.183zm-81.389 2.2564 31.077 18.363-31.112 18.361zm32.154 25.48c3.0656 10.637 12.808 18.366 24.478 18.366 2.3078 0 4.5413-.3103 6.6668-.8657v6.9405c-2.1534.4554-4.3846.7225-6.6668.7225-14.043 0-26.042-9.0757-30.45-21.659zm-14.723 8.6783c6.2334 15.497 21.43 26.382 39.2 26.382 2.2634 0 4.472-.1786 6.6343-.523v6.767c-2.1678.311-4.382.4882-6.6343.4882-20.146 0-37.48-12.276-44.964-29.715zm52.534 6.4219 31.079 18.326-31.112 18.363z" style="stroke-width:1.111"/>
    </g>
  </g>
</svg>
