<svg width="280" height="180" version="1.0" xmlns="http://www.w3.org/2000/svg" xmlns:xlink="http://www.w3.org/1999/xlink"><defs><filter id="filter5761" x="-.077636" y="-.41717" width="1.1553" height="1.8343"><feGaussianBlur stdDeviation="0.45085227"/></filter></defs><g transform="matrix(.14262 0 0 .14262 128.35 -18.806)"><g transform="translate(925.83 120.88)"><g transform="matrix(2.9149 0 0 2.9149 -717.59 128.5)" style="fill:#000000"><g style="fill:#000000"><path d="m86.068 0c-24.602 0-29.217 35.041-15.377 35.041 13.838 0 39.98-35.041 15.377-35.041z" style="fill:#000000"/><path d="m45.217 30.699c7.369.45 15.454-28.122 1.604-26.325-13.845 1.797-8.976 25.875-1.604 26.325z" style="fill:#000000"/><path d="m11.445 48.453c5.241-2.307.675-24.872-8.237-18.718-8.908 6.155 2.996 21.024 8.237 18.718z" style="fill:#000000"/><path d="m26.212 36.642c6.239-1.272 6.581-26.864-4.545-22.273-11.128 4.592-1.689 23.547 4.545 22.273z" style="fill:#000000"/><path d="m58.791 93.913c1.107 8.454-6.202 12.629-13.36 7.179-22.787-17.349 37.729-26.004 33.74-49.706-3.311-19.674-63.676-13.617-70.55 17.167-4.653 20.821 19.153 49.707 43.993 49.707 12.22 0 26.315-11.034 28.952-25.012 2.014-10.659-23.699-6.388-22.775.665z" style="fill:#000000"/></g></g></g></g><g transform="matrix(.93095 0 0 .93095 219.18 117.69)"><rect transform="matrix(2.0843 0 0 1.4766 .67927 15.488)" x="4.0312" y="18.969" width="13.938" height="2.5938" rx=".44989" ry=".63501" style="fill:#000000;filter:url(#filter5761);opacity:.24074"/><path d="m37.757 11.747s5.1406 5.0353 5.157 12.721c.01653 7.7518-5.3553 12.986-5.3553 12.986" style="fill:none;opacity:.19444;stroke-linecap:round;stroke-width:1px;stroke:#ffffff"/><path d="m30.616 16.915s3.6866 2.5011 3.6363 7.6855c-.04959 5.1182-3.6363 7.288-3.6363 7.288" style="fill:none;opacity:.18981;stroke-linecap:round;stroke-width:1px;stroke:#ffffff"/><path d="m3.0334 11.648 21.638 12.77-21.654 12.78z" style="fill-rule:evenodd;fill:#87a556;stroke-width:1px;stroke:#5a6943"/><path d="m4.0419 13.453 18.523 10.968-18.537 10.891z" style="fill:none;opacity:.18056;stroke-width:1px;stroke:#eeeeec"/><path d="m38.154 11.237s5.4271 5.4639 5.4271 13.249c0 7.8509-5.4271 13.182-5.4271 13.182" style="fill:none;opacity:.32407;stroke-linecap:round;stroke-width:1px;stroke:#ffffff"/><path d="m33.305 17.049s2.7797 2.8784 2.7797 7.2205c0 4.2759-2.515 7.2205-2.515 7.2205" style="fill:none;opacity:.32407;stroke-linecap:round;stroke-width:1px;stroke:#ffffff"/><path d="m44.983 24.546c0-11.316-9.17-20.5-20.469-20.5-6.5242 0-12.313 3.0771-16.062 7.8438l2.5625 1.625c3.1985-3.9148 8.0855-6.4062 13.531-6.4062 9.6255-1e-7 17.438 7.812 17.438 17.438s-7.812 17.438-17.438 17.438c-5.43 0-10.301-2.4797-13.5-6.375l-2.5625 1.625c3.7499 4.7469 9.5228 7.8125 16.031 7.8125 11.299 0 20.469-9.184 20.469-20.5z" style="fill:#87a556;stroke-linecap:round;stroke-linejoin:round;stroke:#5a6943"/><path d="m37.046 24.577c0-6.9172-5.614-12.531-12.531-12.531-3.6828 0-6.9878 1.5929-9.2812 4.125l2.6562 1.6562c1.7085-1.6874 4.0442-2.7188 6.625-2.7188 5.2267 0 9.4688 4.27 9.4688 9.5312 0 5.2613-4.242 9.5312-9.4688 9.5312-2.6289 1e-6-5.0025-1.0693-6.7188-2.8125l-2.5625 1.625c2.2934 2.5321 5.5985 4.125 9.2812 4.125 6.9172 0 12.531-5.614 12.531-12.531z" style="fill:#87a556;stroke-linecap:round;stroke-linejoin:round;stroke:#5a6943"/><path d="m10.045 37.421c3.5605 4.0718 8.3265 6.5625 14.453 6.5625 10.721 0 19.422-8.722 19.422-19.469 0-10.747-8.7012-19.469-19.422-19.469-6.1579 0-10.831 2.5142-14.453 6.6875" style="fill:none;opacity:.33333;stroke-linecap:round;stroke-linejoin:round;stroke:#eeeeec"/><path d="m16.827 33.202c2.1644 1.8985 4.3312 2.8437 7.625 2.8438 6.3652 0 11.531-5.152 11.531-11.5s-5.166-11.5-11.531-11.5c-3.3097 0-5.5527 1.2078-7.6562 3.125" style="fill:none;opacity:.33333;stroke-linecap:round;stroke-linejoin:round;stroke:#eeeeec"/></g><circle cx="21.86" cy="94.815" r="13.056" style="fill:#000000;paint-order:markers fill stroke"/><path d="m68.356 94.942 52.941 16.388" style="fill:none;stroke-linecap:round;stroke-width:4;stroke:#87a556"/><path d="m121.3 81.027h147.87" style="fill-rule:evenodd;fill:#4d4d4d;stroke-linecap:round;stroke-width:4;stroke:#000000"/><path d="m121.3 111.33h147.87" style="fill-rule:evenodd;fill:#4d4d4d;stroke-linecap:round;stroke-width:4;stroke:#87a556"/><circle cx="121.51" cy="80.824" r="13.056" style="fill:#000000;paint-order:markers fill stroke"/><circle cx="121.51" cy="112.02" r="13.056" style="fill:#87a556;paint-order:markers fill stroke"/><path d="m26.906 94.942h41.45" style="fill-rule:evenodd;fill:#4d4d4d;stroke-linecap:round;stroke-width:4;stroke:#000000"/><path d="m68.356 94.942 52.941-16.388" style="fill:none;stroke-linecap:round;stroke-width:4;stroke:#000000"/></svg>
