<svg width="250" height="250" version="1.1" viewBox="0 0 66.146 66.146" xmlns="http://www.w3.org/2000/svg" xmlns:xlink="http://www.w3.org/1999/xlink"><g transform="translate(0 -230.85)"><g transform="matrix(.13229 0 0 .13232 7.4119 262.23)"><path d="m99.99 50.01c.31 19.66-12.37 38.62-30.54 46.06-17.85 7.73-40.02 3.75-53.95-9.87-14.109-13.11-19.259-34.71-12.672-52.8 6.369-18.75 24.782-32.566 44.592-33.309 19.26-1.2441 38.5 9.9189 47.1 27.169 3.6 7 5.48 14.87 5.47 22.75z" style="fill:#0079c1"/><path d="m33.62 67.87c.56-12.29 1.13-24.57 1.7-36.86-3.77-3.43-7.54-6.86-11.3-10.29-1.78.18-2.8 2.43-4.25 3.49-1.64 1.13-2.61 2.76-.89 4.34 1.69 2.79 3.39 5.58 5.08 8.37-1.82 2.57-1.64 6.81-5.62 6.49-2.83.69-5.81 1.01-8.555 1.94-.246 2.68-.254 5.54 0 8.22 3.645 1.23 7.525 1.89 11.265 2.9.31 3.41 4.25 6.54.96 9.37-1.52 2.5-3.42 4.84-4.7 7.45 1.72 2.07 3.73 4.09 5.81 5.82 2.11-1.46 3.66-3.91 5.55-5.76 1.65-1.83 3.3-3.65 4.96-5.48z" style="fill:#ffffff"/><path d="m42.2 27.06c10.53 6.45 21.05 12.91 31.58 19.36 4.94-1.08 9.88-2.17 14.82-3.25.77-1.61-.61-3.65-.77-5.44-.11-1.98-1-3.66-3.24-3.01h-9.8c-1.25-2.9-4.96-4.95-2.63-8.17.88-2.79 2.17-5.5 2.8-8.32-2.17-1.61-4.6-3.1-7.03-4.28-2.94 2.47-5.52 5.44-8.32 8.11-3.08-1.5-7.8.24-8.51-4.04-1.35-2.6-2.36-5.44-3.92-7.89-2.66.39-5.44 1.06-7.99 1.94.12 3.06 1.25 6.18 1.77 9.26.41 1.91.83 3.83 1.24 5.74z" style="fill:#ffffff"/><path d="m73.16 55.12c-10.62 5.83-21.24 11.65-31.86 17.47-1.29 4.86-2.57 9.72-3.86 14.59 1.04 1.45 3.5 1.21 5.14 1.94 1.8.85 3.7.88 4.21-1.4 1.57-2.86 3.14-5.72 4.71-8.58 3.14.29 6.73-1.98 8.44 1.63 2.01 2.1 3.77 4.54 5.95 6.44 2.44-1.12 4.92-2.54 7.12-4.09-.75-3.77-2.11-7.47-3.1-11.21 2.79-1.97 3.54-6.94 7.63-5.51 2.93.1 5.91.54 8.81.36.93-2.53 1.68-5.28 2.14-7.94-2.32-1.12-5.21-1.26-7.75-2-2.53-.56-5.06-1.13-7.58-1.7z" style="fill:#ffffff"/><path d="m74.13 50.01c.29 12.22-10.08 23.41-22.28 24.06-12.17 1.23-24.12-8.26-25.71-20.38-2.1-11.85 6.12-24.29 17.82-27.05 11.6-3.26 24.8 3.69 28.7 15.08.97 2.65 1.47 5.47 1.47 8.29z" style="fill:#0079c1"/></g><g transform="matrix(.030257 0 0 .030253 26.751 261.98)"><g transform="matrix(1.0588 0 0 1.0588 -93.639 -23.957)"><path d="m218.17 48.24c52.71-24.08 115.89-24.08 168.59.03 42.98 19.22 79.06 53.57 100.06 95.74 29.41 56.87 29.54 127.91.26 184.85-3.63 8.11-8.7 15.44-13.26 23.04-6.03 8.21-11.88 16.6-19.04 23.9-5.93 7.03-12.93 13.02-19.81 19.1-3.65-25.13-7.91-50.17-12.84-75.08-5.37-23.93-10.47-47.95-17.74-71.4-9.48-31.05-20.9-61.91-38.42-89.41-8.53-12.77-18.47-24.92-31.14-33.79 5.46-6.75 5.59-16 6.39-24.24-.09-2.89 2.41-4.77 3.95-6.92 4.33-5.61 9.05-10.92 13.05-16.78-8.05 1.04-15.69 3.86-23.31 6.52-8.38 3.42-16.92 7.27-23.4 13.75-2.37 2.36-6.08 1.97-9.03 3.12-14.94 4.94-28.71 12.75-42.32 20.52-13.67 7.44-26.72 15.91-40 23.98-31 19.72-61.6 40.07-91.68 61.16-10.82 7.51-21.65 15.02-32.47 22.53 1.26-26.87 7.14-53.73 18.79-78.06 20.49-45.23 58.05-82.32 103.37-102.56z" style="fill:#0068c8"/><path d="m285.47 207.64c3.45-3 7.16-5.98 11.6-7.32 3.79-.56 7.61.43 11.33 1.06 11.53 2.89 20.75 11.08 28.89 19.35 12.87 13.98 22.98 30.23 32.11 46.82 12.5 22.44 22.35 46.19 32.19 69.88 7.75 20.06 15.29 40.21 21.95 60.67.73 1.04.69 4.32 2.55 3.51l.7-.19c-14.57 11.15-30.82 20.01-47.72 27.1-48.2 19.42-103.77 19.58-152.08.46-23.64-9.59-45.79-23.12-64.4-40.63-3.9-3.62-8.16-6.98-11.26-11.36 1.46 1.46 2.92 2.92 4.36 4.4 31.55-44.32 62.63-88.98 94.99-132.72 10.85-14.27 21.66-28.73 34.79-41.03z" style="fill:#0068c8"/><path d="m164.03 222.37c5.88-1.43 11.92-2.62 18-2.38 1.87.09 4.51.65 4.5 3.03.03 3.14-1.21 6.16-2.44 9-5.68 12.1-13.71 22.86-21.01 34-14.8 21.57-29.54 43.19-44.39 64.73-15.43-29.72-23.34-63.34-22.65-96.81.06 2.93.09 5.87.07 8.81.74.6 1.49 1.2 2.25 1.79 21.43-8.65 43.31-16.27 65.67-22.17z" style="fill:#0068c8"/><path d="m206.74 245.67c3.96-3.17 7.71-8.11 13.32-7.68-2.82 8.5-7.96 15.97-12.31 23.73-20.82 35.83-42.99 70.85-64.38 106.34 1.48 1.63 2.93 3.28 4.35 4.97-5.15-4.57-8.59-10.64-12.87-15.97-3.97-4.79-6.76-10.38-10.25-15.51 12.82-15.87 25.42-31.92 38.6-47.49 13.92-16.64 27.61-33.6 43.54-48.39z" style="fill:#0068c8"/></g><g transform="translate(-75.865 2.0856)"><path d="m334.91 83.8c7.62-2.66 15.26-5.48 23.31-6.52-4 5.86-8.72 11.17-13.05 16.78-1.54 2.15-4.04 4.03-3.95 6.92-.8 8.24-.93 17.49-6.39 24.24 12.67 8.87 22.61 21.02 31.14 33.79 17.52 27.5 28.94 58.36 38.42 89.41 7.27 23.45 12.37 47.47 17.74 71.4 4.93 24.91 9.19 49.95 12.84 75.08l.03.2c-2.8 2.03-5.3 4.49-8.21 6.32l-.7.19c-1.86.81-1.82-2.47-2.55-3.51-6.66-20.46-14.2-40.61-21.95-60.67-9.84-23.69-19.69-47.44-32.19-69.88-9.13-16.59-19.24-32.84-32.11-46.82-8.14-8.27-17.36-16.46-28.89-19.35-3.72-.63-7.54-1.62-11.33-1.06-4.44 1.34-8.15 4.32-11.6 7.32-13.13 12.3-23.94 26.76-34.79 41.03-32.36 43.74-63.44 88.4-94.99 132.72-1.44-1.48-2.9-2.94-4.36-4.4-1.26-1.27-2.44-2.61-3.61-3.96-1.42-1.69-2.87-3.34-4.35-4.97 21.39-35.49 43.56-70.51 64.38-106.34 4.35-7.76 9.49-15.23 12.31-23.73-5.61-.43-9.36 4.51-13.32 7.68-15.93 14.79-29.62 31.75-43.54 48.39-13.18 15.57-25.78 31.62-38.6 47.49-2.15-3.5-4.19-7.07-5.91-10.8 14.85-21.54 29.59-43.16 44.39-64.73 7.3-11.14 15.33-21.9 21.01-34 1.23-2.84 2.47-5.86 2.44-9 .01-2.38-2.63-2.94-4.5-3.03-6.08-.24-12.12.95-18 2.38-22.36 5.9-44.24 13.52-65.67 22.17-.76-.59-1.51-1.19-2.25-1.79.02-2.94-.01-5.88-.07-8.81-.03-1.7-.03-3.39-.03-5.08 10.82-7.51 21.65-15.02 32.47-22.53 30.08-21.09 60.68-41.44 91.68-61.16 13.28-8.07 26.33-16.54 40-23.98 13.61-7.77 27.38-15.58 42.32-20.52 2.95-1.15 6.66-.76 9.03-3.12 6.48-6.48 15.02-10.33 23.4-13.75z" style="fill:#ffffff"/></g></g><g transform="matrix(.091869 0 0 .091869 37.008 196.52)"><g><path d="m152 972.36c0 39.763-32.236 71.999-72 71.999-39.765 0-72-32.236-72-71.999 0-39.766 32.234-72.001 71.999-72.001 39.764 0 72.001 32.235 72.001 72.001z" style="fill:#87a556"/><path transform="translate(0 892.36)" d="m80 35.969c-18.131 0-33.733 11.047-40.469 26.75l5.1875 3.0625c5.6107-13.949 19.288-23.75 35.281-23.75 2.0573 0 4.068.18243 6.0312.5v-6.125c-1.9742-.27402-3.98-.4375-6.0312-.4375zm18.031 3.875-.03125 6.7188c.9998.53702 1.963 1.1287 2.9062 1.75l5.6875-3.3438c-2.6428-2.0118-5.5022-3.7446-8.5625-5.125zm-18.031 11.094c-12.629 0-23.43 8.1557-27.406 19.469l5.375 3.1875c2.7592-9.5832 11.528-16.562 22.031-16.562 2.0767 0 4.087.26982 6 .78125v-6.2188c-1.9384-.41175-3.9461-.65625-6-.65625zm35.312 2.7812-5.2188 3.0938c4.9349 6.4058 7.875 14.448 7.875 23.188 0 8.9065-3.0497 17.067-8.1562 23.531l5.2188 3.0938c5.6339-7.3999 9-16.637 9-26.625 0-9.8343-3.2422-18.939-8.7188-26.281zm-13.031 7.7188-5.2812 3.0938c3.708 4.0775 5.9688 9.4916 5.9688 15.469 0 6.1518-2.4063 11.679-6.3125 15.781l5.3438 3.1562c4.3908-5.0962 7.0625-11.728 7.0625-18.938 0-7.0497-2.5619-13.516-6.7812-18.562zm-65.969 13.281c-.21718 1.7298-.34375 3.4909-.34375 5.2812 0 1.7832.13529 3.5255.34375 5.25l5.7812-3.4062c-.02943-.61028-.0625-1.2251-.0625-1.8438s.03307-1.2335.0625-1.8438zm21.656 11.688-5.375 3.1562c3.9676 11.327 14.767 19.5 27.406 19.5 2.0539 0 4.0616-.2445 6-.65625v-6.25c-1.9135.50251-3.9229.78125-6 .78125-10.503 0-19.272-6.9556-22.031-16.531zm-13.25 7.8125-5.1875 3.0625c6.7361 15.703 22.338 26.75 40.469 26.75 2.0267 0 4.0182-.16621 5.9688-.4375v-6.0938c-1.9461.30711-3.9314.46875-5.9688.46875-15.993 0-29.671-9.8014-35.281-23.75zm55.781 17.75c-.80628.51752-1.6533 1.0121-2.5 1.4688l-.03125 6.7188c2.9178-1.3155 5.6781-2.9205 8.2188-4.8125z" style="color:#000000;fill:#ffffff;text-decoration-line:none;text-indent:0;text-transform:none"/><path transform="translate(0 892.36)" d="m92.031 27.469-.03125 33.062 28-16.531zm-63 36-.03125 33.062 28-16.531zm62.969 36.531-.03125 33.031 28-16.531z" style="enable-background:new;fill-rule:evenodd;fill:#ffffff"/></g></g><g transform="matrix(.29187 0 0 -.29187 19.844 259.05)"><path d="m90.652 45.325c0-25.032-20.293-45.325-45.326-45.325s-45.326 20.293-45.326 45.325c0 25.033 20.293 45.326 45.326 45.326s45.326-20.293 45.326-45.326" style="fill:#e13f20"/><path d="m57.711 66.78c2.8946-1.6719 6.5938-.6817 8.2637 2.2129 1.6719 2.8945.6816 6.5937-2.2129 8.2656-2.8945 1.6699-6.5937.6777-8.2656-2.2168-1.6699-2.8926-.6777-6.5918 2.2148-8.2617zm-12.385-39.132c-2.6602 0-5.1836.5918-7.4453 1.6446l-4.2051-7.5352c3.5117-1.7402 7.4668-2.7226 11.65-2.7226 2.4336 0 4.7871.3378 7.0234.957.3945 2.4316 1.8379 4.6699 4.1387 6 2.2988 1.3262 4.9551 1.457 7.2558.5879 4.4747 4.4004 7.3868 10.385 7.8106 17.051l-8.625.1269c-.793-9.031-8.37-16.11-17.604-16.11zm0 35.354c9.2343 0 16.81-7.08 17.605-16.109l8.6231.1269c-.4238 6.666-3.3359 12.65-7.8106 17.051-2.3007-.8691-4.9589-.7363-7.2558.5879-2.3008 1.3281-3.7442 3.5684-4.1387 6-2.2363.6172-4.5898.9551-7.0234.9551-4.1836 0-8.1387-.9825-11.65-2.7207l4.2051-7.5352c2.2617 1.0527 4.7851 1.6445 7.4453 1.6445zm-17.676-17.677c0 5.9805 2.9707 11.264 7.5156 14.463l-4.4238 7.4102c-5.2949-3.5391-9.2344-8.9473-10.871-15.281 1.9101-1.5586 3.1328-3.9316 3.1328-6.5918 0-2.6586-1.2227-5.0316-3.1328-6.5902 1.6348-6.336 5.5742-11.744 10.871-15.283l4.4238 7.4121c-4.5449 3.1972-7.5156 8.4805-7.5156 14.461zm30.063-21.452c-2.8945-1.6718-3.8867-5.371-2.2149-8.2636 1.67-2.8946 5.3692-3.8867 8.2637-2.2149 2.8945 1.67 3.8867 5.3692 2.2149 8.2637-1.67 2.8926-5.3711 3.8848-8.2637 2.2148zm-43.207 27.504c-3.3438 0-6.0528-2.7089-6.0528-6.0527 0-3.3422 2.709-6.0512 6.0528-6.0512 3.3418 0 6.0507 2.709 6.0507 6.0512 0 3.3438-2.7089 6.0527-6.0507 6.0527" style="fill:#ffffff"/></g><path d="m23.158 279.24c-3.6581 0-6.6146 2.9503-6.6146 6.6008 0 3.6505 2.9565 6.6284 6.6146 6.6284 3.6581 0 6.6146-2.9779 6.6146-6.6284 0-3.6504-2.9565-6.6008-6.6146-6.6008zm1.3838 1.022c.0716-.009.14744-.019.22143 0 .98705.2756 1.8297.7593 2.5462 1.4913.0624.0665.11117.16535.13834.24898.0514.1549.022.3079-.0551.44189-.0459.076-.10962.1435-.19371.19291-.22436.13305-.51335.10739-.69191-.0855-.59836-.61105-1.2237-.98462-2.048-1.2153-.29606-.0855-.44267-.39533-.35977-.69087.0624-.22142.2273-.36017.44285-.38678zm-1.4115 1.7123c1.0067 0 2.0029.36966 2.7676 1.1324 1.5294 1.5262 1.5294 4.025 0 5.5512-1.5294 1.5262-4.0058 1.5262-5.5352 0-.13733-.13304-.21472-.34021-.16607-.52457.0487-.18531.20224-.31075.3875-.35922.18517-.0475.39236.00067.52584.1378 1.1231 1.1208 2.9176 1.1208 4.0407 0 1.1232-1.1208 1.1232-2.939 0-4.0598-1.1231-1.1209-2.9176-1.1209-4.0407 0-.19737.21667-.52997.25183-.74727.057-.21729-.19671-.25273-.55688-.0551-.77355.011-.009.0422-.019.0551-.0285.76471-.7631 1.7609-1.1323 2.7676-1.1323zm0 1.8228c.53501 0 1.0614.20337 1.4668.60725.81098.80871.81098 2.1459 0 2.9552-.81097.80871-2.1227.80871-2.9337 0-.81098-.80967-.81098-2.146 0-2.9552.40549-.40483.93184-.60725 1.4668-.60725zm-5.0371.19387c.0928-.00067.19067.009.27679.0571.2295.12449.32204.38487.24905.63481-.22161.82487-.22161 1.55 0 2.3752.0799.2965-.0909.58349-.38749.66237-.29689.076-.61223-.095-.69191-.38678-.26531-.98813-.26531-1.9394 0-2.9275.022-.0855.0808-.1549.13834-.22047.10677-.12354.26044-.19101.41513-.19291zm1.6882.46945c.11263-.009.23033.019.33214.0855.2037.12449.31478.37822.24905.60724-.14092.52458-.14092.93891 0 1.4638.0762.2832-.1041.5873-.38749.66237-.2834.076-.56054-.10358-.63655-.38677-.18269-.68042-.18269-1.3357 0-2.0162.0248-.0988.0634-.20621.13834-.27654.0872-.0855.19178-.12639.30441-.13779zm3.3488.35922c-.27091 0-.53851.12354-.74727.33166-.41752.41623-.41752 1.0748 0 1.4913.41742.41624 1.077.41624 1.4945 0 .41752-.41623.41743-1.0747 0-1.4913-.20876-.20812-.47635-.33166-.74727-.33166zm3.6256 4.2532c.12173-.019.24786.019.35977.0855.0835.0475.1478.11309.1937.19291.0762.134.10768.31551.0551.46945-.0276.0855-.0762.15966-.13835.22048-.71935.72888-1.558 1.1915-2.5462 1.4638-.29634.0855-.61021-.095-.69191-.38677-.0817-.29555.0909-.58159.3875-.66237.8252-.22713 1.4473-.6063 2.048-1.2152.09-.095.21032-.1492.33213-.16536z" style="fill:#009bf9"/><g transform="matrix(.027561 0 0 .027561 44.978 247.62)"><g transform="matrix(11.396 0 0 11.396 -4205.5 -10081)"><path d="m395.69 931.04c-9.8874.007-18.438 6.8916-20.556 16.55.9058.1704 1.8295.3408 2.7492.487 1.4859.2362 2.9064.40937 4.0243.40637.55911-.001 1.066-.0604 1.4347-.1563.36993-.0962.62123-.15786.77162-.3274.57952-.65324 1.2722-1.4543 1.591-2.7245.0237-.0942.0767-.40615.0707-.50345-.0149-.0982-.0447-.24165-.0938-.43763-.11662-.46522-.29047-1.1209-.40638-1.8081-.116-.6885-.19013-1.4035-.0313-2.0895.15647-.67562.56722-1.3204 1.28-1.716.27605-.13796.60519-.19053.87199-.12503.27635.0679.51612.2333.74858.43763.46514.40886.86103 1.0298 1.2175 1.6831.35515.65091.6566 1.3384.90489 1.9036.12465.28371.25141.52444.34221.71733.0405.0862.0673.16877.0938.21717.0261.0484.0383.0754.0313.0625.0229.0382.0557.0708.0938.0938-.0223-.0139.077.0433.15465.0625.11751.0292.23092.0383.34386.0313.0567-.004.1124-.0263.1563-.0625.0111-.01.0213-.0201.0313-.0313.0363-.0439.0585-.0979.0625-.15465.005-.0309.005-.0629 0-.0938-.048-.16827-.17274-.49103-.31259-.99867-.16168-.58679-.33401-1.3132-.436-2.0582-.10228-.74652-.12497-1.4961.0313-2.152.15265-.64084.54424-1.2231 1.1846-1.4659.96561-.37158 1.8153-.11198 2.3083.46725.51812.60878.77595 1.4917.93615 2.4333.15953.93802.20697 1.9197.21717 2.6818.005.38064.001.70011 0 .93615-.00012.022 8e-5.0463 0 .0625 4e-4.0433.0113.0866.0313.12504.0229.0382.0557.0691.0938.0921.0289.0159.0611.0263.0938.0313.0586.013.11358.0433.21881.0625.36315.0664.87775.12272 1.4955.21882 1.2362.1924 2.8562.49789 4.5228.93614 1.6669.43833 3.3698 1.0313 4.7103 1.9019 1.3359.86761 2.3511 2.013 2.5584 3.5241.13124.93739-.55108 1.8245-1.5284 2.6834-.9759.85766-2.3042 1.7087-3.6804 2.4646-1.3757.75557-2.7911 1.4305-3.9305 1.9644-.56996.26709-1.048.50065-1.4346.68607-.19561.0938-.368.18098-.49851.25008-.13051.069-.21364.10745-.28133.15465-.46185.32202-.66844.72235-.71734 1.1237-.05.41015.0421.83362.21882 1.1533.0103.00058.0192.00058.0296 0 .002.003-.002.0283 0 .0313.002.004.0293-.004.0313 0 .003.003-.00099.0303 0 .0313.054.0785.1168.13089.21882.25008.12333.14408.29178.34145.46726.52977.3488.37436.7585.81641 1.155 1.2784.39687.46244.77379.94361 1.0283 1.405.25821.46829.42616.90382.28135 1.3409-.005.0136-.0263-.0133-.0313 0-.0429.10883-.17212.19028-.24843.21718-.10588.0373-.19289.0635-.3126.0625-.22356-.003-.47407-.0517-.77984-.12339-.60647-.14219-1.3557-.40506-2.1207-.65645-.76513-.25143-1.5335-.49921-2.1207-.65481-.21316-.0565-.36439-.0707-.50015-.0938-.14752-.0199-.29795.10181-.31096.25008-.005.0535.006.1088.0313.1563.0374.0708.0812.17181.18756.31095.31254.40872.80155.87981 1.2784 1.405.47791.52644.91489 1.0933 1.1533 1.6831.2282.56451.20151 1.2574-.27969 1.7785-.0203.0176-.0213.0253-.0313.0313-.14267.0923-.19728.0675-.34386.0625-.11997-.004-.25302.00094-.40473-.0313-.30139-.0639-.66452-.19634-1.0924-.34386-.85436-.29451-1.9228-.70965-2.9631-1.1533-1.0402-.44366-2.0511-.90475-2.8068-1.2471-.42454-.17883-.81211-.44487-1.2833-.46067-.0989-.008-.23075-.005-.40144.023-.34169.0562-.83271.11066-1.4346.18756-1.1334.14473-2.7016.31941-4.4915.41296 3.8982 3.6747 9.0503 5.7257 14.407 5.7353 11.631 0 21.059-9.4285 21.059-21.059 0-11.631-9.4285-21.059-21.059-21.059z" style="fill:#055daf"/><path d="m405.04 941.25c-.94786.42435-1.3942 1.5073-2.0047 2.3004-.73233 1.2978-1.7123 2.6147-1.8064 4.144.003.55379.71753.63634.95487.17668 1.3532-1.8457 2.3725-3.9378 3.2054-6.0616.11162-.27318-.019-.59983-.34914-.55947z" style="fill-rule:evenodd;fill:#ffffff"/><path d="m400.51 940.19c-.56984.95963-.59778 2.1826-.85391 3.2642-.12258 1.1894-.53511 2.4547-.18929 3.6344.29637.51556.84679-.001.87495-.42065.50771-1.9821.85692-4.0842.72351-6.1373-.0421-.24702-.34919-.68158-.55526-.34072z" style="fill-rule:evenodd;fill:#ffffff"/></g></g></g></svg>
