<svg width="48" height="48" version="1.0" xmlns="http://www.w3.org/2000/svg" xmlns:xlink="http://www.w3.org/1999/xlink"><defs><linearGradient id="linearGradient3706"><stop style="stop-color:#fff" offset="0"/><stop style="stop-color:#fff;stop-opacity:0" offset="1"/></linearGradient><linearGradient id="linearGradient5060"><stop offset="0"/><stop style="stop-opacity:0" offset="1"/></linearGradient><radialGradient id="radialGradient5710" cx="11.902" cy="10.045" r="29.293" gradientTransform="matrix(.67218 0 0 .67218 4.577 20.133)" gradientUnits="userSpaceOnUse"><stop style="stop-color:#fffffd" offset="0"/><stop style="stop-color:#cbcbc9" offset="1"/></radialGradient><linearGradient id="linearGradient5712" x1="6.3422" x2="34.533" y1="7.7893" y2="40.174" gradientTransform="matrix(.67218 0 0 .67218 4.577 20.133)" gradientUnits="userSpaceOnUse"><stop style="stop-color:#a0a0a0" offset="0"/><stop style="stop-color:#fff" offset="1"/></linearGradient><linearGradient id="linearGradient5715" x1="63.397" x2="63.397" y1="-9.3833" y2="7.4435" gradientTransform="matrix(1.3743 0 0 1.3743 -69.984 36.325)" gradientUnits="userSpaceOnUse" xlink:href="#linearGradient3706"/><linearGradient id="linearGradient5718" x1="15.656" x2="15.656" y1="13.36" y2="44.786" gradientTransform="matrix(.65424 0 0 .65423 .055176 15.545)" gradientUnits="userSpaceOnUse"><stop style="stop-color:#7c7c7c" offset="0"/><stop style="stop-color:#242424" offset="1"/></linearGradient><linearGradient id="linearGradient5619" x1="302.86" x2="302.86" y1="366.65" y2="609.51" gradientTransform="matrix(2.7744 0 0 1.9697 -1892.2 -872.89)" gradientUnits="userSpaceOnUse"><stop style="stop-opacity:0" offset="0"/><stop offset=".5"/><stop style="stop-opacity:0" offset="1"/></linearGradient><radialGradient id="radialGradient5621" cx="605.71" cy="486.65" r="117.14" gradientTransform="matrix(2.7744 0 0 1.9697 -1891.6 -872.89)" gradientUnits="userSpaceOnUse" xlink:href="#linearGradient5060"/><radialGradient id="radialGradient5623" cx="605.71" cy="486.65" r="117.14" gradientTransform="matrix(-2.7744 0 0 1.9697 112.76 -872.89)" gradientUnits="userSpaceOnUse" xlink:href="#linearGradient5060"/><radialGradient id="radialGradient3313" cx="14" cy="4.9179" r="2" gradientTransform="matrix(1.455 -2.6431e-8 5e-8 2.2747 -6.3697 -6.839)" gradientUnits="userSpaceOnUse" spreadMethod="reflect"><stop style="stop-color:#f2f2f2" offset="0"/><stop style="stop-color:#999" offset="1"/></radialGradient><linearGradient id="linearGradient3155" x1="23.415" x2="23.415" y1="16" y2="20" gradientTransform="matrix(.875 0 0 .75 7.5 2)" gradientUnits="userSpaceOnUse"><stop offset="0"/><stop style="stop-opacity:0" offset="1"/></linearGradient><linearGradient id="linearGradient3159" x1="24" x2="24" y1="5" y2="43" gradientTransform="matrix(.86487 0 0 .89189 7.7432 .5946)" gradientUnits="userSpaceOnUse" xlink:href="#linearGradient3706"/><radialGradient id="radialGradient3162" cx="12.063" cy="11.394" r="20" gradientTransform="matrix(1.3335e-8 .99728 -1.3917 0 38.136 .4292)" gradientUnits="userSpaceOnUse"><stop style="stop-color:#91b456" offset="0"/><stop style="stop-color:#92b459" offset=".39679"/><stop style="stop-color:#7d9d47" offset="1"/></radialGradient><linearGradient id="linearGradient3164" x1="24" x2="24" y1="44" y2="3.899" gradientTransform="matrix(.87179 0 0 .8972 7.5769 .46144)" gradientUnits="userSpaceOnUse"><stop style="stop-color:#4a5d2a" offset="0"/><stop style="stop-color:#85a84c" offset="1"/></linearGradient><linearGradient id="linearGradient3172" x1="19.36" x2="19.36" y1="16.138" y2="44.984" gradientTransform="matrix(.87179 0 0 .89744 7.5769 -.40668)" gradientUnits="userSpaceOnUse"><stop style="stop-color:#f4f4f4" offset="0"/><stop style="stop-color:#dbdbdb" offset="1"/></linearGradient><linearGradient id="linearGradient3174" x1="24" x2="24" y1="44" y2="3.8905" gradientTransform="matrix(.87179 0 0 .89744 7.5769 .46153)" gradientUnits="userSpaceOnUse"><stop style="stop-color:#787878" offset="0"/><stop style="stop-color:#aaa" offset="1"/></linearGradient></defs><g transform="matrix(.017238 0 0 .012543 45.977 37.89)" style="opacity:.5873"><rect x="-1559.3" y="-150.7" width="1339.6" height="478.36" style="fill:url(#linearGradient5619);opacity:.40206"/><path d="m-219.62-150.68v478.33c142.87.90045 345.4-107.17 345.4-239.2s-159.44-239.13-345.4-239.13z" style="fill:url(#radialGradient5621);opacity:.40206"/><path d="m-1559.3-150.68v478.33c-142.87.90045-345.4-107.17-345.4-239.2s159.44-239.13 345.4-239.13z" style="fill:url(#radialGradient5623);opacity:.40206"/></g><rect x="11.5" y="4.5" width="34" height="35" rx="2" ry="2" style="fill:url(#linearGradient3172);stroke-linecap:round;stroke-linejoin:round;stroke:url(#linearGradient3174)"/><path d="m13.434 4.5c-1.078 0-1.934.8811-1.934 1.9906v7.0094h34v-7.0094c0-1.1095-.85619-1.9907-1.9343-1.9907h-30.131z" style="fill:url(#radialGradient3162);stroke:url(#linearGradient3164)"/><rect x="12.5" y="5.5" width="32" height="33" rx="1" ry="1" style="fill:none;opacity:.4;stroke-linecap:round;stroke-linejoin:round;stroke:url(#linearGradient3159)"/><rect x="11" y="14" width="35" height="3" rx="0" ry="0" style="fill:url(#linearGradient3155);opacity:.3"/><text transform="scale(.96067 1.0409)" x="18.214954" y="33.357452" style="fill:#4d4d4d;font-family:Arial;font-size:20.959px;font-weight:bold" xml:space="preserve"><tspan x="18.214954" y="33.357452" style="fill:#4d4d4d">28</tspan></text><g transform="translate(-1 2)"><path d="m28.518 31.5c0 7.1898-5.8287 13.018-13.018 13.018-7.1896 0-13.018-5.8286-13.018-13.018 0-7.1895 5.8284-13.017 13.018-13.017 7.189 0 13.018 5.8279 13.018 13.017z" style="fill:url(#linearGradient5718);stroke-width:.96427;stroke:#333"/><path d="m27.519 31.5c0 6.6383-5.3816 12.02-12.019 12.02-6.6381 0-12.019-5.3815-12.019-12.02 0-6.638 5.3813-12.019 12.019-12.019 6.6375 0 12.019 5.3809 12.019 12.019z" style="fill:none;opacity:.2;stroke-width:.96152;stroke:url(#linearGradient5715)"/><path d="m25.523 31.5c0 5.5354-4.4873 10.023-10.023 10.023-5.5354 0-10.023-4.4873-10.023-10.023 0-5.5354 4.4873-10.023 10.023-10.023 5.5354 0 10.023 4.4873 10.023 10.023z" style="fill-rule:evenodd;fill:url(#radialGradient5710);stroke-linecap:round;stroke-linejoin:bevel;stroke-width:.95451;stroke:url(#linearGradient5712)"/><path d="m6.5 31.5c1.8039 0 2.0324-.05188 2.0324-.05188" style="fill-rule:evenodd;fill:#616161;stroke-linecap:round;stroke:#5f5f5f"/><path d="m21.5 31.5c1.8036 0 2.032-.05189 2.032-.05189" style="fill-rule:evenodd;fill:#1f1f1f;stroke-linecap:round;stroke-width:.99999;stroke:#1f1f1f"/><path d="m15.552 40.5c0-1.8032-.0519-2.0315-.0519-2.0315" style="fill-rule:evenodd;fill:#131313;stroke-linecap:round;stroke:#121212"/><path d="m15.552 24.5c0-1.8032-.0519-2.0316-.0519-2.0316" style="fill-rule:evenodd;fill:#1f1f1f;stroke-linecap:round;stroke:#727272"/><path d="m14.841 32.203 6.2932-6.2904" style="fill:none;stroke-linecap:round;stroke-width:.8;stroke:#000"/><path d="m16.11 32.254-4.239-4.194" style="fill:none;stroke-linecap:round;stroke-width:.8;stroke:#000"/><path d="m15.026 31.808 7.1626-2.1679" style="fill:none;stroke-linecap:round;stroke-width:.8;stroke:#7f9f4a"/></g><g transform="matrix(.75 0 0 .83333 9 .16666)"><rect x="12" y="2" width="4" height="11" rx="2.4115" ry="1.8364" style="fill:#fff;opacity:.4"/><rect x="12" y="7.6919" width="4" height="4.3081" rx="2.1159" ry="1.9043" style="fill:#7f9f4a"/><rect x="12" y="1" width="4" height="10" rx="2.4115" ry="1.6695" style="fill:url(#radialGradient3313)"/></g><g transform="matrix(.75 0 0 .83333 27 .16666)"><rect x="12" y="2" width="4" height="11" rx="2.4115" ry="1.8364" style="fill:#fff;opacity:.4"/><rect x="12" y="7.6919" width="4" height="4.3081" rx="2.1159" ry="1.9043" style="fill:#7f9f4a"/><rect x="12" y="1" width="4" height="10" rx="2.4115" ry="1.6695" style="fill:url(#radialGradient3313)"/></g></svg>
