<?xml version="1.0" encoding="UTF-8" standalone="no"?>
<!-- Created with Inkscape (http://www.inkscape.org/) -->

<svg
   xmlns:dc="http://purl.org/dc/elements/1.1/"
   xmlns:cc="http://creativecommons.org/ns#"
   xmlns:rdf="http://www.w3.org/1999/02/22-rdf-syntax-ns#"
   xmlns:svg="http://www.w3.org/2000/svg"
   xmlns="http://www.w3.org/2000/svg"
   xmlns:sodipodi="http://sodipodi.sourceforge.net/DTD/sodipodi-0.dtd"
   xmlns:inkscape="http://www.inkscape.org/namespaces/inkscape"
   width="45.466mm"
   height="27.940001mm"
   viewBox="0 0 161.1 99.000001"
   id="svg4284"
   version="1.1"
   inkscape:version="0.91 r13725"
   sodipodi:docname="artful.svg">
  <defs
     id="defs4286" />
  <sodipodi:namedview
     id="base"
     pagecolor="#ffffff"
     bordercolor="#666666"
     borderopacity="1.0"
     inkscape:pageopacity="0.0"
     inkscape:pageshadow="2"
     inkscape:zoom="2.8"
     inkscape:cx="74.749949"
     inkscape:cy="69.608881"
     inkscape:document-units="px"
     inkscape:current-layer="layer1"
     showgrid="false"
     fit-margin-top="0"
     fit-margin-left="0"
     fit-margin-right="0"
     fit-margin-bottom="0"
     inkscape:window-width="1920"
     inkscape:window-height="1004"
     inkscape:window-x="0"
     inkscape:window-y="24"
     inkscape:window-maximized="1" />
  <metadata
     id="metadata4289">
    <rdf:RDF>
      <cc:Work
         rdf:about="">
        <dc:format>image/svg+xml</dc:format>
        <dc:type
           rdf:resource="http://purl.org/dc/dcmitype/StillImage" />
        <dc:title></dc:title>
      </cc:Work>
    </rdf:RDF>
  </metadata>
  <g
     inkscape:label="Layer 1"
     inkscape:groupmode="layer"
     id="layer1"
     transform="translate(309.12143,-511.43363)">
    <g
       id="Livello_4"
       data-name="Livello 4"
       class="cls-8"
       transform="translate(-732.78143,369.93363)"
       style="opacity:1">
      <polygon
         class="cls-9"
         points="569.63,220.59 562.47,163.79 584.76,231.48 584.76,231.48 "
         id="polygon46"
         style="fill:#637f3d" />
      <polygon
         class="cls-10"
         points="555.3,193.79 569.63,220.59 562.47,163.79 562.47,163.79 "
         id="polygon48"
         style="fill:#789c48" />
      <polygon
         class="cls-11"
         points="534.07,141.5 555.3,193.79 562.47,163.79 562.47,163.79 "
         id="polygon50"
         style="fill:#68873f" />
      <polygon
         class="cls-12"
         points="550.79,220.59 534.07,197.77 555.3,193.79 555.3,193.79 "
         id="polygon52"
         style="fill:#82a94e" />
      <polygon
         class="cls-9"
         points="541.77,225.37 550.79,220.59 534.07,197.77 534.07,197.77 "
         id="polygon54"
         style="fill:#637f3d" />
      <polygon
         class="cls-11"
         points="535.66,235.99 555.3,235.99 541.77,225.37 541.77,225.37 "
         id="polygon56"
         style="fill:#68873f" />
      <polygon
         class="cls-13"
         points="550.79,220.59 555.3,235.99 541.77,225.37 541.77,225.37 "
         id="polygon58"
         style="fill:#799f49" />
      <polygon
         class="cls-11"
         points="512.57,170.16 555.3,193.79 534.07,197.77 534.07,197.77 "
         id="polygon60"
         style="fill:#68873f" />
      <polygon
         class="cls-13"
         points="534.07,141.5 555.3,193.79 512.57,170.16 512.57,170.16 "
         id="polygon62"
         style="fill:#799f49" />
      <polygon
         class="cls-10"
         points="505.67,203.34 534.07,197.77 512.57,170.16 512.57,170.16 "
         id="polygon64"
         style="fill:#789c48" />
      <polygon
         class="cls-11"
         points="476.48,159.24 505.67,141.5 512.57,170.16 512.57,170.16 "
         id="polygon66"
         style="fill:#68873f" />
      <polygon
         class="cls-14"
         points="534.07,141.5 512.57,170.16 505.67,141.5 505.67,141.5 "
         id="polygon68"
         style="fill:#87ad51" />
      <polygon
         class="cls-15"
         points="476.48,159.24 512.57,170.16 505.67,203.34 505.67,203.34 "
         id="polygon70"
         style="fill:#a8bd62" />
      <polygon
         class="cls-15"
         points="521.86,217.41 534.07,197.77 505.67,203.34 505.67,203.34 "
         id="polygon72"
         style="fill:#a8bd62" />
      <polygon
         class="cls-13"
         points="529.82,228.29 521.86,217.41 534.07,197.77 534.07,197.77 "
         id="polygon74"
         style="fill:#799f49" />
      <polygon
         class="cls-11"
         points="505.67,235.99 526.11,235.99 521.86,217.41 521.86,217.41 "
         id="polygon76"
         style="fill:#68873f" />
      <polygon
         class="cls-16"
         points="529.82,228.29 521.86,217.41 526.11,235.99 526.11,235.99 "
         id="polygon78"
         style="fill:#83a34b" />
      <polygon
         class="cls-9"
         points="500.89,237.85 493.2,223.78 505.67,203.34 505.67,203.34 "
         id="polygon80"
         style="fill:#637f3d" />
      <polygon
         class="cls-14"
         points="486.56,240.5 500.89,237.85 493.2,223.78 493.2,223.78 "
         id="polygon82"
         style="fill:#87ad51" />
      <polygon
         class="cls-14"
         points="493.2,223.78 493.2,223.78 493.2,223.78 483.38,203.34 505.67,203.34 "
         id="polygon84"
         style="fill:#87ad51" />
      <polygon
         class="cls-13"
         points="476.48,159.24 505.67,203.34 483.38,203.34 483.38,203.34 "
         id="polygon86"
         style="fill:#799f49" />
      <polygon
         class="cls-9"
         points="486.56,228.29 474.62,220.59 483.38,203.34 483.38,203.34 "
         id="polygon88"
         style="fill:#637f3d" />
      <polygon
         class="cls-11"
         points="479.93,237.85 466.39,237.85 486.56,228.29 486.56,228.29 "
         id="polygon90"
         style="fill:#68873f" />
      <polygon
         class="cls-14"
         points="474.62,220.59 486.56,228.29 466.39,237.85 466.39,237.85 "
         id="polygon92"
         style="fill:#87ad51" />
      <polygon
         class="cls-12"
         points="466.39,197.77 483.38,203.34 474.62,220.59 474.62,220.59 "
         id="polygon94"
         style="fill:#82a94e" />
      <polygon
         class="cls-11"
         points="476.48,159.24 483.38,203.34 466.39,197.77 466.39,197.77 "
         id="polygon96"
         style="fill:#68873f" />
      <polygon
         class="cls-16"
         points="431.09,223.78 423.66,211.57 466.39,197.77 466.39,197.77 "
         id="polygon98"
         style="fill:#83a34b" />
      <polygon
         class="cls-15"
         points="445.02,185.03 466.39,197.77 423.66,211.57 423.66,211.57 "
         id="polygon100"
         style="fill:#a8bd62" />
      <polygon
         class="cls-11"
         points="457.63,174.94 466.39,197.77 445.02,185.03 445.02,185.03 "
         id="polygon102"
         style="fill:#68873f" />
      <polygon
         class="cls-16"
         points="428.43,151.59 457.63,174.94 445.02,185.03 445.02,185.03 "
         id="polygon104"
         style="fill:#83a34b" />
      <polygon
         class="cls-10"
         points="459.49,153.97 476.48,159.24 457.63,174.94 457.63,174.94 "
         id="polygon106"
         style="fill:#789c48" />
      <polygon
         class="cls-14"
         points="466.39,197.77 457.63,174.94 476.48,159.24 476.48,159.24 "
         id="polygon108"
         style="fill:#87ad51" />
      <polygon
         class="cls-15"
         points="470.63,148.13 476.48,159.24 459.49,153.97 459.49,153.97 "
         id="polygon110"
         style="fill:#a8bd62" />
    </g>
  </g>
</svg>
