<svg width="304" height="304" version="1.1" viewBox="0 0 304 304" xmlns="http://www.w3.org/2000/svg"><title>Eoan Ermine</title><desc>Created with Sketch.</desc><path d="m227.02 277.86h-150.05l3.2475-23.338 1.5648-24.845.17174-29.044-1.6029-18.949-4.618-36.39-19.827-24.101 3.8547-18.243-15.075-22.556 5.9538-18.434 9.7893-18.605 10.801-13.968 4.0073-2.8051 6.5262-.28624 8.1864 2.5761 8.8161 7.0605 27.555-3.9501 37.764-.9923 36.906 4.0455 4.8279 1.0877 4.1791-4.8851 6.698-3.7402 9.3504-1.4121 3.7783.9923 8.2437 9.026 8.5108 12.423 6.8845 14.168 4.075 11.361 1.7272 6.9086-5.9641 10.552-9.1485 11.874 3.9401 18-12.468 15.625-7.4484 8.3659-2.6841 19.013-2.8482 25.893-.72865 25.53.62069 24.018 2.2399 23.398z" style="fill-rule:evenodd;fill:#68873f"/><path d="m62.399 96.86 8.6078-26.827 11.602-20.609 8.5025-12.723 49.554-5.6884 36.81 1.1874 32.982 3.9963 12.032 15.218 10.579 20.834 10.712 29.347 4.7325 19.731-20.571 24.12-19.159 18.09-29.311 17.861-27.403 12.136-34.196-14.961-21.22-13.739-14.579-12.976-17.022-18.396-9.0833-12.365 3.9692-19.541z" style="fill-rule:evenodd;fill:#87ad51"/><g transform="translate(-146.63 14.773)" style="fill-rule:evenodd;fill:#87a752;stroke:#87a752"><g transform="translate(-978,-185)" style="fill-rule:nonzero;fill:#87a752;stroke:#87a752"></g></g><g transform="matrix(1.0734 0 0 1.0734 8.5342 25.263)" style="fill:#34401f"><g style="fill:#34401f"><path d="m162.47 99.516c.64378.05983 1.294.09472 1.9505.10469h.32615c7.5838 0 14.737-3.5321 19.358-9.5593.16627-.21366.32828-.42733.48603-.64099s.33042-.47006.49029-.70936c.40929-.61392.79087-1.2449 1.1447-1.8931-.0508-8.558-4.5688-16.464-11.908-20.839-.63525-.38174-1.2883-.73785-1.959-1.0683-.57983-.28417-1.1724-.5427-1.7778-.77132l-.50095.29058c-.3901.23076-.77381.47433-1.149.72645-1.9859 1.3348-3.7669 2.9529-5.2867 4.8031-.33468.40596-.65444.82474-.9614 1.2521-5.6501 7.8455-6.1516 18.293-1.279 26.646.33681.56977.6921 1.1224 1.0659 1.658zm-2.8885-14.003c-.005-4.9464 1.5903-9.7611 4.547-13.721.31123-.41878.63738-.82688.97846-1.2243 1.6003-1.8697 3.4878-3.4716 5.5915-4.7455 8.2981 3.5188 13.777 11.576 14.012 20.604-.15633.27491-.31763.54626-.4839.81406-.29418.47433-.6047.93584-.93156 1.3845-4.3088 5.9574-11.205 9.4848-18.546 9.4866-.48177 0-.95927-.01709-1.4346-.04701-2.4387-3.7292-3.7361-8.0917-3.7326-12.551z" style="fill:#34401f"/><path d="m265.64 147.85c-9.0457-5.1624-18.385-9.7897-27.97-13.858-3.9124-1.6552-7.8511-3.2142-11.816-4.6771l-1.4922-.5427c-1.0147-.3675-2.0315-.72859-3.0505-1.0833-.48816-.17093-.97632-.33759-1.4645-.50424-5.3037-1.8147-10.652-3.4528-16.045-4.9142.53435-3.4457 1.1199-6.8792 1.7565-10.301 6.2101-6.4191 11.933-13.294 17.122-20.567.42634-.58971.84345-1.1823 1.2513-1.7777-.11298-.7115-.23022-1.4294-.356-2.1494-.82426-4.7861-1.8439-9.5279-3.059-14.226 4.8623-5.9985 9.0881-12.488 12.609-19.364.37092-.72645.73473-1.4572 1.0914-2.1922-.17196-.7934-.35386-1.5854-.54572-2.3759-1.166-4.8261-2.6814-9.5606-4.5342-14.166-.21317-.55125-.44553-1.1004-.67788-1.6473-.0405-.09615-.081-.1923-.12364-.28844-1.1369-2.6779-2.3818-5.2939-3.7348-7.8478-.45903-.87032-.93014-1.7314-1.4133-2.5832-.2686-.47718-.54146-.95151-.81858-1.423-.40076-.68372-.81005-1.3625-1.2279-2.0362-3.6792-5.942-7.9533-11.493-12.756-16.565-.64804-.68799-1.3067-1.3674-1.9761-2.0383l-.0618-.085465c-.83881-.17022-1.6864-.29362-2.5389-.36964-.67789-.059826-1.3622-.091881-2.0571-.091881-5.5553-.00392-10.922 2.0185-15.099 5.6899-.37945.33331-.74823.67874-1.1064 1.0363-.73717.73663-1.4244 1.5218-2.0571 2.3503-32.936-6.1772-66.73-6.1772-99.666 0-.6327-.82848-1.3199-1.6137-2.0571-2.3503-.35813-.35682-.72691-.70081-1.1064-1.0363-4.1767-3.6713-9.5436-5.6938-15.099-5.6899-.69494 0-1.3792.032055-2.0571.091881-.85246.07602-1.7001.19942-2.5389.36964l-.07035.070509c-.66367.6652-1.3224 1.3447-1.9761 2.0383-4.8028 5.0728-9.077 10.623-12.756 16.565-.41782.67375-.82711 1.3525-1.2279 2.0362-.27712.47148-.54998.94581-.81858 1.423-.48319.85465-.9543 1.7157-1.4133 2.5832-1.3515 2.5554-2.5971 5.1721-3.7369 7.85l-.12151.28631c-.23236.54698-.45619 1.0961-.67789 1.6473-1.8523 4.6056-3.3683 9.3401-4.5363 14.166-.18901.79055-.37021 1.5832-.54359 2.3781.35813.735.72194 1.465 1.0914 2.19 3.521 6.876 7.7468 13.366 12.609 19.364-1.2151 4.7006-2.2347 9.4425-3.059 14.226-.12364.7115-.24302 1.4294-.35813 2.1494.41355.59398.83066 1.1865 1.2513 1.7777 5.1887 7.2738 10.913 14.149 17.124 20.567.63525 3.4186 1.2208 6.8522 1.7565 10.301-5.3932 1.4686-10.742 3.1067-16.045 4.9142-.48816.16666-.97633.33331-1.4645.50424-1.019.35468-2.0358.71577-3.0505 1.0833l-1.4922.5427c-3.965 1.4629-7.9037 3.0219-11.816 4.6771-9.5822 4.0745-18.919 8.7068-27.962 13.873-.53506.30554-1.0659.60894-1.5988.91875.55211.26494 1.1064.52561 1.6606.78628.53719-.30768 1.0758-.61321 1.6158-.91662 8.7037-4.9207 17.678-9.3434 26.881-13.247 3.7518-1.5897 7.5299-3.0853 11.334-4.4869l1.4773-.54484c1.2549-.45724 2.5126-.90379 3.7731-1.3397l1.4709-.50852c5.1076-1.7364 10.258-3.3139 15.451-4.7326.49882 3.3032.95146 6.615 1.3579 9.9353-3.6367.96576-7.2528 2.0099-10.848 3.1323-.51588.16025-1.0296.32477-1.5434.48929-2.9176.93015-5.8231 1.9123-8.7166 2.9464l-1.4581.51706c-4.3274 1.5768-8.6228 3.2676-12.886 5.0724-5.2952 2.2449-10.522 4.6664-15.681 7.2645-.60754.30554-1.2151.60894-1.8184.91875.63951.24999 1.2641.49356 1.8994.73714.61251-.31195 1.2257-.62105 1.8397-.9273 4.7225-2.346 9.5053-4.546 14.349-6.6 4.1355-1.7549 8.3016-3.398 12.498-4.9292.4839-.17734.96993-.35041 1.456-.52347 3.1592-1.1395 6.3355-2.2078 9.5288-3.2049.51801-.16452 1.0339-.33118 1.5519-.49142 3.3198-1.027 6.6595-1.9871 10.019-2.8802.39508 3.3374.74255 6.6848 1.0424 10.042-1.208.31622-2.4159.64028-3.6239.97217-.55851.15597-1.1192.30767-1.6798.46578-5.1317 1.4501-10.221 3.0589-15.267 4.8266-.48177.16666-.9614.33759-1.441.50852-4.9285 1.7563-9.8165 3.6593-14.664 5.7091l-.85269.36964c-.72905.31195-1.456.6239-2.1829.94225.76102.22648 1.5199.44869 2.2831.66449.44766-.19443.89532-.391 1.343-.58116l.8804-.4081c4.4553-1.8688 8.9468-3.6116 13.475-5.2283.47964-.17093.95714-.344 1.4389-.51279 5.3591-1.8788 10.767-3.5796 16.224-5.1023.56917-.15811 1.1362-.31408 1.7054-.46792.82853-.22648 1.6592-.44798 2.492-.66449.09095 1.0612.17693 2.1224.25794 3.1836.05542.7115.10872 1.4251.15775 2.1366.29418 4.1593.51588 8.325.6651 12.497.0199.50709.03766 1.0135.05329 1.5191.11938 3.7932.17906 7.5872.17906 11.382 0 1.2264-.0064 2.4543-.01919 3.6835 0 .35682-.01066.7115-.01492 1.0683-.01279.87174-.02345 1.7435-.04263 2.6152 0 .42733-.02132.83542-.02984 1.2521-.02132.81192-.03837 1.6238-.06395 2.4358-.01279.42733-.02984.85465-.04477 1.2948-.02771.79696-.05542 1.5939-.0874 2.3909-.01705.42733-.0405.87602-.05969 1.3119-.03624.79269-.07035 1.5832-.11085 2.3738-.02132.44442-.04903.8867-.07248 1.3311-.04477.78201-.0874 1.564-.1343 2.3503-.02771.46151-.05969.92089-.09166 1.3803-.04903.76278-.09806 1.5277-.15348 2.2905-.03411.48074-.07248.96362-.10872 1.4444-.05542.73714-.11085 1.4721-.17054 2.2093-.08243.99709-.16841 1.9942-.25794 2.9913-.04263.48288-.08953.96576-.13643 1.4486-.05969.64099-.12151 1.282-.18546 1.923-.05116.51137-.10374 1.0213-.15775 1.5298-.06395.61962-.12932 1.2385-.19612 1.8567l-.17267 1.5341c-.07035.6239-.14282 1.2457-.21317 1.8696-.05969.49783-.11938.99781-.1812 1.4956-.07887.65381-.16414 1.3055-.24728 1.9572-.05969.46578-.12009.93157-.1812 1.3974-.1009.75779-.20464 1.5163-.31123 2.2755l-.14709 1.0683c-.15633 1.0911-.31763 2.1829-.4839 3.2755-.05329.35682-.11085.71577-.16627 1.0683-.13856.8867-.27499 1.7713-.42634 2.6558.47324.23289.94435.46365 1.4197.69227.04263-.25853.08101-.51706.12364-.7756.0874-.53416.16841-1.0683.25367-1.6025.12648-.79483.2487-1.5897.36666-2.3845.10019-.6709.20251-1.3397.29844-2.0106.07674-.52347.14922-1.0491.21317-1.5747.08101-.57048.15988-1.1431.23875-1.7221.07248-.53273.14354-1.0655.21317-1.5982.07674-.58544.15206-1.1716.22596-1.7584.06395-.50994.12719-1.0213.18972-1.5341.08953-.72432.17267-1.4508.25581-2.1772.07461-.64099.14922-1.3055.21317-1.9593.08314-.74355.16201-1.4956.24088-2.2349.05116-.49997.1009-.99852.14922-1.4956.03624-.37605.07674-.75423.11298-1.1303.02558-.26922.04903-.53843.07461-.80765.03624-.38246.07035-.76491.10659-1.1474.01705-.19016.03624-.38032.05116-.57048.02984-.33118.05542-.66022.08314-.9914.06964-.8048.13643-1.611.20038-2.4187.0405-.4957.07674-.98926.11511-1.4956.05756-.78842.11511-1.579.17054-2.3674.03411-.50638.06608-1.0149.10019-1.5213.04903-.77987.09593-1.5576.14282-2.3375.02771-.51493.05756-1.0299.08527-1.5426.03979-.77488.07816-1.5505.11511-2.3268.02558-.51493.04903-1.0299.07248-1.5491.03198-.77987.06182-1.5619.08953-2.3503.01919-.50852.03624-1.017.05542-1.5277.02558-.80124.04477-1.6046.06608-2.4058.01279-.48502.02558-.97217.03624-1.4572.01918-.87174.03198-1.7435.04477-2.6174 0-.41237.01492-.82688.01919-1.2414.01279-1.282.0199-2.564.02132-3.8459 0-3.769-.05898-7.5373-.17693-11.305-.01705-.50638-.03411-1.0106-.05329-1.517-.13217-3.7476-.3226-7.4903-.5713-11.228-.0469-.69654-.09522-1.3931-.14496-2.0896-.12222-1.658-.25367-3.3153-.39437-4.9719 5.1431-1.3147 10.325-2.4707 15.547-3.4678.69068-.13247 1.3814-.25853 2.0742-.38459 2.0891-.38174 4.1846-.73785 6.2864-1.0683.6651-.10683 1.3323-.21366 1.9995-.31408 1.2407-.18518 2.4842-.3618 3.7305-.52988 5.4699 3.3219 11.114 6.346 16.909 9.0593l.24302.11324c.85269.39955 1.716.78842 2.5794 1.1751l1.0659.46792c.70347.31052 1.4098.61606 2.1189.91661 3.5642 1.5113 7.1654 2.9008 10.804 4.1686.793.28488 1.5874.55624 2.3833.81406.79584-.26494 1.5903-.53629 2.3833-.81406 3.6367-1.2692 7.2379-2.6587 10.804-4.1686.71057-.30198 1.4169-.60752 2.1189-.91661.35173-.15384.70347-.31195 1.0531-.46792.85269-.38673 1.7246-.7756 2.5815-1.1751l.24302-.11324c5.791-2.7083 11.433-5.7267 16.9-9.0422 1.2449.1695 2.4884.34613 3.7305.52988.66723.10042 1.3323.21366 1.9995.31408 2.1019.33047 4.1973.68657 6.2864 1.0683.69281.12606 1.3835.25212 2.0742.38459 5.2184.99709 10.401 2.153 15.547 3.4678-.14211 1.6566-.27357 3.3139-.39437 4.9719-.0497.69654-.0981 1.3938-.14496 2.0918-.2487 3.7377-.43913 7.4796-.5713 11.226-.0199.50424-.0377 1.0099-.0533 1.517-.11795 3.7647-.17693 7.533-.17693 11.305 0 1.282.007 2.564.0213 3.8459 0 .41451.0128.82901.0192 1.2414.0128.87388.0256 1.7456.0448 2.6174 0 .48502.0234.97217.0362 1.4572.0192.80337.0426 1.6046.0661 2.4058.0171.50852.0355 1.017.0554 1.5256.027.78201.0568 1.5654.0895 2.3503l.0703 1.5448c.0384.7756.0746 1.5533.11724 2.3289.027.51422.0554 1.0277.0853 1.5405.0448.77987.0938 1.5597.14282 2.3503.0327.50424.0661 1.0099.10019 1.517.0554.79055.11227 1.5811.17054 2.3717.0384.49356.0746.98712.11298 1.4807.064.80765.13501 1.6153.21317 2.4229.0277.33118.0533.66022.081.98926.0171.19016.0362.38032.0533.57048.0341.38246.0704.76491.10659 1.1452.0256.27135.049.54057.0746.80978.0362.37818.0767.75637.11298 1.1346.049.49783.10019.99781.14922 1.4956.0789.74996.15988 1.4956.24088 2.2477.0703.64099.14282 1.282.21317 1.923.0831.73286.16841 1.4636.25794 2.1965.0618.50852.12577 1.0149.18972 1.5234.0753.58971.15064 1.1794.22596 1.7691.0682.52988.13927 1.0598.21317 1.5897.0767.57903.15775 1.1559.23875 1.7349.0725.52134.14496 1.0427.21317 1.564.0981.68158.20038 1.361.3027 2.0426.11653.77631.23591 1.5519.35813 2.3268.0853.54484.16841 1.0875.25794 1.6302.0426.25853.081.51706.12364.7756.47537-.22862.94648-.45938 1.4197-.69227-.14211-.88741-.28423-1.7741-.42634-2.6601-.0554-.35682-.11298-.7115-.16627-1.0683-.16627-1.0925-.32757-2.1851-.4839-3.2776l-.14709-1.0683c-.10659-.76064-.21033-1.5206-.31123-2.2798-.0611-.46578-.12151-.93157-.1812-1.3974-.0853-.65238-.1677-1.3041-.24728-1.955-.0611-.49997-.12151-.99852-.1812-1.4956-.0746-.6239-.14709-1.2457-.21317-1.8696-.0597-.50994-.11724-1.0213-.17267-1.5341-.0682-.61749-.13217-1.2371-.19612-1.8567-.0533-.50852-.10445-1.0192-.15775-1.5298-.064-.64384-.12577-1.2848-.18546-1.923-.0469-.48288-.0938-.96576-.13643-1.4486-.0917-.99353-.1748-1.9892-.25794-2.9913-.0597-.73286-.11511-1.4657-.17054-2.2007-.0362-.48502-.0746-.96789-.10872-1.4529-.0554-.76064-.10445-1.5234-.15348-2.2841-.032-.46151-.064-.92302-.0917-1.3845-.049-.77773-.0895-1.5576-.13217-2.3375-.0256-.44656-.0533-.89098-.0746-1.3397-.0405-.78842-.0767-1.579-.11085-2.3674-.0192-.42732-.0426-.87602-.0597-1.3162-.032-.79269-.0597-1.5875-.0874-2.3802-.0149-.42733-.032-.87174-.0448-1.3076-.0256-.80765-.0448-1.6174-.064-2.4272 0-.42733-.0234-.83756-.032-1.2585-.017-.87174-.0277-1.7435-.0405-2.6152 0-.35682-.0128-.7115-.0149-1.0683-.0128-1.2278-.0192-2.4557-.0192-3.6835 0-3.7947.0597-7.5886.17906-11.382.0171-.50709.0348-1.0135.0533-1.5191.14212-4.1707.36381-8.3364.6651-12.497.049-.71364.10232-1.4294.15775-2.1366.081-1.0626.16698-2.1238.25794-3.1836.83137.21794 1.662.43943 2.492.66449.56917.15384 1.1362.30981 1.7054.46792 5.4543 1.5227 10.863 3.2235 16.224 5.1023l1.4389.51279c4.5278 1.6153 9.0193 3.3581 13.475 5.2283l.89532.37177c.44766.19016.89532.38673 1.343.58116.76315-.21366 1.522-.42733 2.2831-.66449-.72692-.31836-1.4538-.64099-2.1829-.94225l-.85269-.36964c-4.8461-2.0526-9.7341-3.9556-14.664-5.7091-.47964-.17093-.95927-.34186-1.441-.50852-5.0479-1.7649-10.137-3.3737-15.267-4.8266-.56064-.15811-1.1213-.30981-1.6798-.46578-1.2066-.33047-2.4145-.65452-3.6239-.97217.30128-3.3502.64875-6.6976 1.0424-10.042 3.3539.89454 6.6936 1.8546 10.019 2.8802.51801.16025 1.0339.3269 1.5519.49142 3.1933 1.0113 6.3696 2.0797 9.5288 3.2049.4839.17307.96993.34613 1.456.52348 4.1966 1.5341 8.3627 3.1772 12.498 4.9292 4.8319 2.0512 9.6147 4.2512 14.349 6.6.61393.30483 1.2272.61392 1.8397.9273.63951-.24358 1.279-.48715 1.8994-.73714-.60541-.30981-1.2108-.61321-1.8184-.91875-5.1545-2.5939-10.381-5.0154-15.681-7.2645-4.272-1.7948-8.5759-3.4756-12.912-5.0424l-1.4581-.52134c-2.8906-1.0341-5.7954-2.0163-8.7145-2.9464-.51374-.16452-1.0275-.32904-1.5434-.48929-3.5955-1.121-7.2116-2.1651-10.848-3.1323.40645-3.3203.85908-6.6321 1.3579-9.9353 5.19 1.4173 10.34 2.9948 15.449 4.7326l1.4709.50852c1.2591.43587 2.5168.88243 3.7731 1.3397.49314.17948.98556.36109 1.4773.54484 3.803 1.4102 7.5811 2.9058 11.334 4.4869 9.2026 3.9037 18.177 8.3264 26.881 13.247.53932.3034 1.0659.60894 1.6158.91661.55425-.26067 1.1085-.52134 1.6585-.78628-.5308-.30768-1.0637-.61108-1.5967-.91448zm-63.299-25.988c-.78874-.21224-1.5796-.41949-2.3726-.62176-.48816-.12606-.98059-.24571-1.4709-.36964l-1.7054-.42733c.87116-.79055 1.7373-1.5897 2.5986-2.3973.68499-.64526 1.3664-1.2962 2.0443-1.9529.71057-.688 1.4147-1.3817 2.1125-2.0811l.13217-.13247c-.4775 2.6565-.92374 5.3174-1.3387 7.9824zm20.01-32.618c-4.9314 7.0455-10.367 13.722-16.265 19.977.21601-1.1139.437-2.2257.66296-3.3353 1.6244-7.9568 3.5244-15.862 5.7002-23.717.28423-1.0128.56846-2.0241.85269-3.034 1.1952-4.1707 2.4678-8.3179 3.8179-12.442.62104 2.0497 1.203 4.1066 1.7459 6.1706.15775.60253.31336 1.2029.46471 1.8055 1.2122 4.8131 2.2191 9.6711 3.0206 14.574zm10.283-37.756c-3.47 7.0756-7.691 13.756-12.59 19.924-.64804-2.4058-1.3487-4.7996-2.1019-7.1812 2.8423-8.4739 5.9965-16.824 9.4627-25.05.29418-.69654.59048-1.3888.88679-2.0832 1.8036 4.6814 3.2551 9.4916 4.3423 14.39zm-5.5574-17.411c.14496.34613.28778.69013.42634 1.0363-.50308 1.1552-1.0005 2.3147-1.4922 3.4784-3.2189 7.6263-6.1699 15.369-8.853 23.229-1.4837-4.477-3.1471-8.9019-4.9903-13.275-.56846-1.3575-1.1568-2.7064-1.7651-4.0468 7.0628-2.8969 12.237-9.1102 13.818-16.593 1.0161 2.0241 1.9683 4.0824 2.8565 6.1749v-.0043zm-4.0183-8.4226c-.91439 7.8166-6.0058 14.513-13.283 17.469-4.969-10.781-11.003-21.036-18.013-30.611 9.6036 2.1492 19.079 4.8377 28.382 8.053 1.019 1.6708 1.9903 3.3688 2.9141 5.0937v-.0043zm-14.709 17.988c-8.7551 2.8396-18.342-.23638-23.824-7.6443-5.4822-7.4079-5.6375-17.496-.38589-25.07 1.7963.34613 3.5891.71079 5.3783 1.094 7.363 9.8522 13.675 20.451 18.834 31.622l-.002-.0021zm-6.6083-41.957c1.2919-.0006093 2.5811.11596 3.852.34827 4.9796 5.0184 9.4234 10.544 13.259 16.486-9.3381-3.1515-18.845-5.7773-28.475-7.8649-.90811-1.2108-1.8382-2.4137-2.7904-3.6088 3.9104-3.4585 8.948-5.3637 14.163-5.3565l-.009-.00428zm-15.257 6.4099c.54998.6944 1.0936 1.3888 1.6329 2.0896-.9948-.20512-1.9853-.40454-2.9716-.59826.42634-.51849.87542-1.017 1.3472-1.4956l-.009.00427zm-104.34 1.4956c-.9948.19372-1.9853.39314-2.9716.59826.53932-.70081 1.0829-1.3952 1.6329-2.0896.47393.47175.9236.96737 1.3472 1.485l-.0085.00641zm1.0147 1.3439c5.2414 7.5736 5.0822 17.654-.39571 25.057s-15.055 10.483-23.808 7.6546c5.1582-11.171 11.471-21.77 18.834-31.622 1.7878-.38602 3.5806-.75138 5.3783-1.0961l-.0085.0064zm-21.454-8.8969c6.4534-1.1833 13.092.66221 18.015 5.0083-.94364 1.1922-1.8731 2.3952-2.7883 3.6088-9.6306 2.0876-19.137 4.7134-28.475 7.8649 3.8328-5.9405 8.273-11.464 13.249-16.482zm-14.543 18.531c9.3018-3.2152 18.777-5.9038 28.38-8.053-7.0096 9.5746-13.043 19.83-18.011 30.611-7.2769-2.9553-12.368-9.6508-13.283-17.467.92374-1.7264 1.8951-3.4236 2.9141-5.0916zm-6.9323 13.512c.88395-2.0939 1.8347-4.1508 2.8522-6.1706 1.5827 7.4854 6.7613 13.699 13.828 16.593-.60399 1.3404-1.1923 2.6893-1.7651 4.0468-1.8475 4.3715-3.5109 8.7965-4.9903 13.275-2.6817-7.85-5.6327-15.593-8.853-23.229-.49029-1.1623-.98769-2.3218-1.4922-3.4784.13217-.34613.27499-.69013.41995-1.0363zm-5.5574 17.407c1.0872-4.8986 2.5387-9.7088 4.3423-14.39.29631.6944.59262 1.3867.88679 2.0832 3.4662 8.2203 6.6204 16.572 9.4627 25.054-.75036 2.3802-1.451 4.7739-2.1019 7.1812-4.8985-6.1703-9.1194-12.852-12.59-19.928zm10.281 37.752c.80152-4.9 1.8077-9.7544 3.0185-14.563.15135-.60253.30697-1.2029.46471-1.8055.5443-2.0668 1.1263-4.1237 1.7459-6.1706 1.3472 4.1237 2.6199 8.2709 3.8179 12.442.28423 1.0113.56846 2.0227.85269 3.034 2.1715 7.8343 4.0716 15.74 5.7002 23.717.22596 1.1096.44695 2.2214.66296 3.3353-5.8964-6.258-11.332-12.937-16.263-19.984v-.0043zm18.674 24.637.13217.13247c.6992.70081 1.4034 1.3945 2.1125 2.0811.67789.65523 1.3593 1.3062 2.0443 1.9529.85269.80765 1.7189 1.6067 2.5986 2.3973-.56917.13674-1.1362.28204-1.7054.42733-.49029.12392-.98272.24358-1.473.36964-.79158.20227-1.5817.40952-2.3705.62176-.41782-2.6637-.86406-5.3245-1.3387-7.9824zm1.5711 9.4824c.88679-.23717 1.7757-.4722 2.6646-.69868.49243-.12606.98485-.24571 1.4773-.3675.85269-.21224 1.7018-.4202 2.5474-.6239 3.2132 2.8488 6.5152 5.5702 9.9061 8.1641-2.5183.4957-5.0273 1.027-7.5271 1.5939l-1.5817.37605c-2.0464.4786-4.0865.98142-6.1202 1.5085-.41213-3.3246-.86761-6.6399-1.3664-9.946v-.006zm27.098 16.501c-.63951.10042-1.279.19657-1.9185.30126-2.1843.35753-4.3629.7407-6.5358 1.1495-.65657.12392-1.3131.25426-1.9697.38459-4.7196.9273-9.4094 1.9828-14.069 3.1665-.3027-3.3502-.6523-6.6976-1.0488-10.042 2.288-.59398 4.5825-1.1581 6.8833-1.6922.53719-.12606 1.0659-.24785 1.6137-.3675 2.5808-.58116 5.1708-1.1232 7.7701-1.626l.39863-.0769c.87685.65381 1.7594 1.2998 2.6476 1.9379 3.0953 2.2249 6.258 4.3488 9.4883 6.3714-1.0929.16096-2.1793.32548-3.2594.49356zm33.788-3.0703c-2.9014-2.9838-5.366-6.3648-7.3203-10.042-.25794-.48715-.50948-.97858-.74823-1.4743-.16627-.344-.32615-.69013-.4839-1.0363 3.2674-5.8522 9.4356-9.4771 16.126-9.4771 6.6908 0 12.859 3.6249 16.126 9.4771-.15775.34613-.31762.69227-.4839 1.0363-.23875.4957-.49029.98712-.74823 1.4743-1.9543 3.6773-4.4189 7.0584-7.3203 10.042-.49029.50424-.99196.99638-1.505 1.4764-1.883 1.7585-3.9159 3.3485-6.0754 4.7519-2.1575-1.4034-4.1882-2.9934-6.069-4.7519-.51445-.48003-1.0161-.97217-1.505-1.4764h.006zm16.508 12.715c-.77954.43183-1.5888.80741-2.4216 1.1239-4.1986 1.5833-8.8283 1.5833-13.027 0-.83214-.31647-1.6407-.69204-2.4195-1.1239-.15988-.0897-.31976-.18161-.47537-.27349 1.8425-.61797 3.6433-1.3545 5.3911-2.205.56917-.27562 1.1319-.56621 1.6862-.85465.793-.42733 1.5689-.88029 2.3321-1.3525.76315.4722 1.5391.92516 2.3321 1.3525.55425.29913 1.117.58971 1.6862.85465 1.7478.8505 3.5486 1.587 5.3911 2.205l-.48177.27349h.006zm3.6644 1.4358-.91024.38032c-3.857 1.6096-7.753 3.0767-11.688 4.4015-3.9351-1.3219-7.8312-2.789-11.688-4.4015l-.91024-.38032c-.38584-.16238-.76955-.33118-1.1533-.49784.8271-.1866 1.6457-.39528 2.4557-.62603.66873.45985 1.3642.87937 2.0827 1.2563 5.7755 3.0082 12.651 3.0082 18.427 0 .7185-.37697 1.414-.79649 2.0827-1.2563.81005.23218 1.6286.44086 2.4557.62603-.3901.16666-.77381.33545-1.1597.49784h.006zm3.5621-1.5576c-1.1369-.19799-2.2525-.43801-3.3468-.72004-.60328-.15597-1.2002-.3269-1.7928-.50852-1.8186-.55209-3.5989-1.2237-5.3293-2.0106-.56917-.25853-1.1277-.52988-1.6798-.81192-.88537-.44869-1.7516-.92658-2.5986-1.4337 2.4317-1.6356 4.7004-3.5024 6.7746-5.5745.48035-.48003.94861-.97074 1.4048-1.4721 2.7594-3.0111 5.1005-6.3818 6.96-10.021.14496-.28844.28991-.57903.42634-.86961.0959-.19871.18972-.40169.28352-.60253.18617-.39741.36523-.79768.53719-1.2008-.28362-.5687-.60037-1.1202-.94861-1.6516-2.3152-3.6271-5.7285-6.4156-9.7398-7.9568l-.0448-.0171c-4.5566-1.7264-9.5852-1.7264-14.142 0l-.0448.0171c-4.0113 1.5413-7.4246 4.3297-9.7398 7.9568-.34107.53416-.65728 1.0854-.94861 1.6538.17196.40169.35102.80124.53719 1.1986.0938.20084.18759.40382.28352.60253.14069.29272.28352.58116.42634.86961 1.8616 3.6383 4.2033 7.0088 6.9622 10.021.45761.50282.92658.99353 1.4069 1.4721 2.0742 2.0721 4.3429 3.9388 6.7746 5.5745-.85269.50709-1.7189.98499-2.5986 1.4337-.55424.28204-1.1128.55339-1.6798.81192-1.7304.78683-3.5107 1.4585-5.3293 2.0106-.59262.18161-1.1895.35254-1.7928.50852-1.1.28488-2.2156.5249-3.3468.72004-5.9999-2.6982-11.845-5.7298-17.508-9.0807 4.7964-.60395 9.6169-1.0783 14.462-1.423.51588-.0363 1.0296-.0727 1.5455-.10469.72905-.0491 1.4602-.0919 2.1914-.13461.67575-.0385 1.3494-.0791 2.0251-.11324-.4839-.46579-.95501-.94653-1.4155-1.4358-.63951.0342-1.2982.0684-1.9463.10683-.41568.0256-.83137.0577-1.2492.0855l-1.522.10256c-5.4202.39172-10.811.94582-16.173 1.6623-4.2634-2.6067-8.4153-5.3943-12.456-8.3628 8.2099-1.5056 16.5-2.6216 24.871-3.3481.53932-.047 1.0786-.0876 1.618-.13034-.23875-.48288-.46756-.97074-.68641-1.4636-.5308.0449-1.0659.0876-1.5903.13461-8.7088.77204-17.334 1.965-25.877 3.5789l-.02984-.0235c-.95217-.71221-1.8986-1.4401-2.8394-2.1836-2.4543-1.9301-4.861-3.9243-7.2201-5.9826 1.5434-.35753 3.0903-.7001 4.6407-1.0277.49243-.1047.98698-.21366 1.4815-.30981 8.9039-1.8415 17.897-3.22 26.943-4.1301.50095-.0513 1.004-.0962 1.5071-.14316-.0782-.49855-.14922-.99709-.21317-1.4956l-1.505.14315c-9.0999.91171-18.147 2.2931-27.105 4.1387l-1.4794.30981c-1.8915.40169-3.7774.82474-5.6576 1.2692-1.7054-1.5298-3.3901-3.0967-5.0543-4.7006-.62815-.6068-1.2534-1.2193-1.8759-1.8375l-.54785-.5427c-.56846-.56977-1.1305-1.1395-1.6862-1.7093-.35386-1.8874-.72194-3.7704-1.1042-5.6492-1.4595-7.1477-3.1421-14.258-5.0479-21.332-.25723-.95579-.51943-1.9109-.7866-2.8652-1.6059-5.7618-3.356-11.483-5.2504-17.164 1.6244-5.0923 3.4818-10.12 5.5723-15.082.58267-1.3788 1.1817-2.7484 1.797-4.1087 9.2612 3.0855 19.456-.03703 25.415-7.784 5.9587-7.747 6.3774-18.424 1.0439-26.616 32.309-5.974 65.435-5.974 97.743 0-5.3277 8.1925-4.9062 18.866 1.0508 26.61s16.148 10.869 25.408 7.7893c.61393 1.3617 1.2122 2.7313 1.7949 4.1087 2.0933 4.9598 3.9508 9.9873 5.5723 15.082-1.893 5.6749-3.6424 11.396-5.2483 17.164-.26575.95579-.52795 1.9109-.7866 2.8652-1.9029 7.0608-3.5863 14.172-5.05 21.332-.38087 1.8788-.74823 3.7619-1.1021 5.6492-.55851.56977-1.1206 1.1395-1.6862 1.7093l-.54785.5427c-.62246.61677-1.2478 1.2293-1.8759 1.8375-1.6585 1.601-3.3432 3.1679-5.0543 4.7006-1.8802-.44442-3.766-.86747-5.6576-1.2692l-1.4794-.30981c-8.9599-1.8466-18.009-3.228-27.111-4.1387l-1.4922-.14315c-.0618.50424-.13003 1.0042-.21317 1.4956.50308.047 1.0062.0919 1.5071.14316 9.0457.9058 18.039 2.2801 26.943 4.1173.49456.10042.98912.21366 1.4922.30981 1.549.32904 3.0952.67161 4.6386 1.0277-2.3577 2.064-4.7637 4.0582-7.218 5.9826-.9408.73927-1.888 1.4672-2.8416 2.1836l-.0298.0235c-8.5368-1.6153-17.162-2.8082-25.875-3.5789-.52867-.047-1.0659-.0897-1.5903-.13461-.21317.49356-.44979.98285-.68641 1.4636.53932.0427 1.0786.0833 1.6158.13033 8.3691.72645 16.661 1.8446 24.875 3.3545-4.0332 2.9656-8.1858 5.7532-12.458 8.3628-5.3591-.71221-10.75-1.2663-16.171-1.6623-.50735-.0363-1.0147-.0684-1.5242-.10256-.42634-.0278-.83137-.0598-1.2471-.0855-.63951-.0385-1.2961-.0726-1.9463-.10683-.46045.48929-.93156.97003-1.4155 1.4358.67575.0342 1.3494.0748 2.0251.11324.73118.0427 1.4624.0855 2.1914.13461.51588.032 1.0296.0684 1.5455.1047 4.8433.34328 9.6638.81762 14.462 1.423-5.6684 3.3534-11.519 6.3872-17.525 9.0871h.006zm49.69-4.5254c-4.6599-1.1837-9.3497-2.2392-14.069-3.1665-.65657-.13033-1.3131-.26067-1.9697-.38459-2.1715-.40738-4.353-.79055-6.5444-1.1495-.63951-.1047-1.279-.20084-1.9185-.30126-1.0843-.16951-2.1701-.33118-3.2573-.48502 3.2288-2.0213 6.3916-4.1451 9.4883-6.3714.88679-.63956 1.7693-1.2855 2.6476-1.9379l.39863.0769c2.5993.50424 5.1893 1.0462 7.7701 1.626.53719.11965 1.0659.24144 1.6137.3675 2.3023.53273 4.5967 1.0968 6.8833 1.6922-.39224 3.3388-.7397 6.6834-1.0424 10.034zm1.2321-11.551c-2.0337-.52846-4.0737-1.0313-6.1202-1.5085l-1.5839-.36964c-2.4998-.56977-5.0088-1.1011-7.5271-1.5939 3.3923-2.5967 6.6943-5.3181 9.9061-8.1641.85269.20227 1.7054.41023 2.5581.6239.49243.12179.98485.24144 1.4773.3675.88893.22648 1.7779.46151 2.6646.69868-.50735 3.3104-.96567 6.63-1.375 9.9588v-.0128z" style="fill:#34401f"/><path d="m103.68 69.96c-1.5205-1.8465-3.3015-3.4609-5.2867-4.7925-.37518-.25212-.75889-.4957-1.149-.72645l-.50095-.29058c-.60541.23503-1.198.49214-1.7779.77132-.67103.32186-1.3249.67845-1.959 1.0683-7.339 4.3741-11.857 12.281-11.908 20.839.35386.64954.73544 1.2806 1.1447 1.8931.15988.2393.32189.47647.49029.70936s.31976.42733.48603.64099c4.621 6.0272 11.774 9.5593 19.358 9.5593h.32615c.65657-.01 1.3067-.04487 1.9505-.10469.37376-.53416.72905-1.084 1.0659-1.6495 4.8769-8.3549 4.3753-18.807-1.279-26.654-.30697-.43801-.62886-.85679-.9614-1.2627zm4.0503 15.553c.0103 4.4606-1.2828 8.8267-3.7198 12.559-.47537.02991-.95288.04701-1.4346.04701-7.3412-.0019-14.237-3.5292-18.546-9.4866-.32615-.44869-.63951-.9102-.93156-1.3845-.16627-.26637-.32757-.53772-.4839-.81406.2352-9.0271 5.713-17.083 14.01-20.604 2.1043 1.2738 3.9926 2.8757 5.5936 4.7455.33894.39741.66723.80551.97846 1.2243 2.9542 3.9583 4.5488 8.7697 4.5448 13.713h-.0107z" style="fill:#34401f"/></g></g></svg>
