<svg width="320px" height="320px" version="1.1" viewBox="0 0 320 320" xmlns="http://www.w3.org/2000/svg"><title>Eoan Ermine</title><desc>Created with Sketch.</desc><g fill="none" fill-rule="evenodd" style="fill:#87a752;stroke:#87a752"><g transform="translate(-978 -185)" fill-rule="nonzero" style="fill:#87a752;stroke:#87a752"><g transform="translate(978 185)" style="fill:#87a752;stroke:#87a752"><g transform="translate(3 10)" fill="#ffffffFF" opacity=".1" style="fill:#87a752;mix-blend-mode:overlay;stroke:#87a752"><path d="m273.14 90.969c11.362 5.5151 22.318 11.831 32.785 18.899 2.2485 1.5175 4.4729 3.072 6.6731 4.6635l.53973.3904c-.066134-.29653-.13013-.59307-.1984-.8896l-.54827-.39467c-2.0252-1.4521-4.0676-2.8743-6.1269-4.2667-10.524-7.1039-21.541-13.449-32.966-18.987 3.6098-14.206 5.4506-28.805 5.4805-43.462v-.68267c-.20267-.2368-.40533-.47573-.61013-.7104v.79147c.017357 14.771-1.8094 29.486-5.4379 43.804-2.3922-1.152-4.7986-2.2663-7.2192-3.3429 1.929-8.3119 2.8989-16.818 2.8907-25.35v-.3008c2.9625-5.2309 6.0572-10.385 9.2843-15.462l.2496-.39467-.41387-.4736-.25173.39467c-3.0763 4.8356-6.0352 9.7458-8.8768 14.731-.11182-9.3852-1.4136-18.718-3.8741-27.776-.074667-.27307-.1536-.54613-.22827-.8192l-.85333-.75947c.078933.27307.16.544.2368.81707 2.7016 9.6276 4.0845 19.577 4.1109 29.577-4.0619 7.1808-7.8692 14.493-11.422 21.937-2.9298-1.1762-5.8731-2.2983-8.8299-3.3664-1.0305-9.8186-8.3222-17.828-18.001-19.774l-.029866-.029867c-15.158-15.194-34.712-25.233-55.893-28.695-5.1409-3.6297-10.472-6.9824-15.97-10.044 5.2684-2.8885 10.68-5.508 16.213-7.8485 13.213-5.596 27.061-9.5529 41.235-11.782l.89173-.13653-1.1243-.42667c-.29653.0448-.5952.0896-.89173.13867-19.971 3.2832-39.234 9.9518-56.96 19.718-17.725-9.7754-36.991-16.449-56.964-19.733-.29653-.049067-.5952-.093867-.89173-.1408l-1.1243.43947.8896.13653c14.174 2.2295 28.021 6.1864 41.233 11.782 5.5332 2.3414 10.945 4.9609 16.213 7.8485-5.5005 3.0611-10.834 6.4138-15.977 10.044-21.182 3.4603-40.737 13.5-55.893 28.695l-.023467.034133c-9.6867 1.9345-16.991 9.9421-18.029 19.765-2.9596 1.0695-5.9029 2.1916-8.8299 3.3664-3.5413-7.4368-7.3458-14.751-11.413-21.941.026452-9.9994 1.4094-19.949 4.1109-29.577.0768-.27307.15787-.544.2368-.81707l-.85333.75947c-.0768.27307-.1536.54613-.22827.8192-2.4549 9.0549-3.7531 18.384-3.8635 27.765-2.8444-4.9778-5.8034-9.888-8.8768-14.731l-.25387-.39467-.41387.47787.25173.39467c3.2228 5.0731 6.3175 10.227 9.2843 15.462v.3008c-.0087951 8.5313.96038 17.036 2.8885 25.346-2.4178 1.0795-4.8242 2.1938-7.2192 3.3429-3.6264-14.318-5.451-29.033-5.4315-43.804v-.7808c-.21333.23467-.40533.4736-.608.7104v.68267c.029959 14.658 1.8707 29.256 5.4805 43.462-11.426 5.5378-22.443 11.883-32.966 18.987-2.0608 1.3924-4.1031 2.8146-6.1269 4.2667l-.55253.40747c-.068267.29653-.13227.59307-.1984.8896l.53973-.3904c2.2016-1.5872 4.426-3.1417 6.6731-4.6635 10.466-7.0685 21.421-13.384 32.783-18.899 2.1759 8.4087 4.9681 16.646 8.3541 24.644 1.6668 3.9324 3.4652 7.786 5.3952 11.561-.081067 1.6725-.1216 3.3529-.1216 5.0411-.02695 13.709 2.7129 27.282 8.0555 39.906.72818 1.7209 1.5004 3.4162 2.3168 5.0859.0099555 3.6523.12942 7.2868.3584 10.903-4.0704 1.4919-8.1116 3.0855-12.124 4.7808-9.6524 4.0858-19.055 8.7374-28.16 13.931-7.2665-3.4287-14.291-7.3489-21.024-11.733l-.57387-.3776c.087467.29867.1728.59733.26027.896l.5824.3776c6.4541 4.1685 13.173 7.9126 20.113 11.209-4.3932 2.5259-8.7161 5.1748-12.969 7.9467l-.384.25173c.085333.18773.1664.37333.25173.55893l.38187-.2496c4.3819-2.8587 8.8462-5.5886 13.393-8.1899 2.1205.99556 4.2638 1.9527 6.4299 2.8715 1.6981.71964 3.4048 1.4094 5.12 2.0693-7.0997 3.5982-14.034 7.5093-20.802 11.733l-.37973.2368c.093867.1792.18987.35627.28587.53547l.37973-.2368c6.9035-4.3136 13.995-8.3065 21.276-11.979 4.5867 1.7564 9.2324 3.3138 13.937 4.672-10.492 4.5331-20.681 9.735-30.507 15.573l-.3776.22827.31787.51413.3776-.22613c10.011-5.9527 20.401-11.243 31.104-15.836 6.0871 1.7243 12.263 3.1186 18.5 4.1771 4.2664 16.258 10.814 31.829 19.447 46.251-.76231 8.4679-1.8219 16.886-3.1787 25.254l-.0768.46293.56747.27733.0768-.46293c1.3298-8.1621 2.3758-16.38 3.1381-24.653 7.4216 12.222 16.288 23.505 26.409 33.606.86613.86613 1.7408 1.7195 2.624 2.56l.64.60587 1.1648.2688-.64-.6016c-1.1378-1.0752-2.2592-2.1646-3.3643-3.2683-10.276-10.255-19.256-21.731-26.739-34.172.95147-10.637 1.4279-21.316 1.4293-32.036 0-3.9225-.064711-7.8428-.19413-11.761 2.917.14222 5.8439.21333 8.7808.21333 3.574 0 7.1296-.10453 10.667-.3136 1.8731.93013 3.7788 1.8055 5.7173 2.6261 25.52 10.743 54.294 10.743 79.814 0 1.9385-.8192 3.845-1.6946 5.7195-2.6261 3.5399.20622 7.0955.31076 10.667.3136 2.9369 0 5.8631-.071111 8.7787-.21333-.128 3.9168-.192 7.8372-.192 11.761 0 10.701.47573 21.379 1.4272 32.034-7.4812 12.451-16.462 23.936-26.741 34.199-1.1093 1.1079-2.2308 2.1973-3.3643 3.2683l-.64.6016 1.1648-.2688.64-.60587c.88178-.85333 1.7564-1.7067 2.624-2.56 10.12-10.101 18.987-21.385 26.409-33.606.76089 8.2645 1.8069 16.482 3.1381 24.653l.0768.46293.56747-.27733-.0768-.46293c-1.3568-8.3598-2.4164-16.778-3.1787-25.254 4.2531-7.103 8.0049-14.495 11.228-22.121 3.3168-7.835 6.0631-15.899 8.2176-24.13 6.2383-1.0576 12.415-2.452 18.502-4.1771 10.703 4.5931 21.093 9.883 31.104 15.836l.3776.22613.31787-.51413-.3776-.22827c-9.8257-5.8376-20.015-11.039-30.507-15.573 4.6933-1.3582 9.3383-2.9134 13.935-4.6656 7.2647 3.6636 14.357 7.6565 21.276 11.979l.37973.2368.27947-.53547-.37973-.2368c-6.757-4.2197-13.691-8.1308-20.802-11.733 1.7152-.66418 3.4219-1.354 5.12-2.0693 2.1675-.91733 4.3108-1.8745 6.4299-2.8715 4.5511 2.5984 9.0155 5.3284 13.393 8.1899l.38187.2496c.085333-.1856.1664-.3712.2496-.55893l-.38187-.25173c-4.2382-2.7719-8.5618-5.4201-12.971-7.9445 6.9402-3.2964 13.659-7.0405 20.113-11.209l.5824-.3776c.087467-.29867.1728-.59733.26027-.896l-.57387.3776c-6.7332 4.3844-13.757 8.3046-21.024 11.733-9.1046-5.1932-18.508-9.8449-28.16-13.931-4.0107-1.6967-8.0519-3.2903-12.124-4.7808.22898-3.6153.34844-7.2498.3584-10.903.81493-1.6711 1.5872-3.3664 2.3168-5.0859 5.3426-12.625 8.0824-26.198 8.0555-39.906 0-1.6882-.040533-3.3692-.1216-5.0432 1.9285-3.7774 3.7241-7.6331 5.3867-11.567 3.3966-8.0056 6.1967-16.251 8.3776-24.67zm-5.3333-28.781c-.04681 8.1868-1.0005 16.343-2.8437 24.32-1.344-.5952-2.6901-1.184-4.0533-1.7557-1.3205-.55893-2.6453-1.1008-3.9723-1.6384 3.3877-7.0869 7.0094-14.062 10.865-20.926h.004267zm-11.123 21.466c1.3355.53973 2.6688 1.0859 3.9957 1.6491 1.3845.58453 2.7733 1.1883 4.1387 1.7963-1.4172 5.9602-3.3296 11.792-5.7173 17.434-.6784 1.6043-1.3895 3.1893-2.1333 4.7552-1.2118-5.2956-2.8462-10.486-4.8875-15.52 1.4734-3.3877 3.008-6.7591 4.6037-10.114zm-150.01-14.545c5.5567 7.7702 5.4403 18.245-.28774 25.889-5.728 7.6448-15.748 10.699-24.766 7.5485 5.2383-11.404 11.678-22.216 19.211-32.254 1.9442-.41813 3.8919-.8128 5.8432-1.184zm-5.2885.45013c.8832-1.1634 1.7806-2.3161 2.6923-3.4581.7924.76812 1.5269 1.5938 2.1973 2.4704-1.6341.31289-3.264.64213-4.8896.98773zm-20.335 32.779c-7.6872-2.9392-13.087-9.9277-13.993-18.108.9728-1.8233 1.9996-3.6139 3.0805-5.3717 9.7568-3.3699 19.703-6.1636 29.788-8.3669-7.3871 9.927-13.714 20.601-18.876 31.846zm.31787.7616c9.2217 3.2539 19.489.18321 25.411-7.5993s6.1416-18.497.54574-26.517c32.83-6.1419 66.515-6.1419 99.345 0-5.5894 8.0204-5.3658 18.731.55343 26.511 5.9193 7.7801 16.182 10.853 25.403 7.6052.67698 1.4848 1.3348 2.9781 1.9733 4.48 2.1205 5.0119 3.9993 10.092 5.6363 15.241-1.9243 5.7429-3.702 11.534-5.3333 17.372-1.6341 1.6171-3.3116 3.1815-5.0325 4.6933.010667-.26667.014934-.53547.014934-.8064-.013841-12.465-9.5546-22.85-21.973-23.919-4.7112-6.8955-12.669-10.845-21.01-10.427-8.3408.41793-15.864 5.1431-19.862 12.475-3.5283 1.1342-6.9015 2.7036-10.042 4.672-3.1403-1.9706-6.5143-3.5415-10.044-4.6763-3.9983-7.3319-11.522-12.057-19.862-12.475-8.3408-.41793-16.299 3.5316-21.01 10.427-12.419 1.0688-21.959 11.454-21.973 23.919 0 .27093 0 .53973.014933.8064-1.7195-1.5033-3.397-3.0677-5.0325-4.6933-1.627-5.8311-3.4048-11.622-5.3333-17.372 1.6384-5.1456 3.5172-10.226 5.6363-15.241.64-1.499 1.2985-2.9909 1.9755-4.4757zm131.8-32.806c7.529 10.038 13.965 20.85 19.2 32.254-9.0177 3.1493-19.037.094178-24.762-7.5512-5.726-7.6453-5.8395-18.119-.28072-25.887 1.9527.37404 3.9004.76871 5.8432 1.184zm-5.4443-1.7216c.67048-.87656 1.4049-1.7023 2.1973-2.4704.91307 1.1378 1.8105 2.2905 2.6923 3.4581-1.6284-.3456-3.2583-.67484-4.8896-.98773zm6.3488 1.92c10.085 2.2033 20.031 4.9971 29.788 8.3669 1.0795 1.7579 2.1063 3.5484 3.0805 5.3717-.90546 8.1805-6.3066 15.169-13.995 18.108-5.1602-11.246-11.486-21.92-18.874-31.846zm-129.18 93.717c-1.5644-7.6658-3.3899-15.282-5.4763-22.848 1.5474 1.5033 3.1317 2.9575 4.7531 4.3627.31549 4.6615 1.9927 9.1278 4.8235 12.845-.69136 4.9101-.56304 9.901.37973 14.769-.5248-.512-1.046-1.0276-1.5637-1.5467-.6016-.6016-1.1975-1.206-1.7877-1.8133-.36409-1.9285-.74027-3.8514-1.1285-5.7685zm.3648 4.9749c-6.3725-6.6266-12.221-13.738-17.493-21.269.85333-5.2622 1.9463-10.469 3.2789-15.62 2.2571 2.7307 4.6514 5.3618 7.1829 7.8933l.33067.3264c2.1902 7.8748 4.1052 15.813 5.7451 23.814.32569 1.6171.64213 3.2356.94933 4.8555h.0064zm133.27 9.8475c-2.1077-.49778-4.2219-.96924-6.3424-1.4144.78366-3.2209 1.179-6.5241 1.1776-9.8389 0-.2944 0-.5888-.0128-.8832 4.3728-1.4386 8.2423-4.0992 11.151-7.6672.62409 4.9508.40772 9.9714-.64 14.85-1.7564 1.6896-3.5399 3.3408-5.3504 4.9536h.017067zm5.0987-3.8763c-.38842 1.6153-.86848 3.2072-1.4379 4.768-.9792-.24533-1.9605-.48853-2.944-.7232 1.4763-1.3227 2.9348-2.6738 4.3755-4.0533l.0064.008533zm-67.2 27.236c-1.1193.69404-2.2713 1.334-3.456 1.92-3.8761-1.9958-7.412-4.5921-10.477-7.6928 2.1589-.1152 4.3221-.20409 6.4896-.26667 2.262 2.2725 4.7601 4.2971 7.4517 6.0395h-.008534zm-6.6133-6.0651c2.3865-.064 4.7787-.096711 7.1765-.098177 2.3979-.001378 4.79.031333 7.1765.098177-2.1862 2.1453-4.5875 4.0597-7.1659 5.7131-2.582-1.6528-4.9869-3.5673-7.1765-5.7131h-.010667zm7.1872 6.4256c1.0837.6784 2.198 1.3134 3.3429 1.9051-1.0892.53939-2.205 1.0236-3.3429 1.4507-1.1378-.43662-2.2521-.92302-3.3429-1.4592 1.1435-.58169 2.2578-1.2139 3.3429-1.8965zm.56533-.36053c2.6896-1.7425 5.1856-3.7671 7.4453-6.0395 2.1675.061156 4.3307.15004 6.4896.26667-3.0652 3.1038-6.6027 5.7024-10.481 7.6992-1.1819-.59022-2.3332-1.2324-3.4539-1.9264zm7.1979-6.6539c-2.5813-.072533-5.1691-.11022-7.7632-.11307-2.5941-.002845-5.1819.034844-7.7632.11307-3.1633-3.2146-5.8178-6.8928-7.872-10.908 5.1883-.29867 10.4-.44942 15.635-.45231 5.2352-.002805 10.447.14795 15.635.45231-2.0542 4.015-4.7087 7.6932-7.872 10.908zm-7.7632-11.964c-5.3333 0-10.642.15573-15.927.4672-.24747-.50631-.4864-1.0162-.7168-1.5296 3.3196-6.0916 9.7026-9.8824 16.64-9.8824s13.32 3.7908 16.64 9.8824c-.2304.51342-.46933 1.0233-.7168 1.5296-5.2779-.30862-10.584-.46436-15.919-.4672zm-66.865-9.696c-1.0435-4.8794-1.2562-9.8999-.62933-14.85 2.9087 3.567 6.7772 6.2275 11.149 7.6672 0 .2944-.010667.5888-.010667.8832-.001401 3.3149.39394 6.618 1.1776 9.8389-2.1205.44516-4.2347.91662-6.3424 1.4144-1.8105-1.6114-3.5918-3.2626-5.344-4.9536zm4.6272 5.12c-.98347.23467-1.9648.47787-2.944.7232-.56967-1.5607-1.0497-3.1526-1.4379-4.768 1.4407 1.3781 2.9013 2.7292 4.3819 4.0533v-.008533zm101.09-13.986c-3.5827-1.7127-6.6743-4.3031-8.9877-7.5307.42667.021333.832.032 1.2523.032 7.6974.000874 14.928-3.691 19.441-9.9264.25173.448.49707.9024.73173 1.3611-.87638 5.6123-3.7637 10.714-8.1237 14.355h-.0192c-1.4222.60444-2.8508 1.1733-4.2859 1.7067l-.008533.002134zm.49067.88747c-3.0857 1.6877-6.5138 2.6541-10.027 2.8267 3.21-.8704 6.3794-1.8894 9.5083-3.0571l.5184.2304zm-9.9243-9.0581c-5.5654-8.3324-5.1946-19.287.9216-27.223 8.347 3.4655 15.328 9.5723 19.872 17.385-4.3824 6.2065-11.506 9.8977-19.104 9.8987-.56747.004267-1.1328-.017066-1.6896-.059733zm21.993-8.9344c-.15644-.29156-.31644-.58169-.48-.8704.21333-.30507.41173-.6144.608-.93227-.021333.60587-.064 1.2068-.128 1.8027zm.32 1.9563c1.2032 2.5077 2.1468 5.1318 2.816 7.8315-3.1289 1.7707-6.3488 3.3899-9.6597 4.8576 3.5253-3.4279 5.9128-7.8558 6.8395-12.685l.004266-.004266zm-10.475 14.871c-.40747.27733-.82347.54187-1.2523.7936l-.37333-.15787c.544-.20907 1.0859-.4224 1.6256-.63573zm2.2123-.9088c3.8412-1.6289 7.5882-3.4714 11.223-5.5189.60365 2.6108.94949 5.2746 1.0325 7.9531-4.9185 1.5014-10.195 1.3402-15.012-.45867.96358-.59516 1.8846-1.2567 2.7563-1.9797v.004266zm11.77-5.8283c3.6291-2.0752 7.1376-4.3545 10.509-6.8267.73546 2.298 1.2806 4.6526 1.6299 7.04-2.8346 3.648-6.6811 6.38-11.059 7.8549-.093388-2.7198-.45496-5.4238-1.0795-8.0725v.004267zm-.14933-.61013c-.74861-2.9538-1.8218-5.8156-3.2-8.5333.16879-1.155.25364-2.3207.25387-3.488v-.30293c1.9306-3.4976 2.9503-7.4247 2.9653-11.42 4.7201 4.7774 8.2899 10.567 10.438 16.93-3.3525 2.4662-6.8426 4.7398-10.453 6.8096l-.004267.004266zm-2.9867-13.547c-.58257-8.9958-6.1459-16.911-14.413-20.506.21333-.11947.44587-.2368.66987-.352 6.0473 2.1397 11.556 5.5698 16.145 10.052v.4736c.003521 3.5786-.8185 7.1098-2.4021 10.319v.0128zm-.56107 1.0667c-.29867.5312-.6144 1.0517-.95147 1.5573-4.5846-7.7611-11.549-13.838-19.859-17.329 1.7614-2.1659 3.8937-4.0013 6.2976-5.4208 8.6156 3.5488 14.311 11.864 14.507 21.18l.0064.0128zm-21.395-16.013c-4.7788-1.9148-9.8729-2.9211-15.021-2.9675 6.2503-4.1981 14.141-5.1265 21.195-2.4939-2.3557 1.4532-4.4441 3.3006-6.1739 5.4613zm-.38613.49493c-6.073 7.9962-6.5158 18.931-1.1093 27.392-1.1012-.1153-2.1926-.30922-3.2661-.58027-2.7326-9.5442-8.7707-17.805-17.035-23.307 1.5601-2.4698 3.5662-4.6278 5.9157-6.3638h.42667c5.1578-.008468 10.27.96007 15.068 2.8545v.004267zm-10.53 24.96c.80212 3.3593 1.2075 6.8012 1.2075 10.255 0 .94293-.034134 1.8773-.091734 2.8032-6.3019-2.227-11.35-7.0432-13.871-13.233-2.5211-6.1901-2.274-13.163.6788-19.159.51483 8.0694 5.0531 15.339 12.077 19.345v-.010666zm-11.52-20.399c.036267-.068266.074667-.1344.11307-.21333 5.3965 5.5035 9.2585 12.324 11.202 19.782-6.877-4.1508-11.145-11.538-11.307-19.569h-.008533zm1.1669.023467c7.6114 5.3498 13.189 13.117 15.825 22.039-1.7228-.49057-3.383-1.1793-4.9472-2.0523-1.8431-7.4858-5.5911-14.368-10.88-19.977l.002133-.010667zm-1.0347-1.4272-.1152-.0768c.082631-1.8617.38846-3.7067.91093-5.4955 1.5261-.22856 3.0638-.371 4.6059-.42667-2.1236 1.6862-3.9481 3.7178-5.3973 6.0096l-.004266-.010667zm-.70187-.44373c-.12373-.0768-.24747-.1536-.37333-.22827-1.3486-1.2585-2.7735-2.4326-4.2667-3.5157 1.7939-.55873 3.6244-.99213 5.4784-1.2971-.45649 1.6459-.73612 3.3358-.83413 5.0411h-.004267zm-2.9013-1.6384c-1.1051-.56889-2.2372-1.0852-3.3963-1.5488.31147-.11307.62507-.21333.94293-.3264.84338.59733 1.6626 1.2224 2.4576 1.8752h-.004266zm2.1589 1.9072c.23467.21333.46933.44587.69973.66987v.75947c-3.4084 6.1991-3.907 13.587-1.3627 20.188s7.8722 11.743 14.56 14.05c-.055466.72533-.12658 1.4457-.21333 2.1611-4.3635.79821-8.7711 1.3332-13.199 1.6021-2.2912-.056889-4.5867-.086045-6.8864-.087467-2.2997-.001422-4.5952.027733-6.8864.087467-4.4278-.26891-8.8354-.80392-13.199-1.6021-.091733-.7104-.16427-1.4315-.21333-2.1611 6.6856-2.31 12.011-7.452 14.555-14.052 2.5433-6.6004 2.0448-13.987-1.3622-20.185v-.76587c.2304-.21333.46507-.448.69973-.66987 2.0386-1.2268 4.18-2.2739 6.4-3.1296 2.2273.85558 4.3753 1.9049 6.4192 3.136h-.010667zm5.5787 39.616c2.6923-.28444 5.3653-.66773 8.0192-1.1499-.0768.53547-.15787 1.0667-.25387 1.5979-2.5813-.18773-5.1698-.33707-7.7653-.448zm7.648 1.0475c-.58289 3.0137-1.4817 5.9576-2.6816 8.7829-2.7004-4.6782-7.2095-8.0367-12.465-9.2843.80853-.032 1.6149-.072533 2.4235-.1216 4.2539.10951 8.4949.31716 12.723.62293zm-26.522-.6208c.8064.049778 1.6142.090311 2.4235.1216-5.2596 1.2449-9.7729 4.6037-12.476 9.2843-1.1989-2.8262-2.097-5.7708-2.6795-8.7851 4.2254-.3072 8.4693-.51413 12.732-.6208zm-12.849.023467c-.096-.52907-.17707-1.0667-.25387-1.5979 2.6539.48071 5.3269.86329 8.0192 1.1477-2.5941.11236-5.1826.26169-7.7653.448v.002133zm-.0128-18.475c-1.5642.87301-3.2244 1.5617-4.9472 2.0523 2.6375-8.9174 8.2131-16.681 15.821-22.029-5.2888 5.6083-9.0369 12.489-10.88 19.974l.0064.002133zm11.927-20.203c.0384.068266.0768.1344.11307.21333-.15822 8.0347-4.4268 15.427-11.307 19.58 1.9391-7.4624 5.7983-14.287 11.194-19.795v.002134zm-11.403 20.602c7.0207-4.004 11.558-11.269 12.077-19.334 2.9557 5.9958 3.2042 12.97.6828 19.161-2.5214 6.191-7.5717 11.007-13.875 13.232-.0576-.92587-.091741-1.8603-.091741-2.8032-.002051-3.4546.40324-6.8974 1.2075-10.257v.002134zm14.987-23.893c.79644-.6528 1.6142-1.2779 2.4533-1.8752.31573.10453.64.21333.94293.3264-1.1577.47218-2.2898.99058-3.3963 1.5552v-.0064zm-2.528 1.4123-.37333.22827c-.098014-1.7052-.37764-3.3952-.83413-5.0411 1.854.30494 3.6845.73834 5.4784 1.2971-1.4941 1.0836-2.9204 2.2577-4.2709 3.5157zm-.96.5952-.1152.0768c-1.4499-2.29-3.2745-4.3201-5.3973-6.0053 1.5421.055662 3.0798.19811 4.6059.42667.52191 1.7924.82632 3.641.90667 5.5061v-.004267zm-.6208.4096c-8.2659 5.5027-14.304 13.768-17.033 23.315-1.0728.27104-2.1635.46496-3.264.58027 5.4065-8.4611 4.9636-19.396-1.1093-27.392 4.7966-1.898 9.9093-2.8701 15.068-2.8651h.42667c2.3483 1.7369 4.3529 3.8956 5.9115 6.3659v-.004267zm-30.507 32.124c-1.4336-.5376-2.8558-1.1065-4.2667-1.7067h-.0192c-4.3624-3.6395-7.2514-8.742-8.128-14.355.23467-.45867.48-.91307.73173-1.3611 4.5114 6.233 11.738 9.9245 19.433 9.9264.42667 0 .83627 0 1.2523-.032-2.3159 3.229-5.4106 5.8202-8.9963 7.5328l-.0064-.004267zm.0256.65493c3.1289 1.1648 6.2997 2.1845 9.5125 3.0592-3.5129-.17254-6.9409-1.139-10.027-2.8267l.51413-.23253zm-6.0501-3.1168c-3.3081-1.4649-6.528-3.0827-9.6597-4.8533.66952-2.6982 1.6131-5.3209 2.816-7.8272.92829 4.8281 3.3173 9.2546 6.8437 12.681zm-6.6517-16.444c.19627.31573.39893.62649.608.93227-.16356.28444-.32427.57458-.48213.8704-.064-.5952-.10667-1.1947-.12587-1.8027zm8.0661 17.717c.87133.72356 1.7923 1.3851 2.7563 1.9797-4.8183 1.7968-10.095 1.9557-15.012.45227.083043-2.6784.42888-5.3422 1.0325-7.9531 3.6353 2.0482 7.3823 3.8915 11.223 5.5211zm2.2123.91307 1.6256.64-.37333.15787c-.42667-.25813-.8448-.52267-1.2523-.79787zm10.148-7.8251c-7.5977-.00094-14.722-3.6922-19.104-9.8987 4.5444-7.8123 11.525-13.919 19.872-17.385 6.1121 7.9352 6.4829 18.884.9216 27.215-.55893.042667-1.1221.064-1.6896.064v.004267zm.96213-28.015c-1.7304-2.1602-3.8186-4.0075-6.1739-5.4613 7.054-2.6326 14.944-1.7042 21.195 2.4939-5.1479.04632-10.242 1.0527-15.021 2.9675zm-.58453.23893c-8.3105 3.4912-15.275 9.568-19.859 17.329-.33707-.5056-.65493-1.0261-.95147-1.5573.18969-9.3208 5.8862-17.643 14.507-21.193 2.4061 1.4171 4.5407 3.2512 6.304 5.4165v.004267zm-21.372 14.694c-1.5882-3.2123-2.4125-6.7482-2.4085-10.332v-.4736c4.5886-4.4824 10.098-7.9126 16.145-10.052.224.1152.448.23253.66987.352-8.2648 3.5962-13.825 11.511-14.406 20.506zm-.046934 1.2181v.30293c.000229 1.1673.085073 2.333.25387 3.488-1.3782 2.7177-2.4514 5.5796-3.2 8.5333-3.6114-2.075-7.1015-4.3543-10.453-6.8267 2.1485-6.3629 5.7183-12.153 10.438-16.93.011404 4.0017 1.0297 7.9362 2.9611 11.441v-.008533zm-3.0891 12.947c-.62347 2.649-.98503 5.3528-1.0795 8.0725-4.377-1.4779-8.2214-4.213-11.053-7.8635.34928-2.3874.89441-4.742 1.6299-7.04 3.3689 2.4736 6.8754 4.7542 10.502 6.8309zm-12.646-.46933c-2.4261-3.3637-3.9101-7.3141-4.2987-11.443 1.9243 1.6412 3.8983 3.2121 5.9221 4.7125-.71537 2.1979-1.2582 4.4483-1.6235 6.7307zm12.851 20.48c.82355 3.1736 2.0202 6.2386 3.5648 9.1307-3.2469-2.4875-6.4114-5.0923-9.4933-7.8144 1.9712-.45938 3.946-.89742 5.9243-1.3141l.004267-.002133zm-.71467-10.428v-.69547c5.1586 1.5364 10.684 1.2945 15.689-.68693 3.6215 2.0795 7.7258 3.1712 11.902 3.1659.38613 0 .77013 0 1.1541-.027733l.064.017066c.053334 1.2373.15787 2.464.31573 3.6715-9.3941.92311-18.732 2.3474-27.974 4.2667-.77052-3.1787-1.158-6.4381-1.1542-9.7088l.004295-.002134zm28.781 0c0 .38187 0 .76373.017067 1.1435-3.7653-.94086-7.4782-2.0802-11.123-3.4133 3.6097-1.8327 6.7016-4.5424 8.992-7.8805 1.1835-.098592 2.3579-.28542 3.5136-.55893-.93061 3.4944-1.4011 7.0953-1.3995 10.711v-.002134zm2.0736-10.88c1.7178-.46122 3.3786-1.1131 4.9515-1.9435-.73104 3.2372-1.0995 6.5458-1.0987 9.8645 0 1.0112.036267 2.0117.1024 3.0059-1.754.56871-3.5694.92678-5.408 1.0667 0-.36907-.014941-.74027-.014941-1.1115-.002208-3.6762.49149-7.3358 1.4677-10.88v-.002134zm4.1877 13.399c-1.4677-.27733-2.9298-.58524-4.3861-.92373 1.4246-.18183 2.8299-.49243 4.1984-.928.0512.62151.11378 1.238.18773 1.8496v.002133zm.0832.64c.081067.5888.17067 1.1755.2752 1.7579-1.8901.14222-3.7774.30436-5.6619.4864-.14933-1.1378-.25173-2.2926-.3072-3.4645 1.8873.448 3.7852.85049 5.6939 1.2075v.0128zm.38827 2.3467c.62087 3.2348 1.6004 6.3903 2.9205 9.408-.288.54827-.55253 1.1136-.78933 1.6917-1.536.1024-3.0684.21689-4.5973.34347-1.5834-3.4821-2.6685-7.1699-3.2235-10.955 1.893-.18489 3.7895-.34916 5.6896-.4928v.004267zm3.2384 10.118c.13511.2944.27307.58809.41387.88107l-.85333.053334c.13867-.31787.28373-.64.43947-.93867v.004267zm33.997 0c.1536.3072.29582.61867.42667.9344l-.85333-.053334c.14933-.2944.29156-.58951.42667-.88533v.004267zm.31787-.7104c1.3201-3.0177 2.2997-6.1732 2.9205-9.408 1.9008.1408 3.7973.3072 5.6896.48853-.55496 3.7848-1.6401 7.4725-3.2235 10.955-1.5289-.128-3.0613-.24249-4.5973-.34347-.2368-.5824-.50133-1.1477-.78933-1.696v.004267zm3.0336-10.005c.10453-.5824.19413-1.1691.2752-1.7579 1.91-.35698 3.8073-.76373 5.6917-1.2203-.052622 1.1676-.15502 2.3225-.3072 3.4645-1.8816-.18347-3.7682-.34702-5.6597-.49067v.004266zm.3584-2.3872c.073955-.6144.13653-1.2316.18773-1.8517 1.3685.43557 2.7738.74617 4.1984.928-1.4549.33564-2.917.64213-4.3861.91947v.004266zm.23253-2.4725c.066133-.99413.1024-1.9947.1024-3.0059.000866-3.3188-.36762-6.6273-1.0987-9.8645 1.5729.83037 3.2337 1.4822 4.9515 1.9435.97559 3.5443 1.4693 7.2039 1.4677 10.88 0 .3712 0 .7424-.014937 1.1115-1.8386-.13988-3.654-.49795-5.408-1.0667v.002133zm4.6293-10.756c1.1557.27351 2.3301.46034 3.5136.55893 2.2904 3.3381 5.3823 6.0478 8.992 7.8805-3.645 1.3331-7.3579 2.4725-11.123 3.4133 0-.37973.017067-.7616.017067-1.1435.001623-3.6169-.46884-7.2185-1.3995-10.714v.004266zm1.3589 12.486.064-.017066c.38187.0192.768.027733 1.1541.027733 4.1774.005111 8.283-1.0866 11.906-3.1659 5.0046 1.9815 10.53 2.2234 15.689.68693v.69547c0 3.2731-.39033 6.5345-1.1627 9.7152-9.2422-1.9193-18.58-3.3436-27.974-4.2667.1664-1.216.27449-2.4427.32427-3.68v.004266zm28.111 8.6507c1.984.41529 3.9609.85404 5.9307 1.3163-3.082 2.7207-6.2464 5.3248-9.4933 7.8123 1.5449-2.891 2.7408-5.9553 3.5627-9.1285zm11.23-27.213c2.0224-1.499 3.9964-3.0699 5.9221-4.7125-.38855 4.1291-1.8725 8.0795-4.2987 11.443-.36746-2.2825-.9124-4.5329-1.6299-6.7307h.0064zm-.20053-.60373c-2.2529-6.5774-6.0047-12.541-10.959-17.419-.12868-4.3186-1.4271-8.5214-3.7568-12.16 11.899 1.2724 20.928 11.306 20.943 23.273 0 .4544-.014933.90667-.040533 1.3547-2.0124 1.7237-4.0747 3.3742-6.1867 4.9515zm-11.59-18.031c-4.4134-4.1921-9.6346-7.4411-15.345-9.5488 3.061-1.4101 6.3919-2.1381 9.7621-2.1334.56889 0 1.1321.020645 1.6896.06189 2.3112 3.4563 3.6535 7.469 3.8869 11.62h.0064zm-5.5829-12.29c-3.6647-.004167-7.2811.83605-10.569 2.4555-8.8622-3.0655-18.464-3.2685-27.447-.58027 3.9889-6.8682 11.191-11.242 19.125-11.614s15.514 3.3084 20.128 9.7731c-.40747-.021333-.82347-.034133-1.2437-.034133h.0064zm-25.186.60582c4.712-.002606 9.3938.75153 13.867 2.2337-.1984.10667-.3968.21333-.59093.32853-7.6266-3.0193-16.267-1.9297-22.906 2.8885-1.7512.024046-3.4991.15943-5.2331.40533.42019-1.3239.95779-2.6075 1.6064-3.8357 4.2877-1.3458 8.7562-2.0271 13.25-2.0203h.0064zm-15.539 5.9542c-2.13.3329-4.2307.8322-6.2827 1.4933-.42667-.30507-.87467-.60373-1.3227-.89173 2.854-1.7622 5.8994-3.1937 9.0773-4.2667-.5911 1.1789-1.0835 2.4048-1.472 3.6651zm-6.9995 1.7429c-.39253.13511-.78293.27733-1.1712.42667-.38827-.14222-.77867-.28444-1.1712-.42667.38613-.26667.77653-.5248 1.1712-.77867.39467.25387.78507.512 1.1712.77867zm-3.0613-.23893c-2.0513-.66113-4.1512-1.1604-6.2805-1.4933-.38857-1.2582-.88092-2.482-1.472-3.6587 3.1779 1.073 6.2233 2.5045 9.0773 4.2667-.448.2816-.88747.58027-1.3248.88533zm-6.9461-1.5979c-1.734-.2459-3.4819-.38129-5.2331-.40533-6.6401-4.8216-15.285-5.9114-22.914-2.8885-.19413-.11307-.39253-.21333-.59093-.32853 8.7943-2.9123 18.281-2.9884 27.121-.2176.65332 1.2288 1.1945 2.514 1.6171 3.84zm-14.867-6.4619c-4.9762-.004395-9.918.8256-14.62 2.4555-3.2868-1.6192-6.9024-2.4594-10.566-2.4555-.42667 0-.83627.0128-1.2523.034133 4.6142-6.4647 12.194-10.145 20.128-9.7731 7.9338.37211 15.136 4.746 19.125 11.614-4.1571-1.2482-8.4745-1.8814-12.815-1.8795v.004267zm-25.186.60587c3.3702-.004723 6.7011.72319 9.7621 2.1333-5.7105 2.1077-10.932 5.3567-15.345 9.5488.23427-4.1527 1.5788-8.1665 3.8933-11.622.55893-.041245 1.1221-.062578 1.6896-.064v.004266zm-6.2144 12.292c-4.9551 4.8772-8.7071 10.841-10.959 17.419-2.1163-1.5772-4.1785-3.2306-6.1867-4.96-.0256-.448-.040533-.90027-.040533-1.3547.014957-11.967 9.0439-22 20.943-23.273-2.3311 3.6411-3.6295 7.847-3.7568 12.169zm-14.522 39.253c.7296.7296 1.4656 1.4521 2.208 2.1675.42282 1.9306.97228 3.8312 1.6448 5.6896-1.1136.28444-2.2258.57387-3.3365.86827-.51484-3.3095-1.0738-6.6069-1.6768-9.8923.38613.37973.77227.77227 1.1605 1.1627v.004266zm1.5083 20.311c-3.8613 1.0169-7.7013 2.122-11.52 3.3152-2.3297-2.9082-4.4969-5.9428-6.4917-9.0901 5.4599-1.866 10.967-3.5513 16.523-5.056.55182 3.5968 1.0496 7.2057 1.4933 10.827l-.0042666.004267zm-.90027-10.991c1.152-.31004 2.3054-.61013 3.4603-.90027 1.3375 3.5263 3.1167 6.8689 5.2949 9.9477-2.4292.56036-4.8512 1.157-7.2661 1.7899-.44089-3.6267-.93867-7.2405-1.4933-10.842l.0042667.004267zm4.0533-1.0475c1.0894-.27307 2.1817-.53973 3.2768-.8 3.5186 3.1161 7.1452 6.0821 10.88 8.8981-2.9483.56889-5.8852 1.1847-8.8107 1.8475-2.2034-3.0727-4.001-6.417-5.3483-9.9499l.0021333.004267zm10.524-2.4107c9.2216-1.9182 18.539-3.3425 27.913-4.2667.54994 3.7813 1.6218 7.468 3.1851 10.955-8.945.77006-17.845 1.9926-26.667 3.6629l-.26453-.20053c-1.8395-3.1822-3.2416-6.5979-4.1685-10.155l.002134.004266zm5.0837 10.844c8.6756-1.6228 17.437-2.8124 26.285-3.5691.99792 2.1326 2.174 4.1772 3.5157 6.112v.30933c-.002012 1.5191.17267 3.0333.52053 4.512-5.6476.39538-11.262.96427-16.843 1.7067-4.6293-2.8146-9.1228-5.8396-13.481-9.0752l.002133.004267zm12.531 9.2053c-1.5716.21476-3.136.44658-4.6933.69547-3.0785-2.6658-5.7469-5.7713-7.9189-9.216 4.0761 3.018 8.2795 5.8567 12.61 8.5163l.002133.004267zm17.312-7.68c-1.094-1.6443-2.0679-3.3654-2.9141-5.1499 1.3582-.11236 2.7186-.21404 4.0811-.30507-.65112 1.7523-1.0449 3.5897-1.1691 5.4549h.002133zm1.8304-5.5019 1.3931-.087466c2.0132 3.9953 4.6111 7.6681 7.7077 10.897-2.1632.068267-4.3214.16142-6.4747.27947-1.4138-1.4874-2.7145-3.0783-3.8912-4.7595.054117-2.1668.48135-4.308 1.2629-6.3296h.002133zm1.8389 11.127c-.85333.049778-1.7131.10382-2.5792.16213-.31201-1.2864-.48791-2.6021-.5248-3.9253.96185 1.3127 1.9982 2.5692 3.104 3.7632zm.54187.576c3.089 3.2109 6.6703 5.9086 10.609 7.9915-2.074.99198-4.2224 1.8201-6.4256 2.4768-3.4776-2.52-5.999-6.1438-7.1531-10.281.99556-.066844 1.9854-.12729 2.9696-.18133v-.0064zm11.281 8.32c1.034.52196 2.0914 1.0012 3.1723 1.4379-2.6496.95133-5.3906 1.6255-8.1792 2.0117-.4992-.27093-.98133-.5632-1.4507-.8768 2.2161-.68328 4.3753-1.5392 6.4576-2.56v-.0128zm4.0213 1.7707c2.622.99167 5.3383 1.7136 8.1067 2.1547-5.1253 2.4234-11.067 2.4234-16.192 0 2.7603-.43618 5.4692-1.1509 8.0853-2.1333v-.021333zm.85333-.33067c1.0795-.4352 2.1369-.91449 3.1723-1.4379 2.0821 1.0248 4.2412 1.8851 6.4576 2.5728-.46933.3136-.95147.60587-1.4507.8768-2.7878-.38137-5.5288-1.0498-8.1792-1.9947v-.017067zm3.84-1.7835c3.9394-2.0812 7.522-4.7767 10.613-7.9851.99556.055466 1.984.11591 2.9653.18133-1.1554 4.1361-3.6765 7.7594-7.1531 10.281-2.2029-.65156-4.3513-1.4747-6.4256-2.4619v-.014934zm11.151-8.5525c1.1058-1.194 2.1421-2.4505 3.104-3.7632-.036888 1.3232-.21279 2.6389-.5248 3.9253l-2.5792-.16213zm-.78507-.0448c-2.1547-.11662-4.3129-.20978-6.4747-.27947 3.0967-3.229 5.6945-6.9017 7.7077-10.897l1.3931.087466c.78227 2.0215 1.2102 4.1627 1.2651 6.3296-1.1767 1.6832-2.4773 3.2763-3.8912 4.7659v-.0064zm3.2875-11.036c1.3639.092444 2.7243.19413 4.0811.30507-.84622 1.7845-1.8201 3.5056-2.9141 5.1499-.12366-1.8651-.51672-3.7025-1.1669-5.4549zm1.2117 6.7776v-.30933c1.3418-1.9344 2.5172-3.979 3.5136-6.112 8.8476.7552 17.609 1.9449 26.285 3.5691-4.3534 3.2341-8.8462 6.2592-13.478 9.0752-5.5808-.74667-11.195-1.3156-16.843-1.7067.35032-1.4798.52644-2.9955.5248-4.5163h-.002133zm29.892-2.1675c-2.1721 3.4447-4.8404 6.5502-7.9189 9.216-1.5644-.24604-3.1289-.47787-4.6933-.69547 4.3207-2.6581 8.5248-5.4983 12.612-8.5205zm-26.108-4.8363c1.5622-3.4856 2.6341-7.1707 3.1851-10.95 9.3742.92418 18.692 2.3484 27.915 4.2667-.92398 3.5558-2.3233 6.9707-4.16 10.153l-.26453.20053c-8.8241-1.6725-17.727-2.8971-26.675-3.6693zm38.345-5.0795c1.0937.26027 2.1867.52693 3.2789.8-1.3435 3.5304-3.136 6.8731-5.3333 9.9456-2.9241-.66702-5.861-1.2828-8.8107-1.8475 3.7248-2.8174 7.3465-5.7842 10.865-8.9003v.002134zm3.8699.9472c1.1548.29156 2.3083.59164 3.4603.90027-.55182 3.6011-1.0496 7.2135-1.4933 10.837-2.4178-.63147-4.8356-1.2281-7.2533-1.7899 2.1744-3.0806 3.9506-6.4237 5.2864-9.9499v.002134zm4.0533 1.0667c5.5552 1.5019 11.063 3.1872 16.523 5.056-1.9949 3.1473-4.1621 6.182-6.4917 9.0901-3.8158-1.1947-7.6558-2.2997-11.52-3.3152.43804-3.6252.93582-7.2384 1.4933-10.839l-.004266.008533zm-.49067-.7744c-1.1093-.29724-2.2222-.58667-3.3387-.86827.67421-1.8558 1.2244-3.7544 1.6469-5.6832.74098-.71111 1.477-1.4336 2.208-2.1675.38827-.3904.7744-.78293 1.1584-1.1733-.61013 3.2868-1.1684 6.5842-1.6747 9.8923zm.087467-9.1477c-.51911.51769-1.0404 1.0332-1.5637 1.5467.94277-4.8681 1.0711-9.8589.37973-14.769 2.8241-3.7141 4.4974-8.1747 4.8128-12.83 1.6213-1.4037 3.2057-2.858 4.7531-4.3627-2.0793 7.5591-3.9047 15.175-5.4763 22.848-.39253 1.9186-.76871 3.8386-1.1285 5.76-.59022.60729-1.1861 1.211-1.7877 1.8112l.010667-.004267zm3.5072-7.4667c1.637-7.9943 3.5527-15.932 5.7472-23.814l.33067-.3264c2.5301-2.5301 4.9244-5.1612 7.1829-7.8933 1.3298 5.1513 2.422 10.358 3.2768 15.62-5.2733 7.5307-11.122 14.642-17.493 21.269.30151-1.6128.61653-3.2277.94507-4.8448l.010667-.010667zm11.17-41.5c2.8587-8.5191 6.0359-16.91 9.5317-25.173.4352-1.0325.8768-2.0629 1.3248-3.0912 2.0193 5.0666 3.6252 10.288 4.8021 15.614-3.6328 7.4169-8.0889 14.401-13.284 20.821-.73102-2.7378-1.526-5.4578-2.3851-8.16l.010667-.010667zm1.9008 8.7467c-2.1973 2.6809-4.5276 5.2658-6.9909 7.7547 1.4706-5.2082 3.0585-10.382 4.7637-15.52.79787 2.5742 1.5367 5.1641 2.2165 7.7696l.010667-.004266zm-164.57 7.7675c-2.4619-2.4875-4.7929-5.0724-6.9931-7.7547.68267-2.6027 1.4258-5.1911 2.2293-7.7653 1.7052 5.1314 3.2932 10.305 4.7637 15.52zm-7.4667-8.3349c-5.1953-6.42-9.6515-13.404-13.284-20.821 1.1809-5.3288 2.7912-10.553 4.8149-15.622.44516 1.0283.88676 2.0587 1.3248 3.0912 3.4944 8.2588 6.6716 16.654 9.5317 25.184-.86471 2.7022-1.6597 5.4222-2.3851 8.16l-.0021334.008533zm-.18987.7232c-1.3312 5.1115-2.4306 10.276-3.2981 15.494-4.4632-6.4432-8.4906-13.177-12.055-20.158.26462-5.3556.95155-10.682 2.0544-15.93 3.6587 7.3324 8.1198 14.236 13.301 20.585l-.0021333.008533zm-2.9397 17.067c5.3758 7.6135 11.339 14.795 17.835 21.478.67129 3.5968 1.2871 7.2078 1.8475 10.833-5.6348 1.5204-11.222 3.2313-16.762 5.1328-1.8518-2.9636-3.5501-6.0204-5.0881-9.1584v-.40747c-.0080493-9.3392.71451-18.665 2.1611-27.891l.0064.0128zm2.3467 37.643c-1.3881.48071-2.7733.97138-4.1557 1.472-.19342-3.1374-.30578-6.2891-.33707-9.4549 1.3724 2.7335 2.8679 5.3945 4.4864 7.9829h.0064zm.33067.52693c1.9879 3.1425 4.1458 6.1742 6.464 9.0816-3.3067 1.0439-6.5956 2.1525-9.8667 3.3259-.45653-3.5897-.80356-7.2014-1.0411-10.835 1.4699-.53973 2.9525-1.0667 4.4373-1.5723h.0064zm6.8693 9.5872c2.3033 2.8531 4.7573 5.5813 7.3515 8.1728l.67413.66773c-5.5467 1.5474-11.047 3.2768-16.501 5.1883-.6784-3.51-1.2473-7.0414-1.7067-10.594 3.3664-1.216 6.7584-2.3609 10.176-3.4347h.0064zm7.7781 7.7461c-2.5216-2.5211-4.9106-5.1714-7.1573-7.9403 3.7049-1.1563 7.4325-2.2279 11.183-3.2149.4352 3.6324.81493 7.2747 1.1392 10.927-1.4222.36693-2.8366.74596-4.2432 1.1371-.31289-.30151-.62222-.60444-.928-.9088h.0064zm5.2181.384c.14222 1.6071.27164 3.2142.38827 4.8213-1.4222-1.2274-2.8153-2.4967-4.1792-3.808 1.2572-.34702 2.5188-.6848 3.7845-1.0133h.0064zm-.60373-11.695c2.5173-.65707 5.0425-1.2779 7.5755-1.8624 2.5733 3.5283 5.6445 6.665 9.1179 9.312-5.2181 1.0055-10.401 2.1653-15.55 3.4795-.32853-3.6537-.71182-7.2967-1.1499-10.929h.0064zm8.2155-2.0096c2.9156-.66133 5.8439-1.2736 8.7851-1.8368 2.1998 3.6672 4.9473 6.9765 8.1472 9.8133-2.56.40818-5.1122.8512-7.6565 1.3291-3.5373-2.6256-6.6654-5.7617-9.2821-9.3056h.0064zm17.527 8.4949c5.7778 4.9439 12.802 8.2063 20.307 9.4315-.7616.0384-1.5275.059782-2.2997.059782-9.1754.013632-18.124-2.8483-25.589-8.1835 2.5102-.47644 5.0332-.91236 7.5691-1.3077h.0128zm.78933-.12373c1.6341-.25173 3.2697-.48853 4.9067-.7104 6.0285 3.6546 12.269 6.9479 18.688 9.8624-.40533.059733-.8128.11093-1.2203.16-8.2301-.77007-16.033-4.0168-22.381-9.312h.0064zm5.8752-.83627c5.3561-.70116 10.743-1.2409 16.162-1.6192 1.1337 4.1636 3.608 7.8376 7.04 10.453-1.4455.40406-2.9109.73304-4.3904.9856-6.4633-2.8918-12.747-6.1688-18.818-9.8133l.0064-.0064zm23.821 9.2821c.3904.2752.78933.53547 1.2011.7808-1.5503.17731-3.1094.26634-4.6699.26667h-.39253l-.16427-.074667c1.3611-.26311 2.7008-.58738 4.0192-.9728h.0064zm2.0864 1.28c5.7167 3.0274 12.562 3.0274 18.278 0 1.5155.20265 3.041.3223 4.5696.3584-.30933.13227-.6144.26667-.92373.3968-4.2169 1.7892-8.4836 3.4012-12.8 4.8363-4.3093-1.4421-8.571-3.0535-12.785-4.8341-.30933-.13013-.61653-.26453-.92373-.3968 1.5286-.036104 3.0541-.15575 4.5696-.3584l.014933-.002134zm19.164-.50133c.41173-.24533.81067-.5056 1.2011-.7808 1.3184.384 2.6603.70684 4.0256.96853l-.16427.074667h-.39253c-1.5617.001868-3.1223-.085027-4.6741-.26027l.004266-.002133zm1.8176-1.2331c3.432-2.6158 5.9063-6.2897 7.04-10.453 5.4172.37689 10.805.91662 16.162 1.6192-6.0697 3.6438-12.352 6.9208-18.814 9.8133-1.4808-.24969-2.9476-.57581-4.3947-.97707l.0064-.002134zm24.156-8.6933c1.6412.22187 3.2768.45867 4.9067.7104-6.3462 5.2963-14.149 8.5446-22.379 9.3163-.40747-.049067-.81493-.10027-1.2203-.16 6.4208-2.9154 12.663-6.2101 18.692-9.8667zm5.7003.83413c2.5344.3968 5.061.82987 7.5797 1.2992-7.4632 5.3378-16.412 8.2027-25.587 8.192-.77227 0-1.5381-.021363-2.2997-.059763 7.5056-1.2282 14.53-4.4936 20.307-9.44v.008533zm.5952-.52053c3.2004-2.8358 5.9473-6.1454 8.1451-9.8133 2.9397.56889 5.8688 1.1812 8.7872 1.8368-2.615 3.5426-5.7409 6.6779-9.2757 9.3035-2.5429-.4864-5.0951-.93156-7.6565-1.3355v.008533zm17.572-7.8272c2.5344.58311 5.0596 1.2039 7.5755 1.8624-.43662 3.6352-.81778 7.2782-1.1435 10.929-5.147-1.3184-10.33-2.4782-15.55-3.4795 3.4746-2.649 6.5459-5.7886 9.1179-9.3205v.008533zm6.9696 13.557c1.2672.32853 2.5316.66631 3.7931 1.0133-1.3611 1.3099-2.7541 2.5792-4.1792 3.808.11662-1.6156.24533-3.2256.38613-4.8299v.008533zm.055467-.61227c.32427-3.6494.704-7.2917 1.1392-10.927 3.7476.98702 7.4752 2.0587 11.183 3.2149-2.2473 2.7684-4.6363 5.4186-7.1573 7.9403-.30436.30578-.61156.60871-.9216.9088-1.4123-.3968-2.8267-.77867-4.2432-1.1456v.008534zm5.5915.65493c2.5936-2.592 5.0476-5.3201 7.3515-8.1728 3.4133 1.0752 6.8103 2.2201 10.191 3.4347-.46507 3.5556-1.034 7.0869-1.7067 10.594-5.4514-1.9143-10.952-3.6437-16.501-5.1883l.6656-.66773zm7.7568-8.6784c2.3182-2.9074 4.4761-5.9391 6.464-9.0816 1.4933.512 2.9675 1.0325 4.4437 1.5723-.23893 3.6309-.58596 7.2427-1.0411 10.835-3.2711-1.1804-6.56-2.2919-9.8667-3.3344v.008533zm6.7947-9.6c1.6142-2.5899 3.1118-5.2516 4.4928-7.9851-.031289 3.1644-.14364 6.3161-.33707 9.4549-1.3824-.51484-2.7698-1.0126-4.1621-1.4933l.0064.023467zm-.58667-.21333c-5.5381-1.8987-11.126-3.6096-16.764-5.1328.56036-3.6252 1.1769-7.2363 1.8496-10.833 6.4977-6.6889 12.463-13.875 17.841-21.493 1.4464 9.2265 2.1696 18.552 2.1632 27.891v.40533c-1.5379 3.1384-3.2368 6.1953-5.0902 9.1584v.004267zm-.021333-54.517c5.1822-6.3506 9.6426-13.257 13.299-20.593 1.1028 5.2475 1.7898 10.574 2.0544 15.93-3.5647 6.9853-7.5922 13.725-12.055 20.173-.86613-5.2252-1.9655-10.395-3.2981-15.509zm4.1728-51.529c2.8444 1.0325 5.6811 2.1163 8.5099 3.2512-1.5047 3.1673-2.9611 6.3545-4.3691 9.5616-.096-.22827-.18773-.4544-.28373-.68267-1.1861-2.8032-2.4889-5.5388-3.9083-8.2069.074667-.7488.11307-1.4933.11307-2.2549 0-.56889-.020623-1.13-.061867-1.6832v.014933zm3.3003 12.373c.17067.4032.33707.80853.50347 1.2139-.52907 1.2117-1.051 2.4263-1.5659 3.6437-3.392 8.0185-6.4868 16.166-9.2843 24.444-1.5844-4.8939-3.3863-9.7294-5.4059-14.507-.63289-1.499-1.2864-2.9867-1.9605-4.4629 7.5875-2.919 13.022-9.6888 14.231-17.728 1.2544 2.3979 2.4149 4.8562 3.4816 7.3749v.021333zm-3.84-10.699c0 .42667-.012089.85333-.036267 1.28-.7296-1.3383-1.4876-2.6574-2.2741-3.9573.74453.26027 1.4933.52693 2.2293.7936.0512.60444.0768 1.2252.0768 1.8624l.004267.021333zm-.14933-2.56c-.88604-.31858-1.7721-.63147-2.6581-.93867-3.9804-6.4328-8.6603-12.405-13.954-17.809 8.8983 2.1712 15.516 9.6344 16.608 18.729l.004266.0192zm-3.5648-1.2501c-9.7759-3.3478-19.74-6.1181-29.841-8.2965-1.0283-1.3696-2.0786-2.7243-3.1509-4.064 5.0903-4.6637 12.082-6.6538 18.865-5.3696 5.3497 5.3602 10.086 11.299 14.123 17.707l.004266.023467zm-46.677-39.742c11.855 5.0079 22.65 12.224 31.81 21.263-6.7002-1.0022-13.495 1.0682-18.498 5.6363-10.195-12.664-22.055-23.891-35.258-33.376 7.5371 1.32 14.9 3.4929 21.946 6.4768zm-39.68-16.979c5.2416 2.9011 10.332 6.0676 15.251 9.4869-10.114-1.4976-20.393-1.4976-30.507 0 4.9204-3.4199 10.012-6.5863 15.255-9.4869zm-16.373 10.268c10.847-1.7344 21.9-1.7344 32.747 0 13.572 9.6134 25.744 21.063 36.169 34.022-.90439.86756-1.7343 1.8095-2.4811 2.816-33.083-6.2272-67.038-6.2272-100.12 0-.74851-1.0057-1.5783-1.9482-2.4811-2.8181 10.425-12.958 22.598-24.407 36.169-34.02zm-23.307 6.7115c7.0437-2.9826 14.403-5.1562 21.937-6.4789-13.197 9.4888-25.051 20.716-35.243 33.378-5.0023-4.5677-11.797-6.6381-18.496-5.6363 9.1577-9.0384 19.95-16.254 31.802-21.263zm-32.546 22.003c6.7832-1.2842 13.775.70585 18.865 5.3696-1.0709 1.3426-2.1212 2.6972-3.1509 4.064-10.101 2.1784-20.065 4.9487-29.841 8.2965 4.036-6.4163 8.7742-12.363 14.127-17.73zm-1.0795.23253c-5.2918 5.4038-9.9696 11.376-13.948 17.809-.88747.3072-1.7735.62009-2.6581.93867 1.0837-9.1009 7.7024-16.573 16.606-18.748zm-16.681 19.413c.7424-.26667 1.4933-.53333 2.2293-.7936-.78649 1.3013-1.5445 2.6204-2.2741 3.9573-.024178-.42667-.036267-.85333-.036267-1.28 0-.63147.027022-1.2594.081067-1.8837zm-.44373 5.1989c1.2094 8.0392 6.644 14.809 14.231 17.728-.67129 1.4791-1.3248 2.9668-1.9605 4.4629-2.0196 4.7716-3.8215 9.6071-5.4059 14.507-2.7947-8.2603-5.8894-16.41-9.2843-24.448-.51342-1.216-1.0354-2.4306-1.5659-3.6437.1664-.40533.3328-.81067.50347-1.2139 1.0667-2.5188 2.2272-4.9828 3.4816-7.392zm-.18133-4.9749c-.040533.5504-.059733 1.1072-.061867 1.6683 0 .75307.0384 1.5061.11307 2.2549-1.4222 2.6681-2.725 5.4037-3.9083 8.2069-.096.22827-.18773.4544-.28373.68267-1.4009-3.2057-2.8572-6.3915-4.3691-9.5573 2.8231-1.1378 5.6597-2.2229 8.5099-3.2555zm-4.4587 13.589c-2.0413 5.0344-3.6757 10.224-4.8875 15.52-.74809-1.5644-1.4628-3.1495-2.144-4.7552-2.389-5.6415-4.3014-11.473-5.7173-17.434 1.376-.608 2.7541-1.2117 4.1387-1.7963 1.3269-.5632 2.6603-1.1093 3.9957-1.6491 1.5915 3.3493 3.1296 6.7207 4.6144 10.114zm-15.733-31.586c3.85 6.8565 7.4688 13.832 10.857 20.926-1.3248.5376-2.6496 1.0795-3.9701 1.6384s-2.6987 1.1605-4.0427 1.7557c-1.8432-7.9768-2.7969-16.133-2.8437-24.32zm3.5712 53.19c-3.3906-8.0109-6.1836-16.262-8.3563-24.685 2.3922-1.1492 4.7972-2.2613 7.2149-3.3365 1.4207 5.9534 3.3323 11.779 5.7152 17.417.78222 1.8489 1.6121 3.6715 2.4896 5.4677-1.1305 5.1766-1.8559 10.433-2.1696 15.723-1.7479-3.4603-3.3792-6.9888-4.8939-10.586zm15.083 60.435c-.61298-1.2956-1.2004-2.6048-1.7621-3.9275-5.3122-12.553-8.0361-26.049-8.0085-39.68 0-1.3255.024889-2.646.074667-3.9616 3.5538 6.8535 7.5516 13.467 11.968 19.799-1.4762 9.1836-2.2358 18.468-2.272 27.77zm-27.614 36.267c-1.8816-.72107-3.7532-1.4741-5.6149-2.2592-2.0267-.85333-4.0334-1.7465-6.0203-2.6795 8.9657-5.0964 18.221-9.666 27.718-13.685 3.9467-1.6683 7.9232-3.2377 11.93-4.7083.24036 3.6281.59022 7.237 1.0496 10.827-4.4388 1.6057-8.8441 3.3316-13.216 5.1776-5.3518 2.2642-10.634 4.7068-15.846 7.328zm14.844 4.9515c-4.746-1.3525-9.4393-2.9056-14.08-4.6592 5.0375-2.5188 10.144-4.8747 15.319-7.0677 4.3179-1.8261 8.6713-3.5328 13.06-5.12.46649 3.5556 1.0404 7.0869 1.7216 10.594-5.0503 1.7849-10.057 3.7255-15.019 5.8219l-1.0027.43093zm.92373.26027.31573-.13653c4.9195-2.0793 9.8859-4.0057 14.899-5.7792.64996 3.2981 1.3952 6.5756 2.2357 9.8325-5.8796-1.0069-11.704-2.3128-17.451-3.9125v-.004267zm15.787-6.1205c5.5765-1.9612 11.205-3.7284 16.885-5.3013 1.5986 1.5474 3.2384 3.0407 4.9195 4.48.31147 4.3861.544 8.7801.6976 13.182-6.7664-.35001-13.507-1.0858-20.19-2.2037-.86898-3.3621-1.6384-6.7463-2.3083-10.153l-.0042667-.004267zm21.363 55.893c-8.3451-14.095-14.699-29.277-18.882-45.114 6.634 1.1002 13.325 1.8245 20.041 2.1696.13084 3.9268.19627 7.8578.19627 11.793 0 10.412-.45013 20.8-1.3504 31.164l-.0042667-.0128zm10.545-43.307c-2.944 0-5.8773-.071111-8.8-.21333-.14222-4.2254-.36196-8.4473-.6592-12.666 5.8535 4.9085 12.24 9.1435 19.04 12.625-3.1758.17778-6.3701.26667-9.5829.26667l.002133-.0128zm-9.5189-13.722c-.13227-1.8489-.27876-3.6921-.43947-5.5296 5.3419-1.3696 10.725-2.57 16.149-3.6011 9.0946 6.6655 20.373 9.6459 31.573 8.3435 1.0951.099555 2.2009.15644 3.3173.17067.73244.32284 1.4656.63929 2.1995.94933 3.9822 1.6825 8.0036 3.2135 12.064 4.5931-14.419 4.7349-29.391 7.5831-44.542 8.4736-7.2876-3.6267-14.11-8.1216-20.318-13.387l-.0042666-.0128zm105.5 16.096c-25.369 10.682-53.974 10.682-79.343 0-1.6-.67556-3.1787-1.3909-4.736-2.1461 15.111-.9794 30.033-3.8997 44.399-8.6891 14.368 4.7905 29.293 7.7108 44.407 8.6891-1.5573.75378-3.1332 1.4692-4.7275 2.1461zm5.8261-2.6837c-15.151-.89052-30.122-3.7387-44.542-8.4736 4.0647-1.381 8.086-2.912 12.064-4.5931.73529-.31147 1.4684-.62791 2.1995-.94933 1.1164-.0128 2.2222-.069689 3.3173-.17067 11.2 1.3024 22.479-1.678 31.573-8.3435 5.4229 1.0311 10.806 2.2315 16.149 3.6011-.15929 1.8418-.30578 3.685-.43947 5.5296-6.2123 5.2693-13.039 9.7684-20.331 13.399h.008533zm10.799.32213c-3.21 0-6.4057-.084623-9.5872-.25387 6.8022-3.4797 13.191-7.7147 19.044-12.625-.29156 4.2155-.51058 8.4373-.65707 12.666-2.9255.14222-5.8617.21333-8.8085.21333h.008534zm21.306 21.973c-3.1035 7.3452-6.6992 14.472-10.763 21.333-.89742-10.347-1.3483-20.729-1.3525-31.147 0-3.9339.065422-7.8649.19627-11.793 6.7157-.34506 13.407-1.0694 20.041-2.1696-2.14 8.1103-4.857 16.057-8.1301 23.78l.008534-.004267zm8.2901-24.425c-6.6826 1.1179-13.423 1.8537-20.19 2.2037.1536-4.4018.38613-8.7957.6976-13.182 1.6811-1.4336 3.3209-2.9269 4.9195-4.48 5.6775 1.5758 11.306 3.3429 16.885 5.3013-.67698 3.4133-1.4507 6.8004-2.3211 10.161l.008533-.004266zm.6528-.11093c.84053-3.2555 1.5858-6.533 2.2357-9.8325 5.0105 1.7721 9.9769 3.6985 14.899 5.7792l.31573.13653c-5.7491 1.6038-11.576 2.9126-17.459 3.9211l.008533-.004267zm18.374-4.1771-1.0027-.42667c-4.9593-2.0964-9.9655-4.037-15.019-5.8219.68124-3.51 1.2551-7.0414 1.7216-10.594 4.389 1.59 8.7424 3.2967 13.06 5.12 5.174 2.1874 10.281 4.5433 15.319 7.0677-4.6436 1.755-9.3369 3.3081-14.08 4.6592v-.004266zm-1.248-23.575c9.4976 4.0208 18.753 8.5918 27.718 13.69-1.9911.92729-3.9979 1.8204-6.0203 2.6795-1.8631.78649-3.7348 1.5396-5.6149 2.2592-5.2082-2.6169-10.49-5.061-15.846-7.3323-4.3705-1.8489-8.7758-3.5748-13.216-5.1776.45796-3.5883.80782-7.1972 1.0496-10.827 4.0036 1.4748 7.9801 3.0443 11.93 4.7083zm-9.7685-21.562c-.56178 1.3255-1.1492 2.6347-1.7621 3.9275-.03621-9.2986-.79584-18.58-2.272-27.761 4.4164-6.3321 8.4142-12.946 11.968-19.799.049778 1.3156.074667 2.6361.074667 3.9616.026429 13.628-2.6974 27.121-8.0085 39.671zm8.4267-45.929c-.31369-5.2893-1.0391-10.546-2.1696-15.723.87467-1.7963 1.7045-3.6188 2.4896-5.4677 2.3829-5.6384 4.2945-11.465 5.7152-17.419 2.4178 1.078 4.8199 2.1916 7.2064 3.3408-2.1736 8.4215-4.9666 16.671-8.3563 24.681-1.509 3.5968-3.1374 7.126-4.8853 10.588z" style="fill:#87a752;stroke:#87a752"/><polygon points="35.827 44.895 35.827 45.516 36.055 45.249" style="fill:#87a752;stroke:#87a752"/><path d="m278.17 44.895c-.0768.11733-.15147.2368-.22613.35413.0768.087467.1536.17707.22827.26667-.002134-.20693-.002134-.41387-.002134-.6208z" style="fill:#87a752;stroke:#87a752"/></g><g fill="#E95420" style="fill:#87a752;stroke:#87a752"><path d="m160 1.493c31.584-.050788 62.456 9.3794 88.621 27.07 25.484 17.203 45.433 41.428 57.429 69.739 20.887 49.35 15.388 105.92-14.613 150.32-17.203 25.484-41.428 45.433-69.739 57.429-49.35 20.887-105.92 15.388-150.32-14.613-25.484-17.203-45.433-41.428-57.429-69.739-20.887-49.35-15.388-105.92 14.613-150.32 17.203-25.484 41.428-45.433 69.739-57.429 19.518-8.2616 40.503-12.498 61.698-12.457m0-1.493c-88.365 0-160 71.635-160 160s71.635 160 160 160 160-71.635 160-160-71.635-160-160-160z" style="fill:#87a752;stroke:#87a752"/></g><g transform="translate(26.341 68.293)" fill="#E95420" style="fill:#87a752;stroke:#87a752"><g style="fill:#87a752;stroke:#87a752"><path d="m162.47 99.516c.64378.059826 1.294.094724 1.9505.10469h.32615c7.5838 0 14.737-3.5321 19.358-9.5593.16627-.21366.32828-.42733.48603-.64099.15775-.21366.33042-.47006.49029-.70936.40929-.61392.79087-1.2449 1.1447-1.8931-.050746-8.558-4.5688-16.464-11.908-20.839-.63525-.38174-1.2883-.73785-1.959-1.0683-.57983-.28417-1.1724-.5427-1.7778-.77132l-.50095.29058c-.3901.23076-.77381.47433-1.149.72645-1.9859 1.3348-3.7669 2.9529-5.2867 4.8031-.33468.40596-.65444.82474-.9614 1.2521-5.6501 7.8455-6.1516 18.293-1.279 26.646.33681.56977.6921 1.1224 1.0659 1.658zm-2.8885-14.003c-.005215-4.9464 1.5903-9.7611 4.547-13.721.31123-.41878.63738-.82688.97846-1.2243 1.6003-1.8697 3.4878-3.4716 5.5915-4.7455 8.2981 3.5188 13.777 11.576 14.012 20.604-.15633.27491-.31763.54626-.4839.81406-.29418.47433-.6047.93584-.93156 1.3845-4.3088 5.9574-11.205 9.4848-18.546 9.4866-.48177 0-.95927-.017093-1.4346-.047006-2.4387-3.7292-3.7361-8.0917-3.7326-12.551z" style="fill:#87a752;stroke:#87a752"/><path d="m265.64 147.85c-9.0457-5.1624-18.385-9.7897-27.97-13.858-3.9124-1.6552-7.8511-3.2142-11.816-4.6771l-1.4922-.5427c-1.0147-.3675-2.0315-.72859-3.0505-1.0833-.48816-.17093-.97632-.33759-1.4645-.50424-5.3037-1.8147-10.652-3.4528-16.045-4.9142.53435-3.4457 1.1199-6.8792 1.7565-10.301 6.2101-6.4191 11.933-13.294 17.122-20.567.42634-.58971.84345-1.1823 1.2513-1.7777-.11298-.7115-.23022-1.4294-.356-2.1494-.82426-4.7861-1.8439-9.5279-3.059-14.226 4.8623-5.9985 9.0881-12.488 12.609-19.364.37092-.72645.73473-1.4572 1.0914-2.1922-.17196-.7934-.35386-1.5854-.54572-2.3759-1.166-4.8261-2.6814-9.5606-4.5342-14.166-.21317-.55125-.44553-1.1004-.67788-1.6473-.040502-.096148-.081005-.1923-.12364-.28844-1.1369-2.6779-2.3818-5.2939-3.7348-7.8478-.45903-.87032-.93014-1.7314-1.4133-2.5832-.2686-.47718-.54146-.95151-.81858-1.423-.40076-.68372-.81005-1.3625-1.2279-2.0362-3.6792-5.942-7.9533-11.493-12.756-16.565-.64804-.68799-1.3067-1.3674-1.9761-2.0383l-.06182-.085465c-.83881-.17022-1.6864-.29362-2.5389-.36964-.67789-.059826-1.3622-.091881-2.0571-.091881-5.5553-.0039197-10.922 2.0185-15.099 5.6899-.37945.33331-.74823.67874-1.1064 1.0363-.73717.73663-1.4244 1.5218-2.0571 2.3503-32.936-6.1772-66.73-6.1772-99.666 0-.6327-.82848-1.3199-1.6137-2.0571-2.3503-.35813-.35682-.72691-.70081-1.1064-1.0363-4.1767-3.6713-9.5436-5.6938-15.099-5.6899-.69494 0-1.3792.032055-2.0571.091881-.85246.07602-1.7001.19942-2.5389.36964l-.070347.070509c-.66367.6652-1.3224 1.3447-1.9761 2.0383-4.8028 5.0728-9.077 10.623-12.756 16.565-.41782.67375-.82711 1.3525-1.2279 2.0362-.27712.47148-.54998.94581-.81858 1.423-.48319.85465-.9543 1.7157-1.4133 2.5832-1.3515 2.5554-2.5971 5.1721-3.7369 7.85l-.12151.28631c-.23236.54698-.45619 1.0961-.67789 1.6473-1.8523 4.6056-3.3683 9.3401-4.5363 14.166-.18901.79055-.37021 1.5832-.54359 2.3781.35813.735.72194 1.465 1.0914 2.19 3.521 6.876 7.7468 13.366 12.609 19.364-1.2151 4.7006-2.2347 9.4425-3.059 14.226-.12364.7115-.24302 1.4294-.35813 2.1494.41355.59398.83066 1.1865 1.2513 1.7777 5.1887 7.2738 10.913 14.149 17.124 20.567.63525 3.4186 1.2208 6.8522 1.7565 10.301-5.3932 1.4686-10.742 3.1067-16.045 4.9142-.48816.16666-.97633.33331-1.4645.50424-1.019.35468-2.0358.71577-3.0505 1.0833l-1.4922.5427c-3.965 1.4629-7.9037 3.0219-11.816 4.6771-9.5822 4.0745-18.919 8.7068-27.962 13.873-.53506.30554-1.0659.60894-1.5988.91875.55211.26494 1.1064.52561 1.6606.78628.53719-.30768 1.0758-.61321 1.6158-.91662 8.7037-4.9207 17.678-9.3434 26.881-13.247 3.7518-1.5897 7.5299-3.0853 11.334-4.4869l1.4773-.54484c1.2549-.45724 2.5126-.90379 3.7731-1.3397l1.4709-.50852c5.1076-1.7364 10.258-3.3139 15.451-4.7326.49882 3.3032.95146 6.615 1.3579 9.9353-3.6367.96576-7.2528 2.0099-10.848 3.1323-.51588.16025-1.0296.32477-1.5434.48929-2.9176.93015-5.8231 1.9123-8.7166 2.9464l-1.4581.51706c-4.3274 1.5768-8.6228 3.2676-12.886 5.0724-5.2952 2.2449-10.522 4.6664-15.681 7.2645-.60754.30554-1.2151.60894-1.8184.91875.63951.24999 1.2641.49356 1.8994.73714.61251-.31195 1.2257-.62105 1.8397-.9273 4.7225-2.346 9.5053-4.546 14.349-6.6 4.1355-1.7549 8.3016-3.398 12.498-4.9292.4839-.17734.96993-.35041 1.456-.52347 3.1592-1.1395 6.3355-2.2078 9.5288-3.2049.51801-.16452 1.0339-.33118 1.5519-.49142 3.3198-1.027 6.6595-1.9871 10.019-2.8802.39508 3.3374.74255 6.6848 1.0424 10.042-1.208.31622-2.4159.64028-3.6239.97217-.55851.15597-1.1192.30767-1.6798.46578-5.1317 1.4501-10.221 3.0589-15.267 4.8266-.48177.16666-.9614.33759-1.441.50852-4.9285 1.7563-9.8165 3.6593-14.664 5.7091l-.85269.36964c-.72905.31195-1.456.6239-2.1829.94225.76102.22648 1.5199.44869 2.2831.66449.44766-.19443.89532-.391 1.343-.58116l.8804-.4081c4.4553-1.8688 8.9468-3.6116 13.475-5.2283.47964-.17093.95714-.344 1.4389-.51279 5.3591-1.8788 10.767-3.5796 16.224-5.1023.56917-.15811 1.1362-.31408 1.7054-.46792.82853-.22648 1.6592-.44798 2.492-.66449.090953 1.0612.17693 2.1224.25794 3.1836.055425.7115.10872 1.4251.15775 2.1366.29418 4.1593.51588 8.325.6651 12.497.019896.50709.03766 1.0135.053293 1.5191.11938 3.7932.17906 7.5872.17906 11.382 0 1.2264-.0063952 2.4543-.019186 3.6835 0 .35682-.010658.7115-.014922 1.0683-.01279.87174-.023449 1.7435-.042634 2.6152 0 .42733-.021317.83542-.029844 1.2521-.021317.81192-.038371 1.6238-.063951 2.4358-.01279.42733-.029844.85465-.044766 1.2948-.027712.79696-.055425 1.5939-.0874 2.3909-.017054.42733-.040503.87602-.059688 1.3119-.036239.79269-.070347 1.5832-.11085 2.3738-.021317.44442-.049029.8867-.072478 1.3311-.044766.78201-.0874 1.564-.1343 2.3503-.027712.46151-.059688.92089-.091664 1.3803-.049029.76278-.098059 1.5277-.15348 2.2905-.034107.48074-.072478.96362-.10872 1.4444-.055424.73714-.11085 1.4721-.17054 2.2093-.082426.99709-.16841 1.9942-.25794 2.9913-.042634.48288-.089532.96576-.13643 1.4486-.059688.64099-.12151 1.282-.18546 1.923-.051161.51137-.10374 1.0213-.15775 1.5298-.063951.61962-.12932 1.2385-.19612 1.8567l-.17267 1.5341c-.070347.6239-.14282 1.2457-.21317 1.8696-.059688.49783-.11938.99781-.1812 1.4956-.078874.65381-.16414 1.3055-.24728 1.9572-.059688.46578-.12009.93157-.1812 1.3974-.1009.75779-.20464 1.5163-.31123 2.2755l-.14709 1.0683c-.15633 1.0911-.31763 2.1829-.4839 3.2755-.053293.35682-.11085.71577-.16627 1.0683-.13856.8867-.27499 1.7713-.42634 2.6558.47324.23289.94435.46365 1.4197.69227.042634-.25853.081005-.51706.12364-.7756.0874-.53416.16841-1.0683.25367-1.6025.12648-.79483.2487-1.5897.36666-2.3845.10019-.6709.20251-1.3397.29844-2.0106.076742-.52347.14922-1.0491.21317-1.5747.081005-.57048.15988-1.1431.23875-1.7221.072478-.53273.14354-1.0655.21317-1.5982.076742-.58544.15206-1.1716.22596-1.7584.063951-.50994.12719-1.0213.18972-1.5341.089532-.72432.17267-1.4508.25581-2.1772.07461-.64099.14922-1.3055.21317-1.9593.083137-.74355.16201-1.4956.24088-2.2349.051161-.49997.1009-.99852.14922-1.4956.036239-.37605.076742-.75423.11298-1.1303.025581-.26922.049029-.53843.07461-.80765.036239-.38246.070347-.76491.10659-1.1474.017054-.19016.036239-.38032.051161-.57048.029844-.33118.055425-.66022.083137-.9914.069636-.8048.13643-1.611.20038-2.4187.040503-.4957.076742-.98926.11511-1.4956.057556-.78842.11511-1.579.17054-2.3674.034107-.50638.066083-1.0149.10019-1.5213.049029-.77987.095927-1.5576.14282-2.3375.027712-.51493.057556-1.0299.085269-1.5426.039792-.77488.078163-1.5505.11511-2.3268.025581-.51493.049029-1.0299.072478-1.5491.031976-.77987.06182-1.5619.089532-2.3503.019186-.50852.036239-1.017.055425-1.5277.025581-.80124.044766-1.6046.066083-2.4058.01279-.48502.025581-.97217.036239-1.4572.019185-.87174.031976-1.7435.044766-2.6174 0-.41237.014922-.82688.019185-1.2414.01279-1.282.019896-2.564.021317-3.8459 0-3.769-.058978-7.5373-.17693-11.305-.017054-.50638-.034107-1.0106-.053293-1.517-.13217-3.7476-.3226-7.4903-.5713-11.228-.046898-.69654-.095217-1.3931-.14496-2.0896-.12222-1.658-.25367-3.3153-.39437-4.9719 5.1431-1.3147 10.325-2.4707 15.547-3.4678.69068-.13247 1.3814-.25853 2.0742-.38459 2.0891-.38174 4.1846-.73785 6.2864-1.0683.6651-.10683 1.3323-.21366 1.9995-.31408 1.2407-.18518 2.4842-.3618 3.7305-.52988 5.4699 3.3219 11.114 6.346 16.909 9.0593l.24302.11324c.85269.39955 1.716.78842 2.5794 1.1751l1.0659.46792c.70347.31052 1.4098.61606 2.1189.91661 3.5642 1.5113 7.1654 2.9008 10.804 4.1686.793.28488 1.5874.55624 2.3833.81406.79584-.26494 1.5903-.53629 2.3833-.81406 3.6367-1.2692 7.2379-2.6587 10.804-4.1686.71057-.30198 1.4169-.60752 2.1189-.91661.35173-.15384.70347-.31195 1.0531-.46792.85269-.38673 1.7246-.7756 2.5815-1.1751l.24302-.11324c5.791-2.7083 11.433-5.7267 16.9-9.0422 1.2449.1695 2.4884.34613 3.7305.52988.66723.10042 1.3323.21366 1.9995.31408 2.1019.33047 4.1973.68657 6.2864 1.0683.69281.12606 1.3835.25212 2.0742.38459 5.2184.99709 10.401 2.153 15.547 3.4678-.14211 1.6566-.27357 3.3139-.39437 4.9719-.04974.69654-.098059 1.3938-.14496 2.0918-.2487 3.7377-.43913 7.4796-.5713 11.226-.019896.50424-.03766 1.0099-.053293 1.517-.11795 3.7647-.17693 7.533-.17693 11.305 0 1.282.007106 2.564.021317 3.8459 0 .41451.012791.82901.019186 1.2414.01279.87388.02558 1.7456.044766 2.6174 0 .48502.023449.97217.036239 1.4572.019185.80337.042634 1.6046.066083 2.4058.017054.50852.035529 1.017.055425 1.5256.027001.78201.056845 1.5654.089532 2.3503l.070346 1.5448c.038371.7756.07461 1.5533.11724 2.3289.027001.51422.055424 1.0277.085268 1.5405.044766.77987.093796 1.5597.14282 2.3503.032686.50424.066083 1.0099.10019 1.517.055424.79055.11227 1.5811.17054 2.3717.038371.49356.07461.98712.11298 1.4807.063951.80765.13501 1.6153.21317 2.4229.027713.33118.053293.66022.081005.98926.017054.19016.03624.38032.053293.57048.034108.38246.070347.76491.10659 1.1452.025581.27135.04903.54057.07461.80978.036239.37818.076742.75637.11298 1.1346.049029.49783.10019.99781.14922 1.4956.078874.74996.15988 1.4956.24088 2.2477.070347.64099.14282 1.282.21317 1.923.083137.73286.16841 1.4636.25794 2.1965.06182.50852.12577 1.0149.18972 1.5234.07532.58971.15064 1.1794.22596 1.7691.068215.52988.13927 1.0598.21317 1.5897.076742.57903.15775 1.1559.23875 1.7349.072478.52134.14496 1.0427.21317 1.564.098058.68158.20038 1.361.3027 2.0426.11653.77631.23591 1.5519.35813 2.3268.085269.54484.16841 1.0875.25794 1.6302.042634.25853.081005.51706.12364.7756.47537-.22862.94648-.45938 1.4197-.69227-.14211-.88741-.28423-1.7741-.42634-2.6601-.055424-.35682-.11298-.7115-.16627-1.0683-.16627-1.0925-.32757-2.1851-.4839-3.2776l-.14709-1.0683c-.10659-.76064-.21033-1.5206-.31123-2.2798-.06111-.46578-.12151-.93157-.1812-1.3974-.085269-.65238-.1677-1.3041-.24728-1.955-.061109-.49997-.12151-.99852-.1812-1.4956-.07461-.6239-.14709-1.2457-.21317-1.8696-.059688-.50994-.11724-1.0213-.17267-1.5341-.068215-.61749-.13217-1.2371-.19612-1.8567-.053293-.50852-.10445-1.0192-.15775-1.5298-.063952-.64384-.12577-1.2848-.18546-1.923-.046898-.48288-.093796-.96576-.13643-1.4486-.091664-.99353-.1748-1.9892-.25794-2.9913-.059688-.73286-.11511-1.4657-.17054-2.2007-.036239-.48502-.07461-.96789-.10872-1.4529-.055425-.76064-.10445-1.5234-.15348-2.2841-.031975-.46151-.063951-.92302-.091664-1.3845-.049029-.77773-.089532-1.5576-.13217-2.3375-.02558-.44656-.053293-.89098-.07461-1.3397-.040502-.78842-.076742-1.579-.11085-2.3674-.019185-.42732-.042634-.87602-.059688-1.3162-.031976-.79269-.059688-1.5875-.0874-2.3802-.014922-.42733-.031976-.87174-.044766-1.3076-.025581-.80765-.044766-1.6174-.063952-2.4272 0-.42733-.023449-.83756-.031976-1.2585-.017053-.87174-.027712-1.7435-.040502-2.6152 0-.35682-.01279-.7115-.014922-1.0683-.01279-1.2278-.019186-2.4557-.019186-3.6835 0-3.7947.059688-7.5886.17906-11.382.017054-.50709.034818-1.0135.053293-1.5191.14212-4.1707.36381-8.3364.6651-12.497.04903-.71364.10232-1.4294.15775-2.1366.081006-1.0626.16698-2.1238.25794-3.1836.83137.21794 1.662.43943 2.492.66449.56917.15384 1.1362.30981 1.7054.46792 5.4543 1.5227 10.863 3.2235 16.224 5.1023l1.4389.51279c4.5278 1.6153 9.0193 3.3581 13.475 5.2283l.89532.37177c.44766.19016.89532.38673 1.343.58116.76315-.21366 1.522-.42733 2.2831-.66449-.72692-.31836-1.4538-.64099-2.1829-.94225l-.85269-.36964c-4.8461-2.0526-9.7341-3.9556-14.664-5.7091-.47964-.17093-.95927-.34186-1.441-.50852-5.0479-1.7649-10.137-3.3737-15.267-4.8266-.56064-.15811-1.1213-.30981-1.6798-.46578-1.2066-.33047-2.4145-.65452-3.6239-.97217.30128-3.3502.64875-6.6976 1.0424-10.042 3.3539.89454 6.6936 1.8546 10.019 2.8802.51801.16025 1.0339.3269 1.5519.49142 3.1933 1.0113 6.3696 2.0797 9.5288 3.2049.4839.17307.96993.34613 1.456.52348 4.1966 1.5341 8.3627 3.1772 12.498 4.9292 4.8319 2.0512 9.6147 4.2512 14.349 6.6.61393.30483 1.2272.61392 1.8397.9273.63951-.24358 1.279-.48715 1.8994-.73714-.60541-.30981-1.2108-.61321-1.8184-.91875-5.1545-2.5939-10.381-5.0154-15.681-7.2645-4.272-1.7948-8.5759-3.4756-12.912-5.0424l-1.4581-.52134c-2.8906-1.0341-5.7954-2.0163-8.7145-2.9464-.51374-.16452-1.0275-.32904-1.5434-.48929-3.5955-1.121-7.2116-2.1651-10.848-3.1323.40645-3.3203.85908-6.6321 1.3579-9.9353 5.19 1.4173 10.34 2.9948 15.449 4.7326l1.4709.50852c1.2591.43587 2.5168.88243 3.7731 1.3397.49314.17948.98556.36109 1.4773.54484 3.803 1.4102 7.5811 2.9058 11.334 4.4869 9.2026 3.9037 18.177 8.3264 26.881 13.247.53932.3034 1.0659.60894 1.6158.91661.55425-.26067 1.1085-.52134 1.6585-.78628-.5308-.30768-1.0637-.61108-1.5967-.91448zm-63.299-25.988c-.78874-.21224-1.5796-.41949-2.3726-.62176-.48816-.12606-.98059-.24571-1.4709-.36964l-1.7054-.42733c.87116-.79055 1.7373-1.5897 2.5986-2.3973.68499-.64526 1.3664-1.2962 2.0443-1.9529.71057-.688 1.4147-1.3817 2.1125-2.0811l.13217-.13247c-.4775 2.6565-.92374 5.3174-1.3387 7.9824zm20.01-32.618c-4.9314 7.0455-10.367 13.722-16.265 19.977.21601-1.1139.437-2.2257.66296-3.3353 1.6244-7.9568 3.5244-15.862 5.7002-23.717.28423-1.0128.56846-2.0241.85269-3.034 1.1952-4.1707 2.4678-8.3179 3.8179-12.442.62104 2.0497 1.203 4.1066 1.7459 6.1706.15775.60253.31336 1.2029.46471 1.8055 1.2122 4.8131 2.2191 9.6711 3.0206 14.574zm10.283-37.756c-3.47 7.0756-7.691 13.756-12.59 19.924-.64804-2.4058-1.3487-4.7996-2.1019-7.1812 2.8423-8.4739 5.9965-16.824 9.4627-25.05.29418-.69654.59048-1.3888.88679-2.0832 1.8036 4.6814 3.2551 9.4916 4.3423 14.39zm-5.5574-17.411c.14496.34613.28778.69013.42634 1.0363-.50308 1.1552-1.0005 2.3147-1.4922 3.4784-3.2189 7.6263-6.1699 15.369-8.853 23.229-1.4837-4.477-3.1471-8.9019-4.9903-13.275-.56846-1.3575-1.1568-2.7064-1.7651-4.0468 7.0628-2.8969 12.237-9.1102 13.818-16.593 1.0161 2.0241 1.9683 4.0824 2.8565 6.1749v-.0042733zm-4.0183-8.4226c-.91439 7.8166-6.0058 14.513-13.283 17.469-4.969-10.781-11.003-21.036-18.013-30.611 9.6036 2.1492 19.079 4.8377 28.382 8.053 1.019 1.6708 1.9903 3.3688 2.9141 5.0937v-.0042733zm-14.709 17.988c-8.7551 2.8396-18.342-.23638-23.824-7.6443-5.4822-7.4079-5.6375-17.496-.38589-25.07 1.7963.34613 3.5891.71079 5.3783 1.094 7.363 9.8522 13.675 20.451 18.834 31.622l-.002131-.0021366zm-6.6083-41.957c1.2919-.00060925 2.5811.11596 3.852.34827 4.9796 5.0184 9.4234 10.544 13.259 16.486-9.3381-3.1515-18.845-5.7773-28.475-7.8649-.90811-1.2108-1.8382-2.4137-2.7904-3.6088 3.9104-3.4585 8.948-5.3637 14.163-5.3565l-.008527-.0042756zm-15.257 6.4099c.54998.6944 1.0936 1.3888 1.6329 2.0896-.9948-.20512-1.9853-.40454-2.9716-.59826.42634-.51849.87542-1.017 1.3472-1.4956l-.008527.0042733zm-104.34 1.4956c-.9948.19372-1.9853.39314-2.9716.59826.53932-.70081 1.0829-1.3952 1.6329-2.0896.47393.47175.9236.96737 1.3472 1.485l-.0085269.0064099zm1.0147 1.3439c5.2414 7.5736 5.0822 17.654-.39571 25.057s-15.055 10.483-23.808 7.6546c5.1582-11.171 11.471-21.77 18.834-31.622 1.7878-.38602 3.5806-.75138 5.3783-1.0961l-.0085268.0064099zm-21.454-8.8969c6.4534-1.1833 13.092.66221 18.015 5.0083-.94364 1.1922-1.8731 2.3952-2.7883 3.6088-9.6306 2.0876-19.137 4.7134-28.475 7.8649 3.8328-5.9405 8.273-11.464 13.249-16.482zm-14.543 18.531c9.3018-3.2152 18.777-5.9038 28.38-8.053-7.0096 9.5746-13.043 19.83-18.011 30.611-7.2769-2.9553-12.368-9.6508-13.283-17.467.92374-1.7264 1.8951-3.4236 2.9141-5.0916zm-6.9323 13.512c.88395-2.0939 1.8347-4.1508 2.8522-6.1706 1.5827 7.4854 6.7613 13.699 13.828 16.593-.60399 1.3404-1.1923 2.6893-1.7651 4.0468-1.8475 4.3715-3.5109 8.7965-4.9903 13.275-2.6817-7.85-5.6327-15.593-8.853-23.229-.49029-1.1623-.98769-2.3218-1.4922-3.4784.13217-.34613.27499-.69013.41995-1.0363zm-5.5574 17.407c1.0872-4.8986 2.5387-9.7088 4.3423-14.39.29631.6944.59262 1.3867.88679 2.0832 3.4662 8.2203 6.6204 16.572 9.4627 25.054-.75036 2.3802-1.451 4.7739-2.1019 7.1812-4.8985-6.1703-9.1194-12.852-12.59-19.928zm10.281 37.752c.80152-4.9 1.8077-9.7544 3.0185-14.563.15135-.60253.30697-1.2029.46471-1.8055.5443-2.0668 1.1263-4.1237 1.7459-6.1706 1.3472 4.1237 2.6199 8.2709 3.8179 12.442.28423 1.0113.56846 2.0227.85269 3.034 2.1715 7.8343 4.0716 15.74 5.7002 23.717.22596 1.1096.44695 2.2214.66296 3.3353-5.8964-6.258-11.332-12.937-16.263-19.984v-.0042733zm18.674 24.637.13217.13247c.6992.70081 1.4034 1.3945 2.1125 2.0811.67789.65523 1.3593 1.3062 2.0443 1.9529.85269.80765 1.7189 1.6067 2.5986 2.3973-.56917.13674-1.1362.28204-1.7054.42733-.49029.12392-.98272.24358-1.473.36964-.79158.20227-1.5817.40952-2.3705.62176-.41782-2.6637-.86406-5.3245-1.3387-7.9824zm1.5711 9.4824c.88679-.23717 1.7757-.4722 2.6646-.69868.49243-.12606.98485-.24571 1.4773-.3675.85269-.21224 1.7018-.4202 2.5474-.6239 3.2132 2.8488 6.5152 5.5702 9.9061 8.1641-2.5183.4957-5.0273 1.027-7.5271 1.5939l-1.5817.37605c-2.0464.4786-4.0865.98142-6.1202 1.5085-.41213-3.3246-.86761-6.6399-1.3664-9.946v-.00641zm27.098 16.501c-.63951.10042-1.279.19657-1.9185.30126-2.1843.35753-4.3629.7407-6.5358 1.1495-.65657.12392-1.3131.25426-1.9697.38459-4.7196.9273-9.4094 1.9828-14.069 3.1665-.3027-3.3502-.6523-6.6976-1.0488-10.042 2.288-.59398 4.5825-1.1581 6.8833-1.6922.53719-.12606 1.0659-.24785 1.6137-.3675 2.5808-.58116 5.1708-1.1232 7.7701-1.626l.39863-.076919c.87685.65381 1.7594 1.2998 2.6476 1.9379 3.0953 2.2249 6.258 4.3488 9.4883 6.3714-1.0929.16096-2.1793.32548-3.2594.49356zm33.788-3.0703c-2.9014-2.9838-5.366-6.3648-7.3203-10.042-.25794-.48715-.50948-.97858-.74823-1.4743-.16627-.344-.32615-.69013-.4839-1.0363 3.2674-5.8522 9.4356-9.4771 16.126-9.4771 6.6908 0 12.859 3.6249 16.126 9.4771-.15775.34613-.31762.69227-.4839 1.0363-.23875.4957-.49029.98712-.74823 1.4743-1.9543 3.6773-4.4189 7.0584-7.3203 10.042-.49029.50424-.99196.99638-1.505 1.4764-1.883 1.7585-3.9159 3.3485-6.0754 4.7519-2.1575-1.4034-4.1882-2.9934-6.069-4.7519-.51445-.48003-1.0161-.97217-1.505-1.4764h.006395zm16.508 12.715c-.77954.43183-1.5888.80741-2.4216 1.1239-4.1986 1.5833-8.8283 1.5833-13.027 0-.83214-.31647-1.6407-.69204-2.4195-1.1239-.15988-.089738-.31976-.18161-.47537-.27349 1.8425-.61797 3.6433-1.3545 5.3911-2.205.56917-.27562 1.1319-.56621 1.6862-.85465.793-.42733 1.5689-.88029 2.3321-1.3525.76315.4722 1.5391.92516 2.3321 1.3525.55425.29913 1.117.58971 1.6862.85465 1.7478.8505 3.5486 1.587 5.3911 2.205l-.48177.27349h.006395zm3.6644 1.4358-.91024.38032c-3.857 1.6096-7.753 3.0767-11.688 4.4015-3.9351-1.3219-7.8312-2.789-11.688-4.4015l-.91024-.38032c-.38584-.16238-.76955-.33118-1.1533-.49784.8271-.1866 1.6457-.39528 2.4557-.62603.66873.45985 1.3642.87937 2.0827 1.2563 5.7755 3.0082 12.651 3.0082 18.427 0 .7185-.37697 1.414-.79649 2.0827-1.2563.81005.23218 1.6286.44086 2.4557.62603-.3901.16666-.77381.33545-1.1597.49784h.006395zm3.5621-1.5576c-1.1369-.19799-2.2525-.43801-3.3468-.72004-.60328-.15597-1.2002-.3269-1.7928-.50852-1.8186-.55209-3.5989-1.2237-5.3293-2.0106-.56917-.25853-1.1277-.52988-1.6798-.81192-.88537-.44869-1.7516-.92658-2.5986-1.4337 2.4317-1.6356 4.7004-3.5024 6.7746-5.5745.48035-.48003.94861-.97074 1.4048-1.4721 2.7594-3.0111 5.1005-6.3818 6.96-10.021.14496-.28844.28991-.57903.42634-.86961.095928-.19871.18972-.40169.28352-.60253.18617-.39741.36523-.79768.53719-1.2008-.28362-.5687-.60037-1.1202-.94861-1.6516-2.3152-3.6271-5.7285-6.4156-9.7398-7.9568l-.044766-.017093c-4.5566-1.7264-9.5852-1.7264-14.142 0l-.044766.017093c-4.0113 1.5413-7.4246 4.3297-9.7398 7.9568-.34107.53416-.65728 1.0854-.94861 1.6538.17196.40169.35102.80124.53719 1.1986.093795.20084.18759.40382.28352.60253.14069.29272.28352.58116.42634.86961 1.8616 3.6383 4.2033 7.0088 6.9622 10.021.45761.50282.92658.99353 1.4069 1.4721 2.0742 2.0721 4.3429 3.9388 6.7746 5.5745-.85269.50709-1.7189.98499-2.5986 1.4337-.55424.28204-1.1128.55339-1.6798.81192-1.7304.78683-3.5107 1.4585-5.3293 2.0106-.59262.18161-1.1895.35254-1.7928.50852-1.1.28488-2.2156.5249-3.3468.72004-5.9999-2.6982-11.845-5.7298-17.508-9.0807 4.7964-.60395 9.6169-1.0783 14.462-1.423.51588-.036322 1.0296-.072645 1.5455-.10469.72905-.049143 1.4602-.091875 2.1914-.13461.67575-.038459 1.3494-.079055 2.0251-.11324-.4839-.46579-.95501-.94653-1.4155-1.4358-.63951.034186-1.2982.068372-1.9463.10683-.41568.02564-.83137.057689-1.2492.085465l-1.522.10256c-5.4202.39172-10.811.94582-16.173 1.6623-4.2634-2.6067-8.4153-5.3943-12.456-8.3628 8.2099-1.5056 16.5-2.6216 24.871-3.3481.53932-.047006 1.0786-.087602 1.618-.13034-.23875-.48288-.46756-.97074-.68641-1.4636-.5308.044869-1.0659.087602-1.5903.13461-8.7088.77204-17.334 1.965-25.877 3.5789l-.029844-.023503c-.95217-.71221-1.8986-1.4401-2.8394-2.1836-2.4543-1.9301-4.861-3.9243-7.2201-5.9826 1.5434-.35753 3.0903-.7001 4.6407-1.0277.49243-.1047.98698-.21366 1.4815-.30981 8.9039-1.8415 17.897-3.22 26.943-4.1301.50095-.05128 1.004-.096149 1.5071-.14316-.078162-.49855-.14922-.99709-.21317-1.4956l-1.505.14315c-9.0999.91171-18.147 2.2931-27.105 4.1387l-1.4794.30981c-1.8915.40169-3.7774.82474-5.6576 1.2692-1.7054-1.5298-3.3901-3.0967-5.0543-4.7006-.62815-.6068-1.2534-1.2193-1.8759-1.8375l-.54785-.5427c-.56846-.56977-1.1305-1.1395-1.6862-1.7093-.35386-1.8874-.72194-3.7704-1.1042-5.6492-1.4595-7.1477-3.1421-14.258-5.0479-21.332-.25723-.95579-.51943-1.9109-.7866-2.8652-1.6059-5.7618-3.356-11.483-5.2504-17.164 1.6244-5.0923 3.4818-10.12 5.5723-15.082.58267-1.3788 1.1817-2.7484 1.797-4.1087 9.2612 3.0855 19.456-.037033 25.415-7.784 5.9587-7.747 6.3774-18.424 1.0439-26.616 32.309-5.974 65.435-5.974 97.743 0-5.3277 8.1925-4.9062 18.866 1.0508 26.61s16.148 10.869 25.408 7.7893c.61393 1.3617 1.2122 2.7313 1.7949 4.1087 2.0933 4.9598 3.9508 9.9873 5.5723 15.082-1.893 5.6749-3.6424 11.396-5.2483 17.164-.26575.95579-.52795 1.9109-.7866 2.8652-1.9029 7.0608-3.5863 14.172-5.05 21.332-.38087 1.8788-.74823 3.7619-1.1021 5.6492-.55851.56977-1.1206 1.1395-1.6862 1.7093l-.54785.5427c-.62246.61677-1.2478 1.2293-1.8759 1.8375-1.6585 1.601-3.3432 3.1679-5.0543 4.7006-1.8802-.44442-3.766-.86747-5.6576-1.2692l-1.4794-.30981c-8.9599-1.8466-18.009-3.228-27.111-4.1387l-1.4922-.14315c-.061819.50424-.13003 1.0042-.21317 1.4956.50308.047006 1.0062.091875 1.5071.14316 9.0457.9058 18.039 2.2801 26.943 4.1173.49456.10042.98912.21366 1.4922.30981 1.549.32904 3.0952.67161 4.6386 1.0277-2.3577 2.064-4.7637 4.0582-7.218 5.9826-.9408.73927-1.888 1.4672-2.8416 2.1836l-.029844.023503c-8.5368-1.6153-17.162-2.8082-25.875-3.5789-.52867-.047006-1.0659-.089738-1.5903-.13461-.21317.49356-.44979.98285-.68641 1.4636.53932.042732 1.0786.083328 1.6158.13033 8.3691.72645 16.661 1.8446 24.875 3.3545-4.0332 2.9656-8.1858 5.7532-12.458 8.3628-5.3591-.71221-10.75-1.2663-16.171-1.6623-.50735-.036323-1.0147-.068373-1.5242-.10256-.42634-.027776-.83137-.059825-1.2471-.085465-.63951-.038459-1.2961-.072645-1.9463-.10683-.46045.48929-.93156.97003-1.4155 1.4358.67575.034186 1.3494.074782 2.0251.11324.73118.042733 1.4624.085465 2.1914.13461.51588.032049 1.0296.068372 1.5455.1047 4.8433.34328 9.6638.81762 14.462 1.423-5.6684 3.3534-11.519 6.3872-17.525 9.0871h.006395zm49.69-4.5254c-4.6599-1.1837-9.3497-2.2392-14.069-3.1665-.65657-.13033-1.3131-.26067-1.9697-.38459-2.1715-.40738-4.353-.79055-6.5444-1.1495-.63951-.1047-1.279-.20084-1.9185-.30126-1.0843-.16951-2.1701-.33118-3.2573-.48502 3.2288-2.0213 6.3916-4.1451 9.4883-6.3714.88679-.63956 1.7693-1.2855 2.6476-1.9379l.39863.076919c2.5993.50424 5.1893 1.0462 7.7701 1.626.53719.11965 1.0659.24144 1.6137.3675 2.3023.53273 4.5967 1.0968 6.8833 1.6922-.39224 3.3388-.7397 6.6834-1.0424 10.034zm1.2321-11.551c-2.0337-.52846-4.0737-1.0313-6.1202-1.5085l-1.5839-.36964c-2.4998-.56977-5.0088-1.1011-7.5271-1.5939 3.3923-2.5967 6.6943-5.3181 9.9061-8.1641.85269.20227 1.7054.41023 2.5581.6239.49243.12179.98485.24144 1.4773.3675.88893.22648 1.7779.46151 2.6646.69868-.50735 3.3104-.96567 6.63-1.375 9.9588v-.012819z" style="fill:#87a752;stroke:#87a752"/><path d="m103.68 69.96c-1.5205-1.8465-3.3015-3.4609-5.2867-4.7925-.37518-.25212-.75889-.4957-1.149-.72645l-.50095-.29058c-.60541.23503-1.198.49214-1.7779.77132-.67103.32186-1.3249.67845-1.959 1.0683-7.339 4.3741-11.857 12.281-11.908 20.839.35386.64954.73544 1.2806 1.1447 1.8931.15988.2393.32189.47647.49029.70936s.31976.42733.48603.64099c4.621 6.0272 11.774 9.5593 19.358 9.5593h.32615c.65657-.0099709 1.3067-.044869 1.9505-.10469.37376-.53416.72905-1.084 1.0659-1.6495 4.8769-8.3549 4.3753-18.807-1.279-26.654-.30697-.43801-.62886-.85679-.9614-1.2627zm4.0503 15.553c.010321 4.4606-1.2828 8.8267-3.7198 12.559-.47537.029913-.95288.047006-1.4346.047006-7.3412-.0018694-14.237-3.5292-18.546-9.4866-.32615-.44869-.63951-.9102-.93156-1.3845-.16627-.26637-.32757-.53772-.4839-.81406.2352-9.0271 5.713-17.083 14.01-20.604 2.1043 1.2738 3.9926 2.8757 5.5936 4.7455.33894.39741.66723.80551.97846 1.2243 2.9542 3.9583 4.5488 8.7697 4.5448 13.713h-.010667z" style="fill:#87a752;stroke:#87a752"/></g></g></g></g></g></svg>
