<svg width="304" height="304" version="1.1" viewBox="0 0 304 304" xmlns="http://www.w3.org/2000/svg"><defs><style>.cls-1,.cls-2{fill:#fff;}.cls-2{opacity:0.5;}</style></defs><title>Artboard 1</title><path d="m241.97 118.45 17.1-41.27 1-17.48 10.69-33.46-24.21-6.27-20.67 10.42-21.17 20.2-12.38-6-36.18-4.5-31.25 8-27.78-31.72-14 9.4-.73 30.14 4.44 10.37-14.72 45.1 3.2 18-7.79 8 .06 8.17 3.68 5.78-7.15 14.46 5.95 17.85 5.39 1.38 13 15.74 26.52 3.36 16.67-9.61 18.14 3.88 9 33.59 2.33 55.71 32.13-6.49 60.87-39.27 34.59-41.18 14.2-33-60.93-49.3" style="fill-rule:evenodd;fill:#87ad51"/><path d="m124.33 50.387 31.96-8.1 33.68 4.18-41.52 24.37-22.94 25.75-7 33.13-12.39-9.84h-17.43l-9.11 5.87 15.24-28 4.8-26.91z" style="fill-rule:evenodd;fill:#68873f"/><path d="m216.31 51.167 6.51 38.13-3.7 43.33-64.44 10.64-10.5-10.48 2.59-29.2 11.08-9.12 27.19 1.23 15.76-15.41z" style="fill-rule:evenodd;fill:#68873f"/><path d="m200.63 170.68 14.87-11.56-9.38 20.52-45.48 50.88-9.05-34-18.35-4.29z" style="fill-rule:evenodd;fill:#68873f"/><path d="m239.68 119.53 22.41 18.65 24.93 60.77-33.97 40.74-35.65-80.45-.21-1.8 16.88-25.47 1.05-1.92z" style="fill-rule:evenodd;fill:#68873f"/><g transform="translate(-57.029 12.587)" style="fill:#010101" data-name="Layer 7"><path class="cls-1" d="m98 110.71a.63.63 0 01.51-.73.62.62 0 01.72.52.62.62 0 01-.51.72h-.11a.63.63 0 01-.61-.51zm5-.86a.62.62 0 01.51-.72.62.62 0 01.72.51.62.62 0 01-.51.72h-.1a.62.62 0 01-.62-.51zm5-.85a.62.62 0 01.51-.72.62.62 0 01.72.51.62.62 0 01-.51.72h-.1a.63.63 0 01-.62-.51zm5-.85a.62.62 0 01.51-.72.63.63 0 01.73.51.63.63 0 01-.51.72h-.11a.64.64 0 01-.62-.51zm5-.86a.64.64 0 01.52-.72.62.62 0 01.72.51.63.63 0 01-.51.73h-.11a.63.63 0 01-.62-.52zm5-.85a.62.62 0 01.51-.72.62.62 0 01.72.51.63.63 0 01-.51.72h-.11a.62.62 0 01-.61-.51zm5-.85a.62.62 0 01.51-.72.62.62 0 01.72.51.62.62 0 01-.51.72h-.11a.62.62 0 01-.61-.51zm5-.86a.62.62 0 01.51-.72.63.63 0 01.72.51.63.63 0 01-.51.73h-.11a.61.61 0 01-.61-.52zm5-.85a.62.62 0 01.51-.72.62.62 0 01.72.51.62.62 0 01-.51.72h-.11a.61.61 0 01-.61-.51zm5-.85a.62.62 0 01.51-.72.62.62 0 01.72.51.62.62 0 01-.51.72h-.11a.63.63 0 01-.61-.54zm5-.86a.61.61 0 01.51-.71.62.62 0 01.72.51.62.62 0 01-.51.72h-.1a.63.63 0 01-.62-.52zm5-.85a.62.62 0 01.51-.72.62.62 0 01.72.51.62.62 0 01-.51.72h-.11a.62.62 0 01-.61-.51zm5-.85a.62.62 0 01.51-.72.62.62 0 01.72.51.62.62 0 01-.51.72h-.1a.63.63 0 01-.62-.51zm5-.85a.63.63 0 01.51-.73.64.64 0 01.73.52.64.64 0 01-.52.72h-.1a.63.63 0 01-.62-.51zm5-.86a.63.63 0 01.51-.72.63.63 0 01.73.51.63.63 0 01-.52.72h-.1a.62.62 0 01-.62-.51zm5-.85a.63.63 0 01.52-.72.62.62 0 01.72.51.64.64 0 01-.52.72h-.1a.63.63 0 01-.62-.51zm5-.85a.63.63 0 01.51-.72.63.63 0 01.73.51.62.62 0 01-.51.72h-.11a.64.64 0 01-.62-.51zm5-.86a.62.62 0 01.51-.72.62.62 0 01.72.51.62.62 0 01-.51.72h-.11a.61.61 0 01-.61-.51zm5-.85a.62.62 0 01.51-.72.62.62 0 01.72.51.62.62 0 01-.51.72h-.11a.62.62 0 01-.61-.51zm5-.85a.62.62 0 01.51-.72.62.62 0 01.72.51.62.62 0 01-.51.72h-.11a.62.62 0 01-.61-.51zm5-.86a.62.62 0 01.51-.72.63.63 0 01.72.51.63.63 0 01-.51.73h-.11a.61.61 0 01-.61-.52z" style="fill:#010101"/><path class="cls-1" d="m57.53 104.32a.64.64 0 01.5-.74.63.63 0 01.73.5.62.62 0 01-.49.73h-.12a.63.63 0 01-.62-.49zm5-1a.63.63 0 01.49-.74.63.63 0 01.74.49.63.63 0 01-.5.74h-.12a.63.63 0 01-.63-.47zm5-1a.62.62 0 01.49-.73.63.63 0 01.74.49.64.64 0 01-.5.74h-.16a.63.63 0 01-.61-.47zm5-1a.62.62 0 01.49-.73.61.61 0 01.73.49.61.61 0 01-.49.73h-.12a.62.62 0 01-.67-.44zm5-1a.63.63 0 01.5-.73.62.62 0 01.73.49.61.61 0 01-.49.73h-.13a.62.62 0 01-.7-.42zm5-1a.61.61 0 01.49-.73.63.63 0 01.74.49.63.63 0 01-.5.73h-.26a.62.62 0 01-.58-.4zm5-1a.63.63 0 01.49-.74.63.63 0 01.73.5.62.62 0 01-.49.73h-.26a.63.63 0 01-.6-.38zm5-1a.62.62 0 01.49-.73.62.62 0 01.73.49.63.63 0 01-.49.74h-.26a.62.62 0 01-.62-.38zm5-1a.63.63 0 01.49-.73.63.63 0 01.74.49.63.63 0 01-.49.74h-.27a.63.63 0 01-.65-.36zm5-1a.61.61 0 01.49-.73.63.63 0 01.74.49.63.63 0 01-.5.73h-.12a.63.63 0 01-.81-.33zm5-1a.61.61 0 01.49-.73.61.61 0 01.73.49.61.61 0 01-.75.92h-.12a.62.62 0 01-.57-.5zm5-1a.64.64 0 01.5-.74.64.64 0 01.73.5.62.62 0 01-.76.92h-.13a.62.62 0 01-.59-.48zm5-1a.63.63 0 01.49-.74.64.64 0 01.74.49.64.64 0 01-.76.93h-.13a.63.63 0 01-.61-.46zm5-1a.63.63 0 01.49-.74.61.61 0 01.73.49.63.63 0 01-.49.74h-.12a.63.63 0 01-.9-.25zm5-1a.62.62 0 01.49-.73.62.62 0 01.73.49.63.63 0 01-.49.74h-.12a.62.62 0 01-.92-.25z" style="fill:#010101"/><path class="cls-1" d="m229.26 82.57-14.38-.69-11.08 9.12-.65 4.88-1.3 13 6.84-6.19h14l12.38-12.38 7-7.2zm-14.42 17.55a15 15 0 01-2-7.63 13.28 13.28 0 012.46-7.67 15 15 0 012.3 7.8 11.79 11.79 0 01-2.76 7.5z" style="fill:#010101"/><path class="cls-1" d="m144.43 90.18c0-3.33.85-4.84 1.76-6.05 1.69 2.52 1.68 7.3 1.68 7.3l3.48-6.3-7.73-8.48-4.54 13.59 3.15 11.94 3.44-6.43a22 22 0 01-1.24-5.57z" style="fill:#010101"/></g><g transform="translate(-57.029 12.587)" style="fill:#010101"><path class="cls-2" d="m311.21 116.09 28.07-4.63.38-.06-.3-1.73-29.92 4.94-10.44-8.75 17.1-41.27 1-17.48 10.69-33.46-24.21-6.27-20.67 10.42-21.17 20.2-12.38-6-36.18-4.5-31.25 8-27.78-31.72-14 9.4-.73 30.14 4.44 10.37-14.72 45.1 3.2 18-7.79 8 .06 8.17 1.63 2.57-66.568-19.283-.61 1.64 68.718 20.053.51.8-1.71 3.44-49.922-5.3777h-.37l-.2 1.74 49.662 5.3477-2.1 4.23-53.451 6.3828.2 1.74 52.331-6.2428-1.59 3.2.34 1-34.18 14.05.67 1.62 34.03-14.05 2 5.88-27.27 19.59 1 1.42 26.82-19.27 2.54 7.61 5.39 1.38 13 15.74 26.52 3.36 5.1-2.95.14 13.25h1.75l-.15-14.23 9.83-5.68 1.16 10 1.85-.3-1.11-9.34 16.24 3.52 9 33.59 2.33 55.71 32.13-6.49 60.73-39.18.14-.09 34.59-41.18 14.2-33-40.4-32.16zm-102.59 67.84-18.35-4v-.29l17.63-5.64 13.24 13.54 1.25-1.23-12.62-12.91 34.43-11 17.37 6.42-43.9 49.11zm-62 2.12-12.38-15 5.79 1.1h.06l1.65-3.63 15.59 1.9 2.63 3 16.86-1.86.18 14.44-5.54 3.2zm-17.82-16.88-5.28-15.85 3.94-7.94 5.72 9.43.13-.08h.21l2.82.66 9.62 2.22-2.13 4.7-4.11 9-7.62-1.31-.37-.07zm11.2-96.59 11 12.71-15.57 28.71-1.08 1.39-2.91-16.39zm20.15-29.58-6.34-12.38.59-23.14 25.75 29.27zm-13.94 10.71 13.8-10 20.61-6.44.18.21-24.75 20.44-4.74 26.67-11-12.73zm116.61 113.7-15.92-5.88 10.76-3.44 14.87-11.56-9.38 20.52zm-102.09-31.26 1.56 2.72 9.28-4.3 4.76-9.72 23.89-4.09-12.22 20.08-10.24-.32h-.12l-17.25 13.35-7.5-14.21zm43.53-45.15 10.74-8.8 26.94 1h.14l15.75-15.5 15.51-29.12 2.48 14.36 2.08 11.77 1.95 12-3.7 43.33-64.44 10.64-10.5-10.48zm-7.13 52.11-.61 1.64 9 3.32-3.42 8.73-13.5-15.7 12.36-20.3 10 10-12.67 2.2.29 1.73 13-2.15-2.71 6.91-10.37-.86h-.36l-.22 1.73 10.28.86-2.09 5.33zm74.22 1.49-55.94-12.73 74.85-12.36-16.74 25.27zm-57.63-12.45 53 12.07-57.16-4.76 2.78-7.08zm-66.59 25.54 10.44-.92h.09l.06-.05 3-2.28 17.16-13.28 10.16.32 13.68 15.9-4 3.63-6.07-6.21-1.3 1.2 6 6.15-7.35 6.71-1.12-9.3-1.69.3 1.13 9.91-8.66 1-.11-9.64h-1.75l.11 9.81-16.58 1.84zm41.87 11.96 7.78-7 10.58 10.83-17.2 5.52zm9.08-8.16 4.35-3.91 3.63-9.25 37.1 13.7-34 10.86zm59.28-4-11.49 3.68-39.13-14.47 2.16-5.49 62.71 5.21zm61.38-7.15h.35l.22-1.74-45.09-3.75 16.88-25.47 17.14-2.83 9.83 8.2 1.05.84 24.93 60.77-.19.45-33.78 40.29-35.65-80.45zm-26.59-32.88 4.56-10.52 9.76 8.16zm-.77.13-14.53 2.41 3.67-43 32.8-11.65-16.39 39.55zm-10.53-94.73-7.6 14.47v.08l-15 28.24 4-25.06zm-32.14 11.24 12.89 6.28-4.34 26.94-15.45 15.2-26.71-1-9-22.89 41.9-24.63zm-43.17 25 9 22.63-10.84 8.93v.06l-3.13 29.28-24.15 4.13-.31-6.43 7-33.43zm-30.07 58.73.31 6.62-4.69 9.59-8.53 3.96-4.12-7.16-8.84 3.95 10.26 19.45-2.44 1.9-10.67.94-3.52-32.57 26.29-11.4zm-32.54 6.17-8.19-6.47-.22-1.27 1.42-1.85 10-6.43h17.06l6 4.75zm-8.62-6 8.26 6.54 3.52 32.46-9.23-2.13-2.69-.62 5.83-19.54-.23-.12-7.82-4.24-.35-.19-.11.39-1.81 6.08-2.78-4.38v-6.6zm-4.17 19.49.62-2.18 6.84 5.12-3.95 13.35-5.79-9.09 3-6.06zm48.47 33.92 8.74-1 1 9.12h-.14l-9.45 5.47zm84.87-3.72.18-.21 9.15-20-4.29 22.05zm81 17.89-24.25-59.1 37 29.4zm-131.16-155.88 33.68 4.18-41.52 24.37-22.88 25.69-.06.06-7 33.13-12.39-9.84h-17.43l-9.11 5.87 15.24-28 4.8-26.91 24.71-20.45zm36 236.82-29.12 5.88-2.2-53.2-.14-.52 44.36-49.62 5.95 2.2-18.53 95.07zm19.43-95 4.89 1.81.6-1.64-5.15-1.91 4.51-23.14 36 81.05-59.2 38.19z" style="fill:#010101;opacity:.5"/></g></svg>
