<svg xmlns="http://www.w3.org/2000/svg" viewBox="0 0 818.47 461.32"><defs><style>.cls-1{fill:#7C984F;}</style></defs><g id="Face_New" data-name="Face New"><path class="cls-1" d="M326.56,456.36c-73.29,0-132.92-59.62-132.92-132.92h.75c0,72.88,59.29,132.17,132.17,132.17a130.71,130.71,0,0,0,82.69-29.05l.47.59A133.28,133.28,0,0,1,326.56,456.36Z"/><path class="cls-1" d="M409.72,427.15l-.47-.59a131.63,131.63,0,0,0,49.49-103.12h.75A132.41,132.41,0,0,1,409.72,427.15Z"/><path class="cls-1" d="M459.49,323.44h-.75a133.67,133.67,0,0,0-1-16.51l.75-.09A135.12,135.12,0,0,1,459.49,323.44Z"/><path class="cls-1" d="M457.71,306.93a131.35,131.35,0,0,0-48.46-86.61l.47-.58a132.12,132.12,0,0,1,48.74,87.1Z"/><path class="cls-1" d="M194.39,323.44h-.75A132.92,132.92,0,0,1,199,286l.72.21A132.16,132.16,0,0,0,194.39,323.44Z"/><path class="cls-1" d="M625.33,323.44h-.75a132.66,132.66,0,0,0-4.18-33.08l.73-.18A133.57,133.57,0,0,1,625.33,323.44Z"/><path class="cls-1" d="M620.47,290.35q-.26-1-.54-2l.59-.16.54,2Z"/><path class="cls-1" d="M614.44,289.82a126.84,126.84,0,0,0-122-92.93,125.18,125.18,0,0,0-79.16,27.81l-7.51-9.35A138.58,138.58,0,0,1,626,286.64Z"/><path class="cls-1" d="M204.53,289.82,193,286.64a138.58,138.58,0,0,1,220.28-71.29l-7.51,9.35a125.18,125.18,0,0,0-79.16-27.81A126.84,126.84,0,0,0,204.53,289.82Z"/><path class="cls-1" d="M361.34,306.22l-.74-.1a132.21,132.21,0,0,1,48.65-86.39l.47.59A131.45,131.45,0,0,0,361.34,306.22Z"/><path class="cls-1" d="M360.23,323.44h-.75a135.05,135.05,0,0,1,1.12-17.32l.74.1A135.31,135.31,0,0,0,360.23,323.44Z"/><path class="cls-1" d="M409.25,427.15a132.41,132.41,0,0,1-49.77-103.71h.75a131.63,131.63,0,0,0,49.49,103.12Z"/><path class="cls-1" d="M492.4,456.36a133.27,133.27,0,0,1-83.15-29.21l.47-.59a130.68,130.68,0,0,0,82.68,29.05c72.88,0,132.18-59.29,132.18-132.17h.75C625.33,396.74,565.7,456.36,492.4,456.36Z"/><path class="cls-1" d="M261.09,209A97.59,97.59,0,0,1,413.24,97.86l-7.51,9.36A84.66,84.66,0,0,0,352.2,88.41a85.64,85.64,0,0,0-79.91,116.26Z"/><path class="cls-1" d="M268.49,211.78c-.72-1.59-1.4-3.23-2-4.87l.47-.18c.62,1.63,1.3,3.26,2,4.84Z"/><path class="cls-1" d="M352.2,265.8a92,92,0,0,1-83.71-54l.46-.21A91.33,91.33,0,1,0,409.33,102.74l.31-.39A91.82,91.82,0,0,1,352.2,265.8Z"/><path class="cls-1" d="M466.77,265.8a91.82,91.82,0,0,1-57.44-163.46l.31.39A91.33,91.33,0,1,0,550,211.57l.45.21A92,92,0,0,1,466.77,265.8Z"/><path class="cls-1" d="M550.47,211.78l-.45-.21c.85-1.87,1.64-3.81,2.37-5.75l.47.17C552.13,208,551.33,209.9,550.47,211.78Z"/><path class="cls-1" d="M558.25,208,547,203.81a85.69,85.69,0,0,0-33.65-101.62l6.55-10.06A97.71,97.71,0,0,1,558.25,208Z"/><path class="cls-1" d="M413.24,107.22l-7.51-9.36A97.61,97.61,0,0,1,519.9,92.13l-6.55,10.06a85.59,85.59,0,0,0-100.11,5Z"/><path class="cls-1" d="M293.78,102.33a60.59,60.59,0,0,0-60.69-33.11L232,59.28a70.62,70.62,0,0,1,70.72,38.58Z"/><path class="cls-1" d="M269.12,135.94a70.61,70.61,0,0,1-41.57-72.59l9.93,1.14a60.61,60.61,0,0,0,35.67,62.3Z"/><path class="cls-1" d="M297.53,137.18A65.47,65.47,0,0,1,271,131.59l.2-.45A65.26,65.26,0,1,0,251.45,25.28,64.56,64.56,0,0,0,232.76,64l-.49-.06a65.76,65.76,0,0,1,111.82-39,65.76,65.76,0,0,1-34.9,111.23A66.58,66.58,0,0,1,297.53,137.18Z"/><path class="cls-1" d="M525.6,101.31l-8.86-4.64a70.62,70.62,0,0,1,70.11-37.39l-1.08,9.94a60.61,60.61,0,0,0-60.17,32.09Z"/><path class="cls-1" d="M549.74,135.94l-4-9.15a60.61,60.61,0,0,0,35.67-62.3l9.93-1.14a70.57,70.57,0,0,1-41.57,72.59Z"/><path class="cls-1" d="M521.33,137.18a66.58,66.58,0,0,1-11.66-1,65.77,65.77,0,1,1,76.92-72.26l-.49.06a64.56,64.56,0,0,0-18.69-38.67,65.25,65.25,0,1,0-19.79,105.86l.2.45A65.47,65.47,0,0,1,521.33,137.18Z"/><polygon class="cls-1" points="405.07 224.21 409.49 228.31 413.89 224.23 409.62 215.51 405.07 224.21"/><polygon class="cls-1" points="405.61 107.1 409.49 110.7 413.36 107.12 409.61 99.46 405.61 107.1"/><polygon class="cls-1" points="591.39 64.73 591.19 59.44 585.92 59.25 583.16 67.31 591.39 64.73"/><polygon class="cls-1" points="227.3 64.73 227.5 59.44 232.77 59.25 235.53 67.31 227.3 64.73"/></g><g id="Nose"><path class="cls-1" d="M279.49,287.77A25.85,25.85,0,0,1,254,266.37l.5-.09a25.41,25.41,0,0,0,49.91.71l.49.1A26,26,0,0,1,279.49,287.77Z"/><path class="cls-1" d="M279.49,297.4a25.94,25.94,0,0,1-25.91-25.91,26.32,26.32,0,0,1,.46-4.86l.49.1a25.41,25.41,0,1,0,50.36,4.76,26.1,26.1,0,0,0-.44-4.76l.49-.1a26.31,26.31,0,0,1,.45,4.86A25.93,25.93,0,0,1,279.49,297.4Z"/><path class="cls-1" d="M539.37,287.77a25.84,25.84,0,0,1-25.51-21.4l.49-.09a25.41,25.41,0,0,0,49.91.71l.49.1A26,26,0,0,1,539.37,287.77Z"/><path class="cls-1" d="M539.37,297.4a25.93,25.93,0,0,1-25.9-25.91,26.39,26.39,0,0,1,.45-4.86l.49.1a26.1,26.1,0,0,0-.44,4.76,25.41,25.41,0,1,0,50.36-4.76l.49-.1a26.4,26.4,0,0,1,.46,4.86A25.94,25.94,0,0,1,539.37,297.4Z"/><polygon class="cls-1" points="301.76 267.19 304.64 270.13 307.52 267.63 304.73 261.5 301.76 267.19"/><polygon class="cls-1" points="251.25 266.82 254.23 269.99 257.19 267.24 254.31 261.36 251.25 266.82"/><path class="cls-1" d="M567.45,267.64a29.33,29.33,0,0,0,.58-5.77,28.66,28.66,0,1,0-56.89,4.93v0l0,0h0l3,3.15,3-2.75h0a22.66,22.66,0,0,1,44.51,0l.09,0,0,0,2.89,2.95,2.87-2.51,0-.06Z"/><path class="cls-1" d="M308.14,261.87a28.66,28.66,0,0,0-57.31,0,29.43,29.43,0,0,0,.43,5l2-.35,4,.75a22.66,22.66,0,0,1,44.51,0l2-.38,3.82.78A28.59,28.59,0,0,0,308.14,261.87Z"/></g><g id="HAIR"><path class="cls-1" d="M202.8,263.16a22.88,22.88,0,0,0-15.51-3.87c-.95.11-1,1.61,0,1.5A21.56,21.56,0,0,1,202,264.45c.8.55,1.55-.75.76-1.29Z"/><path class="cls-1" d="M208.93,255.27a51,51,0,0,1-14-12.84c-.57-.77-1.87,0-1.3.75a52.89,52.89,0,0,0,14.54,13.39c.82.51,1.58-.79.76-1.3Z"/><path class="cls-1" d="M216.92,239.5a32,32,0,0,0-17.36-12.05.75.75,0,0,0-.4,1.45,30.4,30.4,0,0,1,16.47,11.36c.55.78,1.85,0,1.29-.76Z"/><path class="cls-1" d="M225.69,231.62a49.54,49.54,0,0,1-5.42-24c0-1-1.47-1-1.5,0a51.18,51.18,0,0,0,5.62,24.73c.44.86,1.74.1,1.3-.75Z"/><path class="cls-1" d="M239.89,218.91a79.47,79.47,0,0,0-14.45-11,.75.75,0,0,0-.76,1.29A78.34,78.34,0,0,1,238.83,220c.7.67,1.76-.39,1.06-1.06Z"/><path class="cls-1" d="M248.36,213.75a20.69,20.69,0,0,1-3.45-10.89c0-1-1.53-1-1.5,0a22.08,22.08,0,0,0,3.66,11.65c.53.8,1.83.05,1.29-.76Z"/><path class="cls-1" d="M296.39,218.46c-4.09-4.05-9.76-9-16-6.42-.88.36-.49,1.82.4,1.44,5.69-2.37,10.79,2.35,14.51,6,.69.68,1.75-.38,1.06-1.06Z"/><path class="cls-1" d="M311.36,218.06a21.32,21.32,0,0,1,.84-6.2,12.17,12.17,0,0,1,1-2.73c.31-.55.85-1.36,1.58-1.14.92.28,1.32-1.17.4-1.45-2.37-.71-3.57,2.24-4.16,4a22.51,22.51,0,0,0-1.19,7.55.75.75,0,0,0,1.5,0Z"/><path class="cls-1" d="M337.76,223.86a25.63,25.63,0,0,0,14-10.6c.53-.81-.77-1.56-1.29-.75a24,24,0,0,1-13.12,9.9c-.92.28-.53,1.73.4,1.45Z"/><path class="cls-1" d="M371,219.36a33.69,33.69,0,0,1,1.54-13.74c.3-.92-1.15-1.31-1.45-.4a35,35,0,0,0-1.59,14.14c.09,1,1.59,1,1.5,0Z"/><path class="cls-1" d="M345.85,236.53c-3.67,0-4.35,4.19-4.84,7-.62,3.57-1.06,7.23-.12,10.8a.75.75,0,0,0,1.44-.4,21.83,21.83,0,0,1,0-9.07c.34-2.09.55-6.82,3.55-6.79a.75.75,0,0,0,0-1.5Z"/><path class="cls-1" d="M324.78,239.1a11.76,11.76,0,0,0-10.85-3.6c-.94.19-.54,1.63.4,1.45a10.24,10.24,0,0,1,9.39,3.21c.65.72,1.7-.34,1.06-1.06Z"/><path class="cls-1" d="M326.4,272.64a31.22,31.22,0,0,0-12.47,16.49c-.29.92,1.16,1.31,1.45.4a29.55,29.55,0,0,1,11.78-15.59c.8-.53,0-1.83-.76-1.3Z"/><path class="cls-1" d="M232.06,274.93a24.48,24.48,0,0,1-13-4.63c-.78-.56-1.53.74-.76,1.3a26,26,0,0,0,13.78,4.83c1,.05,1-1.45,0-1.5Z"/><path class="cls-1" d="M237.52,257a12.56,12.56,0,0,0-13.27-9.08c-.95.11-1,1.61,0,1.5a11.07,11.07,0,0,1,11.82,8,.75.75,0,0,0,1.45-.4Z"/><path class="cls-1" d="M248.31,242a26.23,26.23,0,0,1-10-11.74c-.39-.88-1.68-.12-1.3.76a27.57,27.57,0,0,0,10.53,12.28c.81.52,1.57-.78.75-1.3Z"/><path class="cls-1" d="M267.32,226.87c-1.32-2.17-2.9-4.5-5.54-5.1-2.45-.56-5.4.54-7.6-.92-.81-.54-1.56.76-.76,1.29,2.16,1.44,4.77.74,7.19,1,2.67.24,4.13,2.43,5.42,4.53.5.82,1.8.07,1.29-.75Z"/><path class="cls-1" d="M241.37,279.33a15.16,15.16,0,0,1,6,12.14.75.75,0,0,0,1.5,0A16.72,16.72,0,0,0,242.13,278c-.78-.57-1.53.73-.76,1.3Z"/><path class="cls-1" d="M334.87,285.78a8.51,8.51,0,0,1,6.53,6.81.75.75,0,0,0,.92.52.77.77,0,0,0,.52-.92,9.94,9.94,0,0,0-7.57-7.86.79.79,0,0,0-.93.52.77.77,0,0,0,.53.93Z"/><path class="cls-1" d="M345.23,276.77a15.76,15.76,0,0,0,12-11.2.75.75,0,0,0-1.45-.4,14.25,14.25,0,0,1-11,10.15c-.95.18-.55,1.63.4,1.45Z"/><path class="cls-1" d="M372.78,278.9a28.47,28.47,0,0,1,6.14,11.93c.22.94,1.67.54,1.44-.4a30,30,0,0,0-6.52-12.59c-.64-.73-1.69.33-1.06,1.06Z"/><path class="cls-1" d="M364.25,253.39a18.43,18.43,0,0,0,8.88-12.61c.17-.94-1.28-1.34-1.45-.39a17.05,17.05,0,0,1-8.18,11.71.75.75,0,0,0,.75,1.29Z"/><path class="cls-1" d="M384.77,257.4A15.93,15.93,0,0,1,395,272.79c-.05,1,1.45,1,1.5,0A17.46,17.46,0,0,0,385.17,256c-.91-.33-1.3,1.12-.4,1.45Z"/><path class="cls-1" d="M417.4,280.8c3.46.48,5.27-3.82,6.63-6.28a83.77,83.77,0,0,0,5-10.7c.34-.9-1.11-1.29-1.45-.4a82.4,82.4,0,0,1-4.23,9.27c-.77,1.44-1.57,2.86-2.43,4.24-.63,1-1.69,2.62-3.09,2.42-.94-.13-1.35,1.31-.4,1.45Z"/><path class="cls-1" d="M434.47,281a12.17,12.17,0,0,1,10.71,8.91.75.75,0,0,0,1.45-.4,13.71,13.71,0,0,0-12.16-10c-1-.06-1,1.44,0,1.5Z"/><path class="cls-1" d="M457.56,278.91c5.81-4.23,6.54-11.69,6.94-18.32.05-1-1.45-1-1.5,0-.36,6-.89,13.16-6.19,17-.78.56,0,1.86.75,1.29Z"/><path class="cls-1" d="M474.48,283.13c2.2-1.35,4.91.16,6.69,1.58a33.1,33.1,0,0,1,5.84,6.16c.57.77,1.87,0,1.3-.76a33,33,0,0,0-6.74-7c-2.2-1.62-5.29-2.88-7.85-1.3-.82.5-.07,1.8.76,1.29Z"/><path class="cls-1" d="M492.41,276.72a4.43,4.43,0,0,0,4.19.39,6.4,6.4,0,0,0,3.29-3c1.6-2.84,1.55-6.55,3.79-9,.64-.71-.41-1.77-1.06-1.06-2.08,2.31-2.37,5.41-3.47,8.18a6.06,6.06,0,0,1-2.53,3.26,3.17,3.17,0,0,1-3.45,0c-.78-.57-1.53.73-.76,1.29Z"/><path class="cls-1" d="M503.52,292.28a14.94,14.94,0,0,1,5.18,10.55c.06,1,1.56,1,1.5,0a16.46,16.46,0,0,0-5.61-11.61c-.74-.62-1.8.43-1.07,1.06Z"/><path class="cls-1" d="M472.9,295.36c-4.16,1.83-6.88,5.78-8.41,9.93-.34.9,1.11,1.29,1.44.39,1.42-3.8,3.92-7.35,7.73-9a.77.77,0,0,0,.27-1,.78.78,0,0,0-1-.27Z"/><path class="cls-1" d="M429.29,296.4a17.92,17.92,0,0,0-14.9,10c-.42.86.87,1.63,1.3.76a16.37,16.37,0,0,1,13.6-9.29c1-.07,1-1.57,0-1.5Z"/><path class="cls-1" d="M392.32,294.91a7.69,7.69,0,0,1,7.37,1.36c2.28,1.7,3.82,4.19,5.31,6.56.51.82,1.81.07,1.29-.75-1.67-2.66-3.42-5.38-6-7.23a9,9,0,0,0-8.35-1.38c-.89.35-.5,1.8.4,1.44Z"/><path class="cls-1" d="M361.52,294.85a13.37,13.37,0,0,0-6.45,10.78c-.05,1,1.45,1,1.5,0a11.87,11.87,0,0,1,5.7-9.49.75.75,0,0,0-.75-1.29Z"/><path class="cls-1" d="M324,294.84a7.88,7.88,0,0,1,1,7.94.79.79,0,0,0,.27,1,.77.77,0,0,0,1-.27,9.37,9.37,0,0,0-1-9.46.75.75,0,1,0-1.3.76Z"/><path class="cls-1" d="M302.83,293.48a8.54,8.54,0,0,0-3.59,8.75c.2.95,1.64.55,1.45-.39a7,7,0,0,1,2.9-7.07c.8-.53.05-1.83-.76-1.29Z"/><path class="cls-1" d="M331.45,260.88a13.24,13.24,0,0,1-5.23-6.55.75.75,0,0,0-1.45.4,14.86,14.86,0,0,0,5.93,7.44c.81.52,1.56-.77.75-1.29Z"/><path class="cls-1" d="M394.94,246.6a11.58,11.58,0,0,0,12-8.79c.21-.94-1.24-1.34-1.45-.4a10.08,10.08,0,0,1-10.57,7.69c-1-.09-.95,1.41,0,1.5Z"/><path class="cls-1" d="M432.54,249.89c-1.84.55-3.46-1.72-4.51-2.89l-4.7-5.18c-.65-.71-1.71.35-1.07,1.06l5.24,5.77c1.37,1.51,3.2,3.36,5.44,2.69a.75.75,0,0,0-.4-1.45Z"/><path class="cls-1" d="M440.56,234.34c2.94,0,4.49-2.93,5.34-5.37a107.89,107.89,0,0,0,3.17-11.59c.21-.94-1.24-1.34-1.45-.4-.77,3.45-1.67,6.86-2.73,10.23-.65,2-1.64,5.6-4.33,5.63a.75.75,0,0,0,0,1.5Z"/><path class="cls-1" d="M452.92,242.26a11,11,0,0,1,12.15,7.26c.29.92,1.74.53,1.45-.39a12.52,12.52,0,0,0-14-8.32c-.95.18-.55,1.63.4,1.45Z"/><path class="cls-1" d="M476.13,229.39c-1.78-2.23-3.74-4.62-6.55-5.56-2.35-.79-5.32-.42-6.92,1.63-.58.75.47,1.82,1.06,1.06,1.36-1.74,3.83-1.92,5.77-1.13,2.36,1,4,3.13,5.58,5.06.6.76,1.66-.31,1.06-1.06Z"/><path class="cls-1" d="M487.51,226.2c.51-1.73,2.65-2.37,4.27-2,2.32.45,4,2.41,5.54,4.07.65.72,1.71-.35,1.06-1.06-1.83-2-3.95-4.24-6.81-4.55-2.28-.25-4.82.88-5.5,3.19a.75.75,0,0,0,1.44.4Z"/><path class="cls-1" d="M483.51,241.13a12.28,12.28,0,0,1,2.26,15.1.75.75,0,0,0,1.3.76,13.8,13.8,0,0,0-2.5-16.92c-.72-.65-1.78.41-1.06,1.06Z"/><path class="cls-1" d="M505,238.73a9.47,9.47,0,0,1,4.26-5.84,55.13,55.13,0,0,1,7.53-4.07c.86-.42.11-1.72-.76-1.29-4.75,2.33-11.38,4.92-12.47,10.81-.18.94,1.27,1.34,1.44.39Z"/><path class="cls-1" d="M509.56,219.78c1.36-1.31,1.85-3.13,2.61-4.79.57-1.24,1.78-3.05,3.38-2.81a.78.78,0,0,0,.92-.53.75.75,0,0,0-.52-.92c-2.09-.3-3.77,1.14-4.76,2.87s-1.26,3.74-2.69,5.12c-.7.67.36,1.73,1.06,1.06Z"/><path class="cls-1" d="M528.27,221.05c2.07,1.75,5.08,1.26,7-.41,2.21-1.88,2.78-5.06,2.86-7.81,0-1-1.47-1-1.5,0-.07,2.26-.45,4.85-2.16,6.51-1.29,1.26-3.67,1.92-5.18.65a.77.77,0,0,0-1.06,0,.76.76,0,0,0,0,1.06Z"/><path class="cls-1" d="M480,216.53a15.49,15.49,0,0,0,6.46-12.8.75.75,0,0,0-1.5,0,14,14,0,0,1-5.71,11.51c-.78.55,0,1.85.75,1.29Z"/><path class="cls-1" d="M465.48,211.33a29.91,29.91,0,0,1-11.38-8.12c-.64-.73-1.69.34-1.06,1.06a31.56,31.56,0,0,0,12,8.51c.89.36,1.28-1.09.39-1.45Z"/><path class="cls-1" d="M530.53,195.71a55.08,55.08,0,0,1,5.06-14.79c.44-.85-.86-1.61-1.3-.75a56.82,56.82,0,0,0-5.21,15.14c-.18.95,1.26,1.35,1.45.4Z"/><path class="cls-1" d="M535.07,198.52a23.05,23.05,0,0,0,12.59-11.77c.4-.88-.9-1.64-1.3-.76a21.54,21.54,0,0,1-11.69,11.08c-.89.35-.5,1.8.4,1.45Z"/><path class="cls-1" d="M554.32,208.93c4.16,2.64,9.18,4.87,14.18,3.36a12.51,12.51,0,0,0,5.23-3.46c1.54-1.55,3-3.28,5.23-3.87a.75.75,0,0,0-.4-1.44c-3.95,1-5.69,5.14-9.22,6.85-4.81,2.33-10.15-.12-14.27-2.74-.82-.52-1.57.78-.75,1.3Z"/><path class="cls-1" d="M577.63,223.08a59.56,59.56,0,0,0,9.43,2.85c3,.62,6.32,1.38,9.36.93,5.05-.74,8-5.56,10.2-9.66.46-.85-.83-1.61-1.29-.76-2.17,4-5,8.85-10.11,9a34.53,34.53,0,0,1-8.68-1.19,61.61,61.61,0,0,1-8.51-2.64c-.9-.36-1.29,1.09-.4,1.44Z"/><path class="cls-1" d="M595.33,242.1c1.61-1.88,5.21.46,7.06,1a20.45,20.45,0,0,0,7.22.63,20.77,20.77,0,0,0,12.93-6c.68-.69-.38-1.75-1.06-1.06a19.36,19.36,0,0,1-14.05,5.67,21,21,0,0,1-7.33-1.61c-1.87-.73-4.33-1.39-5.83.37-.63.73.43,1.8,1.06,1.06Z"/><path class="cls-1" d="M608.76,260.07a15.77,15.77,0,0,1,18.74-5.91c.9.36,1.29-1.09.4-1.45a17.28,17.28,0,0,0-20.43,6.6c-.53.82.77,1.57,1.29.76Z"/><path class="cls-1" d="M613.47,268.27a15.07,15.07,0,0,0,19.85-2.58c.6-.74-.45-1.8-1.07-1.06a13.59,13.59,0,0,1-18,2.35c-.78-.57-1.53.73-.75,1.29Z"/><path class="cls-1" d="M562,230.53a7,7,0,0,0,3.23-5.93c.11-2.93-1.29-5.68-2.6-8.21-.44-.86-1.74-.1-1.3.76,1.14,2.19,2.39,4.55,2.41,7.08a5.6,5.6,0,0,1-2.49,5,.75.75,0,0,0,.75,1.3Z"/><path class="cls-1" d="M575,246.54a31.66,31.66,0,0,1,.36-11.8c.21-.94-1.24-1.34-1.44-.4a33.6,33.6,0,0,0-.37,12.6c.15.95,1.6.55,1.45-.4Z"/><path class="cls-1" d="M580.51,263.72a9.06,9.06,0,0,0,9.21-.7c2.86-1.9,4.64-4.95,5.93-8.06.37-.89-1.08-1.28-1.45-.4a15.57,15.57,0,0,1-5.06,7,7.63,7.63,0,0,1-7.88.82c-.84-.46-1.6.83-.75,1.3Z"/><path class="cls-1" d="M592.16,277a23.8,23.8,0,0,1,16.4,6.77c.69.68,1.75-.38,1.06-1.06a25.34,25.34,0,0,0-17.46-7.21.75.75,0,0,0,0,1.5Z"/><path class="cls-1" d="M581.59,281.9c-5.93,1.68-9.67,8.15-8.55,14.14.18.94,1.62.54,1.45-.4a11,11,0,0,1,7.5-12.29.75.75,0,0,0-.4-1.45Z"/><path class="cls-1" d="M590.62,285.54a13.36,13.36,0,0,1,7.85,6.63c.45.86,1.75.1,1.29-.75a14.81,14.81,0,0,0-8.74-7.33.75.75,0,0,0-.4,1.45Z"/><path class="cls-1" d="M520.36,295.35a20.65,20.65,0,0,1,5.28,6.67.75.75,0,0,0,1.3-.76,21.64,21.64,0,0,0-5.52-7,.76.76,0,0,0-1.06,0,.75.75,0,0,0,0,1.06Z"/><path class="cls-1" d="M226.12,284.67a27.91,27.91,0,0,0-4.44,7,.78.78,0,0,0,.27,1,.75.75,0,0,0,1-.27,26.57,26.57,0,0,1,4.2-6.73.76.76,0,0,0,0-1.06.75.75,0,0,0-1.06,0Z"/><path class="cls-1" d="M215.78,284.23a16.21,16.21,0,0,0-7.72,5,.75.75,0,1,0,1.06,1.06,14.85,14.85,0,0,1,7-4.58.75.75,0,0,0-.39-1.45Z"/><path class="cls-1" d="M328.37,219.63c.79-1.51,1.83-2.87,2.65-4.37a11,11,0,0,0-1.41-12.67c-.65-.73-1.7.34-1.06,1.06a9.65,9.65,0,0,1,2.3,7.43c-.35,3-2.42,5.21-3.78,7.79-.44.85.85,1.61,1.3.76Z"/><path class="cls-1" d="M390.68,222.87a124.22,124.22,0,0,1-.69-16c.11-5.14.17-10.7,2.31-15.47.39-.87-.9-1.63-1.3-.75-2.13,4.75-2.33,10.11-2.49,15.25a123.61,123.61,0,0,0,.67,17c.1.95,1.61,1,1.5,0Z"/><path class="cls-1" d="M423.58,207.14a19.88,19.88,0,0,0-15.18-9.23c-1-.08-1,1.42,0,1.5a18.26,18.26,0,0,1,13.88,8.49c.51.82,1.81.07,1.3-.76Z"/><path class="cls-1" d="M432.57,203.76a13.41,13.41,0,0,1,1.53-13.68c.58-.76-.72-1.51-1.3-.75a14.84,14.84,0,0,0-1.52,15.18c.41.87,1.7.11,1.29-.75Z"/><path class="cls-1" d="M287.66,193.69a10.77,10.77,0,0,0-13.21-5.37c-.89.35-.5,1.8.4,1.45a9.3,9.3,0,0,1,11.52,4.68c.4.87,1.69.11,1.29-.76Z"/><path class="cls-1" d="M287.9,194.85a27.77,27.77,0,0,1-.13-9c.28-1.88.92-4.53,3.12-4.93.95-.17.54-1.61-.4-1.44-2.54.45-3.68,3.19-4.09,5.46a29.77,29.77,0,0,0,.05,10.27c.17.94,1.61.54,1.45-.4Z"/><path class="cls-1" d="M255.37,207.21a18.29,18.29,0,0,1-2.2-9.13.75.75,0,0,0-1.5,0,19.74,19.74,0,0,0,2.41,9.89c.46.84,1.76.09,1.29-.76Z"/><path class="cls-1" d="M227.12,261.25a14,14,0,0,0-5.51-2,5.59,5.59,0,0,0-4.56,1.66c-.64.72.42,1.78,1.06,1.06,2.24-2.5,5.89-.69,8.25.58.85.46,1.61-.83.76-1.29Z"/><path class="cls-1" d="M489.64,299.22A13.27,13.27,0,0,1,493,304.3a.75.75,0,0,0,1.45-.39,14.89,14.89,0,0,0-3.71-5.75.75.75,0,0,0-1.06,1.06Z"/><path class="cls-1" d="M572.17,274a6.42,6.42,0,0,0,8.91-3.62c.29-.92-1.15-1.32-1.44-.4a4.93,4.93,0,0,1-6.72,2.73c-.85-.46-1.6.83-.75,1.29Z"/><path class="cls-1" d="M575.87,215.79a13.16,13.16,0,0,0,14.34-6.46c.46-.85-.84-1.61-1.29-.76a11.65,11.65,0,0,1-12.65,5.78c-.94-.23-1.34,1.22-.4,1.44Z"/><path class="cls-1" d="M618.82,279.8a9.14,9.14,0,0,0,11.78-1.6c.61-.73-.44-1.8-1.06-1.06a7.66,7.66,0,0,1-10,1.37c-.8-.55-1.55.75-.76,1.29Z"/><path class="cls-1" d="M199.16,272.15c-.28,1.25-2.07,1.28-3.09,1.29a20.61,20.61,0,0,1-4.37-.4,11.7,11.7,0,0,1-7.22-4.1c-.57-.76-1.87,0-1.29.76a13.49,13.49,0,0,0,8.8,4.92,19.42,19.42,0,0,0,5.16.27c1.46-.16,3.1-.74,3.45-2.34.21-.94-1.24-1.35-1.44-.4Z"/><path class="cls-1" d="M196,279.83a11.85,11.85,0,0,0-8.74,2.92c-.72.64.34,1.69,1.06,1.06a10.37,10.37,0,0,1,7.68-2.48.76.76,0,0,0,.75-.75.78.78,0,0,0-.75-.75Z"/><path class="cls-1" d="M243,265.46a11.44,11.44,0,0,0,3.53-11.62.75.75,0,0,0-1.45.4,10,10,0,0,1-3.14,10.16c-.74.63.32,1.68,1.06,1.06Z"/><path class="cls-1" d="M408.54,264.8a12.79,12.79,0,0,1,6.75-8.77c.86-.43.1-1.73-.76-1.29a14.17,14.17,0,0,0-7.43,9.66c-.2.94,1.25,1.34,1.44.4Z"/><path class="cls-1" d="M441.83,271c3.56.26,6.17-2.71,7.38-5.75,1.6-4,.73-8.55,2.21-12.62.33-.91-1.12-1.3-1.44-.4-1.35,3.7-.79,7.69-1.82,11.44-.79,2.86-3,6.08-6.33,5.83-1-.07-.95,1.43,0,1.5Z"/><path class="cls-1" d="M504.22,213a16.55,16.55,0,0,1-4-13.82c.16-.95-1.28-1.35-1.45-.4a18.16,18.16,0,0,0,4.43,15.28c.65.72,1.71-.35,1.06-1.06Z"/><path class="cls-1" d="M528.49,208.71c-2.13-.72-2.93-3.23-3.48-5.19a48,48,0,0,1-1.62-8.91c-.08-1-1.59-1-1.5,0a48.13,48.13,0,0,0,1.88,10c.7,2.31,1.88,4.7,4.32,5.52.92.31,1.31-1.14.4-1.44Z"/><path class="cls-1" d="M300.53,230.36a7.4,7.4,0,0,0,8.73-4.26.75.75,0,1,0-1.45-.4,5.87,5.87,0,0,1-6.88,3.21.75.75,0,0,0-.4,1.45Z"/><path class="cls-1" d="M364.54,235.89c-3.08-3.62-2.31-9-1.6-13.28.16-1-1.28-1.35-1.44-.4-.82,4.92-1.51,10.64,2,14.74.63.73,1.68-.33,1.06-1.06Z"/><path class="cls-1" d="M379.73,230.19c2.6-.31,4.91,1.39,6.16,3.57,1.49,2.61,1.61,5.76,1.74,8.68,0,1,1.54,1,1.5,0-.14-3.3-.32-6.89-2.14-9.77-1.54-2.42-4.29-4.33-7.26-4-1,.12-1,1.62,0,1.5Z"/><path class="cls-1" d="M475.56,273c4.3.71,8.71-3.14,8.32-7.56a.78.78,0,0,0-.75-.75.75.75,0,0,0-.75.75c.3,3.36-3,6.68-6.42,6.12a.76.76,0,0,0-.92.52.75.75,0,0,0,.52.92Z"/><path class="cls-1" d="M498.77,250.56a4.6,4.6,0,0,1,6.08,3.34.75.75,0,1,0,1.45-.39,6.1,6.1,0,0,0-8.29-4.25.77.77,0,0,0-.26,1,.76.76,0,0,0,1,.27Z"/><path class="cls-1" d="M565.54,290a15.14,15.14,0,0,0-6.13,7.55.75.75,0,0,0,1.45.4,13.45,13.45,0,0,1,5.43-6.65c.82-.52.07-1.81-.75-1.3Z"/><path class="cls-1" d="M338.17,300a5.67,5.67,0,0,1,2.29,2.16,8.32,8.32,0,0,1,1.09,3.15.75.75,0,0,0,.92.52.76.76,0,0,0,.52-.92,8.17,8.17,0,0,0-4.06-6.2.75.75,0,1,0-.76,1.29Z"/><path class="cls-1" d="M257.62,292.56a41.72,41.72,0,0,0-5.21,3.95.75.75,0,0,0,0,1.06.75.75,0,0,0,1.06,0,39.58,39.58,0,0,1,4.91-3.72.75.75,0,1,0-.76-1.29Z"/><path class="cls-1" d="M596.59,267.71c4.17,1.78,9.6-1,10.31-5.56a.78.78,0,0,0-.53-.92.75.75,0,0,0-.92.52c-.54,3.51-4.74,6.1-8.1,4.67a.78.78,0,0,0-1,.27.76.76,0,0,0,.27,1Z"/><path class="cls-1" d="M598.54,242.59a28.44,28.44,0,0,1,5.13-10.68.75.75,0,0,0-1.3-.76,29.37,29.37,0,0,0-5.27,11c-.23.94,1.22,1.34,1.44.4Z"/><path class="cls-1" d="M300.44,206.4a41.86,41.86,0,0,1-3.7-16.14.75.75,0,0,0-1.5,0,43.85,43.85,0,0,0,3.9,16.9c.4.88,1.69.11,1.3-.76Z"/><path class="cls-1" d="M363.38,207.07c-2.36.14-4.35-1.52-5.63-3.36-1.52-2.19-2.41-4.74-4-6.9-.56-.78-1.86,0-1.29.76,1.69,2.33,2.6,5.14,4.36,7.43,1.56,2,3.87,3.73,6.54,3.57,1-.06,1-1.56,0-1.5Z"/><path class="cls-1" d="M435.13,223.08c-4.83-.91-7.4-5.85-9.37-9.87-.42-.86-1.72-.1-1.29.76,2.14,4.37,5,9.57,10.26,10.55.94.18,1.35-1.26.4-1.44Z"/><path class="cls-1" d="M441.42,214.38a44.31,44.31,0,0,0,.69-13.25c-.1-.95-1.6-1-1.5,0A43,43,0,0,1,440,214c-.19,1,1.25,1.35,1.44.4Z"/><path class="cls-1" d="M380.36,298.56a18.12,18.12,0,0,1,2,7.84.75.75,0,0,0,1.5,0,19.67,19.67,0,0,0-2.21-8.6c-.44-.86-1.74-.1-1.29.76Z"/><path class="cls-1" d="M551.18,229.07a13.47,13.47,0,0,1-3.71-12.5c.21-.94-1.24-1.34-1.45-.4a15,15,0,0,0,4.1,14c.69.67,1.75-.39,1.06-1.07Z"/><path class="cls-1" d="M582.81,249.22A14.27,14.27,0,0,0,592,240c.29-.92-1.15-1.32-1.44-.4a12.74,12.74,0,0,1-8.19,8.19c-.92.29-.53,1.73.4,1.44Z"/><path class="cls-1" d="M442.83,299a8.81,8.81,0,0,1,4.87,7,.77.77,0,0,0,.75.75.75.75,0,0,0,.75-.75,10.34,10.34,0,0,0-5.61-8.33.78.78,0,0,0-1,.27.77.77,0,0,0,.27,1Z"/><path class="cls-1" d="M558.06,205.36a6.91,6.91,0,0,0,9.26-6.85c0-1-1.54-1-1.5,0a5.41,5.41,0,0,1-7.36,5.41.75.75,0,1,0-.4,1.44Z"/><path class="cls-1" d="M400.4,282.18a14.13,14.13,0,0,1,10.34,9.05c.32.91,1.77.52,1.45-.39a15.66,15.66,0,0,0-11.39-10.11c-.95-.2-1.35,1.25-.4,1.45Z"/><path class="cls-1" d="M403.28,188.31a11.91,11.91,0,0,0-8.79-11.16.75.75,0,0,0-.39,1.45,10.4,10.4,0,0,1,7.68,9.71.75.75,0,0,0,1.5,0Z"/><path class="cls-1" d="M415.9,181.14a10.27,10.27,0,0,1,5.62-8.86c.86-.43.1-1.73-.76-1.29a11.77,11.77,0,0,0-6.36,10.15.75.75,0,0,0,1.5,0Z"/><path class="cls-1" d="M412.13,158.07A7.63,7.63,0,0,0,405,153.3a7.1,7.1,0,0,0-6.66,5.31,7.27,7.27,0,0,0,.36,5.07c.4.87,1.69.11,1.29-.76a5.77,5.77,0,1,1,10.65-4.45c.34.89,1.8.51,1.45-.4Z"/><path class="cls-1" d="M421.34,153.15c-1.22-2,.92-4,2.68-4.67,2.5-.9,5.42.14,8,.16a9.37,9.37,0,0,0,9.24-7.06.75.75,0,0,0-1.44-.39,8,8,0,0,1-4.37,5.29c-2.62,1.2-5.46.42-8.2.23a7.58,7.58,0,0,0-6.26,2c-1.38,1.41-2,3.44-.93,5.2.51.82,1.81.07,1.29-.76Z"/><path class="cls-1" d="M436.23,128.78c-.8-2.27,1.11-4.22,2.86-5.35s3.74-2,5.11-3.69a9.45,9.45,0,0,0,1-10.34c-.45-.85-1.75-.1-1.29.76a7.92,7.92,0,0,1-2.9,10.33c-1.69,1.1-3.62,1.94-5,3.5a5.34,5.34,0,0,0-1.31,5.19c.32.9,1.77.51,1.45-.4Z"/><path class="cls-1" d="M457.08,121.58c1.38-4.73,6.45-6.81,9.57-10.2,2.61-2.84,4.1-7.45,1.23-10.66-.65-.72-1.7.34-1.06,1.06,3.09,3.46-.38,8-3.12,10.31-3.12,2.64-6.86,4.93-8.07,9.1a.75.75,0,0,0,1.45.39Z"/><path class="cls-1" d="M487.76,98.36a44,44,0,0,0,10.13,4,7.66,7.66,0,0,0,3.94.25,2.3,2.3,0,0,0,1.94-2.33c-.1-.95-1.6-1-1.5,0s-1.1,1-1.76,1a13.29,13.29,0,0,1-3.77-.8,41.49,41.49,0,0,1-8.22-3.39c-.85-.46-1.61.84-.76,1.3Z"/><path class="cls-1" d="M487.15,117.18a8.1,8.1,0,0,1,7-1.53c2.29.6,4.41,2.08,6.87,1.55a9,9,0,0,0,4.15-2.76c1.23-1.22,2.54-2.76,4.42-2.75a.75.75,0,0,0,0-1.5,6.55,6.55,0,0,0-4.51,2.22c-1.3,1.24-2.6,3-4.45,3.34a7.37,7.37,0,0,1-4-.82,12.72,12.72,0,0,0-3.63-1,9.5,9.5,0,0,0-6.6,2c-.75.58,0,1.88.76,1.29Z"/><path class="cls-1" d="M450.31,98.43a24.56,24.56,0,0,1-5.48-17.67c.09-1-1.41-1-1.5,0a26,26,0,0,0,5.92,18.73c.61.74,1.67-.32,1.06-1.06Z"/><path class="cls-1" d="M472.64,86.72c5.17-1,10.91-3.33,13.46-8.28,2.14-4.16,1.71-9.73-2.18-12.7-.77-.59-1.51.71-.76,1.29,3.43,2.62,3.37,7.92,1.26,11.33-2.57,4.17-7.59,6-12.18,6.91-.95.18-.55,1.62.4,1.45Z"/><path class="cls-1" d="M494.64,85.67a18,18,0,0,1,5.44-9.39,12.26,12.26,0,0,1,10.64-2.82c.94.22,1.34-1.22.4-1.45a13.76,13.76,0,0,0-11.68,2.87,19.06,19.06,0,0,0-6.25,10.39.75.75,0,0,0,1.45.4Z"/><path class="cls-1" d="M504.64,91.4A14.12,14.12,0,0,0,514.76,81c.2-.94-1.24-1.34-1.45-.4A12.59,12.59,0,0,1,504.24,90a.75.75,0,0,0,.4,1.45Z"/><path class="cls-1" d="M551.52,143.53a7.2,7.2,0,0,1,6-2.7c2.62.15,4.72,2,7,3.14a26.09,26.09,0,0,0,14.11,2.62c1-.09,1-1.59,0-1.5a25.92,25.92,0,0,1-16-3.91,10.2,10.2,0,0,0-6.47-1.8,8.58,8.58,0,0,0-5.7,3.09c-.6.74.45,1.81,1.06,1.06Z"/><path class="cls-1" d="M524.8,153.77a9.91,9.91,0,0,1,1.27-5.32c.92-1.61,2.38-2.58,3.54-4,2.49-3,.93-6.81-.66-9.82-.45-.85-1.74-.09-1.29.76a12.26,12.26,0,0,1,1.79,5.26c0,2-1.21,3.1-2.54,4.34a11.4,11.4,0,0,0-3.61,8.75c0,1,1.53,1,1.5,0Z"/><path class="cls-1" d="M514.11,123c-.27,1.54-2.1,2.21-3.2,3.09a3.58,3.58,0,0,0-1.15,4.58,18.05,18.05,0,0,0,2.28,3.22l2.56,3.34,5.26,6.82c.58.75,1.88,0,1.29-.76l-4.88-6.34c-1.56-2-3.25-4-4.68-6.12-.59-.87-1.11-2-.4-2.92a6.65,6.65,0,0,1,1.74-1.42c1.15-.77,2.37-1.63,2.63-3.1.16-.94-1.29-1.35-1.45-.39Z"/><path class="cls-1" d="M539.35,144.63a4.66,4.66,0,0,0-.42,4.49,10.59,10.59,0,0,0,3.11,4.06c1.23,1.11,2.71,2.27,3.22,3.91.41,1.32.31,3-1,3.7-.86.45-.1,1.74.75,1.3,3-1.57,2.15-5.63.38-7.77-1.23-1.48-2.9-2.54-4.09-4s-1.76-3.37-.61-4.89c.58-.77-.72-1.51-1.3-.75Z"/><path class="cls-1" d="M480.44,132.77c-2.21-2.15-2.7-5.26-2.76-8.22-.07-3.49.24-7,.4-10.48,0-1-1.46-1-1.5,0-.18,3.76-.56,7.58-.37,11.35.16,3.08.89,6.19,3.17,8.41.69.67,1.76-.39,1.06-1.06Z"/><path class="cls-1" d="M454.6,142.76c-.32-3.44,3.42-5.33,5.51-7.41s4-5.57,1.78-8.26c-.61-.75-1.67.31-1.07,1.06,1,1.21.54,2.82-.16,4a12.22,12.22,0,0,1-3.11,3.38c-2.18,1.8-4.74,4.06-4.45,7.18.08,1,1.58,1,1.5,0Z"/><path class="cls-1" d="M418.17,130.25c-1.55-3.2-4.91-4.78-8-6.22s-6.63-3.36-7.14-7c-.14-1-1.58-.55-1.45.4.51,3.61,3.8,5.92,6.84,7.43s6.82,2.83,8.43,6.16c.42.87,1.71.11,1.29-.76Z"/><path class="cls-1" d="M426.57,118.92c1.41-1.38,1.08-3.41.35-5.06-.56-1.24-1.4-2.54-1-4a11.82,11.82,0,0,1,2.05-3.08c2.43-3.4,4-8.29,1.46-12-.54-.8-1.84,0-1.29.75,2.56,3.77.23,8.37-2.21,11.52-1.13,1.46-1.95,3-1.47,4.87.44,1.68,2.67,4.34,1,5.94-.69.68.37,1.74,1.06,1.06Z"/><path class="cls-1" d="M385.38,109a10.28,10.28,0,0,1-1-6.54,19,19,0,0,1,2.26-5.4c1.48-2.79,2.77-5.79,1.78-9a5.64,5.64,0,0,0-2-3c-.93-.67-2.53-1.23-3.5-.32a1.18,1.18,0,0,0,.46,2.09c.92.2,1.89-.58,1.33-1.52a.75.75,0,0,0-1.3.76c-.08-.12,1.17-.25,1.33-.21a2.55,2.55,0,0,1,.58.27,3.36,3.36,0,0,1,1,.94,5.61,5.61,0,0,1,.93,2.74c.2,2.34-.84,4.41-1.91,6.42a19.46,19.46,0,0,0-2.5,6.36,12,12,0,0,0,1.23,7.1c.44.86,1.73.1,1.3-.76Z"/><path class="cls-1" d="M418.59,95.42c-3.18-2.36-4-6.64-4.07-10.36-.13-4.39.42-8.88-1.25-13.06-.36-.89-1.81-.5-1.45.4,3.08,7.68-1.74,18.57,6,24.31.77.58,1.52-.72.75-1.29Z"/><path class="cls-1" d="M433.06,88.52c4.37-2.4,9.34-5.16,11.47-9.93,1.69-3.8,1.48-8.9-2-11.64-.75-.58-1.82.47-1.06,1.06,3.19,2.5,3.21,7.21,1.42,10.55-2.2,4.12-6.64,6.5-10.58,8.66-.84.47-.09,1.76.76,1.3Z"/><path class="cls-1" d="M470.38,83.09c-2.05-1.19-4.43-2.52-5.21-4.92-.9-2.74,1.42-4.25,2.48-6.48a11,11,0,0,0-1.34-11.43c-.6-.75-1.65.31-1.06,1.06a9.37,9.37,0,0,1,1.9,6.64,8.74,8.74,0,0,1-.95,3.27c-.55,1.07-1.4,1.92-2,3a5.61,5.61,0,0,0,.18,5.83c1.2,2,3.29,3.24,5.25,4.37a.75.75,0,0,0,.76-1.29Z"/><path class="cls-1" d="M395.47,92.83a8.85,8.85,0,0,0,3.48-8c-.25-3.76-2.36-7.06-4.36-10.13-.52-.81-1.82-.06-1.29.75,1.76,2.71,3.71,5.61,4.11,8.9.32,2.62-.43,5.6-2.7,7.16-.79.55,0,1.85.76,1.3Z"/><path class="cls-1" d="M424.58,91.46a7.19,7.19,0,0,1-1.1-8.72A6.38,6.38,0,0,1,425,81c.79-.62,1.75-1,2.58-1.53,1.42-1,2.56-2.87,1.46-4.5-.54-.8-1.84,0-1.3.75,1.31,1.93-2.5,3.23-3.57,4a8,8,0,0,0-2.69,3.87,8.55,8.55,0,0,0,2.07,8.89c.71.65,1.77-.4,1.06-1.06Z"/><path class="cls-1" d="M370.21,84.45c-2.61-.17-3.94-3-4-5.35-.08-3.15,1.85-6,3.05-8.82,1.7-3.93,2.24-9.64-2-12.19a.75.75,0,0,0-.75,1.3c2.36,1.42,2.82,4.38,2.43,6.91-.45,3-2.26,5.66-3.34,8.49a9.75,9.75,0,0,0-.18,7.46,5.67,5.67,0,0,0,4.81,3.7c1,.07,1-1.43,0-1.5Z"/><path class="cls-1" d="M298.44,98.14a6,6,0,0,0,5.46-3.53,10.05,10.05,0,0,0,.43-7.85c-1-3.17-2.93-6-3.7-9.24-.65-2.76-.48-6.28,2.06-8,.79-.54,0-1.84-.76-1.29-4.72,3.28-3.13,9.62-1.14,14,1.29,2.86,3.09,6,2.59,9.3-.39,2.52-2.11,5.27-4.94,5.17a.75.75,0,0,0,0,1.5Z"/><path class="cls-1" d="M324.89,86.62c2.65-1.62,2.22-5.24.71-7.49-1.62-2.41-6.09-5.68-4-9,.51-.82-.79-1.57-1.3-.75-1.85,2.94.29,6.15,2.24,8.37a10.29,10.29,0,0,1,2.64,4c.32,1.27.17,2.86-1,3.6-.82.51-.07,1.81.75,1.3Z"/><path class="cls-1" d="M338.93,86c5.61.43,8.71-5.34,8.12-10.27-.35-2.86-1.7-5.3-3-7.83-1.36-2.72-2.51-6.08-.59-8.83.55-.79-.75-1.54-1.3-.75-3.13,4.48.38,9.45,2.23,13.62,1.18,2.65,1.74,5.8.61,8.56a6.23,6.23,0,0,1-6.1,4c-1-.07-1,1.43,0,1.5Z"/><path class="cls-1" d="M337.34,113.4c-2-.94-3.2-2.79-4.61-4.41a8.59,8.59,0,0,0-5.26-3.19c-3.84-.57-10.7,2.44-13.14-2-.47-.84-1.76-.09-1.3.76,2.47,4.48,8.23,2.79,12.27,2.63a7.28,7.28,0,0,1,4.06.8,10,10,0,0,1,2.52,2.3c1.4,1.65,2.69,3.44,4.7,4.4.87.41,1.63-.88.76-1.3Z"/><path class="cls-1" d="M342.41,100.62c.56-1.82,2.54-2.54,4.3-2.45,2.23.11,4,1.7,5.18,3.46,2.62,3.84,3.48,8.72,7.33,11.66.77.58,1.52-.72.76-1.3-4.36-3.33-4.62-9.69-8.68-13.33a7.26,7.26,0,0,0-5.88-1.93,5.24,5.24,0,0,0-4.46,3.49c-.28.93,1.16,1.32,1.45.4Z"/><path class="cls-1" d="M324.1,120.78a2.86,2.86,0,0,0-3.77,1.51c-.9,1.73-.08,3.64-.38,5.45a5.66,5.66,0,0,1-6.3,4.52c-.94-.17-1.34,1.27-.39,1.45a7.2,7.2,0,0,0,7.44-3.63,8,8,0,0,0,.72-4.7,4,4,0,0,1,.37-2.61c.32-.47,1-1,1.55-.7.86.45,1.62-.85.76-1.29Z"/><path class="cls-1" d="M293.24,152.8a8.59,8.59,0,0,1-3.51-8c.39-3.07,2-6.13.46-9.13-.44-.86-1.73-.11-1.29.75.81,1.61.41,3.41,0,5.07a16.6,16.6,0,0,0-.73,4.89,10.16,10.16,0,0,0,4.3,7.71c.79.56,1.54-.74.76-1.3Z"/><path class="cls-1" d="M277.64,174.61A11.69,11.69,0,0,0,270,163c-.91-.32-1.3,1.13-.39,1.45a10.17,10.17,0,0,1,6.54,10.21c-.07,1,1.43,1,1.5,0Z"/><path class="cls-1" d="M285,167a3.88,3.88,0,0,1,.67-1.53,4.56,4.56,0,0,1,.49-.57,4.35,4.35,0,0,1,.61-.52,4.41,4.41,0,0,1,1.49-.7c.14,0,.28-.07.42-.09l.11,0h0l.19,0a3.68,3.68,0,0,1,.47,0h.35a.77.77,0,0,0,.92-.52.76.76,0,0,0-.52-.93,5.88,5.88,0,0,0-4.19,1,5.81,5.81,0,0,0-2.45,3.52A.75.75,0,1,0,285,167Z"/><path class="cls-1" d="M281.28,151c-1.63-2.25-4.25-3-6.94-3.11-3.28-.09-6.6.68-9.83,1.19-.95.15-.54,1.6.4,1.45a60.18,60.18,0,0,1,8.76-1.14c2.3,0,4.87.38,6.31,2.37.56.78,1.86,0,1.3-.76Z"/><path class="cls-1" d="M261.19,154.43a18.6,18.6,0,0,1-18.13-5.15c-.66-.71-1.72.36-1.06,1.06a20.14,20.14,0,0,0,19.59,5.54.75.75,0,0,0-.4-1.45Z"/><path class="cls-1" d="M261.62,145.74a12.92,12.92,0,0,0-13.55-7.49c-1,.14-.55,1.59.39,1.45a11.42,11.42,0,0,1,11.86,6.8c.38.88,1.67.12,1.3-.76Z"/><path class="cls-1" d="M297.11,125.84c-1.51-1.24-2.38-3-3.49-4.54a9.16,9.16,0,0,0-4-3.4,36.65,36.65,0,0,0-4.93-1.34,7.25,7.25,0,0,1-4.33-2.31c-.57-.76-1.87,0-1.29.76,2.19,2.92,5.93,2.94,9.13,4a8,8,0,0,1,4.31,3.29,20.54,20.54,0,0,0,3.58,4.64c.74.61,1.81-.45,1.06-1.06Z"/><path class="cls-1" d="M305.06,121.88c.07-1.56,1.37-2.72,2.28-3.87a6.2,6.2,0,0,0,1.55-4.46c-.35-3.85-3.72-6.08-6.76-7.87a.75.75,0,0,0-.76,1.29c2.71,1.6,6.43,3.86,6,7.54-.16,1.48-1.25,2.58-2.14,3.68a6.28,6.28,0,0,0-1.7,3.69c0,1,1.46,1,1.5,0Z"/><path class="cls-1" d="M344.43,132.72c3-1.32,4.09-4.82,3.72-7.85a20.26,20.26,0,0,0-1.76-5.58c-.89-2.05-1.81-4.09-2.72-6.13-.4-.88-1.69-.11-1.3.76q1.13,2.51,2.23,5a27.23,27.23,0,0,1,1.89,5.08c.61,2.76,0,6.15-2.82,7.42-.88.39-.12,1.68.76,1.29Z"/><path class="cls-1" d="M362,130.26c-.92-.88-.07-2.28.72-2.93,1.28-1.06,3.32-.93,4.88-1.18a5.46,5.46,0,0,0,3.95-2.33,3.1,3.1,0,0,0-.12-3.86c-.65-.72-1.71.34-1.06,1.06.86.94-.16,2.36-1,2.94-1.39,1-3.43.82-5,1.13a5.15,5.15,0,0,0-3.74,2.45,3.05,3.05,0,0,0,.32,3.78c.7.67,1.76-.39,1.06-1.06Z"/><path class="cls-1" d="M370.51,103.51c-1.91-2-.72-5.26.41-7.37,1.43-2.67,3.17-5.5,2.4-8.64a.75.75,0,0,0-1.45.39c.82,3.35-1.86,6.28-3,9.19-1,2.44-1.33,5.42.62,7.49.67.7,1.73-.36,1.06-1.06Z"/><path class="cls-1" d="M387.07,129c-3.55,1-3.95,5.36-3,8.33.7,2.14,2,4.17,2.18,6.44A7.77,7.77,0,0,1,384,150c-.69.68.37,1.74,1.06,1.06,3-3,3.31-7,1.82-10.83-.72-1.82-1.74-3.68-1.75-5.68,0-1.67.61-3.6,2.38-4.1a.75.75,0,0,0-.4-1.44Z"/><path class="cls-1" d="M373,138.46c-2.83.23-3.64,3.31-3.42,5.72s2.52,6.28.21,8.37c-.72.65.35,1.71,1.06,1.06,2.28-2.06,1.27-5.45.53-8-.45-1.57-.82-5.46,1.62-5.66,1-.08,1-1.58,0-1.5Z"/><path class="cls-1" d="M379.91,167.35a2.31,2.31,0,0,1,3.16.21,12.19,12.19,0,0,1,2.37,3.83l4.77,9.57c.43.87,1.72.11,1.29-.76-1.85-3.71-3.64-7.46-5.55-11.14a6.76,6.76,0,0,0-3.21-3.45,3.53,3.53,0,0,0-3.89.68c-.66.71.4,1.77,1.06,1.06Z"/><path class="cls-1" d="M402.52,142.4a5.79,5.79,0,0,1,1.12-4.8c1-1.29,2.93-1.71,3.69-3.22a3.26,3.26,0,0,0-.66-3.43c-.71-.93-1.91-1.94-1.77-3.22.11-1-1.39-1-1.5,0-.15,1.37.75,2.48,1.56,3.48s1.76,2.17.39,3.18a25.14,25.14,0,0,0-2.1,1.44,7,7,0,0,0-1.54,2,7.41,7.41,0,0,0-.64,5c.21.94,1.65.54,1.45-.4Z"/><path class="cls-1" d="M440.18,158.41c-1.83,1-4.16.47-5.92,1.69-1.94,1.33-1.71,3.81-.69,5.66,1.12,2,3.67,3.66,3.36,6.25s-2.79,4.34-4.68,5.67c-.78.55,0,1.86.76,1.3,1.89-1.34,3.89-2.9,4.89-5a5.75,5.75,0,0,0-.89-6.09c-1.12-1.48-4.3-4.6-2-6.42a5.78,5.78,0,0,1,2.86-.84,9,9,0,0,0,3.09-.88c.85-.46.09-1.76-.76-1.29Z"/><path class="cls-1" d="M528.77,168.73a6.33,6.33,0,0,1,1.16-3.48c1.11-1.28,2.52,0,3.84.14a3.83,3.83,0,0,0,3.56-2.42c.78-1.76.36-3.73-.06-5.52-.22-.94-1.66-.54-1.44.4.38,1.63.9,3.68-.24,5.13a2.13,2.13,0,0,1-1.74.92c-.81-.07-1.52-.6-2.34-.71-3-.41-4,3.23-4.24,5.54-.09,1,1.41,1,1.5,0Z"/><path class="cls-1" d="M543.2,171.77a9.62,9.62,0,0,1,10.19,2.51c1.4,1.51,1.83,3.65,3.29,5.09a3.43,3.43,0,0,0,4.67.41c.72-.65-.35-1.71-1.06-1.06s-1.91.2-2.55-.41a10.53,10.53,0,0,1-1.68-2.79,10.55,10.55,0,0,0-3.39-3.82,11,11,0,0,0-9.86-1.38c-.91.32-.52,1.77.39,1.45Z"/><path class="cls-1" d="M560.24,161.71c1.3-.82,2.86-.42,4.27-.16a8.28,8.28,0,0,0,4.47,0,5.8,5.8,0,0,0,3.61-6.61c-.21-.94-1.66-.54-1.44.4a4.23,4.23,0,0,1-3.66,5c-2.69.18-5.47-1.54-8,0-.82.51-.07,1.81.75,1.3Z"/><path class="cls-1" d="M538.45,100.87c5.14-1.08,8-7.66,5.35-12.16a.75.75,0,0,0-1.29.75c2.17,3.72-.27,9.09-4.46,10-.94.2-.54,1.64.4,1.44Z"/><path class="cls-1" d="M553.75,94.47a7.45,7.45,0,0,1,2.77-9.39c1.92-1.13,4.3-1.25,6.15-2.54a4.72,4.72,0,0,0,2.27-4.88c-.23-.93-1.67-.54-1.45.4.59,2.48-2.4,3.76-4.24,4.36s-3.9,1.29-5.34,2.88a9,9,0,0,0-1.46,9.92c.43.87,1.72.11,1.3-.75Z"/><path class="cls-1" d="M552,69.66a14.55,14.55,0,0,1-2.75-4.36,5.08,5.08,0,0,1-.32-2.28,7.85,7.85,0,0,1,1-2.43c1.51-3.09-.71-6-2.79-8.16-.67-.7-1.73.36-1.06,1.06a9.78,9.78,0,0,1,2.78,4.2c.43,1.79-1,3-1.34,4.61-.7,3.18,1.49,6.12,3.4,8.42.62.74,1.67-.33,1.06-1.06Z"/><path class="cls-1" d="M536.88,76.56a10.74,10.74,0,0,1-4-14.67c.51-.83-.79-1.58-1.3-.76a12.27,12.27,0,0,0,4.59,16.73c.85.44,1.61-.85.75-1.3Z"/><path class="cls-1" d="M566.3,67.4a30.55,30.55,0,0,1,2.21-7.05c1.1-2.16,2.87-3.76,4.36-5.64,2.14-2.7,3.48-7.15.17-9.57-.77-.57-1.52.73-.75,1.29,1.44,1.06,1.46,3.08,1,4.64-.61,2-2.24,3.49-3.57,5-2.79,3.18-3.92,6.87-4.85,10.92-.21.94,1.24,1.34,1.45.4Z"/><path class="cls-1" d="M585.63,65.38c1.55-2.77,1.83-6.15,3.64-8.77,1.08-1.55,2.61-2,4.27-2.66s3.09-2.11,2.72-4c-.18-1-1.63-.55-1.45.39.39,2-2.81,2.54-4,3.1a7,7,0,0,0-3.09,2.9c-1.53,2.59-1.88,5.68-3.35,8.3-.47.84.83,1.6,1.3.76Z"/><path class="cls-1" d="M583.46,78.07c2.13-1,4.53.21,6.32,1.36s3.51,2.46,5.6,2.91a5.23,5.23,0,0,0,4.82-1.27,3.66,3.66,0,0,0,1-4.43c-.44-.86-1.74-.1-1.29.75.77,1.5-.8,3-2.13,3.44-1.77.59-3.67-.45-5.15-1.36-3-1.82-6.28-4.38-9.89-2.69-.88.41-.12,1.7.75,1.29Z"/><path class="cls-1" d="M579.57,102.77a6.94,6.94,0,0,1,4.67-3.68,7.12,7.12,0,0,1,6.06,1.39c1.81,1.3,4.24,3,6.54,1.75,1.58-.86,2.22-3.22.81-4.52-.7-.65-1.77.41-1.06,1.06a1.39,1.39,0,0,1-.51,2.16c-1.08.55-2.42,0-3.36-.59-1.86-1.12-3.34-2.55-5.58-2.87a8.65,8.65,0,0,0-8.87,4.55c-.42.86.87,1.62,1.3.75Z"/><path class="cls-1" d="M571.7,113.6a4,4,0,0,1,4-2.9,6.6,6.6,0,0,1,4.93,2.81c1.09,1.35,1.77,3.87,4,3.46s2.66-2.9,2.63-4.85a.75.75,0,0,0-1.5,0c0,1,.11,2.43-.81,3.11s-1.54-.3-2-1.1a10.76,10.76,0,0,0-4.11-4.14,6.38,6.38,0,0,0-5.23-.38,5.07,5.07,0,0,0-3.27,3.59c-.19.94,1.25,1.34,1.45.4Z"/><path class="cls-1" d="M565.91,119.9a15.46,15.46,0,0,1,2.16,12.79.75.75,0,0,0,1.45.4,16.92,16.92,0,0,0-2.31-14c-.55-.79-1.85,0-1.3.76Z"/><path class="cls-1" d="M568.38,95.85c.11-3,3.84-4.33,5.84-5.95s4.09-5.06,1.91-7.49c-.65-.72-1.71.34-1.06,1.06.89,1,.5,2.33-.13,3.36a9.12,9.12,0,0,1-3.11,2.91c-2.25,1.44-4.85,3.16-5,6.11,0,1,1.47,1,1.5,0Z"/><path class="cls-1" d="M571,80.14a14.27,14.27,0,0,1,.67-6.25l-.93.53c3.27.46,6-3.28,4.48-6.26-.45-.85-1.74-.1-1.29.76.9,1.72-.81,4.33-2.79,4a.77.77,0,0,0-.92.52,15.17,15.17,0,0,0-.72,6.65c.11,1,1.61,1,1.5,0Z"/><path class="cls-1" d="M553.31,106.64c1.52-2.88,5.57-2.19,8.25-2.44,2.83-.26,6.12-1.4,6.54-4.6.13-1-1.38-.95-1.5,0-.39,3-4.7,3.12-6.93,3.17-2.77,0-6.2.36-7.66,3.11-.45.85.85,1.61,1.3.76Z"/><path class="cls-1" d="M544.84,118.18c.06-1.43,1.45-2.28,2.71-2.6,1.72-.42,3.57.11,5.29.3,2.63.29,6.26-.47,6.83-3.56.17-.95-1.27-1.35-1.45-.4a3.36,3.36,0,0,1-2.89,2.44c-1.81.38-3.7-.21-5.5-.37-2.75-.24-6.36.93-6.49,4.19-.05,1,1.45,1,1.5,0Z"/><path class="cls-1" d="M286.33,104.13a26.54,26.54,0,0,0-8.47-5c-2.3-.84-5.53-1.65-6.44-4.23-.32-.91-1.77-.52-1.45.4,1,2.77,3.75,3.92,6.32,4.85a27.19,27.19,0,0,1,9,5.06c.73.64,1.79-.42,1.07-1.06Z"/><path class="cls-1" d="M267.66,107.55c-.59-2.87-3.6-4.17-6.2-4.68s-6.35-.35-8-2.93c-.52-.81-1.82,0-1.3.76,1.66,2.57,4.79,3,7.59,3.42,2.41.32,5.89,1,6.47,3.83.2,1,1.64.55,1.45-.4Z"/><path class="cls-1" d="M261.72,90.29a19.22,19.22,0,0,1-4.25-14.72c.12-.95-1.38-.94-1.5,0a20.67,20.67,0,0,0,4.69,15.78c.62.74,1.67-.32,1.06-1.06Z"/><path class="cls-1" d="M271.87,86c-2.43-2.1-2.14-5.69-1.59-8.55.64-3.32,1.47-6.83-.16-10-.44-.86-1.74-.1-1.3.76,1.72,3.34.15,7.19-.27,10.66-.36,2.89-.08,6.16,2.26,8.19.72.63,1.79-.42,1.06-1.06Z"/><path class="cls-1" d="M247.39,88.08a45.93,45.93,0,0,1-14.53-8c-.75-.61-1.81.45-1.06,1.06A47.8,47.8,0,0,0,247,89.52c.92.31,1.31-1.14.4-1.44Z"/><path class="cls-1" d="M246.61,77.57c-2.3-.75-2.7-3.76-2.58-5.83.17-2.91,1-5.93-.6-8.62a.75.75,0,0,0-1.3.76c1.64,2.81.21,6.17.41,9.2.15,2.47,1.13,5.11,3.67,5.94.92.29,1.32-1.15.4-1.45Z"/><path class="cls-1" d="M241.63,65.12a12,12,0,0,0-4.32-15.05c-.82-.51-1.58.78-.76,1.29a10.46,10.46,0,0,1,3.79,13c-.42.86.87,1.63,1.29.76Z"/><path class="cls-1" d="M256.28,69.3c.61-1.74,2.4-2.7,3.78-3.77a6.66,6.66,0,0,0,2.92-4.4c.64-5-4.19-8.05-5.76-12.31-.33-.9-1.78-.51-1.45.4a23.94,23.94,0,0,0,3.49,5.63c1.3,1.79,2.66,4.07,2.19,6.38-.38,1.86-2,2.92-3.45,4a8.19,8.19,0,0,0-3.17,3.7c-.32.91,1.13,1.3,1.45.4Z"/><path class="cls-1" d="M276.77,75.57A10.83,10.83,0,0,1,275.24,70c.21-2.42,2.37-2.85,4.18-3.8a6.45,6.45,0,0,0,2.37-8.93c-.51-.82-1.81-.07-1.29.75a5,5,0,0,1,0,5.1c-1.1,1.91-3.21,2-4.86,3.24-3.32,2.42-1.71,7-.21,10,.44.86,1.73.1,1.3-.76Z"/><path class="cls-1" d="M284.12,82c-1.11-3.16,2.35-5.67,4-7.85s2.9-5.15,1-7.55c-.6-.76-1.65.31-1.06,1.06,1.84,2.36-1.05,5.53-2.55,7.18-1.84,2-3.9,4.68-2.89,7.56.32.9,1.77.51,1.45-.4Z"/><path class="cls-1" d="M231.35,79.67a12.82,12.82,0,0,1-12-6C218.29,72,217,70,214.79,70c-1.62,0-3.5,1.12-3.26,3,.12.94,1.62.95,1.5,0s.64-1.34,1.43-1.44a2.65,2.65,0,0,1,2.28,1.08c1.4,1.54,2.22,3.44,3.77,4.88a14.23,14.23,0,0,0,10.84,3.72c1-.09,1-1.59,0-1.5Z"/><path class="cls-1" d="M232.66,90.06a5.57,5.57,0,0,1-2.54.79l-3.13.56c-1.81.32-3.61.68-5.43,1-2.84.41-6.3.58-8.32-1.83-.62-.74-1.68.32-1.06,1.06,2.2,2.63,5.86,2.72,9,2.32,2-.25,4-.67,6-1l3.53-.63a6,6,0,0,0,2.7-.9c.75-.58,0-1.89-.76-1.3Z"/><path class="cls-1" d="M241.57,105.33c-.36,1.24-1.87,1.62-2.93,2.06a5.52,5.52,0,0,0-3.23,2.58c-.82,1.78-.84,4-1.12,5.93l-1,6.94.73-.55a8.08,8.08,0,0,1-4.58-1.75c-.74-.6-1.81.46-1.06,1.06a9.8,9.8,0,0,0,5.64,2.19.76.76,0,0,0,.72-.56l1-6.76c.16-1.13.33-2.26.49-3.39a6.8,6.8,0,0,1,.76-2.81c.74-1.14,2.29-1.49,3.47-2a4.12,4.12,0,0,0,2.59-2.53.75.75,0,0,0-1.45-.4Z"/><path class="cls-1" d="M250.91,120.22a6.27,6.27,0,0,0-6.6,5.89,8.66,8.66,0,0,1-.36,3.09A4,4,0,0,1,242.1,131c-2,1.06-4.4.66-6.52.32-1-.15-1.35,1.29-.4,1.44,2.11.34,4.35.71,6.44.05a5.8,5.8,0,0,0,3.78-3.25c.74-1.86,0-3.94,1.12-5.69a4.82,4.82,0,0,1,4.39-2.18c1,.07,1-1.43,0-1.5Z"/><path class="cls-1" d="M274.26,120c-2.38-2.92-6.42-2.87-9.73-3.92-4.1-1.3-7-4.74-9.68-7.91-.62-.74-1.68.32-1.06,1.06,2.62,3.09,5.4,6.3,9.24,7.89,3.27,1.36,7.75,1,10.17,3.94.6.75,1.66-.32,1.06-1.06Z"/><path class="cls-1" d="M281.68,92.79c-1.07-1.86.63-4,1.81-5.32,1.35-1.54,2.78-3.23,2.74-5.4a.75.75,0,0,0-1.5,0c0,2.24-2,3.79-3.2,5.41s-2.32,4-1.15,6.06a.75.75,0,0,0,1.3-.75Z"/><path class="cls-1" d="M495.57,121.78a7.73,7.73,0,0,0,.31,7c1.18,2.29,3.2,4,5.14,5.64.74.62,1.8-.44,1.06-1.06a20.37,20.37,0,0,1-4.62-4.83,6.32,6.32,0,0,1-.59-6c.43-.86-.86-1.62-1.3-.76Z"/><path class="cls-1" d="M526.52,126.84c-2.67-1.55-.88-5.57.07-7.63,1.22-2.62,2.44-6.23,0-8.55-.69-.67-1.75.39-1.06,1.06,2.51,2.41-.3,6.39-1.21,8.9s-1.24,6,1.43,7.52a.75.75,0,0,0,.75-1.3Z"/></g><g id="Water_2" data-name="Water 2"><path class="cls-1" d="M409.37,308.42v-2c77.6,0,150.54-6.4,205.4-18,53.61-11.36,84.37-26.89,84.37-42.59,0-21.21-54.73-41.2-142.83-52.17l.25-2c90.53,11.27,144.58,31.51,144.58,54.15,0,22.91-53.86,37.74-86,44.54C560.2,302,487.1,308.42,409.37,308.42Z"/><path class="cls-1" d="M409.37,328.75v-1.5c95.24,0,184.77-7.86,252.11-22.13,66-14,103.89-33.2,103.89-52.71,0-29.07-81.49-55.77-207.61-68l.15-1.5c61.32,6,113.33,15.45,150.39,27.44,26.72,8.65,58.57,23,58.57,42.07,0,20.58-37.32,39.82-105.08,54.18C594.36,320.88,504.71,328.75,409.37,328.75Z"/><path class="cls-1" d="M409.37,343.46v-.75c222.22,0,403-38.17,403-85.1,0-17.27-24.57-33.94-71.07-48.19-45.58-14-108.89-24.65-183.1-30.9l.07-.74C632.53,184,695.9,194.72,741.53,208.7c46.84,14.36,71.6,31.28,71.6,48.91,0,23-42.06,44.62-118.44,60.81C618.47,334.57,517.14,343.46,409.37,343.46Z"/><path class="cls-1" d="M409.37,308.42c-77.74,0-150.83-6.41-205.81-18.07-32.11-6.8-86-21.63-86-44.54,0-22.66,54.13-42.92,144.8-54.18l.25,2c-88.24,11-143,31-143,52.2,0,15.7,30.75,31.23,84.37,42.59,54.85,11.62,127.8,18,205.4,18Z"/><path class="cls-1" d="M409.37,328.75c-95.35,0-185-7.87-252.42-22.16C89.18,292.23,51.86,273,51.86,252.41c0-19.11,31.89-33.44,58.64-42.09,37.11-12,89.17-21.49,150.56-27.44l.14,1.49c-126.26,12.24-207.84,38.95-207.84,68,0,19.51,37.87,38.72,103.9,52.71,67.33,14.27,156.87,22.13,252.11,22.13Z"/><path class="cls-1" d="M409.37,343.46c-107.78,0-209.11-8.89-285.32-25C47.67,302.23,5.6,280.64,5.6,257.61c0-17.64,24.79-34.56,71.68-48.93C123,194.7,186.37,184,260.69,177.76l.06.74c-74.26,6.24-137.63,16.93-183.25,30.9C31,223.66,6.35,240.33,6.35,257.61c0,46.93,180.79,85.1,403,85.1Z"/></g><g id="Eyes_1" data-name="Eyes 1"><path class="cls-1" d="M335.06,212.42a34.22,34.22,0,0,1-30.7-18.9l.44-.22A33.9,33.9,0,0,0,366.36,191l.46.19A34.29,34.29,0,0,1,335.06,212.42Z"/><path class="cls-1" d="M301.9,194.76a36.73,36.73,0,0,1-4-16.71,37.12,37.12,0,1,1,71.42,14.22l-5.54-2.3a31.13,31.13,0,1,0-59.88-11.92,30.74,30.74,0,0,0,3.32,14Z"/><path class="cls-1" d="M335.06,194.12a16.07,16.07,0,1,1,16.06-16.07A16.09,16.09,0,0,1,335.06,194.12Zm0-26.13a10.07,10.07,0,1,0,10.06,10.06A10.08,10.08,0,0,0,335.06,168Z"/><path class="cls-1" d="M484.18,212.42a34.22,34.22,0,0,1-30.7-18.9l.44-.22A33.9,33.9,0,0,0,515.48,191l.46.19A34.29,34.29,0,0,1,484.18,212.42Z"/><path class="cls-1" d="M451,194.76a36.73,36.73,0,0,1-4-16.71,37.12,37.12,0,1,1,71.42,14.22l-5.54-2.3a31.12,31.12,0,1,0-56.56,2.09Z"/><path class="cls-1" d="M484.18,194.12a16.07,16.07,0,1,1,16.06-16.07A16.08,16.08,0,0,1,484.18,194.12Zm0-26.13a10.07,10.07,0,1,0,10.06,10.06A10.07,10.07,0,0,0,484.18,168Z"/><path class="cls-1" d="M260.43,207.19A97.59,97.59,0,0,1,413.24,97.86l-7.51,9.36A84.66,84.66,0,0,0,352.2,88.41a85.64,85.64,0,0,0-80.49,114.7Z"/><path class="cls-1" d="M558.68,206.8l-11.3-4a85.68,85.68,0,0,0-34-100.57l6.55-10.06A97.69,97.69,0,0,1,558.68,206.8Z"/><path class="cls-1" d="M262.77,170.53a10.11,10.11,0,0,0-15.47,9.86l.75-.75a12,12,0,0,1-5.8-2.35c-.77-.58-1.52.72-.76,1.29a13.38,13.38,0,0,0,6.56,2.56.74.74,0,0,0,.75-.75A8.61,8.61,0,0,1,262,171.83c.82.51,1.58-.79.76-1.3Z"/><path class="cls-1" d="M260.87,185.77a12.28,12.28,0,0,0-5.26-.1,21.06,21.06,0,0,0-4.93,2.11c-3.91,1.93-8,.11-11.58-1.67-.86-.42-1.62.87-.75,1.3,3.31,1.63,7.05,3.38,10.84,2.52,1.82-.42,3.31-1.57,5-2.27a10.36,10.36,0,0,1,6.27-.44c.94.22,1.34-1.22.4-1.45Z"/><path class="cls-1" d="M560,178.33a2.94,2.94,0,0,1,2.46-1.62c1.3-.08,2.1.78,3,1.58a3.59,3.59,0,0,0,3.31,1.14,2.08,2.08,0,0,0,1.73-2.36.75.75,0,0,0-1.44.4c0,.27-.38.43-.57.49a1.52,1.52,0,0,1-1.18-.13c-1.07-.62-1.77-1.72-2.91-2.24a4.44,4.44,0,0,0-5.69,2c-.43.86.86,1.62,1.29.76Z"/><path class="cls-1" d="M555.8,191.07a17.11,17.11,0,0,1,4.29-2.61,6.28,6.28,0,0,1,4.74.23,6.88,6.88,0,0,0,4,.68,3.1,3.1,0,0,0,2.51-2.26c.2-.94-1.24-1.35-1.44-.4-.25,1.13-1.63,1.39-2.62,1.21-1.46-.27-2.73-1.1-4.21-1.31-3-.41-5.72,1.44-8,3.17-.76.57,0,1.88.76,1.29Z"/><path class="cls-1" d="M239.64,195.1A65.74,65.74,0,0,1,232.52,64l.06.5A65.25,65.25,0,1,0,298,100.2l.45-.22a65.74,65.74,0,0,1-58.84,95.12Z"/><path class="cls-1" d="M579.22,195.1A65.74,65.74,0,0,1,520.38,100l.45.22a65.28,65.28,0,1,0,65.45-35.7l.06-.5a65.74,65.74,0,0,1-7.12,131.1Z"/></g></svg>
