<?xml version="1.0" encoding="UTF-8" standalone="no"?>
<svg
   viewBox="0 0 1458.63 841.11"
   version="1.1"
   id="svg369"
   sodipodi:docname="Jammy Jellyfish RGB_Green.svg"
   inkscape:version="1.1.2 (0a00cf5339, 2022-02-04)"
   xmlns:inkscape="http://www.inkscape.org/namespaces/inkscape"
   xmlns:sodipodi="http://sodipodi.sourceforge.net/DTD/sodipodi-0.dtd"
   xmlns="http://www.w3.org/2000/svg"
   xmlns:svg="http://www.w3.org/2000/svg">
  <sodipodi:namedview
     id="namedview371"
     pagecolor="#ffffff"
     bordercolor="#666666"
     borderopacity="1.0"
     inkscape:pageshadow="2"
     inkscape:pageopacity="0.0"
     inkscape:pagecheckerboard="0"
     showgrid="false"
     inkscape:zoom="0.97077394"
     inkscape:cx="728.79995"
     inkscape:cy="420.79827"
     inkscape:window-width="2494"
     inkscape:window-height="1371"
     inkscape:window-x="66"
     inkscape:window-y="32"
     inkscape:window-maximized="1"
     inkscape:current-layer="svg369" />
  <defs
     id="defs4">
    <style
       id="style2">.cls-1{isolation:isolate;}.cls-2{fill:#a3a6a7;}.cls-3{fill:#babcbd;}.cls-4,.cls-5{fill:#a9abac;}.cls-15,.cls-30,.cls-5,.cls-51{mix-blend-mode:multiply;}.cls-6{fill:#a6a8a9;}.cls-7{fill:#a5a7a8;}.cls-30,.cls-8{fill:#989b9c;}.cls-9{fill:#8c9091;}.cls-10{fill:#c6c7c8;}.cls-11,.cls-15{fill:#d7d8d8;}.cls-12{fill:#b5b7b7;}.cls-13{fill:#9ea0a1;}.cls-14{fill:#cbcdcd;}.cls-16{fill:#919495;}.cls-17{fill:#e7e8e8;}.cls-18{fill:#bfc1c1;}.cls-19{fill:#cdcece;}.cls-20{fill:#9fa1a2;}.cls-21,.cls-51{fill:#afb1b2;}.cls-22{fill:#929596;}.cls-23{fill:#e4e4e5;}.cls-24{fill:#eee;}.cls-25{fill:#c9cbcb;}.cls-26{fill:#b6b8b8;}.cls-27{fill:#aeb0b1;}.cls-28{fill:#cfd0d1;}.cls-29{fill:#e6e6e7;}.cls-30{opacity:0.3;}.cls-31{fill:#b2b4b5;}.cls-32{fill:#e5e5e6;}.cls-33{fill:#d5d6d6;}.cls-34{fill:#e8e9e9;}.cls-35{fill:#bebfc0;}.cls-36{fill:#eaebeb;}.cls-37{fill:#a8aaab;}.cls-38{fill:#d0d1d2;}.cls-39{fill:#e9eaea;}.cls-40{fill:#ededed;}.cls-41{fill:#f4f4f4;}.cls-42{fill:#dedfdf;}.cls-43{fill:#d1d2d3;}.cls-44{fill:#b9bbbc;}.cls-45{fill:#aaadad;}.cls-46{fill:#b7b9b9;}.cls-47{fill:#d3d5d5;}.cls-48{fill:#c1c3c3;}.cls-49{fill:#dfe0e0;}.cls-50{fill:#bdbebf;}.cls-51{opacity:0.6;}</style>
    <filter
       style="color-interpolation-filters:sRGB;"
       inkscape:label="Colorize"
       id="filter5391"
       x="0"
       y="0"
       width="1"
       height="1">
      <feComposite
         in2="SourceGraphic"
         operator="arithmetic"
         k1="0"
         k2="1"
         result="composite1"
         id="feComposite5377" />
      <feColorMatrix
         in="composite1"
         values="1"
         type="saturate"
         result="colormatrix1"
         id="feColorMatrix5379" />
      <feFlood
         flood-opacity="1"
         flood-color="rgb(135,165,86)"
         result="flood1"
         id="feFlood5381" />
      <feBlend
         in="flood1"
         in2="colormatrix1"
         mode="multiply"
         result="blend1"
         id="feBlend5383" />
      <feBlend
         in2="blend1"
         mode="screen"
         result="blend2"
         id="feBlend5385" />
      <feColorMatrix
         in="blend2"
         values="1"
         type="saturate"
         result="colormatrix2"
         id="feColorMatrix5387" />
      <feComposite
         in="colormatrix2"
         in2="SourceGraphic"
         operator="in"
         k2="1"
         result="composite2"
         id="feComposite5389" />
    </filter>
  </defs>
  <g
     class="cls-1"
     id="g367"
     style="filter:url(#filter5391)">
    <g
       id="Layer_1"
       data-name="Layer 1">
      <path
         class="cls-2"
         d="M910,769.66c12-6.81,24.89-13.58,37-20.76,16.4,9.32,32.28,19.38,47.93,29.87C966.75,775.19,938.29,772,910,769.66Z"
         id="path6" />
      <path
         class="cls-3"
         d="M828.26,785.83q22.71,1.06,45.37,2.65C898.56,776.1,923,762.92,947,748.9,907.79,762.46,868.21,774.68,828.26,785.83Z"
         id="path8" />
      <path
         class="cls-4"
         d="M469.49,676.05c25.92,20.42,44.93,47.64,73.54,64.61,9.45-.53,19-1.5,28.34-2.87q-22.79-37.29-44-75.42c-9.53,3.31-60.67-4.82-58.49,8.19Z"
         id="path10" />
      <path
         class="cls-5"
         d="M507,719.36c8.36,5.52,12.54,8.15,20.89,13.2,5.54.11,8.3.1,13.8,0,11,1,16.44,1.22,27.33,1.39-4.53-7.37-6.8-11.12-11.35-18.74A452.22,452.22,0,0,1,507,719.36Z"
         id="path12" />
      <path
         class="cls-2"
         d="M192,392.71q23.13,54,47.11,107.7a932,932,0,0,0,80,52.18q-18.68-47.06-36.76-94.35-28.08-31.87-56-63.88C214.76,394.36,203.59,393.82,192,392.71Z"
         id="path14" />
      <path
         class="cls-6"
         d="M226.4,394.36Q247.12,431.8,268,469.14c29.91,21.53,60.42,42,92.22,60.62C328.37,483.71,297.54,437,267.17,390A392.84,392.84,0,0,1,226.4,394.36Z"
         id="path16" />
      <path
         class="cls-7"
         d="M252,413.59c25.81,37.74,61.19,67.06,87.86,104.11,8.18,5,12.26,7.42,20.41,12.06C328.37,483.71,297.54,437,267.17,390,260.46,396.77,259.37,407.46,252,413.59Z"
         id="path18" />
      <path
         class="cls-8"
         d="M244.2,495c14.63,2.34,29.52,2.22,44.24.85-10.88-17.07-22.21-33.85-33.13-50.89-30.22-58.11-32.4-17.26-50.81-20.52C217.85,447.86,231,471.43,244.2,495Z"
         id="path20" />
      <path
         class="cls-9"
         d="M174,390.1c22.52,36.22,44.74,72.82,65.09,110.31q-6.6-53-12.72-106A261.28,261.28,0,0,1,174,390.1Z"
         id="path22" />
      <path
         class="cls-10"
         d="M239.12,500.41q24.58,50,49.47,99.94c12.55-14.43,21.8-30.87,30.57-47.76A932,932,0,0,1,239.12,500.41Z"
         id="path24" />
      <path
         class="cls-11"
         d="M319.16,552.59c29.35,46,57.41,92.31,94.73,132.38-46.25-21.11-87.82-50.48-125.3-84.62C301.14,585.92,310.39,569.48,319.16,552.59Z"
         id="path26" />
      <path
         class="cls-12"
         d="M288.59,600.35c60.74,72.34,138.24,134.63,226,170.82q-6.57,15.93-13.45,31.7C417.59,752.09,345.6,679.28,288.59,600.35Z"
         id="path28" />
      <path
         class="cls-13"
         d="M288.59,600.35c37.48,34.14,79.05,63.51,125.3,84.62,31.51,31.28,64.7,60.16,100.68,86.2C426.83,735,349.33,672.69,288.59,600.35Z"
         id="path30" />
      <path
         class="cls-13"
         d="M501.12,802.87q6.88-15.79,13.45-31.7a692.9,692.9,0,0,0,111.49,60.06C583.2,826.23,541.85,817.2,501.12,802.87Z"
         id="path32" />
      <path
         class="cls-10"
         d="M566.84,802.62a613.61,613.61,0,0,0,59.22,28.61c22.52-5.37,45.53-10.92,67.15-19.35,23.27-9.07,44.19-24,64.85-37.87-31.27,13.19-60,23.75-94,27.19A572.21,572.21,0,0,1,566.84,802.62Z"
         id="path34" />
      <path
         class="cls-14"
         d="M702.46,807.9c18.7-10.88,37.65-21.81,55.6-33.89q16.31,5.29,32.58,10.66C761.7,793.5,731.92,801,702.46,807.9Z"
         id="path36" />
      <path
         class="cls-11"
         d="M702.46,807.9c57-4.5,114.48-11.79,171.17-19.42-27.07-1.93-54.16-3.25-81.28-4.35C762.85,793.17,732.5,800.83,702.46,807.9Z"
         id="path38" />
      <path
         class="cls-15"
         d="M930.41,771.5l8.7.86c0-3.82-7.14-17.79-7.31-18.28l-8.13,2.72C925.79,760,928.3,768.31,930.41,771.5Z"
         id="path40" />
      <path
         class="cls-8"
         d="M483.56,703a906.52,906.52,0,0,0,79.53,63.55,559.41,559.41,0,0,0,65.43-7.33,621.79,621.79,0,0,1-88-22.46C521,726.3,504.22,709.46,483.56,703Z"
         id="path42" />
      <path
         class="cls-4"
         d="M540.51,736.78c9.47-.5,19-1.47,28.41-2.84,19.58,9.21,39.38,17.6,59.6,25.3A621.79,621.79,0,0,1,540.51,736.78Z"
         id="path44" />
      <path
         class="cls-5"
         d="M468.76,670.29c.28,2.5.55,4.86.73,5.76a490.72,490.72,0,0,0,76.89,19.76c-7.5-12.87-15.18-25.81-21.84-39.14C506.12,663.86,488.38,667.63,468.76,670.29Z"
         id="path46" />
      <path
         class="cls-8"
         d="M563.09,766.57a559.41,559.41,0,0,0,65.43-7.33q27.86,12,56.3,22.26C643.64,780.25,603.29,775.69,563.09,766.57Z"
         id="path48" />
      <path
         class="cls-12"
         d="M628.52,759.24q27.86,12,56.3,22.26C718.94,777,752.47,761,784,747.74c-25.28,6-50.66,11.51-76.37,15.37C681.44,767.06,654.63,762.75,628.52,759.24Z"
         id="path50" />
      <path
         class="cls-4"
         d="M688.09,765.2c32.59-2.29,64.79-10,96.5-17.63C771,740,757.39,732.42,743.9,724.65,725.86,739,707.72,753.11,688.09,765.2Z"
         id="path52" />
      <path
         class="cls-4"
         d="M820.87,739.55q20.19,3.83,40.29,8c15.55-15.84,30.65-32,45.48-48.56-30.06,8.66-60.19,16.9-90.55,24.46C818,729.88,819,733.1,820.87,739.55Z"
         id="path54" />
      <path
         class="cls-5"
         d="M822.68,738.88c5.7,1.11,17-5.41,22.76-4.29l-8.89-16.41c-7.47,1.88-11.2,2.8-18.65,4.57C819.83,729.21,820.78,732.44,822.68,738.88Z"
         id="path56" />
      <path
         class="cls-16"
         d="M861.16,747.52c15.55-15.84,30.65-32,45.48-48.56,8.59,12.53,16.86,25.27,25,38.11Q896.41,742.32,861.16,747.52Z"
         id="path58" />
      <path
         class="cls-13"
         d="M914.75,711q8.65,12.9,16.89,26.09,53-22.94,104.27-49.48C995.61,695.86,955.21,703.57,914.75,711Z"
         id="path60" />
      <path
         class="cls-17"
         d="M723.15,749.36c-21.16-9-40.7-18.72-60.08-31.17,26.63-3.44,51.16-13,76-22.83C734,713.43,728.78,731.45,723.15,749.36Z"
         id="path62" />
      <path
         class="cls-18"
         d="M731.29,722.79q-20.65-3.93-40.91-9.7c16.45-5.41,32.62-11.33,48.71-17.73Q735.36,709.12,731.29,722.79Z"
         id="path64" />
      <path
         class="cls-19"
         d="M723.15,749.36c5.63-17.91,10.87-35.93,15.94-54,13.75-8.09,19.6-1,33-9.63,3.42,3.75,55.82,28.13,55.82,28.13A1084.3,1084.3,0,0,1,723.15,749.36Z"
         id="path66" />
      <path
         class="cls-20"
         d="M731.29,722.79q4.07-13.66,7.8-27.43c13.75-8.09,11.45-5.75,24.89-14.35l46.26,24.6C782,713.11,760,717.65,731.29,722.79Z"
         id="path68" />
      <path
         class="cls-2"
         d="M267.17,390c35.89,55.59,72.45,110.72,110.71,164.71a275.49,275.49,0,0,0,40.74-10.76q-5.31-31.78-10.65-63.55C364.77,442.69,324,402.48,284,361.5c-3,10.91-4.51,16.23-7.69,26.53C272.67,388.86,270.84,389.24,267.17,390Z"
         id="path70" />
      <path
         class="cls-12"
         d="M418.62,543.9c31.51,34.5,64.29,67.47,100.39,97.19-40.42-51.21-76.55-105.4-111-160.74Q413.31,512.12,418.62,543.9Z"
         id="path72" />
      <path
         class="cls-13"
         d="M377.88,554.66c43.85,34.23,89.61,65,141.13,86.43-36.1-29.72-68.88-62.69-100.39-97.19A275.49,275.49,0,0,1,377.88,554.66Z"
         id="path74" />
      <path
         class="cls-4"
         d="M377.88,554.66c26.93,37.71,55,86.11,90.95,115.9,35.19.34,68.34-4.84,102-15.14-17.92-3.09-34.67-8.19-51.78-14.33C467.49,619.66,421.73,588.89,377.88,554.66Z"
         id="path76" />
      <path
         class="cls-13"
         d="M468.83,670.56c62.27,21.36,124.86,27.45,190.23,20.9a794.74,794.74,0,0,1-88.27-36C537.17,665.72,504,670.9,468.83,670.56Z"
         id="path78" />
      <path
         class="cls-4"
         d="M659.06,691.46c48.09,3.92,97-8.23,143.15-20.76-36.7-4.07-72.59-10.29-107.94-21.18a267.94,267.94,0,0,1-42.71,6.64Q655.34,673.8,659.06,691.46Z"
         id="path80" />
      <path
         class="cls-8"
         d="M733.08,712.44c23.6-13.05,46.54-27,69.13-41.74-46.11,12.53-95.06,24.68-143.15,20.76C683.07,701.66,707.48,707.58,733.08,712.44Z"
         id="path82" />
      <path
         class="cls-8"
         d="M733.08,712.44c28.59-4.4,56.72-10.3,84.82-17.12,27.6-17.46,54.5-35.87,81-55-32,11.07-64.07,21.4-96.67,30.37C779.62,685.44,756.68,699.39,733.08,712.44Z"
         id="path84" />
      <path
         class="cls-2"
         d="M817.9,695.32c36.88-9.42,73.38-20.13,109.71-31.48q-14.22-12-28.73-23.51C872.4,659.45,845.5,677.86,817.9,695.32Z"
         id="path86" />
      <path
         class="cls-12"
         d="M927.61,663.84c58.52-38.47,113.17-81.27,174.63-115-70.86,23.57-135.32,60.83-203.36,91.47Q913.42,651.91,927.61,663.84Z"
         id="path88" />
      <path
         class="cls-21"
         d="M1021.48,599c31.37-3.17,60.41-.75,91.74,2.1q-5.29-26.19-11-52.28C1073.91,564.42,1047.54,579.87,1021.48,599Z"
         id="path90" />
      <path
         class="cls-4"
         d="M1113.22,601.14c41.74-15.59,83.49-31.07,126.06-44.26-45.61-4.1-91.28-6.61-137-8Q1107.93,575,1113.22,601.14Z"
         id="path92" />
      <path
         class="cls-13"
         d="M1164.3,582.43c48.3-3.2,96.55-5.58,145-4.6q-34.82-11-70-21C1214,564.72,1189.12,573.36,1164.3,582.43Z"
         id="path94" />
      <path
         class="cls-22"
         d="M1309.25,577.83c26.48-9.83,52.84-17.35,80.72-21.91-35.27,1.05-69.32,6.52-103.58,14.85C1295.49,573.53,1300.06,574.94,1309.25,577.83Z"
         id="path96" />
      <path
         class="cls-16"
         d="M1332.06,561.29c-22.43.1-44.67,1.2-67,3.08,8.5,2.51,12.77,3.79,21.35,6.4C1301.55,567.14,1316.71,564,1332.06,561.29Z"
         id="path98" />
      <path
         class="cls-9"
         d="M293.23,430.87c9.8,1.25,14.66,1.7,24.29,2.28Q300.59,397.41,284,361.5c-3,10.91-4.51,16.23-7.69,26.53-3.64.83-5.47,1.21-9.14,1.92Q280.17,410.43,293.23,430.87Z"
         id="path100" />
      <path
         class="cls-13"
         d="M334,427.14c2.84-10.14,5.51-20.36,8-30.59q-20.85-20.73-41.26-41.89Q317.17,391,334,427.14Z"
         id="path102" />
      <path
         class="cls-8"
         d="M311.49,482.77c6.06-8.57,11.73-17.58,16.92-26.69a276.43,276.43,0,0,0,29.21-12.77,565.3,565.3,0,0,1-83.45-18.37c-1.57,5.51-2.38,8.22-4,13.51Q290.67,460.77,311.49,482.77Z"
         id="path104" />
      <path
         class="cls-13"
         d="M274.17,424.94q26.82,16.14,54.24,31.14a276.43,276.43,0,0,0,29.21-12.77A565.3,565.3,0,0,1,274.17,424.94Z"
         id="path106" />
      <path
         class="cls-2"
         d="M376.78,464.47q-9.69-10.47-19.16-21.16a276.43,276.43,0,0,1-29.21,12.77c-5.19,9.11-10.86,18.12-16.92,26.69A324.1,324.1,0,0,0,376.78,464.47Z"
         id="path108" />
      <path
         class="cls-11"
         d="M274.13,473.42c9.32,12.76,17.95,26,27.4,38.64q21.39,34.32,43.08,68.45c5.62-16.8,10.77-33.7,15.62-50.75-28-16.39-54.93-34.16-81.38-52.92"
         id="path110" />
      <path
         class="cls-23"
         d="M360.23,529.76c-4.85,17-10,34-15.62,50.75q16,27.53,32.22,54.91Q368.45,582.61,360.23,529.76Z"
         id="path112" />
      <path
         class="cls-24"
         d="M364.8,559c26.6,32.4,53.91,64.11,82.78,94.52a361.81,361.81,0,0,1-70.75-18.1Q370.77,597.22,364.8,559Z"
         id="path114" />
      <path
         class="cls-25"
         d="M376.83,635.42a361.81,361.81,0,0,0,70.75,18.1c24,27.93,55.87,49.62,86.14,70.35a414.68,414.68,0,0,1-65.34-2.38C435.4,695.78,402.6,668.52,376.83,635.42Z"
         id="path116" />
      <path
         class="cls-26"
         d="M474.85,680.44c19.81,17.07,38.78,29.69,58.87,43.43,43.62,4.21,86.21,1.88,129.35-5.68C597.67,717.36,535.3,705.71,474.85,680.44Z"
         id="path118" />
      <path
         class="cls-21"
         d="M576.15,726a541,541,0,0,0,86.92-7.76c19.38,12.45,38.92,22.19,60.08,31.17C672.89,753.29,624,741,576.15,726Z"
         id="path120" />
      <path
         class="cls-27"
         d="M723.15,749.36l98.53,4.52,6.27-40A1084.3,1084.3,0,0,1,723.15,749.36Z"
         id="path122" />
      <polygon
         class="cls-28"
         points="827.95 713.86 857.26 765.2 821.68 753.88 827.95 713.86"
         id="polygon124" />
      <path
         class="cls-29"
         d="M925,750.12l-30.17,6.62s33.41,17.77,43.9,29.17C938.11,770.36,925,750.12,925,750.12Z"
         id="path126" />
      <path
         class="cls-21"
         d="M651.56,656.16q3.78,17.64,7.5,35.3a794.74,794.74,0,0,1-88.27-36A549.9,549.9,0,0,0,651.56,656.16Z"
         id="path128" />
      <path
         class="cls-22"
         d="M239.12,500.41a222.33,222.33,0,0,0,17.76-23.58q-.83-15.94-1.57-31.9c-25.63-56.32-41.64-14.57-62-23.32C208.59,447.87,224.16,474,239.12,500.41Z"
         id="path130" />
      <path
         class="cls-9"
         d="M274.17,424.94a565.3,565.3,0,0,0,83.45,18.37q-.75-47.6-2.34-95.16c-4.93,1.19-7.41,1.75-12.39,2.8q-3.3,32.76-7.34,65.44a478,478,0,0,1-58.49-1.93C275.92,418.71,275.34,420.81,274.17,424.94Z"
         id="path132" />
      <path
         class="cls-30"
         d="M310,438.25l-105.65,1.91c-3.75-6.3-5.63-9.44-9.4-15.68,0,0,68.13-12.59,103.32-8.49Z"
         id="path134" />
      <path
         class="cls-30"
         d="M298.3,425.58c15.66,1.34,31.18,2,46.9,1.93-3.85-4.44-5.77-6.68-9.61-11.16-12,.36-23.84.36-35.85,0C299.17,420.07,298.88,421.91,298.3,425.58Z"
         id="path136" />
      <path
         class="cls-2"
         d="M413.86,248.39A994.7,994.7,0,0,0,507,296.6q11.84,38.1,23.72,76.18a742,742,0,0,1-79.2-27.86q-23.64-29.85-46.35-60.4Q409.71,266.49,413.86,248.39Z"
         id="path138" />
      <path
         class="cls-31"
         d="M405.19,284.52c19.56,15.35,39.42,30.22,59.76,44.53q19.44,45.94,39.64,91.58c-39.37-28.09-76-59.34-111.34-92.28C397.49,313.81,401.4,299.18,405.19,284.52Z"
         id="path140" />
      <path
         class="cls-9"
         d="M396.69,316.33c31.69,29.8,64.37,58.25,99.1,84.48,3.53,8,5.29,12,8.8,19.82-39.37-28.09-76-59.34-111.34-92.28C394.65,323.56,395.34,321.15,396.69,316.33Z"
         id="path142" />
      <path
         class="cls-8"
         d="M436.55,307.7q-5.24,25-11.23,49.72c-13.87-12.71-27.47-25.72-41-38.82q4.73-23.62,8.75-47.36C407.42,283.58,421.84,295.82,436.55,307.7Z"
         id="path144" />
      <path
         class="cls-9"
         d="M410.1,163.91C442.46,208.1,474.57,252.48,507,296.6q-51-5.07-101.83-12.08C412.08,245,404.16,203.63,410.1,163.91Z"
         id="path146" />
      <path
         class="cls-10"
         d="M507,296.6a718.52,718.52,0,0,0,82.76,32.45c-19.34,15.05-39,29.67-59,43.73Q518.84,334.7,507,296.6Z"
         id="path148" />
      <path
         class="cls-11"
         d="M530.74,372.78C568.16,394,605.91,413,648.81,419.14c-21.07-29.2-40.66-59.11-59-90.09C570.44,344.1,550.82,358.72,530.74,372.78Z"
         id="path150" />
      <path
         class="cls-12"
         d="M589.78,329.05c50.86,45.2,112.77,75.05,179.52,87.65q19.63-23.22,39.33-46.38C733.81,378.66,654.92,369.13,589.78,329.05Z"
         id="path152" />
      <path
         class="cls-13"
         d="M589.78,329.05c18.37,31,38,60.89,59,90.09,40.56,5.19,80.15,4,120.49-2.44C702.55,404.1,640.64,374.25,589.78,329.05Z"
         id="path154" />
      <path
         class="cls-13"
         d="M808.63,370.32q-19.7,23.16-39.33,46.38c46-8.78,89.92-23.37,133.38-40.73A502.52,502.52,0,0,1,808.63,370.32Z"
         id="path156" />
      <path
         class="cls-10"
         d="M829.57,401.81c24.54-7.84,49.19-16.26,73.11-25.84q18.63,31.42,35.88,63.57C901.43,429.64,864.69,417.54,829.57,401.81Z"
         id="path158" />
      <path
         class="cls-14"
         d="M923.61,412.23c5.08,9,9.44,17.78,14.95,27.31q24.71-15.75,49.46-31.42C966.6,409.76,945.07,411.27,923.61,412.23Z"
         id="path160" />
      <path
         class="cls-11"
         d="M923.61,412.23c54.65-15.61,108.33-34.5,163.37-48.77-33.27,13.47-65.5,28.72-97.69,44.55C967.45,409.69,945.5,411.25,923.61,412.23Z"
         id="path162" />
      <path
         class="cls-15"
         d="M1041.23,376.27c3.08-1,4.63-1.37,7.74-2.22-4.62,4.83-6.4,6.72-11,11.82l-11.85,3.05C1032.37,383.57,1035,381.55,1041.23,376.27Z"
         id="path164" />
      <path
         class="cls-3"
         d="M1032.06,387.36c18-8.63,36.39-16.4,54.92-23.9,14.77,3.09,29,6.23,43.31,11.23C1097.23,376.76,1064.65,381.54,1032.06,387.36Z"
         id="path166" />
      <path
         class="cls-2"
         d="M1106.87,367.88c9.31,2.41,15.16,3.95,23.42,6.81a436.66,436.66,0,0,1,87.9-41A632.53,632.53,0,0,0,1106.87,367.88Z"
         id="path168" />
      <path
         class="cls-8"
         d="M675.06,467.16c36.15-2.37,70.85-9,105.64-19q12.87,15.62,26,31a452.54,452.54,0,0,1-73.09-7.24A399.85,399.85,0,0,1,675.06,467.16Z"
         id="path170" />
      <path
         class="cls-4"
         d="M733.59,471.89c3.54,7.3,5.3,10.9,8.78,18a580.26,580.26,0,0,0,64.31-10.79A452.54,452.54,0,0,1,733.59,471.89Z"
         id="path172" />
      <path
         class="cls-4"
         d="M632.33,456.79a396.62,396.62,0,0,0,101.26,15.1c3.54,7.3,5.3,10.9,8.78,18C708,508.62,672.13,527.32,634,536.63Q633.62,496.7,632.33,456.79Z"
         id="path174" />
      <path
         class="cls-5"
         d="M633.07,482.81c-.11-4.42-.27-10.55-.27-10.55,15.13,13.64,37.45,33.61,53.67,45.94-17.29,7.61-34.31,14.44-52.48,19C633.84,519.19,633.44,500.79,633.07,482.81Z"
         id="path176" />
      <path
         class="cls-5"
         d="M693.43,465.58c7.15-.54,21.46-2.79,21.46-2.79,1.87,3.77,6.07,14,8.07,17.32,5.44,5.39,8.1,7.94,13.51,13-9.87,5.28-18.48,10.39-27.87,14.64C704.11,495.56,697.94,477.77,693.43,465.58Z"
         id="path178" />
      <path
         class="cls-8"
         d="M780.7,448.14q12.87,15.62,26,31c22.68-7.59,44.91-16.13,67-25.38A499.33,499.33,0,0,1,780.7,448.14Z"
         id="path180" />
      <path
         class="cls-12"
         d="M806.68,479.13c22.68-7.59,44.91-16.13,67-25.38,20.91,3.94,41.89,7,63,9.89C893.48,472,850.71,478.67,806.68,479.13Z"
         id="path182" />
      <path
         class="cls-4"
         d="M855.29,476.29c27.41-3.23,54.7-7.41,81.77-12.7-23.62,17.13-31.14,17.56-55.14,34.16Z"
         id="path184" />
      <path
         class="cls-4"
         d="M969.91,454.53c18.77-11.49,37.51-23,56.39-34.35q1.71,17.26,3.25,34.55c-27.76,8.24-55.46,16.67-83.24,24.85Q958.1,467,969.91,454.53Z"
         id="path186" />
      <path
         class="cls-5"
         d="M969.91,454.53l19.91-12.19q-13.35,16.05-26.45,32.31c-6.84,2-10.26,3-17.06,4.93Q958.1,467,969.91,454.53Z"
         id="path188" />
      <path
         class="cls-16"
         d="M1026.3,420.18q1.71,17.26,3.25,34.55c22.49-20.84,46.31-40.11,70.09-59.45C1074.86,402.73,1050.43,410.84,1026.3,420.18Z"
         id="path190" />
      <path
         class="cls-13"
         d="M1052,434.64q23.71-19.81,47.66-39.36a725.4,725.4,0,0,1,82.33,3.58C1137.85,408.07,1094.75,420.48,1052,434.64Z"
         id="path192" />
      <path
         class="cls-32"
         d="M871.65,488.94c-29.3,17.16-59,33.31-89.79,47.68,15.38,6.39,30.89,12,46.72,17.17Q850.25,521.47,871.65,488.94Z"
         id="path194" />
      <path
         class="cls-18"
         d="M850.2,521.46c-17,7.78-34.19,15.3-51.66,22.07,9.87,3.76,19.94,7.16,30,10.26Q839.44,537.67,850.2,521.46Z"
         id="path196" />
      <path
         class="cls-33"
         d="M871.65,488.94q-21.46,32.47-43.07,64.85c6.06,5.32,12.11,10.55,18.15,15.75,35.06-27.14,69.16-55.44,103.12-83.94C923.79,487.25,897.76,488.53,871.65,488.94Z"
         id="path198" />
      <path
         class="cls-20"
         d="M850.2,521.46q-10.76,16.2-21.62,32.33c6.06,5.32,12.11,10.55,18.15,15.75,26.52-20.5,52.51-41.63,78.31-63C900.2,512.13,875.32,517.25,850.2,521.46Z"
         id="path200" />
      <path
         class="cls-34"
         d="M1028.05,592.16c26.82-25.11,56-46.46,85.49-68.34q-28.9,5.77-57.69,12.09C1045.92,554.32,1037.13,573.33,1028.05,592.16Z"
         id="path202" />
      <path
         class="cls-35"
         d="M1055.85,535.91c39.9-36.44,79.67-73,121.12-107.68-21.71,31.49-42.74,63.42-63.43,95.59Q1084.64,529.59,1055.85,535.91Z"
         id="path204" />
      <path
         class="cls-9"
         d="M1103.93,492.27q25-15.56,50.3-30.52-11.14,16.68-22.12,33.46Q1118,493.61,1103.93,492.27Z"
         id="path206" />
      <path
         class="cls-4"
         d="M1147.05,472.52c32.49-23.36,65.56-45.59,100.39-65.32-23.88,5.89-47.24,13-70.47,21Q1161.8,450.25,1147.05,472.52Z"
         id="path208" />
      <path
         class="cls-18"
         d="M1205.89,418.75c11-7.31,22.35-14.58,33.55-21.54,3.2,4,4.8,6,8,10C1233.23,410.72,1219.72,414.5,1205.89,418.75Z"
         id="path210" />
      <path
         class="cls-36"
         d="M1239.44,397.21c3.2,4,4.8,6,8,10,29.6-14.33,59.61-26.12,91.52-34.23C1304.66,377.23,1272,385.73,1239.44,397.21Z"
         id="path212" />
      <path
         class="cls-2"
         d="M393.25,328.35c41.47,38.59,84.65,74.85,132.06,106q-3.9,22.64-8.16,45.2a528,528,0,0,1-54,.05c-33.95-43.46-65.74-88.43-96.4-134.24,7.44-9-8.81-20.59-.52-28.83C376.19,316.44,383.34,328.51,393.25,328.35Z"
         id="path214" />
      <path
         class="cls-12"
         d="M517.15,479.53c32,23.79,65.16,44.65,101.69,60.69-56.2-9.44-106.86-31.71-155.66-60.64A528,528,0,0,0,517.15,479.53Z"
         id="path216" />
      <path
         class="cls-13"
         d="M525.31,434.33c28.86,37.43,59.26,73.28,93.53,105.89-36.53-16-69.72-36.9-101.69-60.69Q521.42,457,525.31,434.33Z"
         id="path218" />
      <path
         class="cls-4"
         d="M525.31,434.33c34.17,20,69.32,36.54,107.22,48.13q10.53,43.2,20.67,86.5c-12.12-8.78-23.27-18.72-34.36-28.74C584.57,507.61,554.17,471.76,525.31,434.33Z"
         id="path220" />
      <path
         class="cls-13"
         d="M632.53,482.46c35.78,33,74.07,61.35,117.11,84.2A419.89,419.89,0,0,1,653.2,569Q643.08,525.67,632.53,482.46Z"
         id="path222" />
      <path
         class="cls-4"
         d="M749.64,566.66c41.45,2.35,82.43-2,123.34-8.43-44.21,21.79-89.11,41-136.59,54.52-9.85-3.46-19.66-7.41-29.14-11.77C721.7,589.9,735.77,578.46,749.64,566.66Z"
         id="path224" />
      <path
         class="cls-8"
         d="M840.71,534.21q16.11,12,32.27,24c-40.91,6.4-81.89,10.78-123.34,8.43C780.91,558.17,810.94,546.94,840.71,534.21Z"
         id="path226" />
      <path
         class="cls-8"
         d="M840.71,534.21c25.91-4.93,51.52-10.86,77.08-17.36,14,6.74,28,13.49,42,20.36-28.83,7.49-57.69,14.67-86.79,21Q856.84,546.23,840.71,534.21Z"
         id="path228" />
      <path
         class="cls-2"
         d="M917.79,516.85c34.2-10,68.16-20.75,102.16-31.4q-30.19,25.77-60.18,51.76C945.81,530.34,931.81,523.59,917.79,516.85Z"
         id="path230" />
      <path
         class="cls-12"
         d="M1020,485.45c37.45,7,72,20.62,106.84,35.7-27.94-.43-57-2.08-84.72,1.47-27.51,3.53-55,9.8-82.3,14.59Q989.83,511.31,1020,485.45Z"
         id="path232" />
      <path
         class="cls-21"
         d="M1077.69,501.35c37.57-15,75.31-29.43,113.79-42-22,20.09-43.5,40.76-64.69,61.75Q1102.4,510.8,1077.69,501.35Z"
         id="path234" />
      <path
         class="cls-4"
         d="M1191.48,459.4A891.11,891.11,0,0,1,1293,473.13c-57.08,10.16-111.79,28.27-166.17,48C1148,500.16,1169.44,479.49,1191.48,459.4Z"
         id="path236" />
      <path
         class="cls-13"
         d="M1232.65,463.52c55.13-10.09,109.59-13.49,165.12-4.49-35.91-.27-70.14,4.93-104.81,14.1C1272.94,469.21,1252.9,466,1232.65,463.52Z"
         id="path238" />
      <path
         class="cls-22"
         d="M1397.77,459q26.67,17.81,52.24,37a583.54,583.54,0,0,0-87.12-35.92C1374.59,459.33,1386,459,1397.77,459Z"
         id="path240" />
      <path
         class="cls-16"
         d="M1401.42,473.8a456.58,456.58,0,0,0-70.52-9.34,289.48,289.48,0,0,1,32-4.31C1375.9,464.39,1388.65,468.91,1401.42,473.8Z"
         id="path242" />
      <path
         class="cls-9"
         d="M425.32,357.42c-.25,10.67-.41,16-.76,26.53-25-15.55-49.73-31.55-73.78-48.49,9.53-2.49,6.11-15.94,15.48-18.95,1.19-3.95,20,9.1,21.18,5.11C400.09,333.53,412.59,345.6,425.32,357.42Z"
         id="path244" />
      <path
         class="cls-13"
         d="M424.56,384c-10.13,3.89-15.25,5.69-25.6,8.94q-16.33-23.61-32.18-47.55C385.75,358.66,405,371.57,424.56,384Z"
         id="path246" />
      <path
         class="cls-8"
         d="M399,392.89c-8.8,6.46-17.89,12.66-27.15,18.44q-6.94,16.14-14.29,32.08-1.86-47.32-4.41-94.61c5.5-1.3,8.23-2,13.67-3.46Q382.64,369.28,399,392.89Z"
         id="path248" />
      <path
         class="cls-37"
         d="M375.35,466c8.57-24.17,16.36-48.54,23.61-73.14,19.06,29.58,38.58,58.81,58.82,87.6A534.47,534.47,0,0,1,375.35,466Z"
         id="path250" />
      <path
         class="cls-13"
         d="M353.11,348.8q9.3,31.27,18.7,62.53-6.94,16.14-14.29,32.08Q355.66,396.09,353.11,348.8Z"
         id="path252" />
      <path
         class="cls-2"
         d="M375.35,466q-9-11.22-17.83-22.62,7.37-16,14.29-32.08c9.26-5.78,18.35-12,27.15-18.44C391.71,417.49,383.92,441.86,375.35,466Z"
         id="path254" />
      <path
         class="cls-38"
         d="M375.35,466q18.5,29.31,37.64,58.2c39.13,23.07,79.38,42.19,123.22,54.45-27.85-31.4-53.65-64.34-78.43-98.19A534.47,534.47,0,0,1,375.35,466Z"
         id="path256" />
      <path
         class="cls-27"
         d="M457.78,480.49c24.78,33.85,50.58,66.79,78.43,98.19,28.19-5.85,81.73-28.52,81.73-28.52.16-2.29-40.63-13.46-58.93-20.16C523.8,517.11,489.15,501.14,457.78,480.49Z"
         id="path258" />
      <path
         class="cls-17"
         d="M536.21,578.68c44.6,36.2,92.17,64.85,149.29,75.74a1158,1158,0,0,1-67.56-104.26A526.73,526.73,0,0,1,536.21,578.68Z"
         id="path260" />
      <path
         class="cls-27"
         d="M617.94,550.16a433.54,433.54,0,0,0,71.76,51.2c-10.64,4.77-21.28,9.28-32.13,13.55C643.69,593.72,630.59,572.11,617.94,550.16Z"
         id="path262" />
      <path
         class="cls-18"
         d="M689.7,601.36q-1.82,26.57-4.2,53.06-14.31-19.53-27.93-39.51C668.42,610.64,679.06,606.13,689.7,601.36Z"
         id="path264" />
      <path
         class="cls-39"
         d="M685.5,654.42c33.1,10.91,66.6,17.6,101.12,22.13q-10.85-28.14-22-56.18A666.48,666.48,0,0,1,685.5,654.42Z"
         id="path266" />
      <path
         class="cls-3"
         d="M764.67,620.37q11.08,28.05,22,56.18c46.5-38.35,89.88-80,132.33-122.71C868.94,579.45,818.19,603,764.67,620.37Z"
         id="path268" />
      <path
         class="cls-40"
         d="M786.62,676.55C831.32,653,874,626.39,915.88,598.14q1.67-22.14,3.07-44.3C876.5,596.59,833.12,638.2,786.62,676.55Z"
         id="path270" />
      <path
         class="cls-41"
         d="M919,553.84q-1.4,22.15-3.07,44.3c37.39-2,74.77-4.24,112.17-6C992.19,577.9,955.71,565.58,919,553.84Z"
         id="path272" />
      <path
         class="cls-35"
         d="M992.29,578.65c21-14.4,41.68-29.66,63.56-42.74-9.93,18.41-18.72,37.42-27.8,56.25Q1010.23,585.23,992.29,578.65Z"
         id="path274" />
      <path
         class="cls-37"
         d="M689.7,601.36a453,453,0,0,0,75,19,666.48,666.48,0,0,1-79.17,34Q687.87,627.9,689.7,601.36Z"
         id="path276" />
      <path
         class="cls-42"
         d="M465,329.05c10.55,10.68,21.17,21.29,32,31.67,17.79,11.62,35.82,22.52,54.53,32.58-15.4,9.58-31,18.67-46.9,27.33Q485.42,377.4,467,333.86"
         id="path278" />
      <path
         class="cls-29"
         d="M504.59,420.63c15.93-8.66,31.5-17.75,46.9-27.33,14.93,6.22,30,11.79,45.32,16.88A604.15,604.15,0,0,1,504.59,420.63Z"
         id="path280" />
      <path
         class="cls-40"
         d="M529.35,419.24c26.49,19.68,54.23,37.83,83.52,53.08q-7.95-31.08-16.06-62.14C574.56,414.41,551.92,417.22,529.35,419.24Z"
         id="path282" />
      <path
         class="cls-43"
         d="M596.81,410.18q8.13,31.05,16.06,62.14c33.18,10.93,67.55,11.55,102.18,9.66q-9.62-22.5-19.16-45C660.82,433.17,628.46,426,596.81,410.18Z"
         id="path284" />
      <path
         class="cls-44"
         d="M645.58,480c23.2,2.28,46.18,3.32,69.47,2a761.68,761.68,0,0,0,66.81,54.64C732.75,526.13,688.08,506.65,645.58,480Z"
         id="path286" />
      <path
         class="cls-45"
         d="M737.17,501.86c14.51,12.09,29.28,23.84,44.69,34.76,30.78-14.37,60.49-30.52,89.79-47.68C827.08,498.92,782.88,504.33,737.17,501.86Z"
         id="path288" />
      <path
         class="cls-46"
         d="M871.65,488.94c35.76-21.8,70.83-44.67,106-67.38-9.55,21.23-18.72,42.62-27.82,64C923.79,487.25,897.76,488.53,871.65,488.94Z"
         id="path290" />
      <path
         class="cls-47"
         d="M949.85,485.6c32.92-40.93,65.9-82.11,102.29-120.06-25.58,17.62-50,36.87-74.47,56C968.12,442.79,959,464.18,949.85,485.6Z"
         id="path292" />
      <path
         class="cls-48"
         d="M977.67,421.56c24.44-19.15,48.89-38.4,74.47-56a797.08,797.08,0,0,1,59.21-74.17C1060.82,329.4,1019,374,977.67,421.56Z"
         id="path294" />
      <path
         class="cls-17"
         d="M1111.35,291.37c-8.8,9.8-17.35,19.7-25.78,29.81a811.54,811.54,0,0,1,80.77-41.91Q1138.68,284.66,1111.35,291.37Z"
         id="path296" />
      <path
         class="cls-21"
         d="M707.25,601c14.45-11.08,28.52-22.52,42.39-34.32A419.89,419.89,0,0,1,653.2,569,590,590,0,0,0,707.25,601Z"
         id="path298" />
      <path
         class="cls-22"
         d="M433.73,306.5,409.92,344s-18.19-15-24.25-16.7c4.24-14.54,15.73-28.07,19.52-42.73C416.46,293.62,422.05,297.94,433.73,306.5Z"
         id="path300" />
      <path
         class="cls-9"
         d="M353.11,348.8c1.49,27,2.85,54.05,3.88,81.1-27.95,1.09-55.66-1.61-83.56-2.82,1.42-4.92,2.12-7.43,3.48-12.52,15.67,1.65,14-19.51,29.23-17.95,3.29-21.41,34.13-23,36.63-45.51C346.92,350.23,349,349.77,353.11,348.8Z"
         id="path302" />
      <path
         class="cls-30"
         d="M409.92,344c5.5-14,19.69-22.8,23.81-37.45-.67-4.46-11.35-14.36-12-18.85,10.12-30.12,0-64.71,9.38-95.06q-10.47-14.35-21-28.68c-11.54,53.78-17.87,102.62-31.49,156C385.26,326.2,403.24,337.8,409.92,344Z"
         id="path304" />
      <path
         class="cls-30"
         d="M409.92,344c-2.77,10.55-4.2,15.79-7.16,26.15-9.32-2.12-14-3.29-23.37-5.81-7,5.47-10.55,8.11-17.76,13.17-2.83-.93-4.25-1.4-7.08-2.36-5.71.68-20.09,3.66-25.86,4.14,1.08-10.07,13.11-17.85,14.08-28.14,16.16-5.24,7.84-28.49,23.49-34.59,9.93-.07,17.08,12,27,11.84C399.9,334.68,403.24,337.8,409.92,344Z"
         id="path306" />
      <path
         class="cls-30"
         d="M330.05,374.84c-5.4,17.63-14.37,45.89-20,63.41l-15-27.25c4.44-11.95,18.13-23.86,22.32-35.91C320.74,375.88,326.69,374.15,330.05,374.84Z"
         id="path308" />
      <path
         class="cls-30"
         d="M307.54,389.41c15.48-.63,32.82-1.9,48.23-3.52,0,0-1.75-21.5-1.76-20-15,1.86-30.61,9.86-45.79,10.44C307.64,380.17,308.14,385.61,307.54,389.41Z"
         id="path310" />
      <polygon
         class="cls-12"
         points="90.97 174.05 169.75 130.23 244.11 219.47 189.53 224.23 90.97 174.05"
         id="polygon312" />
      <polygon
         class="cls-43"
         points="189.53 224.23 90.97 174.05 67.69 264.69 109.65 306.9 197.22 240.26 189.53 224.23"
         id="polygon314" />
      <polygon
         class="cls-10"
         points="238.91 328.57 197.22 240.26 109.65 306.9 97.26 352.85 171.88 350.04 299.5 418.9 238.91 328.57"
         id="polygon316" />
      <polygon
         class="cls-8"
         points="97.26 352.85 11.61 322.44 29.33 417.51 66.04 446.29 123.1 467.44 137.96 413.15 97.26 352.85"
         id="polygon318" />
      <polygon
         class="cls-22"
         points="66.04 446.29 29.33 417.51 73.25 464.95 123.1 467.44 66.04 446.29"
         id="polygon320" />
      <polygon
         class="cls-11"
         points="88.85 131.29 78.71 107.93 29.23 178.84 90.97 174.05 88.85 131.29"
         id="polygon322" />
      <polygon
         class="cls-10"
         points="145.67 101.33 145.67 101.33 128.35 80.55 117.15 67.1 78.71 107.93 88.85 131.29 90.97 174.05 169.75 130.23 145.67 101.33"
         id="polygon324" />
      <polygon
         class="cls-8"
         points="67.69 264.69 90.97 174.05 29.23 178.84 25.75 246.76 11.61 322.44 97.26 352.85 109.65 306.9 67.69 264.69"
         id="polygon326" />
      <polygon
         class="cls-43"
         points="433.69 307.08 355.77 231.2 389 319.51 433.69 307.08"
         id="polygon328" />
      <polygon
         class="cls-12"
         points="227.17 60.56 169.85 130.14 244.21 219.38 258.74 166.56 272.28 175.96 320.52 54.02 227.17 60.56"
         id="polygon330" />
      <polygon
         class="cls-4"
         points="354.47 102.91 272.28 175.96 355.77 231.2 354.47 102.91"
         id="polygon332" />
      <polygon
         class="cls-43"
         points="320.52 54.02 354.47 102.91 272.28 175.96 320.52 54.02"
         id="polygon334" />
      <polygon
         class="cls-4"
         points="385.67 171.91 355.77 231.2 433.69 307.08 385.67 171.91"
         id="polygon336" />
      <polygon
         class="cls-4"
         points="385.67 171.91 354.47 102.91 355.77 231.2 385.67 171.91"
         id="polygon338" />
      <polygon
         class="cls-43"
         points="453.86 149.92 401.9 99.01 354.47 102.91 385.67 171.91 433.69 307.08 460.42 204.61 453.86 149.92"
         id="polygon340" />
      <polygon
         class="cls-11"
         points="516.5 95.62 477.75 43.87 499.44 85.17 507.97 90.39 499.44 85.17 477.75 43.87 459.15 75.48 453.86 149.92 460.42 204.61 504.76 174.88 509.95 145.11 516.5 95.62 516.5 95.62"
         id="polygon342" />
      <polygon
         class="cls-49"
         points="310.46 9.54 243.02 6.71 227.17 60.56 320.52 54.02 310.46 9.54"
         id="polygon344" />
      <polygon
         class="cls-11"
         points="164.35 36.58 185.5 50.76 227.17 60.56 243.02 6.71 164.35 36.58"
         id="polygon346" />
      <polygon
         class="cls-29"
         points="387.45 9.28 310.46 9.54 320.52 54.02 354.47 102.91 401.9 99.01 453.86 149.92 459.15 75.48 477.75 43.87 387.45 9.28"
         id="polygon348" />
      <polygon
         class="cls-49"
         points="227.17 60.56 185.5 50.76 164.35 36.58 117.25 67.02 128.46 80.46 145.77 101.24 145.77 101.24 169.85 130.14 227.17 60.56"
         id="polygon350" />
      <polygon
         class="cls-4"
         points="292.32 273.96 244.11 219.47 169.75 130.23 189.53 224.23 238.91 328.57 299.5 418.9 319.79 377.18 368.97 365.95 368.98 365.9 292.42 274.01 292.32 273.96"
         id="polygon352" />
      <polygon
         class="cls-43"
         points="355.77 231.2 258.74 166.56 169.85 130.14 244.21 219.38 292.43 273.88 292.45 273.98 369.02 365.87 369.07 365.86 389 319.51 355.77 231.2"
         id="polygon354" />
      <polygon
         class="cls-2"
         points="97.26 352.85 137.96 413.15 190.57 429.46 179.88 384.03 171.88 350.04 97.26 352.85"
         id="polygon356" />
      <polygon
         class="cls-4"
         points="171.88 350.04 97.26 352.85 137.96 413.15 123.1 467.44 153.31 467.71 190.57 429.46 299.5 418.9 171.88 350.04"
         id="polygon358" />
      <path
         class="cls-5"
         d="M847.9,739c5.71,1.11,30.33,4,36.05,5.09l19.47-2.83-62.47-15Z"
         id="path360" />
      <path
         class="cls-50"
         d="M836.92,729.57c7.61,13.06,20.34,35.63,20.34,35.63L925,750.12Z"
         id="path362" />
      <path
         class="cls-51"
         d="M995.72,593.77l32.33-1.61S1039,582.31,1046.2,576c8-7,13.58-11.25,13.58-11.25l7.57-3.07L1029,595.81l-41.19,1.79Z"
         id="path364" />
    </g>
  </g>
</svg>
