<svg xmlns="http://www.w3.org/2000/svg" viewBox="0 0 909.2 790.3" style="enable-background:new 0 0 909.2 790.3" xml:space="preserve"><path d="M750.3 266.5c-2.2-2.4-5.1-3.2-8.8-4.2l-1.1-.3c-3.9-1.1-8.9-2.4-15.3-5.6-11.6-6-25.6-15-27-24-.4-2.5 1.3-5.7 4-10.2 5.9-10.2 14.7-25.6 8.6-54.6-5.1-24-28-35.6-50.1-46.8-10-5.1-19.5-9.9-27.2-15.7-12.6-9.5-14.2-13-17.6-20l-.2-.3c-1.4-2.9-3.1-6.6-6-11.5-13.4-22.6-65.2-35.4-65.6-35.5l-1.7-.4-.6 1.6c-.6 1.7.5 2.3 2.5 3.3l.1.1c30.1 16.3 51.7 36.4 60.9 56.4 6.4 14 22.5 22.1 39.6 30.7l.8.4c8.8 4.4 17.9 9 25.9 14.6 14 9.8 22.6 25.6 23.7 43.3.7 12.1-2.4 23-8.3 29-.5-7-2.4-16.8-8.1-26.7-8.8-15-30.3-19.2-53.1-23.8l-1.8-.4c-8.6-1.8-17.4-3.6-25.4-6-27.8-8.5-41.1-16-51.7-40.3-7.1-16.5-20.2-27.1-29.9-33.2-10.9-6.8-21.2-10.2-24.8-10.3-1.2 0-2 .4-2.5 1.3-.9 1.9.6 3 6.7 7.9l.1.1c10.2 8.2 31.4 25.3 36.9 41.9 6.4 19.6 17.3 39.1 53.7 48.9 9.1 2.5 18.6 4.1 27.8 5.6l1.3.2c22.2 3.7 41.3 6.8 48.3 19.6 8 14.5 6.5 22.6-6.1 31.9-3.4.1-7.5-.3-12.7-1.4-21-4.6-28.7-4.5-42.9-3.9-13.9.5-20.7 2.9-21.5 7.4-1.4 8.2 19.3 16 19.5 16.1l1.1.4c4.4 1.8 10.3 4.1 17.4 5.7-4 2.3-8.6 4.7-14.9 7.9-10.6 5.4-24.4 9.8-37.7 14.2l-.7.2c-9.2 3-17.9 5.8-25.1 8.7-4-1.8-8.1-2.9-12.6-3.4-13.4-1.5-23.5 1.1-30.2 7.8-4.1 4.1-6.7 9.8-7.6 16.7-10.1 4.1-19.6 8.9-27 13.5-15.4 9.6-27.1 20-36.5 28.4l-1 .9c-9.2 8.1-17.2 15.1-25.9 19.4-11.4 5.6-32.9 11.3-51.9 16.3l-4.7 1.2c-10.4 2.7-20.2 5.3-27.8 7.7-10.7 3.4-21.2 9.1-30.4 16.4-7.8.8-18.4 2.8-25.7 7.3-11 6.7-19.9 22.9-23.3 29.6-5.2 10.4-9.7 23-8.3 27.9.5 1.7 1.8 2.7 3.4 2.7 5.3-.1 7.9-5.1 9.9-8.8 1.5-3 2.2-3.8 2.5-3.8 1.1 0 1.7.8 4.1 5.6.9 1.9 2.2 4.3 4.1 7.7-.7 8.1-.9 16-1.1 23.8v.5c-.2 10.8-.5 21-2.1 28.7-.8 3.6-1.9 7.4-3.4 11.4-36.8-1.6-43.9.2-47.6 6.9-3.2 5.8 1.3 18.2 9 38.1-7.9 7.1-12.9 16.4-14.8 27.6-1.9 11.1-9.4 37.7-16.8 54.2l-.9 1.9c-1.4 3-2.7 5.9-3.7 8.6l-.1.1c-4.2 9.8-7.5 17.5-11.1 18.7-5.7 1.9-6.1 6.3-6.4 9.8 0 .3-.1.7-.1 1 0 .6-.1 1.2-.2 1.7s-1.8 1.2-9.5 1.4h-1.3c-2.7.1-5.4.2-7.6.7-9.2 2-9.6 23.6-9.6 23.8v.1c.2 1.2.7 2 1.6 2.5.7.4 1.5.6 2.6.6 4.3 0 13-3.3 25.8-9.9 19.5-9.5 27.1-26.9 37.5-51.1l1.7-4c4.6-10.7 8.4-20.7 11.4-29l.1-.4c4-10.8 7.6-20.3 11.8-28.9 6.4 21.6 9.7 44.8 7.4 52.5-2.8 9.3-1.9 11.8 2.7 15.5.1.1.1.2.2.2-.1 1.3-3.9 4.6-6.3 6.5l-.7.6c-1 .8-2.3 1.9-3.4 2.9-4.6 4.1-3.5 15.2-1 21.7.9 2.4 2.9 6.5 6.3 6.5 7.2-.1 16.2-16.6 21.6-30.7 4.8-12.3 2.9-24.6 1.1-36.5l-.2-1.4c-.5-3.6-1.1-7-1.3-10.5-.7-8-3.2-23.5-7.8-47.6 5.5-3 11.9-5.4 18.6-7.9l2.1-.8c4.2-1.5 8.6-3.1 12.7-4.9 11 2.6 32.3 6.6 53.4 4.8 24-2 36-17.7 36.8-47.9.3-12.5-5.7-25.7-12.4-38.1 5.7-11.8 9.9-22.9 12.4-32.9 4.4 0 9.5.2 15.3.4l4.3.2c4.3.2 9 .1 14.4-.4 2.8 1.4 6 2.5 9.7 3.5 10.9 2.9 21 4.1 30.6 4.1 31.8 0 56.7-13.5 76.1-24.1l.5-.3c4-2.2 7.8-4.3 11.3-6 8.8-4.3 15.4-5.5 20.1-3.6 5.5 2.1 7.9 8.3 10 13.8l.5 1.2c2.3 6 5.7 9.8 10 11.3 4.7 1.7 10.2.7 17-3.2 4.2-2.4 10.9-6.8 18.1-11.5l5.5-3.6c9.1-5.8 21-13.6 25.9-15.8-3.7 8.9-24.8 41.3-31.7 45-.1 0-.2.1-.5.3-9.1 5.1-20.1 12.4-21.2 17.8-.3 1.3 0 2.5.8 3.5.1.1.1.1.1.2-.9 1.1-7 2.5-14.9 1.8-8.1-.6-17.8 9.7-19.4 16.4-.7 3 .3 5.4 2.7 6.3 6.5 2.4 32.2 3.4 44.7-12.2 3.2-3.9 6.8-8.2 11-13.1l.1-.1c9.5-11.2 20.4-24 30.1-39 9.6-14.8 16.8-26.8 20.6-36.1 3.5 9.7 4.6 22.6 5.4 30.6v.3c.2 1.2.3 2.3.3 3.2v.5c.1 1.4.3 2.6.5 3.8.1.7.2 1.3.2 1.9 1.1 9.3 1.1 11.4-2.3 13l-.7.3c-5.6 2.5-9.6 4.3-6.7 11.2.8 2.1.5 2.7-3.1 4.8-1.4.7-2.7 1.6-3.8 2.5-4.1 3.1-7.1 15.1-5.5 22 1 4.3 3.5 5.5 4.9 5.8 1.7.4 3.6-.3 6.1-2 9.3-6.4 26.6-29.7 28.9-44.3 2.1-12.7-10.6-80.2-14-88.3-4.3-10.2-11.9-14-21.5-10.6-1.1.4-3.5 1.6-6.8 3.2l-2.4 1.2c-9.3 4.6-30.7 15.2-43 18.5 0-3.1 0-6.6.1-10.3v-.2c.1-4 .2-7.6.2-11.3.2-.3.4-.7.6-1.1.1-.2.2-.4.4-.6 6.4-11.6 14.8-24.5 21.5-34.9l2.3-3.5c2.1-3.1 4-6 5.3-8.1 11.1-17.2 34.9-36.5 59.1-40.1 12-1.8 27.8-.9 43.2 2.4 15.5 3.4 21.7 1.4 28.9-4 2.9-2.1 4.6-2.9 5.9-3.5 2.2-1.1 3.4-1.8 4.2-5.1 1.9-5.7-5.5-16.7-8.9-20.3zm-82.7-66.7c-7.9-14.3-28.7-17.8-50.7-21.5l-.4-.1c-10.3-1.7-19.5-3.4-28.7-5.8-34.6-9.3-44.9-27.7-50.9-46.2-6-18.1-28.6-36.2-38.3-44-.2-.2-.4-.4-.7-.5 11.2 4 35 16.2 45.1 39.6 11.1 25.8 25 33.7 54.1 42.6 9 2.7 18.6 4.7 27.6 6.4l.8.2c21.5 4.4 41.8 8.5 49.5 21.8 6.2 10.6 7.6 21.1 7.7 28-6.3 5.6-11.2 9.7-16.7 11.8 8.8-9 9.2-18.4 1.6-32.3zm-8.9 35.9zm-.2 2.5.9-.6c9.1-.8 15.5-5.3 23.1-11.8-.3 3.5-.9 6.6-1.6 8.6-.5 1.3-4.1 7.5-8.4 10.7-6.3 4.9-15.4 8.8-23 10.1-6.2 1-12.5 1.2-18.8.7 5.5-3.3 10.7-6.6 16.6-10.3 1.7-1.1 3.4-2.1 5.2-3.3l3.1-2c1-.7 2-1.4 2.9-2.1zm-73.7-1.7c0-.1.7-3.4 17.8-4.2 3.9-.2 7.1-.3 10.2-.3 8.2 0 16.1.7 31.7 4.2 2.7.6 5.4 1 8 1.2l-2.1 1.3c-10 6.4-17.3 11.1-26.1 16.2-9.4-1.6-16.8-4.6-21.3-6.4l-1.1-.4c-10.3-3.9-17.5-9.4-17.1-11.6zM522.9 387c-2.5-4.5-5.2-9.2-7.6-13.8-2.5-4.8-5.2-9.9-7.5-14.7.9-3.3 1.7-6.6 2.6-9.8 2.4-7.6 4.2-14.6 5.4-19.9 2.7-11.2 4.9-20 10.4-26.3 7.8-1.8 15.4-3 22.7-3.4 9.6 7.7 22.8 23.1 31.7 53.6 1 3.4 1.8 7.2 2.4 11.4-13.7 11.8-38 18.2-60.1 22.9zm-4.1.9c-4.2.9-8.5 1.7-13.1 2.5-1.8.3-3.5.7-5.3 1 1.5-5.7 2.7-11.3 3.8-16.8l.4-2.1c.6-2.7 1.1-5.3 1.7-7.9 3.5 6.9 7.7 14.8 12.5 23.3zm-13.7-35.1c-6.5-13.9-10.4-24.9-11.1-31.2-.4-3.3-.5-6.1-.3-8.8 8.4-3.4 17.5-6.5 26.5-8.9-4 6.5-5.9 14.7-8.2 23.9-.3 1.1-.6 2.2-.8 3.3-1.3 4.9-2.7 10.5-4.5 16.4-.6 1.7-1.1 3.5-1.6 5.3zm27.5-55.7c2.2-1.3 4.7-2.5 7.5-3.7 1.4.7 2.6 1.4 3.8 2.1-3.5.4-7.2.9-11.3 1.6zm51.9 54.4c-3.2-10.7-12.2-36.5-29.2-52.5 8.7.1 15.9 1.5 21.9 4.2 10 4.5 16 12.8 17.9 24.6 2.1 13.5-.7 24.2-8.6 32.8-.5-3-1.2-6-2-9.1zm-84.1-55.4c4.6-4.6 11.5-7 20.5-7 2.1 0 4.2.1 6.4.3 2.5.2 5.2.8 7.8 1.8-2.2 1.1-4.1 2.2-5.9 3.3-2 1.4-3.8 2.9-5.2 4.4-9.4 2.2-19.4 5.3-29.7 9.3 1-5 3.1-9.1 6.1-12.1zM251 472.8c-2.5-5.1-3.9-7.9-7.7-7.9-3 0-4.6 3.2-6.1 5.9-1.4 2.8-3.2 6.2-5.9 6.5-.7-3 2.1-13 8-24.9 6.7-13.4 14.6-23.6 21.8-28 4.3-2.6 10.7-4.6 18.1-5.8-6.1 5.7-11.1 11.8-14.9 18.4-6.2 10.2-10 22.4-12 38.2-.5-.8-.9-1.7-1.3-2.4zm1.4 63c1.7-7.9 2-18 2.2-29.4.1-7.3.3-13.1.6-18.5 3.7 5.6 8 10.1 12.1 14.3l1.1 1.2c4.7 4.9 9.6 10 13.8 16.9 4.4 7.3 4.8 15.9 1.1 22-2.3 3.9-5.8 5.9-9.9 5.6-7.7-.6-14.7-.9-20.8-1.2l-3.5-.2c1.3-3.3 2.4-6.9 3.3-10.7zm-51.5 19.4c1.8-3.2 4.6-5.4 23.3-5.4 5.1 0 11.4.2 19.1.4-7.7 17.4-20.2 29.7-29.5 35.5-1.4.9-2.8 1.8-4.1 2.8-5-12.5-11.2-29-8.8-33.3zm1 92.3-.6 1.6c-.6 1.6-1.2 3.2-1.8 4.9-2.9 7.7-5.9 15.7-9.5 24l-1.7 4c-10 23.3-17.2 40.2-35.5 49.1-17.9 8.6-23.1 9.3-24.5 9.3 0-4.9 2.2-18.2 6.5-19.2 2.2-.5 5.2-.6 8.2-.7 5.8-.1 12.4-.2 13.3-4.6.2-1 .3-2.1.4-3.1v-.1c.3-3.2.5-5.2 3.7-6.3 5.5-1.8 8.7-9.4 13.6-21.1l1.3-3c1-2.3 2.1-4.8 3.3-7.5 7.6-16.9 15.2-43.9 17.1-55.1 1.7-9.9 5.7-17.9 12.4-24.3 1.9 5.1 4.3 11.4 6.3 17.7.2.5.3 1 .5 1.6.1.4.3.8.4 1.1-5.1 9.3-9 19.7-13.4 31.7zm37.5 1.4c.3 3.5.8 6.8 1.3 10.4l.2 1.5c1.8 11.4 3.6 23.2-.8 34.8-7 18.1-15 28.2-17.8 28.2-.2-.1-1.4-.9-2.5-3.9-2.5-6.4-2.6-15.1-.2-17.3.5-.5 1.1-1 1.7-1.4.6-.5 1.2-1 1.7-1.5 4.1-3.4 8.4-6.9 8.4-10.3 0-.6-.2-2.1-1.7-3.3-3.1-2.4-3.9-3.1-1.4-11.3 2.8-9.2-1-34.9-8.6-58.7.4-.6.8-1.3 1.1-1.9l.5-.9c2.2-3.7 5.7-7.1 10.6-10.2 1.9 9.5 6.5 34.5 7.5 45.8zm15.8-60.3c-6.5 2.4-13.8 5.1-20.1 8.3-.5-2.5-1.1-5.2-1.4-7.4l-.7-3.5c-.3-1.7 0-2.9 1.2-3.9 1.4-1.2 4.1-1.9 7.4-1.9 2.6 0 6.6.4 11.3 2.2 2.7 1.1 6.1 2.2 9.9 3.3-2.6 1-5.2 1.9-7.6 2.9zm100.1-44.3c-.7 27.8-11.5 42.2-33.1 43.9-17.9 1.5-36.2-1.4-47-3.6 3.3-1.6 6.1-3.2 8.7-4.9 2.4-1.7 4.7-3.2 7-4.7 15.7-10.2 28.1-18.2 49.1-55.6 1.7-2.9 3.2-5.8 4.7-8.6 5.6 10.4 10.9 22.4 10.6 33.5zm-10.7-42.4c-4.7-8.7-8.7-16.1-8.1-20.2.9-6.1 5.3-8.1 18.6-8.3-2.3 8.9-5.8 18.5-10.5 28.5zm-12.1-20.7c-.8 5.5 3.6 13.5 8.6 22.8.4.7.8 1.5 1.3 2.3-1.8 3.6-3.7 7.3-5.8 11-20.4 36.4-32.4 44.2-47.6 54.2l-.1.1c-2.3 1.5-4.6 3-7.1 4.7-3.4 2.3-7.5 4.5-12.9 6.9-6.5-1.6-11.6-3.3-14.7-4.5-7.4-2.8-17.6-3.9-22.7.4-2.2 1.8-3.1 4.5-2.6 7.7l.7 3.5c.4 2.1.9 4.8 1.5 7.8l.2.9c-6.1 3.6-10.4 7.6-13.2 12.2-2-6-4.4-12.1-6.6-18l-.2-.5c.7-.6 1.5-1.1 2.2-1.7.8-.6 1.6-1.2 2.3-1.8 10.1-6.2 23.7-19.6 31.7-38.7 6.9.4 15.3.9 25.5 1.5 5.5.3 10.5-2.4 13.6-7.6 4.5-7.4 4.1-17.7-1.1-26.1-4.5-7.3-9.5-12.5-14.4-17.6l-1.1-1.1c-4.6-4.8-8.9-9.3-12.8-15.5-.4-.7-.8-1.4-1.2-2-.2-.3-.3-.6-.5-.9 1.6-17.9 5.4-31.4 12-42.2 4.7-7.8 11.2-15.1 18.7-21.2 23.5-2.2 49.9 2.2 61.4 10.2 9.7 6.8 12.7 21.5 8.4 41.6-14.7 0-22 1.9-23.5 11.6zM379 470l-3.8-.1c-5.7-.2-10.7-.4-15.1-.4.6-2.7 1-5.4 1.3-8.1 2.1-17.3-1.8-30.1-11.5-36.8-11.5-7.9-34.8-12.5-57.7-11.4 7.5-5.2 15.8-9.4 24.1-12 7.3-2.3 16.9-4.8 27.1-7.5l3-.8c17.8-4.6 42.2-10.8 54.8-17.1 9.4-4.6 17.7-12 27.3-20.5l.4-.4c9.3-8.3 21-18.6 36-28 6.9-4.3 15.6-8.6 24.6-12.4-.1 2.4.1 4.9.4 7.6.8 7.5 5.4 19.9 13.5 36.9-.6 2.7-1.2 5.4-1.8 8.2-.3 1.6-.7 3.2-1 4.9-1.3 6.5-2.8 13.4-4.6 20.3-1 .2-2 .4-2.9.5-1.2.2-2.3.4-3.5.6-10.3 1.8-21.4 3.9-32.6 6.2-21.4 4.4-41.1 12.4-55.7 22.8-14.1 9.9-22.3 21.3-22.6 31.3-.2 6.3 2.8 11.9 8.6 16.2-2.5.1-5.1.1-8.3 0zm111.3-72.6c1.5-.2 3.1-.5 4.5-.8-4.9 16.8-11.1 28.7-19.5 37.4-17.7 18.3-50.3 32.6-81.3 35.5-7.7-3.9-11.6-9.2-11.4-15.6.3-8.5 7.7-18.6 20.4-27.7 14.2-10.2 33.6-18.2 54.7-22.5 12.3-2.5 22.9-4.6 32.6-6.3zM546 526.7c-.3-.1-.3-.8-.1-1.6 1.2-4.9 8.9-13.2 14.6-13.2.2 0 .5 0 .7-.1 5.6.4 16.5.1 18.8-4.1.7-1.5.5-3-.6-4.4v-.2c.6-2.9 9.5-9.7 19.8-15.3 5.6-3.1 16.9-19.5 20.2-24.5 1.4-2.1 14-21 14-25.9 0-1.5-.9-2.1-1.2-2.3l-.1-.1c-2.7-1.4-8.6 1.9-35.4 19.4l-2.9 1.9c-6.5 4.2-12.6 8.2-16.5 10.4-5.5 3.2-10.1 4.2-13.8 2.9-3.2-1.1-5.7-4.1-7.6-8.9l-.5-1.2c-2.2-5.6-5.1-13.3-12.3-16.1-5.9-2.3-13.5-1.1-23.3 3.7-2.6 1.3-5.3 2.8-8.1 4.3l-3.9 2.1c-24.5 13.4-58.1 31.8-103.8 19.6-.7-.2-1.5-.4-2.2-.6 29.8-4.5 59.4-18.2 76.4-35.7 9.3-9.7 16-22.7 21.1-41.1 8.8-1.7 15.5-3 21.6-4.2 9.2 15.9 18.3 29.7 24.8 38 18.9 24 26.3 31.6 43.7 18.7.6-.4 1.1-.9 1.7-1.3l2.4-1.8c14.4-10.9 38.6-29.2 46.4-28.1 3.5.5 6.4 3 8.9 7.5-3.1 10.1-12.2 24.9-21.6 39.4-9.8 15.2-21 28.2-29.9 38.7-3.6 4.3-7.5 8.8-11 13.2-11.3 13.8-34.7 13-40.3 10.9zm86.8-134.3c4-2 7.5-3.8 8.6-4.2 7.7-2.7 12.8-.1 16.3 8.4 3.1 7.5 15.6 74.8 13.7 86.2-2.2 13.2-18.6 35.6-27.3 41.6-2.1 1.4-2.9 1.4-3 1.3-1-.2-1.6-1.8-1.8-2.7-1.4-6.1 1.6-16.1 4-18 .9-.7 1.8-1.2 2.6-1.7l.8-.5c3.1-1.8 6.9-4.1 4.7-9.6-1.3-3.2-1.4-3.3 4.6-6l.7-.3c6.5-3 5.7-8.9 4.7-17.1l-.3-2.1c-.1-1.1-.3-2.3-.4-3.6-.2-1-.3-2.3-.4-3.7l-.1-.9c-.9-9.4-2.4-25-7.4-35.4 1-3.9 1-7.2.1-9.8-1.7-4.5-4.5-7.7-8.1-9.2-3.8-1.6-8.4-1.3-13.2.8-1 .4-2.1.9-3.3 1.5-.8.3-1.5.7-2.4 1.1l-.3.1c-9.6 4.5-29.5 13.7-35.4 10.9-.7-.3-2-1.9-2.3-8.1 11-2.5 28-10.6 44.9-19zm-44 30.7c7.2 3.5 23.2-3.5 39.1-11 1.7-.8 3.2-1.5 4.5-2.1l1.1-.5c3.7-1.7 7.3-2 10-.8 2.6 1.1 4.6 3.4 5.9 6.8.3.9.5 2 .5 3.2-2.6-3.3-5.8-5.3-9.4-5.8-8.7-1.1-29.2 13.7-49.3 28.9l-2.4 1.8c-.6.4-1.2.9-1.7 1.3-14.6 10.9-19.5 5.8-38.1-17.9-6.4-8.1-15-21.3-23.8-36.4 20.9-4.4 35.1-8.9 46.1-14.3 4.8-2.3 9-4.9 12.6-7.7.5 4.6.7 9.7.7 15.6-8.3 15.3-10.5 23.5-7 26.5 1.4 1.2 3.6 1.6 6.8 1.3.2 4.7 1 9.5 4.4 11.1zm-4.9-14.9c-2.8.4-3.7-.1-4-.3 0 0-1.9-1.9 4.3-14.6 0 1.1-.1 2.2-.1 3.3v.7c-.2 3.9-.3 7.6-.2 10.9zm27.6-67.8c-.6.9-1.1 1.8-1.7 2.7-9.2 14-16.3 25.3-21.7 34.5-.1-3.9-.3-7.9-.9-11.9 10.4-9.8 14.3-22.2 11.7-38.1-2.2-13.2-9-22.5-20.3-27.6-7.4-3.4-16.8-4.9-28-4.5-1.9-1.5-3.8-2.8-5.6-3.8 5.5-2.1 11.7-4.1 18.3-6.3l3.5-1.1c12.2-3.9 27.5-8.8 38.8-14.6 7.1-3.6 13.2-6.9 19.1-10.3 8.8 1.3 17.1 1.2 25.3-.2 8.3-1.3 18-5.6 24.9-10.9 4.9-3.8 9-10.6 9.6-12.6.9-2.5 1.9-7.4 2.1-13.7.5-.5 1.1-1 1.7-1.5 7.3-6.5 11.4-19.1 10.5-32.9-1.1-19-10.3-35.9-25.3-46.4-8.4-5.9-17.9-10.7-27.1-15.4l-.2-.1c-16.3-8.3-31.8-16.1-37.5-28.6-8.1-17.7-25.7-35.5-49.9-50.9 15.5 5.3 39.3 15.3 47.4 29 2.5 4.3 4.2 7.7 5.5 10.4l.5 1c3.5 7.5 5.3 11.3 18.8 21.5 7.6 5.8 16.8 10.5 26.5 15.4l1.5.8c21.2 10.7 43.1 21.9 47.8 43.9 5.8 27.4-2.5 42.1-8.1 51.8-3.1 5.3-5.1 9-4.5 12.8 1.6 10.6 16.7 20.5 29.1 26.9 7.1 3.7 12.7 5.1 16.4 6.1 3.9 1 6.1 1.6 7.7 3.3 4.1 4.4 9.1 13.8 8.4 16.9-.4 1.6-.4 1.6-2 2.3-1.6.7-3.6 1.6-6.7 3.9-6.5 4.8-11.4 6.3-25.6 3.3-15.8-3.4-32.1-4.3-44.7-2.5-25.4 3.8-50.4 23.9-61.9 41.9-.9 1.7-2.1 3.4-3.4 5.5z" style="fill:#87A556"/></svg>
