<svg width="596" height="596" viewBox="0 0 596 596" fill="none" xmlns="http://www.w3.org/2000/svg">
<g clip-path="url(#clip0_275_2535)">
<path d="M340.6 578.9L257.1 590.9L189.5 535.5L247.6 501.1L312.7 519.8L340.6 578.9Z" stroke="#87a556" stroke-width="1.3088" stroke-miterlimit="10"/>
<path d="M298.9 278.099L183.6 244.299L153 191.399" stroke="#87a556" stroke-width="1.3088" stroke-miterlimit="10"/>
<path d="M298.9 278.099L412.2 239.299L453.6 192.899" stroke="#87a556" stroke-width="1.3088" stroke-miterlimit="10"/>
<path d="M298.9 308.5L182.7 274.1L133.9 232.6" stroke="#87a556" stroke-width="1.3088" stroke-miterlimit="10"/>
<path d="M298.9 308.5L415.6 277.4L461.3 232.6" stroke="#87a556" stroke-width="1.3088" stroke-miterlimit="10"/>
<path d="M263.6 226L220 139L242.3 61.6996L176.9 5.09961L192.3 81.7996L145.9 10.2996V94.7996L220 139" stroke="#87a556" stroke-width="1.3088" stroke-miterlimit="10"/>
<path d="M331.6 227.8L381.7 141.5" stroke="#87a556" stroke-width="1.3088" stroke-miterlimit="10"/>
<path d="M284.2 189.1L261.2 123.1" stroke="#87a556" stroke-width="1.3088" stroke-miterlimit="10"/>
<path d="M337.3 123.1L313.7 189.1" stroke="#87a556" stroke-width="1.3088" stroke-miterlimit="10"/>
<path d="M152.6 379.2L186.3 354.2C186.3 354.2 253.6 329 256 327.2L183.3 305.6L120 316.9" stroke="#87a556" stroke-width="1.3088" stroke-miterlimit="10"/>
<path d="M453.3 379.3L412.1 354.8C412.1 354.8 346.1 329.5 340.2 327.3L416.7 307.6L475.1 318" stroke="#87a556" stroke-width="1.3088" stroke-miterlimit="10"/>
<path d="M255.9 327.3H340.3" stroke="#87a556" stroke-width="1.3088" stroke-miterlimit="10"/>
<path d="M335.4 380.699L266 380.899" stroke="#87a556" stroke-width="1.3088" stroke-miterlimit="10"/>
<path d="M299.3 446.9L335.4 380.7L347 261.5L313.7 189.1H297.6H284.2L243.6 261.9L266 380.9L299.3 446.9Z" stroke="#87a556" stroke-width="1.3088" stroke-miterlimit="10"/>
<path d="M299.3 446.899L312.7 519.799" stroke="#87a556" stroke-width="1.3088" stroke-miterlimit="10"/>
<path d="M247.6 501.099L299.3 446.899" stroke="#87a556" stroke-width="1.3088" stroke-miterlimit="10"/>
<path d="M381.7 141.499L371.3 59.8994L446.6 17.3994L416.2 89.8994L475.9 28.6994L459.2 111.399L381.7 141.499Z" stroke="#87a556" stroke-width="1.3088" stroke-miterlimit="10"/>
<path d="M247.6 505.4C249.92 505.4 251.8 503.52 251.8 501.2C251.8 498.88 249.92 497 247.6 497C245.28 497 243.4 498.88 243.4 501.2C243.4 503.52 245.28 505.4 247.6 505.4Z" fill="#87a556"/>
<path d="M478.3 27.8998C478.7 29.1998 478 30.5998 476.6 31.0998C475.3 31.4998 473.8 30.7998 473.4 29.4998C473 28.1998 473.7 26.7998 475.1 26.2998C476.5 25.8998 477.9 26.5998 478.3 27.8998Z" fill="#87a556"/>
<path d="M145.9 16.6C149.379 16.6 152.2 13.7794 152.2 10.3C152.2 6.82061 149.379 4 145.9 4C142.421 4 139.6 6.82061 139.6 10.3C139.6 13.7794 142.421 16.6 145.9 16.6Z" fill="#87a556"/>
<path d="M145.9 98.4996C147.944 98.4996 149.6 96.8431 149.6 94.7996C149.6 92.7562 147.944 91.0996 145.9 91.0996C143.857 91.0996 142.2 92.7562 142.2 94.7996C142.2 96.8431 143.857 98.4996 145.9 98.4996Z" fill="#87a556"/>
<path d="M242.3 65.4C244.344 65.4 246 63.7435 246 61.7C246 59.6565 244.344 58 242.3 58C240.257 58 238.6 59.6565 238.6 61.7C238.6 63.7435 240.257 65.4 242.3 65.4Z" fill="#87a556"/>
<path d="M192.3 86.1994C194.73 86.1994 196.7 84.2295 196.7 81.7994C196.7 79.3694 194.73 77.3994 192.3 77.3994C189.87 77.3994 187.9 79.3694 187.9 81.7994C187.9 84.2295 189.87 86.1994 192.3 86.1994Z" fill="#87a556"/>
<path d="M223 138.2C223.1 139.8 222 141.1 220.4 141.3C219.7 141.4 219.1 141.2 218.5 140.8C217.8 140.3 217.4 139.6 217.3 138.7C217.2 137.1 218.3 135.8 219.9 135.6C221.5 135.5 222.9 136.7 223 138.2Z" fill="#87a556"/>
<path d="M261.2 126.799C263.52 126.799 265.4 124.919 265.4 122.599C265.4 120.28 263.52 118.399 261.2 118.399C258.88 118.399 257 120.28 257 122.599C257 124.919 258.88 126.799 261.2 126.799Z" fill="#87a556"/>
<path d="M337.3 127.1C339.62 127.1 341.5 125.22 341.5 122.9C341.5 120.581 339.62 118.7 337.3 118.7C334.98 118.7 333.1 120.581 333.1 122.9C333.1 125.22 334.98 127.1 337.3 127.1Z" fill="#87a556"/>
<path d="M381.7 145.7C384.02 145.7 385.9 143.819 385.9 141.5C385.9 139.18 384.02 137.3 381.7 137.3C379.38 137.3 377.5 139.18 377.5 141.5C377.5 143.819 379.38 145.7 381.7 145.7Z" fill="#87a556"/>
<path d="M459.1 114.5C460.757 114.5 462.1 113.157 462.1 111.5C462.1 109.843 460.757 108.5 459.1 108.5C457.443 108.5 456.1 109.843 456.1 111.5C456.1 113.157 457.443 114.5 459.1 114.5Z" fill="#87a556"/>
<path d="M446.6 21.6002C448.92 21.6002 450.8 19.7198 450.8 17.4002C450.8 15.0806 448.92 13.2002 446.6 13.2002C444.28 13.2002 442.4 15.0806 442.4 17.4002C442.4 19.7198 444.28 21.6002 446.6 21.6002Z" fill="#87a556"/>
<path d="M371.3 64.1002C373.62 64.1002 375.5 62.2198 375.5 59.9002C375.5 57.5806 373.62 55.7002 371.3 55.7002C368.98 55.7002 367.1 57.5806 367.1 59.9002C367.1 62.2198 368.98 64.1002 371.3 64.1002Z" fill="#87a556"/>
<path d="M331.6 232C333.92 232 335.8 230.119 335.8 227.8C335.8 225.48 333.92 223.6 331.6 223.6C329.28 223.6 327.4 225.48 327.4 227.8C327.4 230.119 329.28 232 331.6 232Z" fill="#87a556"/>
<path d="M313.7 195.4C317.179 195.4 320 192.579 320 189.1C320 185.62 317.179 182.8 313.7 182.8C310.221 182.8 307.4 185.62 307.4 189.1C307.4 192.579 310.221 195.4 313.7 195.4Z" fill="#87a556"/>
<path d="M284.2 194.7C287.569 194.7 290.3 191.969 290.3 188.6C290.3 185.231 287.569 182.5 284.2 182.5C280.831 182.5 278.1 185.231 278.1 188.6C278.1 191.969 280.831 194.7 284.2 194.7Z" fill="#87a556"/>
<path d="M263.6 230.2C265.92 230.2 267.8 228.319 267.8 226C267.8 223.68 265.92 221.8 263.6 221.8C261.28 221.8 259.4 223.68 259.4 226C259.4 228.319 261.28 230.2 263.6 230.2Z" fill="#87a556"/>
<path d="M243.6 265.9C245.92 265.9 247.8 264.02 247.8 261.7C247.8 259.38 245.92 257.5 243.6 257.5C241.28 257.5 239.4 259.38 239.4 261.7C239.4 264.02 241.28 265.9 243.6 265.9Z" fill="#87a556"/>
<path d="M153 195.6C155.32 195.6 157.2 193.72 157.2 191.4C157.2 189.081 155.32 187.2 153 187.2C150.68 187.2 148.8 189.081 148.8 191.4C148.8 193.72 150.68 195.6 153 195.6Z" fill="#87a556"/>
<path d="M133.9 236.799C136.22 236.799 138.1 234.919 138.1 232.599C138.1 230.28 136.22 228.399 133.9 228.399C131.58 228.399 129.7 230.28 129.7 232.599C129.7 234.919 131.58 236.799 133.9 236.799Z" fill="#87a556"/>
<path d="M183.2 276.7C184.857 276.7 186.2 275.357 186.2 273.7C186.2 272.043 184.857 270.7 183.2 270.7C181.543 270.7 180.2 272.043 180.2 273.7C180.2 275.357 181.543 276.7 183.2 276.7Z" fill="#87a556"/>
<path d="M249.6 298.1C251.92 298.1 253.8 296.22 253.8 293.9C253.8 291.581 251.92 289.7 249.6 289.7C247.28 289.7 245.4 291.581 245.4 293.9C245.4 296.22 247.28 298.1 249.6 298.1Z" fill="#87a556"/>
<path d="M343.7 300.7C346.02 300.7 347.9 298.819 347.9 296.5C347.9 294.18 346.02 292.3 343.7 292.3C341.38 292.3 339.5 294.18 339.5 296.5C339.5 298.819 341.38 300.7 343.7 300.7Z" fill="#87a556"/>
<path d="M461.3 235.6C462.957 235.6 464.3 234.256 464.3 232.6C464.3 230.943 462.957 229.6 461.3 229.6C459.643 229.6 458.3 230.943 458.3 232.6C458.3 234.256 459.643 235.6 461.3 235.6Z" fill="#87a556"/>
<path d="M415.7 280.9C417.523 280.9 419 279.422 419 277.6C419 275.777 417.523 274.3 415.7 274.3C413.878 274.3 412.4 275.777 412.4 277.6C412.4 279.422 413.878 280.9 415.7 280.9Z" fill="#87a556"/>
<path d="M340.3 331.5C342.62 331.5 344.5 329.619 344.5 327.3C344.5 324.98 342.62 323.1 340.3 323.1C337.98 323.1 336.1 324.98 336.1 327.3C336.1 329.619 337.98 331.5 340.3 331.5Z" fill="#87a556"/>
<path d="M412.1 359.1C414.42 359.1 416.3 357.22 416.3 354.9C416.3 352.581 414.42 350.7 412.1 350.7C409.78 350.7 407.9 352.581 407.9 354.9C407.9 357.22 409.78 359.1 412.1 359.1Z" fill="#87a556"/>
<path d="M453.3 382.8C455.233 382.8 456.8 381.233 456.8 379.3C456.8 377.367 455.233 375.8 453.3 375.8C451.367 375.8 449.8 377.367 449.8 379.3C449.8 381.233 451.367 382.8 453.3 382.8Z" fill="#87a556"/>
<path d="M120 321.1C122.32 321.1 124.2 319.22 124.2 316.9C124.2 314.581 122.32 312.7 120 312.7C117.68 312.7 115.8 314.581 115.8 316.9C115.8 319.22 117.68 321.1 120 321.1Z" fill="#87a556"/>
<path d="M183.3 308.7C184.957 308.7 186.3 307.357 186.3 305.7C186.3 304.043 184.957 302.7 183.3 302.7C181.643 302.7 180.3 304.043 180.3 305.7C180.3 307.357 181.643 308.7 183.3 308.7Z" fill="#87a556"/>
<path d="M186 358.299C188.32 358.299 190.2 356.419 190.2 354.099C190.2 351.78 188.32 349.899 186 349.899C183.68 349.899 181.8 351.78 181.8 354.099C181.8 356.419 183.68 358.299 186 358.299Z" fill="#87a556"/>
<path d="M152.6 383.5C154.92 383.5 156.8 381.619 156.8 379.3C156.8 376.98 154.92 375.1 152.6 375.1C150.28 375.1 148.4 376.98 148.4 379.3C148.4 381.619 150.28 383.5 152.6 383.5Z" fill="#87a556"/>
<path d="M335.4 385C337.72 385 339.6 383.119 339.6 380.8C339.6 378.48 337.72 376.6 335.4 376.6C333.08 376.6 331.2 378.48 331.2 380.8C331.2 383.119 333.08 385 335.4 385Z" fill="#87a556"/>
<path d="M299.3 451.1C301.62 451.1 303.5 449.22 303.5 446.9C303.5 444.581 301.62 442.7 299.3 442.7C296.98 442.7 295.1 444.581 295.1 446.9C295.1 449.22 296.98 451.1 299.3 451.1Z" fill="#87a556"/>
<path d="M312.7 524.3C315.185 524.3 317.2 522.285 317.2 519.8C317.2 517.315 315.185 515.3 312.7 515.3C310.215 515.3 308.2 517.315 308.2 519.8C308.2 522.285 310.215 524.3 312.7 524.3Z" fill="#87a556"/>
<path d="M189.5 538.5C191.157 538.5 192.5 537.157 192.5 535.5C192.5 533.843 191.157 532.5 189.5 532.5C187.843 532.5 186.5 533.843 186.5 535.5C186.5 537.157 187.843 538.5 189.5 538.5Z" fill="#87a556"/>
<path d="M256.4 595.3C259.051 595.3 261.2 593.151 261.2 590.5C261.2 587.849 259.051 585.7 256.4 585.7C253.749 585.7 251.6 587.849 251.6 590.5C251.6 593.151 253.749 595.3 256.4 595.3Z" fill="#87a556"/>
<path d="M340.5 582.7C342.82 582.7 344.7 580.819 344.7 578.5C344.7 576.18 342.82 574.3 340.5 574.3C338.18 574.3 336.3 576.18 336.3 578.5C336.3 580.819 338.18 582.7 340.5 582.7Z" fill="#87a556"/>
<path d="M255.9 331.5C258.22 331.5 260.1 329.619 260.1 327.3C260.1 324.98 258.22 323.1 255.9 323.1C253.58 323.1 251.7 324.98 251.7 327.3C251.7 329.619 253.58 331.5 255.9 331.5Z" fill="#87a556"/>
<path d="M298.9 312.7C301.22 312.7 303.1 310.819 303.1 308.5C303.1 306.18 301.22 304.3 298.9 304.3C296.58 304.3 294.7 306.18 294.7 308.5C294.7 310.819 296.58 312.7 298.9 312.7Z" fill="#87a556"/>
<path d="M298.9 282.299C301.22 282.299 303.1 280.419 303.1 278.099C303.1 275.78 301.22 273.899 298.9 273.899C296.58 273.899 294.7 275.78 294.7 278.099C294.7 280.419 296.58 282.299 298.9 282.299Z" fill="#87a556"/>
<path d="M453.6 195.899C455.257 195.899 456.6 194.556 456.6 192.899C456.6 191.243 455.257 189.899 453.6 189.899C451.943 189.899 450.6 191.243 450.6 192.899C450.6 194.556 451.943 195.899 453.6 195.899Z" fill="#87a556"/>
<path d="M475.2 320.399C476.581 320.399 477.7 319.28 477.7 317.899C477.7 316.519 476.581 315.399 475.2 315.399C473.819 315.399 472.7 316.519 472.7 317.899C472.7 319.28 473.819 320.399 475.2 320.399Z" fill="#87a556"/>
<path d="M416.9 310.299C418.391 310.299 419.6 309.091 419.6 307.599C419.6 306.108 418.391 304.899 416.9 304.899C415.409 304.899 414.2 306.108 414.2 307.599C414.2 309.091 415.409 310.299 416.9 310.299Z" fill="#87a556"/>
<path d="M347 266.199C349.43 266.199 351.4 264.229 351.4 261.799C351.4 259.369 349.43 257.399 347 257.399C344.57 257.399 342.6 259.369 342.6 261.799C342.6 264.229 344.57 266.199 347 266.199Z" fill="#87a556"/>
<path d="M176.9 11.3998C180.379 11.3998 183.2 8.5792 183.2 5.0998C183.2 1.62041 180.379 -1.2002 176.9 -1.2002C173.421 -1.2002 170.6 1.62041 170.6 5.0998C170.6 8.5792 173.421 11.3998 176.9 11.3998Z" fill="#87a556"/>
<path d="M416.3 96.1994C419.835 96.1994 422.7 93.334 422.7 89.7994C422.7 86.2648 419.835 83.3994 416.3 83.3994C412.765 83.3994 409.9 86.2648 409.9 89.7994C409.9 93.334 412.765 96.1994 416.3 96.1994Z" fill="#87a556"/>
<path d="M266 387.2C269.479 387.2 272.3 384.379 272.3 380.9C272.3 377.42 269.479 374.6 266 374.6C262.521 374.6 259.7 377.42 259.7 380.9C259.7 384.379 262.521 387.2 266 387.2Z" fill="#87a556"/>
<path d="M412.2 242.199C413.802 242.199 415.1 240.901 415.1 239.299C415.1 237.698 413.802 236.399 412.2 236.399C410.598 236.399 409.3 237.698 409.3 239.299C409.3 240.901 410.598 242.199 412.2 242.199Z" fill="#87a556"/>
<path d="M183.9 247.5C185.557 247.5 186.9 246.157 186.9 244.5C186.9 242.843 185.557 241.5 183.9 241.5C182.243 241.5 180.9 242.843 180.9 244.5C180.9 246.157 182.243 247.5 183.9 247.5Z" fill="#87a556"/>
</g>
<defs>
<clipPath id="clip0_275_2535">
<rect width="595.3" height="595.3" fill="#87a556"/>
</clipPath>
</defs>
</svg>
