<?xml version="1.0" encoding="UTF-8"?>
<svg id="Layer_1" data-name="Layer 1" xmlns="http://www.w3.org/2000/svg" viewBox="0 0 1000 1000">
  <defs>
    <style>
      .cls-1 {
        fill: none;
        stroke: #8BA65B;
        stroke-linecap: round;
        stroke-linejoin: round;
        stroke-width: 4.06px;
      }

      .cls-2 {
        fill: none;
      }

      .cls-2, .cls-3 {
        stroke-width: 0px;
      }

      .cls-3 {
        fill: #8BA65B;
      }
    </style>
  </defs>
  <rect class="cls-2" y="0" width="1000" height="1000"/>
  <g>
    <g>
      <g>
        <g>
          <polyline class="cls-1" points="823 482.52 823 633.79 767.46 685.71"/>
          <polyline class="cls-1" points="745.94 670.11 797.34 623.16 797.34 467.36 843.77 453.15 821.03 438.94"/>
          <line class="cls-1" x1="848.67" y1="441.85" x2="848.67" y2="644.42"/>
          <g>
            <path class="cls-1" d="m334.31,100s-234.31,233-234.31,234.31v331.37l234.31,234.31h204"/>
            <polyline class="cls-1" points="635.29 851.5 561.28 874.33 655.05 874.33 874.33 655.05 874.33 344.95 790.97 261.58"/>
            <polyline class="cls-1" points="344.35 819.37 344.35 838.2 321.72 814.98 151.33 644.42 177 633.79"/>
            <polyline class="cls-1" points="216.07 288.78 151.33 355.58 151.33 610.45"/>
            <polyline class="cls-1" points="412.89 177 366.21 177 264.46 275.4"/>
            <polyline class="cls-1" points="708.59 251.8 633.79 177 441.98 177"/>
            <polyline class="cls-1" points="224.91 683.11 177 633.79 177 453.62"/>
            <polyline class="cls-1" points="714.46 294.05 623.16 202.67 539.74 202.67 376.84 202.67 295.56 284.63"/>
            <polyline class="cls-1" points="202.67 492.98 202.67 623.16 250.63 670.25 271.16 652.35"/>
            <polyline class="cls-1" points="681.91 296.45 612.53 228.33 387.47 228.33 295.39 320.41"/>
            <polyline class="cls-1" points="270.64 651.67 228.33 612.53 227.77 478.02"/>
            <polyline class="cls-1" points="291.17 637.06 254 601.9 254 489.47"/>
            <polyline class="cls-1" points="296.36 607.37 279.66 591.27 279.66 517.12"/>
          </g>
          <g>
            <g>
              <polyline class="cls-1" points="427.04 254 601.9 254 668.52 320.62 699.76 317.57 727.32 275.73"/>
              <line class="cls-1" x1="329.7" y1="322.4" x2="398.1" y2="254"/>
              <polyline class="cls-1" points="639.43 327.83 591.27 279.66 408.73 279.66 360.18 327.91"/>
              <polyline class="cls-1" points="397.67 326.76 492.59 306.35 499.73 306.35 603.1 327.91"/>
              <line class="cls-1" x1="329.74" y1="322.52" x2="359.98" y2="327.95"/>
              <line class="cls-1" x1="264.47" y1="275.41" x2="295.34" y2="320.32"/>
              <polyline class="cls-1" points="228.19 478.08 246.63 486.99 306.84 497.19 346.64 474.74 322.15 544.14 298.85 609.76 296.36 607.37"/>
              <path class="cls-1" d="m201.64,465.25l-45.84-22.15,41.84-9.19,48.99-29.6,32.66-7.14,70.42,11.23-17.35-12.25-82.67-17.35-36.74-56.13,6.87-71.1c.57-.57,52-53.98,52-53.98l14.29-5.1-8.96,35.35,3.55-1.63,74.88-74.88h260.02v-25.26"/>
              <polyline class="cls-1" points="725.48 196.68 711.2 191.57 717.31 223.47 715.81 222.72 644.42 151.33"/>
              <polyline class="cls-1" points="686.85 587.48 702.46 634.51 722.92 653.79 771.67 612.53 771.67 476.31 745.69 486.99 745.69 600 725.94 617.59"/>
              <polyline class="cls-1" points="696.49 610.23 720.34 591.27 720.34 492.01 685.47 497.19 645.67 474.74 670.17 544.14 679.1 544.74"/>
              <polyline class="cls-1" points="693.34 163.96 655.05 125.67 344.95 125.67 301.83 168.78"/>
              <polyline class="cls-1" points="772.82 279.73 765.67 236.86 725.48 196.68 711.2 191.57"/>
              <path class="cls-1" d="m579.15,346.99l-18.71,18.21,25.41,51.24-31.14,14.68-58.87,48.28v138.03m259.52-299.73l-26.65,40.72-78.05,16.38-52.81.18,21.68,25.64-20.45,3.07m-84.6-70.83l76.66,16.49,35.94,3.48,86.27-14.38,36.14-54.87-8.74-37.77m-295.71,219.01l13.91-17.88-43.87-22.37,27.53-61.94-15.48,3.44-29.48,37.62-20.45-3.07,22.89-29.28-58.4,3.46-78.05-16.38-26.65-40.72-24.01,4.98m448.62,470.06l86.55-89.36-63.89-53.38-60.84-177.64,7.01-37.48,81.97-14.49,24.76,5.42,36.78,22.22-35.22,17.02-49.04,8.31-33.47-17.6,54.05-12.39,14.64,3.38m-458.31,0l20.27-4.5,54.05,14.64-38.19,16.47-49.04-8.31-35.22-17.02,36.78-22.22,24.76-5.42,83.04,14.49,9.34,39.81-28.67,77.04-20.47,55.26-15.11,43-63.56,52.52,86.22,90.21,165.41,55.45,143.73-48.18,8.21,22.83-150.41,48.9h-3.06s-117.81-39.5-117.81-39.5v19.32l-.02,6.83,53.52,15.93h-85.38l-219.28-219.28v-310.11l71.75-71.75"/>
              <path class="cls-1" d="m471.18,767.63l-102.39-34.32-23.33-24.76,21.48-19.57,35.98-109.87-9.34-40.12-27.46,83.5-18.8,53.5-34.38,31.32,43.16,45.81,140.05,46.95,140.05-46.95,43.16-45.81-34.38-31.32-50.26-134.59m-15.71,20.53l46.35,127.06,21.48,19.57-23.33,24.76-127.37,42.7"/>
              <polyline class="cls-1" points="409.04 637.97 386.56 701.96 377.97 709.79 381.47 713.5 496.16 751.94 610.85 713.5 614.34 709.79 605.76 701.96 587.48 652.15 581.76 676.7 564.57 703.71 496.16 727.88 411.59 699.53 416.77 683.85"/>
            </g>
            <polyline class="cls-1" points="469.2 335.17 449.77 415.96 474.98 428.79"/>
            <polyline class="cls-1" points="549.1 631.03 564.7 619.2 568.4 629.68 566.35 667.52 547.94 685.93 497.13 702.66 448.75 685.93 430.34 667.52 427.82 632.24 430.75 618.62 444.84 627"/>
            <path class="cls-1" d="m588.55,464.84l-12.77,7.3-10.95,40.14,42.63-47.7c.34-.36.56-.81.63-1.3l4.21-26.09c.33-2.02-1.78-3.55-3.6-2.62l-46.53,23.86c-.6.31-1.05.84-1.25,1.49l-22.98,74.93c-.15.49-.15,1.02.01,1.51l19.88,60.97c.36,1.12-.1,2.34-1.12,2.93l-29.41,17.06c-1.61.94-3.65-.17-3.74-2.03l-5.62-118.54c-.02-.6.18-1.18.56-1.65l10.05-12.37-2.75-27.58"/>
            <path class="cls-1" d="m572.29,539.5l31.89-35.84c1.32-.97,3.19-.43,3.79,1.09l56.43,157.65c.14.39.37.74.67,1.02l44.93,40.94c1.03.94,1.09,2.54.14,3.56l-60.83,64.56c-.28.3-.63.52-1.02.65l-151.34,50.74c-.51.17-1.07.17-1.59,0l-127.4-42.71-8.88,20.64"/>
            <path class="cls-1" d="m420.92,546.28l-9.79-25.1c-.15-.39-.4-.73-.72-1l-18.57-19.34c-1.1-.93-2.75-.73-3.61.42h0c-.14.19-.25.39-.33.61l-22.72,57.44-20.52,55.41-16.75,47.66c-.14.39-.37.74-.67,1.02l-44.93,40.94c-1.03.94-1.09,2.54-.14,3.56l60.83,64.56c.28.3.63.52,1.02.65"/>
            <path class="cls-1" d="m403.37,460.28l17.33,11.86,13.64,44.42-47.78-51.99c-.33-.36-.55-.81-.63-1.29l-4.23-26.21c-.32-2,1.74-3.53,3.56-2.64l49.22,24c.62.3,10.34,5.71,10.54,6.37l13.72,70.05c.15.49.15,1.02-.01,1.51l-19.69,60.38c-.37,1.14.12,2.39,1.18,2.96l28.48,15.57c1.6.88,3.57-.21,3.69-2.03l5.38-115.83-12.37-6.82"/>
            <polyline class="cls-1" points="495.84 479.4 473.48 467.91 550.32 403.95 533.13 358.57 490.51 351.08 487.15 369.39 462.91 365.25"/>
            <line class="cls-1" x1="496.16" y1="751.94" x2="496.16" y2="776"/>
            <line class="cls-1" x1="623.53" y1="733.31" x2="636.21" y2="753.12"/>
            <line class="cls-1" x1="356.11" y1="753.12" x2="344.02" y2="773.13"/>
            <line class="cls-1" x1="308.09" y1="650" x2="327.91" y2="662.4"/>
            <polyline class="cls-1" points="492.59 306.35 495.01 329.16 401.18 349.34 365.25 352.82 278.98 338.44 242.84 283.57 252.85 248.51"/>
            <line class="cls-1" x1="617.78" y1="600.1" x2="636.51" y2="592.84"/>
            <polyline class="cls-1" points="482.93 637.62 489.52 619.79 496.13 618.74 502.72 619.79 518.86 663.37 522.29 673.15 496.13 681.92 469.96 673.15 476.26 657.07 491.97 662.48 496.13 651.25"/>
          </g>
          <polyline class="cls-1" points="795.27 378.95 795.27 404.65 767.85 385.8 795.23 341.29 823 369.06 823 438.93 822.92 439.96 794.67 433.92 745.69 404.32 713.03 397.18 642.61 408.4 659.96 396.16 742.63 378.81 779.37 322.68 772.82 279.73 848.67 355.58 848.67 644.42 671.59 817.24 661.38 793.03"/>
          <line class="cls-1" x1="177" y1="437.81" x2="176.81" y2="366.44"/>
          <polyline class="cls-1" points="176.89 366.32 199.71 343.5 225.52 384.79 200.59 400.27 198.87 384.79"/>
          <polyline class="cls-1" points="492.62 125.51 492.61 100 665.69 100 900 334.31 900 665.69 665.69 900 538.31 900"/>
          <line class="cls-1" x1="441.99" y1="152.88" x2="441.99" y2="177.02"/>
          <line class="cls-1" x1="536.71" y1="227.26" x2="536.71" y2="202.67"/>
          <polyline class="cls-1" points="397.67 326.76 423.94 300.49 575.91 300.49 603.64 327.19"/>
          <polyline class="cls-1" points="682.64 520.29 699.78 519.43 699.78 574.27 686.93 587.13"/>
          <polyline class="cls-1" points="309.05 577.7 300.91 569.56 300.91 518.58 313.34 518.58"/>
          <line class="cls-1" x1="823" y1="633.79" x2="848.67" y2="644.42"/>
          <line class="cls-1" x1="849.26" y1="552.7" x2="872.24" y2="552.7"/>
          <line class="cls-1" x1="408.73" y1="279.66" x2="398.1" y2="254"/>
          <g>
            <polyline class="cls-1" points="344.35 819.37 344.35 838.2 321.72 814.98 151.33 644.42 177 633.79"/>
            <polyline class="cls-1" points="224.91 683.11 177 633.79 177 453.62"/>
            <polyline class="cls-1" points="714.46 294.05 623.16 202.67 539.74 202.67 376.84 202.67 295.56 284.63"/>
            <line class="cls-1" x1="270.64" y1="651.67" x2="228.33" y2="612.53"/>
            <polyline class="cls-1" points="296.36 607.37 279.66 591.27 279.66 517.12"/>
          </g>
        </g>
        <line class="cls-1" x1="476.24" y1="541.8" x2="494.22" y2="551.61"/>
        <line class="cls-1" x1="728.71" y1="358.42" x2="742.63" y2="378.81"/>
        <line class="cls-1" x1="495.36" y1="823.86" x2="495.36" y2="848.19"/>
        <line class="cls-1" x1="497.13" y1="702.66" x2="496.56" y2="727.22"/>
        <line class="cls-1" x1="444.83" y1="299.33" x2="444.83" y2="279.76"/>
      </g>
      <line class="cls-1" x1="360.88" y1="291.31" x2="342.37" y2="274.56"/>
    </g>
    <g>
      <circle class="cls-3" cx="481.9" cy="398.9" r="5.61"/>
      <circle class="cls-3" cx="505.27" cy="386.59" r="5.61"/>
      <path class="cls-3" d="m494.56,413.35c-4.04-.87-7.42-3.45-9.32-7.11-1.5.68-3.18.89-4.8.59,2.3,5.64,7.17,9.74,13.15,11.03,1.31.28,2.65.42,3.99.41-1.03-1.36-1.6-2.99-1.64-4.69-.46-.05-.92-.13-1.38-.22h0s0,0,0,0Z"/>
      <circle class="cls-3" cx="504.01" cy="413.38" r="5.61"/>
      <path class="cls-3" d="m511.82,411.31c1.75-2.2,2.97-4.8,3.57-7.57,1.03-4.82.07-9.88-2.65-13.98-.65,1.52-1.74,2.81-3.16,3.7,1.51,2.85,1.98,6.15,1.3,9.32-.33,1.55-.92,3.01-1.75,4.35,1.32,1.08,2.25,2.54,2.69,4.18h0,0Z"/>
      <path class="cls-3" d="m481.46,390.85c.14,0,.29-.01.43-.01.57,0,1.13.06,1.69.18.91.2,1.78.54,2.56,1.03,2.53-3.63,6.6-5.82,11.02-5.9.02-.42.08-.85.17-1.26.26-1.2.78-2.33,1.53-3.29-7.06-.56-13.92,3.08-17.41,9.25Z"/>
    </g>
  </g>
</svg>
