<?xml version="1.0" encoding="utf-8"?>
<!-- Generator: Adobe Illustrator 27.8.0, SVG Export Plug-In . SVG Version: 6.00 Build 0)  -->
<svg version="1.1" xmlns="http://www.w3.org/2000/svg" xmlns:xlink="http://www.w3.org/1999/xlink" x="0px" y="0px"
	 viewBox="0 0 606.1 572.7" style="enable-background:new 0 0 606.1 572.7;" xml:space="preserve">
<style type="text/css">
	.st0{display:none;}
	.st1{display:inline;fill:none;}
	.st2{display:inline;fill:#14152D;}
	.st3{fill:none;stroke:#84A154;stroke-width:2.8346;stroke-linecap:round;stroke-miterlimit:10;}
	.st4{fill:none;stroke:#84A154;stroke-width:1.9843;stroke-linecap:round;stroke-miterlimit:10;}
	.st5{fill:#84A154;stroke:#84A154;stroke-miterlimit:10;}
	.st6{fill:none;stroke:#84A154;stroke-width:1.8256;stroke-linecap:round;stroke-miterlimit:10;}
	.st7{fill:#84A154;}
	.st8{fill:none;stroke:#84A154;stroke-width:4.252;stroke-miterlimit:10;}
	.st9{fill:none;stroke:#84A154;stroke-width:1.9322;stroke-miterlimit:10;}
	.st10{fill:none;stroke:#84A154;stroke-width:2.778;stroke-miterlimit:10;}
	.st11{fill:none;stroke:#84A154;stroke-width:1.9843;stroke-miterlimit:10;}
	.st12{fill:none;stroke:#84A154;stroke-width:1.0038;stroke-miterlimit:10;}
	.st13{fill:#EB673A;stroke:#84A154;stroke-miterlimit:10;}
</style>
<g id="blue_background" class="st0">
	<rect x="16.7" y="-5.6" class="st1" width="593.9" height="598.3"/>
	<rect x="-305.9" y="-268.3" class="st2" width="1232.4" height="1132.2"/>
</g>
<g id="inner_circle">
	<path class="st3" d="M316.8,297.6 M315.6,298.5 M315.1,294.5 M315.5,302 M315.2,297.3"/>
	<path class="st4" d="M168.9,290.9c0-5.3,0.2-10.6,0.8-15.7c0.8-8.2,2.4-16.1,4.5-23.9c2.2-8.2,5.2-16,8.7-23.5
		c3.5-7.4,7.6-14.5,12.3-21.1c4.7-6.8,10-13.1,15.8-19c5.8-5.9,12.2-11.4,18.9-16.2c7-5.1,14.5-9.5,22.4-13.3
		c18.9-9,40-14.1,62.4-14.2c80.8-0.3,146.6,64.9,147,145.8s-64.9,146.6-145.8,147c-61.5,0.3-114.4-37.5-136.2-91.2
		C172.8,328.6,169,310.2,168.9,290.9z M315.1,294.9 M140.2,360.7l39.5-15.3 M315.5,294.7 M172.5,322.6l-41.9,8 M153.7,388l36.7-21.5
		 M315.2,295.1 M315.4,295 M171.6,412.7l32.6-27.1 M315.5,294.8 M191.8,433.1l28.4-31.5 M315.6,295.1 M216.6,451.7l22.6-36.3
		 M316,294.6 M126.9,299.9l42.3-1.2 M316,294.6 M127.7,269.4l42,5.7 M315.2,294.5 M133.3,239.1l40.8,12.2 M315.8,294.5 M144.8,208.7
		l38.2,19.1 M316,294.6 M160.6,181.3l34.5,25.4 M315.7,294.4 M211,187.6l-30-30.2 M315.7,294.4 M229.9,171.4l-24.4-34.8 M316,294.6
		 M234.4,119.4l13.3,28.8l4.6,9.9 M175.7,334.4l-23.7,7 M161.9,366.8l22.6-10.5 M176.2,391l20.3-15 M193.6,411.3l18-17.8
		 M312.9,296.7 M214.3,429.3l14.9-20.6 M314.1,297.6 M168.9,287.1l-24.4-1.2 M147.2,259.4l24.1,4.3 M154.6,230.3l23,9.9
		 M314.7,293.6 M145.7,314.6l24.7-3 M184.7,181.2l17.9,15.3 M167.3,204l21.1,12.9 M204.4,160l16,18.6 M332.5,290.1 M450.6,236.1
		 M439,212.7 M229.1,145.2 M314.5,296.4 M228.6,142.3l12.5,21.7 M315.4,294.8 M492.2,359.5l-40.9-15.3 M315.1,294.6 M501,329.1
		l-42.7-7.7 M440.8,365.4l38.1,21.5 M315.4,295 M315.1,294.9 M427.1,384.6l33.8,27.5 M315,294.7 M411.3,400.7l29.1,32.5 M315,295
		 M392.4,414.7l23.5,36.6 M314.6,294.5 M461.4,297.4l43.5,1 M314.6,294.5 M503.9,267.9l-43.2,6 M315.3,294.4 M456,250l41.7-13.2
		 M314.8,294.5 M447.1,226.6l38.7-19.8 M314.6,294.5 M434.7,205.6l34.6-25.9 M314.9,294.3 M418.7,186.7l30.4-30.6 M314.8,294.3
		 M424.6,135.2l-25,35.4 M314.6,294.5 M377.1,157.5l4.5-10l13.6-29 M455.2,333.2l25.3,7.1 M446.6,355.2l23.9,11.5 M434.7,375
		l21.7,14.6 M419.8,392.6l18.8,18 M317.7,296.6 M418,428.2l-15.8-20.3 M371.6,426.5l18.9,39.2 M382.2,421l13.2,22.1 M316.5,297.5
		 M461.6,285.8l25.9-1 M484.9,257.7l-25.9,4.7 M476.7,228.7L452.5,239 M315.9,293.5 M325.6,289.6 M486.2,313.5l-26-3.2 M427.1,195.6
		l18.7-16.4 M463.4,202.6l-22,13.3 M409.2,177.8l16.9-19.2 M201,188.3 M179.5,237.1 M191,213.6 M400.2,144.5 M316,296.3
		 M388.4,163.3l12.3-22.4 M250,422.5l-12.7,22 M243.3,465l18.5-38.5"/>
</g>
<g id="outer_circle_copy">
	<g>
		<path class="st4" d="M148.2,135.1c0-5.5,4.4-9.9,9.9-9.9c5.5,0,9.9,4.4,9.9,9.9s-4.4,9.9-9.9,9.9
			C152.6,144.9,148.2,140.5,148.2,135.1z M99,259.1c9.5,0,17.3-7.7,17.3-17.3c0-9.5-7.7-17.3-17.3-17.3s-17.3,7.7-17.3,17.3
			C81.7,251.3,89.5,259.1,99,259.1z M476.4,154.1c10.7,0,19.3-8.7,19.3-19.3s-8.7-19.3-19.3-19.3c-10.7,0-19.3,8.7-19.3,19.3
			S465.7,154.1,476.4,154.1z M539,275.6c-7,0-12.7,5.7-12.7,12.7c0,7,5.7,12.7,12.7,12.7s12.7-5.7,12.7-12.7
			C551.7,281.3,546,275.6,539,275.6z M461.1,122.2c-29.3-25-68.3-42.6-107.8-49.8 M280.3,71.5c-45.9,6.6-82.6,26.1-115,56.3
			 M95.9,259.1c-1.6,10.6-2.4,21.5-2.4,32.5c0,39.6,10.3,76.8,28.4,109 M150.7,142.7c-21.2,23.6-37.5,51.8-47.1,82.9 M350.6,513.1
			c37.1-6.9,78.2-25.5,106.4-48.3 M139.5,426.2c34.6,45.3,79.3,76.4,138.4,85 M484.6,438.2c32.3-36.9,52.7-84.6,55-136.9
			 M538.7,275.6c-3.4-47.2-22.1-91.2-50.3-125.7 M130.4,429.1c8.5,0,15.5-6.9,15.5-15.5s-6.9-15.5-15.5-15.5c-3.1,0-6,0.9-8.4,2.5
			c-4.2,2.8-7.1,7.5-7.1,13C114.9,422.2,121.8,429.1,130.4,429.1z M492.8,454.7c0-6.8-3.5-12.7-8.8-16.2c-3-2-6.7-3.1-10.6-3.1
			c-10.7,0-19.3,8.7-19.3,19.3c0,3.7,1,7.1,2.8,10.1c3.4,5.5,9.5,9.2,16.5,9.2C484.1,474,492.8,465.3,492.8,454.7z M301.6,60.1
			 M346.8,512 M327.9,501.4 M311.1,493.6 M292.2,482.9 M331.2,468.6 M323.6,489.6 M314.7,506 M308,525.2 M318.1,109
			c20.2,0,36.6-16.4,36.6-36.6s-16.4-36.6-36.6-36.6c-20.2,0-36.6,16.4-36.6,36.6S297.9,109,318.1,109z M353.7,72.6
			c0,0-10,18.1-36.8,18.1c0,0-21.7-0.5-35.3-19.2c0,0,14.5-15.2,35.3-15.5C316.9,56.1,337.5,55.5,353.7,72.6z M334.6,75.7
			c1.4-10.9-7.8-20.1-18.7-18.8c-7.5,0.9-13.5,7-14.5,14.4c-1.4,10.9,7.8,20.1,18.8,18.8C327.7,89.2,333.7,83.1,334.6,75.7z
			 M298.7,60.4"/>
	</g>
	<path class="st5" d="M328.7,509.8l-2.9-13.2l-10.5-1.6l11.7-2.2l1.9-12.7l2.1,12.7l10.9,2.2l-9.6,1.6l0,0l0,0L328.7,509.8z"/>
	<path class="st4" d="M314.1,543.9c19.4,0,35.2-15.1,36.4-34.2c0-0.7,0.1-1.5,0.1-2.2c0-20.1-16.3-36.4-36.4-36.4
		s-36.4,16.3-36.4,36.4c0,1.3,0.1,2.5,0.2,3.7C279.8,529.6,295.3,543.9,314.1,543.9z"/>
	<g>
		<path class="st6" d="M301.4,517.3c0.6,1.1,1.2,1.9,2.4,3.2c1.6,1.7,3,2.4,3.4,2.7c1.7,0.9,1.9,0.9,2.9,1.3"/>
		<path class="st6" d="M315.4,525.4c0.7,0,1.4,0.1,2.7-0.1c1-0.2,1.8-0.3,2.3-0.6"/>
		<path class="st6" d="M314.3,530.7c11.6,0,20.9-9.4,20.9-20.9c0-2.2-0.3-4.3-0.9-6.2c0,0-2.2-7.1-8.4-11.2c-0.5-0.3-1-0.6-1-0.6
			c-0.8-0.4-2.3-1.3-4.4-1.9c-2-0.6-4.1-0.9-6.2-0.9c-11.6,0-20.9,9.4-20.9,20.9S302.8,530.7,314.3,530.7z"/>
		<path class="st6" d="M306.6,497c-1,0.5-1.6,0.9-3.1,2.6c-2.8,3.1-3.5,6.3-3.8,7.9c-0.3,1.5-0.4,3-0.1,5.1"/>
	</g>
	<path class="st4" d="M339.6,511.5"/>
	<path class="st4" d="M320.7,500.8"/>
	<path class="st4" d="M303.9,493"/>
	<path class="st4" d="M285,482.4"/>
	<path class="st4" d="M324,468"/>
	<path class="st4" d="M316.4,489.1"/>
	<path class="st4" d="M307.5,505.4"/>
	<path class="st4" d="M300.8,524.6"/>
</g>
<g id="solid_orange">
	<circle class="st5" cx="99" cy="241.8" r="16.8"/>
	<path class="st5" d="M495.5,134.8c0,10.6-8.6,19.1-19.1,19.1s-19.1-8.6-19.1-19.1"/>
	<path class="st5" d="M473.2,435c10.9,0,19.7,8.8,19.7,19.7c0,10.9-8.8,19.7-19.7,19.7"/>
	<polygon class="st5" points="416.1,236.1 441.2,242.2 415.5,248.4 	"/>
	<polygon class="st5" points="409.4,260.8 414,280.5 413.6,296.2 410.2,316.9 404.4,332.8 395.1,348.2 381.3,363.2 369.2,372.6
		341.6,385.2 315.6,389 293,386.7 276.8,380.9 264.7,374.8 252.1,366.2 276.1,338.3 279,340.3 283.3,343.1 291.5,347.4 296.9,349.7
		303.5,351.5 311,352.5 317.7,352.7 324.6,352.3 331.3,351 337,349.4 344.6,346.3 351.4,342.1 357.6,337.4 362.9,332.2 367.3,326.9
		371.4,320.1 375.5,311.4 377.4,304.8 378.6,298.7 378.7,293.2 378.8,285.8 378,279.1 377.7,274.2 384.8,273.9 395.3,271.4
		404.2,266 	"/>
	<circle class="st5" cx="383.2" cy="241.1" r="5.8"/>
</g>
<g id="COF">
	<g>
		<ellipse class="st7" cx="312.9" cy="73.3" rx="1.9" ry="1.9"/>
		<ellipse class="st7" cx="320.8" cy="69.1" rx="1.9" ry="1.9"/>
		<path class="st7" d="M317.1,78.3c-1.4-0.3-2.5-1.2-3.1-2.4c-0.5,0.2-1.1,0.3-1.6,0.2c0.8,1.9,2.4,3.3,4.4,3.8
			c0.4,0.1,0.9,0.1,1.3,0.1c-0.3-0.5-0.5-1-0.6-1.6C317.5,78.3,317.3,78.3,317.1,78.3L317.1,78.3z"/>
		<ellipse class="st7" cx="320.3" cy="78.3" rx="1.9" ry="1.9"/>
		<path class="st7" d="M323,77.6c0.6-0.8,1-1.6,1.2-2.6c0.3-1.6,0-3.4-0.9-4.8c-0.2,0.5-0.6,1-1.1,1.3c0.5,1,0.7,2.1,0.4,3.2
			c-0.1,0.5-0.3,1-0.6,1.5C322.5,76.5,322.8,77,323,77.6L323,77.6z"/>
		<path class="st7" d="M312.7,70.6c0,0,0.1,0,0.1,0c0.2,0,0.4,0,0.6,0.1c0.3,0.1,0.6,0.2,0.9,0.4c0.9-1.2,2.2-2,3.7-2
			c0-0.1,0-0.3,0.1-0.4c0.1-0.4,0.3-0.8,0.5-1.1C316.2,67.2,313.9,68.4,312.7,70.6z"/>
	</g>
</g>
<g id="bird_00000023274533195581481510000005877811593666914443_">
	<path class="st8" d="M382.2,274.4c11.5,0,21.7-5.7,27.8-14.5c0.2-0.2,0.3-0.5,0.5-0.7c3.6-5.4,5.6-11.8,5.6-18.7
		c0-18.7-15.2-33.9-33.9-33.9c-18.7,0-33.9,15.2-33.9,33.9C348.3,259.2,363.5,274.4,382.2,274.4z M415.8,248.2l24-6.4l-23.2-5.4
		L415.8,248.2z M277.2,339.3l-55,61.7l-17.6-17.6l58.3-58.6l82.7-85.3l2.9-3 M379.3,274.3 M358.8,430l-21.7-43.4l-14,1.8l22.3,44.6"
		/>
	<path class="st9" d="M321.6,361.1"/>
	<path class="st10" d="M237.6,349.6c-12.5-16.5-19.9-37-19.9-59.3c0-54.2,44-98.2,98.2-98.2c20.2,0,39,6.1,54.6,16.6"/>
	<path class="st8" d="M409.3,260.2c3.1,9.5,4.7,19.7,4.7,30.2c0,54.2-44,98.2-98.2,98.2c-23.7,0-45.4-8.4-62.3-22.3"/>
	<path class="st11" d="M263.9,324.5c-6.4-9.8-10-21.5-10-34c0-34.6,28-62.6,62.6-62.6c11.7,0,22.7,3.2,32.1,8.8"/>
	<path class="st12" d="M376.9,273.9c1.4,5.3,2.2,10.8,2.2,16.6c0,34.6-28,62.6-62.6,62.6c-15.5,0-30-5.8-40.9-15.1"/>
	<path class="st13" d="M264.2,324.3"/>
</g>
</svg>
