<?xml version="1.0" encoding="UTF-8"?>
<svg id="artwork" xmlns="http://www.w3.org/2000/svg" viewBox="0 0 1000 1000">
  <defs>
    <style>
      .cls-1 {
        fill: #82a94e;
      }
    </style>
  </defs>
  <path class="cls-1" d="M800.55,796.45c42.79-60.19,67.95-133.8,67.95-213.28,0-140.21-78.31-262.11-193.57-324.39l9.08,69.63c4.79,36.73-6.48,73.75-30.91,101.58-24.44,27.83-59.69,43.79-96.73,43.79h-52.38v21.18c20.22,5,39.28,14.34,55.29,27.11l-4.99,6.25c-15.89-12.68-34.97-21.77-55.17-26.3-1.83-.41-3.13-2.03-3.13-3.9v-24.35h-202.6l65.96-84.81-37.53-46.91c-2.69-3.36-3.2-7.85-1.33-11.73,1.86-3.88,5.69-6.28,9.99-6.28h79.36l84.01-109.33c-200.69,3.28-362.37,166.98-362.37,368.45,0,23.49,2.2,46.47,6.4,68.74,20.18.57,36.71,6.95,51.37,12.63,13.52,5.24,26.29,10.19,40.26,10.19,12.85,0,24.29-2.33,34.02-6.94,16.53-7.82,28.59-25.36,29.31-42.64.49-11.79-4.4-22.27-13.41-28.77-9.14-6.58-20.83-7.9-32.07-3.62-10.21,3.9-18.15,12.93-20.25,23.02-2.69,12.96,4.36,23.13,10.75,29.38l-5.59,5.72c-11.05-10.81-15.67-23.85-12.99-36.73,2.68-12.89,12.34-23.95,25.23-28.87,13.8-5.27,28.23-3.59,39.6,4.6,11.24,8.1,17.34,21.07,16.73,35.59-.84,20.12-14.77,40.49-33.88,49.53-10.81,5.11-23.4,7.7-37.44,7.7-15.47,0-28.92-5.21-43.15-10.73-14.24-5.52-28.93-11.2-46.86-12.03,2.39,11.27,5.29,22.35,8.68,33.21,4.14.01,7.87.02,10.73.02,43.5,0,72.58,8.53,91.49,26.85,1.43,1.38,2.84,2.8,4.25,4.21,4.77,4.78,9.27,9.29,14.6,12.74,17.12,11.08,29,7.56,33.31,5.53,4.53-2.13,8.02-5.74,9.34-9.66,1.05-3.12.75-6.3-.89-9.43-1.66-3.17-4.53-5.52-8.08-6.61-3.74-1.15-7.86-.76-11.29,1.07l-3.77-7.06c5.3-2.83,11.64-3.44,17.41-1.66,5.59,1.72,10.14,5.46,12.81,10.54,2.66,5.08,3.13,10.5,1.38,15.7-2.03,6.04-6.96,11.27-13.52,14.35-4.21,1.98-8.86,2.96-13.75,2.96-8.65,0-18.09-3.05-27.3-9.02-6.05-3.92-11.07-8.94-15.92-13.8-1.38-1.38-2.76-2.76-4.15-4.11-17.33-16.78-44.63-24.6-85.93-24.6-2.25,0-5.03,0-8.12-.01,1.72,5.1,3.56,10.14,5.49,15.14,29.79,3.75,40.31,10.72,52.74,18.96,6.62,4.39,13.47,8.93,24.35,13.52,45.73,19.3,95.93,26.14,145.16,19.77,53.59-6.92,93.49-25.67,118.6-55.72,12.98-15.53,19.35-35,17.04-52.1-1.78-13.12-8.68-24.18-19.97-32l4.55-6.58c13.19,9.13,21.26,22.09,23.34,37.5,2.61,19.29-4.43,41.08-18.83,58.3-26.44,31.64-68.06,51.33-123.71,58.52-12.29,1.59-24.63,2.38-36.96,2.38-38.46,0-76.72-7.68-112.34-22.71-11.57-4.88-19.05-9.85-25.66-14.23-10.9-7.23-20.24-13.42-44.88-17.08,2.47,5.92,5.08,11.76,7.84,17.51,18.12,6.74,33.49,18.65,56.68,37.65,38.55,31.61,67,43.37,104.98,43.37v8c-45.77,0-76.04-17.29-110.05-45.18-18.95-15.53-32.26-26.02-46.05-32.75,16.02,30.68,36.23,58.83,59.87,83.68,24.53,5.86,52.41,9.43,77.61,5.22,54.88-9.18,83.47-19.27,104.34-26.63,21.02-7.42,36.2-12.78,63.77-12.78,21.5,0,38.9,6.74,54.24,12.69,13.52,5.24,26.29,10.19,40.26,10.19,12.85,0,24.29-2.33,34.02-6.94,16.54-7.82,28.59-25.36,29.31-42.64.49-11.79-4.4-22.27-13.41-28.77-9.14-6.58-20.83-7.9-32.07-3.62-10.21,3.9-18.15,12.93-20.25,23.02-1.49,7.16-.83,18.06,10.75,29.38l-5.59,5.72c-11.05-10.8-15.67-23.85-12.99-36.73,2.67-12.89,12.34-23.95,25.23-28.87,13.8-5.26,28.23-3.59,39.6,4.6,11.24,8.1,17.34,21.07,16.73,35.59-.84,20.12-14.77,40.49-33.88,49.53-10.81,5.11-23.4,7.7-37.44,7.7-15.47,0-28.92-5.21-43.15-10.73-15.41-5.97-31.34-12.15-51.35-12.15-26.2,0-40.09,4.9-61.11,12.32-21.15,7.46-50.12,17.69-105.69,26.98-8.09,1.35-16.42,1.94-24.76,1.94-14.94,0-29.94-1.88-43.81-4.58,16.03,15.56,33.46,29.67,52.1,42.12,18.54,1.76,36.85,1.63,54.8-.45,20.39-2.36,43.5-5.03,71.86-16.68,8.35-3.43,14.9-6.73,20.68-9.64,10.83-5.46,19.39-9.77,32.36-11.25,20.71-2.35,42.35,3.72,64.31,18.06l-4.38,6.7c-20.36-13.3-40.22-18.95-59.03-16.81-11.55,1.31-19.15,5.14-29.67,10.44-5.91,2.97-12.6,6.35-21.24,9.9-29.38,12.08-54.11,14.94-73.98,17.23-10.01,1.16-20.13,1.73-30.32,1.73-3.75,0-7.5-.08-11.27-.24,9.11,5.51,18.49,10.64,28.1,15.36,6.43.43,12.11.68,16.18.63,14.14-.18,28.6-1.58,41.81-4.05,20.25-3.8,36-9.54,42.72-12,7.16-2.61,10.9-4.28,13.91-5.63,3.59-1.6,6.18-2.76,11.83-4.27,5.97-1.59,21.81-5.8,41.99-2.97,14.32,2,27.87,7.04,40.27,14.98l-4.31,6.74c-11.42-7.31-23.89-11.96-37.06-13.8-18.57-2.6-33.28,1.31-38.82,2.78-5.03,1.34-7.13,2.28-10.62,3.84-3.12,1.39-7,3.13-14.43,5.84-6.91,2.52-23.09,8.42-43.99,12.34-12.89,2.41-26.91,3.82-40.72,4.13,14.65,6.2,29.78,11.48,45.33,15.77,15.83-3.4,31.83-6.18,47.86-8.27,39.87-5.2,70.68-5,89.09-4.89,31.57.21,59.3,1.99,84.17,5.42,36.29-12.83,69.97-31.19,100.03-54.06-1.53-.33-2.8-.59-3.55-.69-27.48-3.77-44.48,2.75-56.89,7.51-2.99,1.15-5.82,2.23-8.43,3.02-17.74,5.37-34.14,8.03-50.53,8.03-11.23,0-22.44-1.24-34.09-3.71l1.66-7.83c27.25,5.78,52.12,4.5,80.64-4.15,2.34-.71,4.91-1.69,7.88-2.83,12.48-4.78,31.33-12.01,60.84-7.97,1.94.26,5.96,1.18,10.56,2.29,9.15-7.37,17.93-15.17,26.33-23.36-20.34-4.67-48.51-5.32-61.08-3.02-10.23,1.88-20.41,5.19-30.25,8.4-7.13,2.32-14.5,4.73-21.96,6.62-21.04,5.33-43.56,6.64-65.12,3.78-16.67-2.21-29.53-7.97-41.97-13.53-15.74-7.04-30.6-13.7-52.89-13.7-26.53,0-37.98,6.22-51.24,13.42-17.13,9.31-36.54,19.85-90.92,19.85v-8c52.35,0,70.82-10.03,87.1-18.88,13.62-7.4,26.49-14.4,55.06-14.4,24,0,40.35,7.32,56.16,14.39,12.46,5.58,24.24,10.85,39.75,12.91,20.56,2.72,42.03,1.48,62.1-3.61,7.19-1.82,14.44-4.18,21.44-6.47,10.09-3.29,20.53-6.69,31.29-8.67,14.58-2.66,47.25-1.73,69.1,4.31,11.37-11.66,21.97-24.08,31.72-37.17-41.22-14.3-103.53-.56-132.31,16.76l-4.12-6.85c16.95-10.2,42.75-18.39,69.02-21.92,27.82-3.74,53.25-1.85,72.32,5.28ZM259.71,613.86c4.69,0,8.5,3.82,8.5,8.5s-3.81,8.5-8.5,8.5-8.5-3.82-8.5-8.5,3.82-8.5,8.5-8.5ZM519.48,786.72c-10.68-3.05-21.6-4.76-32.48-5.06-25.12-.71-43.97,6.11-55.23,10.19-.92.33-1.79.65-2.6.94-24.53,8.71-52.43,13.1-83.12,13.1-5.85,0-11.8-.16-17.85-.48l.42-7.99c36.73,1.94,69.66-2.16,97.87-12.17.8-.28,1.65-.59,2.55-.92,11.02-3.99,31.54-11.43,58.18-10.66,11.54.32,23.13,2.12,34.46,5.36l-2.2,7.69ZM596.42,760.49c5.36-2.65,13.83-3.89,20.03,1.38l-5.18,6.1c-3.03-2.57-7.86-2-11.31-.3-.07.03-5.78,3.04-3.48,8.85l-7.44,2.94c-3.69-9.35,2.57-16.59,7.38-18.96ZM544.24,798.59c-4.7,0-8.5-3.81-8.5-8.5s3.81-8.5,8.5-8.5,8.5,3.81,8.5,8.5-3.81,8.5-8.5,8.5ZM593.38,616.08c4.3,23.95,1.2,49.54-10.01,72.6-10.92,22.44-28.69,43.68-52.81,63.11l-5.02-6.23c23.2-18.69,40.23-39.01,50.63-60.38,20.44-42.05,12.05-93.03-20.4-123.96-33.41-31.83-82.91-45.06-126.11-33.69-38.86,10.22-82.05,39.42-86.7,90.75-1.85,20.44,5.85,42.83,20.12,58.45,9.49,10.39,26.41,22.77,53.14,22.77,30.2,0,51.61-20.14,57.14-40.03,4.46-16.03-1.28-30.23-15.75-38.96-6.18-3.73-15.45-3.31-22.02,1.01-2.92,1.92-7.67,6.27-6.64,13.88l-7.93,1.07c-1.18-8.73,2.53-16.62,10.18-21.64,9.16-6.01,21.73-6.5,30.55-1.17,17.52,10.57,24.74,28.5,19.32,47.96-6.35,22.8-30.66,45.88-64.85,45.88-29.65,0-48.48-13.8-59.05-25.38-15.73-17.22-24.23-41.96-22.18-64.56,4.2-46.39,39.69-83.86,92.63-97.77,45.83-12.06,98.3,1.93,133.67,35.64,9.62,9.17,17.27,19.97,22.86,31.75l.25-.14c14.38,26.04,31.46,46.33,50.75,60.29,37.94,27.44,89.74,28.12,125.95,1.66,37.27-27.24,58.98-73.53,55.32-117.94-3.29-39.95-24.56-87.47-74.42-101.02-19.93-5.42-43.45-1.73-61.39,9.63-11.85,7.5-26.95,21.94-31.61,48.09-5.27,29.57,10.8,54.1,29.39,63.06,15.09,7.27,30.17,4.14,41.36-8.59,4.74-5.39,5.96-14.52,2.88-21.72-1.38-3.23-4.84-8.69-12.57-9.01l.34-7.99c8.85.37,15.99,5.43,19.6,13.86,4.29,10.04,2.55,22.44-4.23,30.15-13.54,15.4-32.54,19.33-50.84,10.52-21.31-10.26-39.76-38.17-33.79-71.67,5.17-29.02,22-45.09,35.21-53.45,19.77-12.52,45.74-16.58,67.76-10.59,45.05,12.24,75.82,53.65,80.29,108.08,3.88,47.12-19.11,96.21-58.58,125.05-19.1,13.96-42.21,20.91-65.6,20.91s-49-7.53-69.76-22.55c-13.47-9.75-25.87-22.4-37.08-37.74ZM436.29,651.5c0-4.7,3.81-8.5,8.5-8.5s8.5,3.81,8.5,8.5-3.81,8.5-8.5,8.5-8.5-3.81-8.5-8.5ZM825.42,625.34c-8.16,18.9-19.86,35.53-34.78,49.43-6.61,6.16-24.17,22.54-52.45,31.34-12.51,3.89-25.71,5.87-38.9,5.87-5.62,0-11.23-.36-16.79-1.08l1.03-7.93c17.46,2.27,35.54.72,52.28-4.49,26.54-8.26,42.54-23.19,49.38-29.56,14.11-13.14,25.18-28.87,32.89-46.75l7.35,3.17ZM637.38,729.5c-4.7,0-8.5-3.81-8.5-8.5s3.81-8.5,8.5-8.5,8.5,3.81,8.5,8.5-3.81,8.5-8.5,8.5ZM642.75,832.35c-4.7,0-8.5-3.81-8.5-8.5s3.81-8.5,8.5-8.5,8.5,3.81,8.5,8.5-3.81,8.5-8.5,8.5ZM657.49,749.11l4.04-6.9c15.63,9.15,32.41,14.88,49.87,17.01,18.11,2.21,55.78,6.8,84.52-20.92,21-20.25,24.79-47.13,25.19-61.34l8,.22c-.43,15.44-4.59,44.65-27.63,66.88-21.21,20.46-46.41,24.91-66.5,24.91-9.72,0-18.24-1.04-24.54-1.81-18.55-2.26-36.36-8.34-52.94-18.05Z"/>
  <path class="cls-1" d="M450.66,938.1c-10.28,1.34-20.54,2.96-30.76,4.85,25.79,5.72,52.59,8.74,80.1,8.74,36.39,0,71.55-5.28,104.76-15.11-20.03-2.05-41.91-3.14-66.09-3.3-18.21-.11-48.67-.3-88,4.83Z"/>
  <path class="cls-1" d="M727.84,134.59c.81,4.61,1.34,9.43,1.63,14.9l47.31-10.04c-21.74-49.76-64.25-86.79-114.96-102.32-3.26.08-6.47.22-9.67.38,39.61,17.72,68.04,53.67,75.69,97.07Z"/>
  <path class="cls-1" d="M606.3,136.72c15.66,0,28.35-12.69,28.35-28.35s-12.69-28.35-28.35-28.35-28.35,12.69-28.35,28.35,12.69,28.35,28.35,28.35ZM603.13,121.19c-4.29-.92-7.79-3.86-9.44-7.91,1.16.21,2.37.07,3.44-.42,1.36,2.63,3.79,4.48,6.69,5.1h0c.33.07.66.13.99.16.03,1.22.44,2.39,1.18,3.37-.96,0-1.92-.09-2.86-.29ZM610.6,122.01c-2.22,0-4.03-1.8-4.03-4.03s1.8-4.03,4.03-4.03,4.03,1.8,4.03,4.03-1.8,4.03-4.03,4.03ZM618.76,111.07c-.43,1.99-1.31,3.85-2.56,5.43,0,0,0,0,0,0h0s0,0,0,0c-.31-1.18-.98-2.22-1.93-3,.59-.96,1.02-2.01,1.25-3.12.49-2.28.15-4.64-.93-6.69,1.02-.63,1.8-1.56,2.27-2.65,1.95,2.94,2.64,6.57,1.9,10.03ZM611.51,94.73c2.22,0,4.03,1.8,4.03,4.03s-1.8,4.03-4.03,4.03-4.03-1.8-4.03-4.03,1.8-4.03,4.03-4.03ZM606.92,95.18c-.54.69-.91,1.5-1.1,2.36-.07.3-.11.6-.12.91-3.17.06-6.09,1.62-7.91,4.23-.56-.35-1.18-.6-1.84-.74-.4-.09-.81-.13-1.22-.13-.1,0-.2,0-.31,0,2.51-4.42,7.43-7.03,12.49-6.63ZM594.74,103.56c2.22,0,4.03,1.8,4.03,4.03s-1.8,4.03-4.03,4.03-4.03-1.8-4.03-4.03,1.8-4.03,4.03-4.03Z"/>
  <path class="cls-1" d="M330.49,332.05c-1.75,0-2.53,1.22-2.78,1.75s-.72,1.9.37,3.26l41.47,51.84-59.8,76.88h246.62c34.74,0,67.8-14.97,90.72-41.07,22.92-26.1,33.49-60.82,28.99-95.27l-19.21-147.25,1.21-1.36c4.67-5.28,8.76-11.26,12.17-17.77l.87-1.67,50.4-10.69c-.26-5.47-.77-10.22-1.56-14.72-8.03-45.54-40.41-82.37-84.6-96.32-.3.03-.59.07-.89.1-.66.07-1.29.14-1.86.24-1.17.21-2.32.47-3.54.74-.52.12-1.03.23-1.55.34l-1.21.26-1.14-.46c-10.59-4.29-21.71-6.46-33.04-6.46-48.59,0-88.13,39.53-88.13,88.13v92.15l-90.23,117.36h-83.27ZM592.13,51.68c39.14,0,70.87,31.73,70.87,70.87s-31.73,70.87-70.87,70.87-70.87-31.73-70.87-70.87,31.73-70.87,70.87-70.87ZM526.13,285.53v-69.84h0s0,0,0,0c42.99,3.02,83.94,13.37,121.6,29.88l11.23,86.11c3.85,29.52-5.21,59.28-24.85,81.65s-47.98,35.2-77.75,35.2h-211.33l38.58-49.61h29.12c62.62,0,113.39-50.76,113.39-113.39Z"/>
</svg>
