<svg id="artwork" version="1.1" viewBox="0 0 1e3 1e3" xmlns="http://www.w3.org/2000/svg">
  <defs>
    <style>.cls-1, .cls-2, .cls-3, .cls-4, .cls-5, .cls-6 {
        fill: none;
      }

      .cls-7 {
        fill: #87a556;
      }

      .cls-2 {
        stroke-width: 3.5px;
      }

      .cls-2, .cls-3, .cls-4 {
        stroke: #3d3d3d;
      }

      .cls-2, .cls-3, .cls-4, .cls-5 {
        stroke-miterlimit: 10;
      }

      .cls-3 {
        stroke-width: 1.75px;
      }

      .cls-4 {
        stroke-width: 1.5px;
      }

      .cls-5 {
        stroke-dasharray: 12 8 0 0 0 0;
      }

      .cls-5, .cls-6 {
        stroke: #87a556;
        stroke-linecap: round;
        stroke-width: 2.5px;
      }

      .cls-8 {
        fill: #171717;
      }

      .cls-6 {
        stroke-linejoin: round;
      }</style>
  </defs>
  <path class="cls-3" d="m888.25 269.47c-4.1278 7.6964-24.865 38.512-36.376 49.725-15.36 14.961-32.003 23.28-44.668 29.495-16.461 8.0775-25.458 10.114-43.154 21.384-11.128 7.0867-16.866 12.202-18.927 19.909-2.947 11.019 3.2473 21.259 3.7854 22.121 4.2056 6.7343 7.8871 6.1888 13.628 13.273 5.4566 6.7336 7.0967 13.356 9.085 21.384 3.026 12.218 5.6199 22.691 0 32.444-1.0324 1.7917-5.8682 10.184-14.385 11.798-9.045 1.7138-14.145-5.753-19.684-2.9495-4.4877 2.2714-2.5169 7.8691-7.5708 18.434-2.503 5.2324-7.4165 15.504-14.385 16.222-8.6219.88867-11.751-13.739-21.955-14.01-8.3442-.22164-15.946 9.302-18.927 16.959-3.42 8.784.14712 12.781 0 23.596-.30684 22.555-16.109 26.16-15.899 46.454.14331 13.832 7.6092 24.261 11.356 29.495 8.3853 11.713 21.088 26.886 33.045 33.165 24.128 12.671 45.7 19.901 50.659 21.366 12.16 3.5926 19.67 6.5351 27.914 8.4894 4.5144 1.0702 11.962 2.2918 16.515 10.566 4.3187 7.847-.78491 13.546 2.1322 19.04 6.3361 11.932 26.221 4.9343 43.108 4.7062 8.9937-.12148 57.429 3.6944 59.803 21.668"/>
  <path class="cls-3" d="m927.91 311.85c-20.121-22.382-54.938 8.365-66.673 20.732-9.4893 9.9998-18.461 16.203-32.318 23.854-14.81 8.1773-31.388 14.865-33.493 15.709-4.6236 1.8526-14.12 5.5312-25.266 12.8-10.138 6.6114-11.982 9.894-12.339 12.8-.54513 4.4288 2.4764 7.0478 9.4015 16.872 4.3992 6.2412 8.7052 12.35 11.752 18.618 6.0955 12.54 6.3896 24.151 6.4635 29.09.10639 7.1151.23879 15.971-4.7007 25.6-2.93 5.7113-6.0284 11.751-12.339 13.963-8.1576 2.8597-14.906-3.0512-20.566 1.1636-1.7764 1.3228-2.0946 2.6369-4.1131 7.5635-5.5119 13.453-8.2678 20.18-12.927 23.854-4.4311 3.4946-11.016 5.6275-17.04 4.6545-5.0124-.80963-5.9928-3.1813-15.277-6.9817-7.2271-2.9582-11.368-4.6534-13.515-2.909-2.7713 2.2525.73144 7.8449 1.1752 18.618.39859 9.6768-1.934 17.148-2.938 20.363-4.1914 13.425-9.6942 13.668-11.164 23.272-1.6508 10.785 3.8452 19.903 5.8759 23.272 5.2765 8.7543 11.209 19.563 22.414 26.342 7.0262 4.2508 12.715 6.7126 24.091 11.636 10.214 4.4205 12.881 7.687 20.476 9.7833 11.951 3.2987 18.359-1.8604 25.89-.31279 3.8462.79044 11.644 2.242 19.947 10.733 9.4369 9.6503 12.943 20.8 13.515 22.691 2.5656 8.4814 1.1652 11.733 4.7007 15.127 3.9796 3.8208 9.6362 3.4289 20.566 2.909 6.6494-.31627 67.285-1.2224 93.514-16.942"/>
  <path class="cls-2" d="m389.81 678.01c-.98827 9.5922-8.2769 10.362-13.094 22.053-5.9103 14.345.71899 23.727-4.8241 27.566-7.6524 5.3009-25.347-9.0741-26.877-10.337-3.8049-3.142-22.015-18.179-17.918-32.391 1.8495-6.4166 7.8949-9.791 19.986-16.54 15.096-8.4265 26.151-14.597 34.458-9.6482 6.1935 3.6898 8.9764 12.439 8.2699 19.296z"/>
  <path class="cls-3" d="m360.18 673.87c-10.159-2.2677-21.306 10.609-19.511 16.267.98569 3.1068-1.5986 7.6163 3.0732 12.318 6.0905 6.1297 10.943 7.6665 13.812 8.3521 4.5871 1.0959 17.458-15.324 12.274-27.978-.27787-.6782-3.2005-7.5198-9.6482-8.9591z"/>
  <path class="cls-4" d="m274.04 798.11c-11.715 2.9664-17.876 14.918-13.996 24.474 3.0256 7.4524 11.63 12.149 19.994 11.784 11.523-.5031 22.164-10.596 19.994-21.755-2.0305-10.443-14.427-17.432-25.992-14.503z"/>
  <path class="cls-3" d="m179.75 546.55c-7.563 1.3803-11.421 10.452-13.376 15.048-6.1342 14.423-4.2393 28.698-2.7867 35.67.3739 1.7945 4.3415 11.439 12.261 30.654 15.61 37.872 8.4668 19.107 9.4748 21.736 4.369 11.399 5.1172 15.782 9.4748 17.835 5.2451 2.4711 13.231.39339 16.72-4.4587 3.4582-4.8094 1.2955-10.672-3.344-26.752-4.9564-17.178-7.4346-25.768-8.9174-33.44-4.415-22.844-5.5734-36.784-5.5734-36.784-.54333-6.5384-1.0082-15.109-6.6881-18.392-3.0517-1.7641-6.3551-1.2772-7.2454-1.1147z"/>
  <path class="cls-2" d="m897.83 391.25c-26.26-3.1635-47.176 26.066-49.623 29.583-7.5799 10.895-10.564 22.998-16.223 46.76-8.8948 37.35-4.4388 41.334-12.406 54.395-13.349 21.883-38.176 30.893-47.715 34.355-29.257 10.617-46.629 3.224-51.532 13.36-4.8738 10.076 6.2338 29.908 21.949 37.217 19.783 9.2012 32.616-8.0736 52.486.95428 14.671 6.6656 10.574 17.4 32.446 32.446 8.228 5.6602 18.891 12.784 33.4 12.406 1.5298-.03987 15.16-.57214 26.72-9.543 10.729-8.3258 14.73-20.083 20.994-64.892 6.8316-48.865 10.247-73.297 7.6343-86.841-4.8182-24.973-14.307-36.702-7.6343-55.349 5.0794-14.195 15.423-20.937 12.406-30.537-2.78-8.8453-14.771-13.335-22.903-14.314z"/>
  <path class="cls-3" d="m860.61 509.58c-6.7198 2.1746-10.668 8.0107-22.903 44.852-10.538 31.73-10.737 36.819-7.6343 40.08 5.8602 6.1592 21.182 3.3674 30.537-3.8172 3.8107-2.9265 7.3278-7.1166 15.269-35.309 9.2053-32.681 7.518-37.84 4.7715-41.035-4.4834-5.2157-13.297-6.9535-20.04-4.7714z"/>
  <path class="cls-3" d="m380.95 418.18c-.45683-5.3257-3.8567-8.1377-18.573-20.431-28.799-24.057-29.288-24.572-37.147-30.646-16.266-12.571-23.852-17.844-35.289-21.359-9.1694-2.8187-13.584-2.286-15.787-1.8573-11.651 2.2662-13.143 11.665-24.145 17.645-8.4463 4.59-10.584 3.0368-34.71 2.8789-6.1592-.0403-18.693 5.5002-34.59 7.4607-25.665 3.1648-31.895 1.8892-56.999 5.4478-27.64 3.9181-33.484-1.6853-41.79 5.572-4.9698 4.3421-6.3211 9.3564-13.001 46.434-3.5344 19.617-5.3016 29.425-5.572 31.575-1.7764 14.12-3.3231 35.585 0 69.65 6.7805 69.507 27.119 122.62 33.432 138.37 4.6453 11.589 15.315 36.921 36.218 64.078 15.381 19.983 24.204 25.234 29.717 27.86 15.956 7.6005 26.707 3.9432 55.72 3.7146 28.128-.22158 47.125-.37129 66.864 6.5008 3.3503 1.1664 54.011 19.443 57.578 52.006 3.0023 27.414-29.896 41.933-23.217 63.15 3.3779 10.731 16.538 15.968 42.719 26.003 38.956 14.931 39.562 6.178 97.51 20.431 13.016 3.2014 26.314 6.9213 38.076 0 9.2339-5.4339 13.098-14.824 15.787-21.359 1.4346-3.4861 12.285-29.853 0-47.362-6.972-9.937-14.165-6.7153-38.075-20.431-17.676-10.139-27.063-15.523-30.646-26.003-6.478-18.943 9.9021-41.491 13.93-44.576 32.506-24.902 55.45-26.722 49.883-34.921-2.1552-3.1739-12.214-6.2221-29.901-8.4341-49.69-6.2145-71.127-1.9955-85.918 3.4222-14.518 5.3176-12.644 10.817-24.145 13.001-21.776 4.1368-46.145-12.225-58.506-31.575-9.4194-14.744-21.77-45.595-7.4294-58.506 43.653-39.301 91.832 5.3319 120.01-3.1233 5.1862-1.5561 11.628-.63717-3.4773-25.677-14.007-23.219-13.887-39.941-13.031-54.187 1.3895-23.142 17.918-44.312 10.568-53.263-4.2413-5.1655-9.5766.84345-14.997 7.2066-2.1297 2.5001-7.4592 10.345-10.557 19.485-2.9503 8.7038-11.644 7.6284-15.702 7.4835-17.24-.61576-24.978-3.6881-32.943-7.4835-14.469-6.8941-17.657-27.304-17.584-41.814.06986-13.857 7.3967-24.015 14.859-34.361 5.5476-7.6914 7.0401-7.3891 21.359-23.217 18.799-20.779 19.805-25.255 19.502-28.789z"/>
  <path class="cls-3" d="m108.19 403.24c19.715-6.3783 33.72-3.6957 51.582-3.533 37.007.33695 32.924-10.668 66.42-9.1858 12.908.57108 27.518 2.8248 37.45-6.3594 4.4849-4.1475 5.4665-8.2702 10.599-9.8925 6.6095-2.0891 12.105 2.4966 25.438 10.599 24.737 15.033 29.778 13.806 36.037 23.318 2.1204 3.2226 8.1824 12.436 5.6528 21.905-2.2213 8.3143-9.3555 10.418-16.958 17.665-11.588 11.046-14.699 24.924-17.665 38.156-3.3406 14.904-8.1664 36.434 4.2396 55.115 1.7178 2.5865 12.789 18.705 31.09 21.905 14.748 2.5782 25.453-4.7611 31.09 1.4132 2.6697 2.9241.54848 4.8768 2.1198 16.958 1.6265 12.505 5.718 24.398 7.066 28.264 3.1601 9.0621 4.7781 10.983 3.533 12.719-3.215 4.4828-16.724-4.5269-35.33-6.3595-3.8714-.38129-29.468-2.518-51.582 14.132-4.5089 3.3948-20.648 15.926-25.438 38.156-5.525 25.645 7.916 46.279 14.132 55.821 3.3075 5.0775 21.459 30.056 52.812 35.696 16.344 2.9401 22.257.38555 60.244-4.6061 24.041-3.1593 39.309-8.9687 42.396-3.533 1.3514 2.3795-.51717 5.1469-4.9462 14.132-4.9642 10.071-11.236 22.794-13.425 31.797-3.0172 12.406-.61137 27.32 6.3594 38.156 6.711 10.432 16.957 15.905 37.45 26.851 13.551 7.2378 18.548 8.1937 22.611 14.839 5.9347 9.7063 5.9903 25.197-1.4132 31.09-6.9438 5.5271-14.733-1.9391-40.276-5.6528-21.982-3.196-25.105 1.0406-48.049-3.533-2.465-.49133-13.893-2.8434-27.557-9.1858-11.52-5.3472-19.032-8.955-20.491-15.545-1.4433-6.5187 4.494-9.371 10.599-21.905 1.7606-3.6147 10.46-21.473 6.3594-38.863-1.405-5.9589-3.5871-15.433-15.545-24.024-26.768-19.232-60.623-30.198-79.139-32.504-56.477-7.0319-69.445 10.602-98.924-4.2395-19.551-9.8438-29.69-25.578-40.983-43.103-12.187-18.912-14.769-31.064-33.917-98.924-15.623-55.367-15.337-52.36-16.958-60.768-2.0125-10.438-1.8012-11.696-2.8264-101.75-.11233-9.8663-.29963-26.081 10.599-36.743 3.7618-3.68 8.2526-6.1199 15.545-8.4792z"/>
  <path class="cls-4" d="m279.58 790.74c14.481 2.8548 29.511 13.564 28.457 26.946s-26.876 54.254-50.766 32.01c-23.89-22.244-53.053-52.469-26.001-56.086 27.052-3.6169 31.798-6.1259 48.31-2.8707z"/>
  <path class="cls-3" d="m323.03 761.37c12.263 5.7208 16.84 7.0014 18.76 7.5038 7.6607 2.0051 13.637 2.2527 20.636 2.5013 11.475.40755 13.783-.82998 28.139-.93801 19.726-.14843 22.142 2.1368 23.137 3.4392 3.2615 4.2689.00813 9.4326-1.876 22.199 0 0-2.0685 14.015 0 30.328 1.8873 14.884 3.6116 28.482 13.444 35.643 10.347 7.5354 22.753 2.9012 25.951 10.318 1.5537 3.6031.14811 8.2268-2.1886 10.943-5.3656 6.237-16.889 3.8677-33.142.3127-19.925-4.3582-29.887-6.5372-32.517-13.444-2.8323-7.4402 5.4855-10.89 8.7545-29.077.63142-3.5128 2.4971-15.49-1.2507-29.703-1.6764-6.3573-3.455-13.102-9.0672-19.385-5.1513-5.7669-10.709-7.9842-21.261-12.194-12.461-4.9712-15.929-4.012-28.535-9.5977-5.9659-2.6434-5.0322-2.7885-12.982-6.6492-2.5664-1.2464-14.526-6.9922-32.138-12.665-5.2309-1.685-10.653-3.2643-28.582-7.6175-38.774-9.4143-35.849-7.4744-41.744-9.8221-14.522-5.7838-24.005-14.906-42.971-33.149-9.5494-9.1857-19.412-18.673-29.875-33.559-10.581-15.054-15.935-27.317-24.555-47.064-6.3001-14.432-12.413-28.435-18.007-48.292-8.0292-28.5-9.9177-51.056-11.05-65.48-1.2711-16.195-.84737-26.757 0-47.882.77655-19.358 2.029-26.784 7.2218-33.874 7.8123-10.667 19.803-14.102 24.927-15.495 17.768-4.8319 23.351 2.971 49.854 4.716 27.482 1.8095 51.652-4.5935 54.57-5.3897 8.0858-2.2056 15.768-5.0295 29.643-7.4108 9.7218-1.6685 16.826-2.8378 26.275-2.0212 8.4705.73205 20.629 1.7829 30.317 10.779 3.4391 3.1937 10.355 9.6161 9.4319 16.843-1.2454 9.7507-15.36 9.9901-26.948 22.232-9.9817 10.545-11.673 23.218-14.148 41.77-1.6415 12.303-3.9734 31.551 4.7159 53.223 4.5621 11.379 9.4234 23.503 21.559 30.991 14.675 9.0537 30.299 5.3496 33.012 13.474 1.4404 4.3141-1.5059 9.728-4.7159 12.8-11.515 11.022-29.75-4.9028-50.528.67368-24.654 6.6168-43.215 40.908-39.749 69.392 1.1938 9.8116 5.2873 17.096 13.474 31.664 5.3 9.4314 19.202 34.169 43.314 48.48 6.5342 3.878 16.069 8.326 20.695 10.484z"/>
  <path class="cls-2" d="m84.715 357.03c-4.2773-5.8234.9294-15.895 21.248-49.034 31.958-52.122 47.936-78.184 62.927-95.616 10.525-12.24 31.147-34.869 61.292-58.84 9.6498-7.6734 38.486-29.965 80.906-51.485 22.051-11.187 51.564-25.934 93.164-35.958 48.379-11.658 87.005-10.64 111.96-9.8067 53.513 1.7861 92.953 12.201 102.15 14.71 11.014 3.0031 56.755 15.961 109.51 47.399 36.391 21.687 59.95 42.532 65.378 47.399 28.193 25.278 17.51 23.179 47.399 50.668 10.676 9.8191 20.622 17.981 22.882 31.872.35555 2.1855 1.8773 12.849-5.7206 27.786-15.575 30.619-51.427 43.719-73.55 51.485-35.034 12.299-64.492.43193-76.047 15.386-9.3601 12.114-6.7451 41.027-3.0053 56.35 4.9886 20.439 30.001 19.709 30.018 35.321.03488 31.121-22.346 45.093-37.532 50.959-17.156 6.627-19.486 3.9868-28.224-10.219-6.1317-9.9682-7.8397-25.552-18.818-44.324-4.2395-7.2494-4.2406-16.651-40.706-56.431-29.081-31.725-48-37.284-51.659-39.233-31.56-16.812-65.008-12.868-81.016-19.327-11.569-4.6683-19.479-9.6127-21.69-21.11-11.869-61.72-26.865-61.881-37.134-69.011-9.7552-6.7735-23.119-17.224-32.652-14.636-3.1119.84467-9.8954 2.2166-11.784 10.855-6.6864 30.58-11.179 35.145-13.076 36.775-5.6663 4.8725-12.738 4.6936-17.979 4.9033-20.79.83221-49.497 5.8287-63.744 21.248-11.893 12.871-3.4911 23.157-15.527 33.506-11.789 10.137-29.311 8.4058-48.216 6.5379-30.163-2.9802-37.379-12.386-50.668-6.5379-12.939 5.6938-10.198 16.414-25.334 28.603-18.552 14.94-47.893 19.148-54.754 9.8068z"/>
  <path class="cls-3" d="m723.08 145.61c17.603 9.8763 25.677 16.463 30.053 20.286 17.619 15.394 16.381 21.908 36.064 39.821 11.457 10.427 16.553 12.475 27.799 24.794 10.532 11.536 15.797 17.454 15.778 24.794-.04094 15.827-22.276 27.431-33.059 33.059-17.994 9.3912-34.45 11.771-47.334 13.524-31.934 4.3438-38.782-2.1428-54.847 6.0106-3.6731 1.8642-21.464 11.414-27.048 30.053-3.8692 12.916-.25093 24.772 5.2593 42.826 5.3468 17.519 10.832 24.359 10.519 39.821-.05391 2.6625-.3648 18.011-6.0106 19.535-3.9143 1.0565-8.6791-4.9948-16.529-15.778-14.468-19.873-21.597-31.344-27.048-39.069-8.9949-12.748-17.517-20.771-34.561-36.815-17.742-16.702-26.614-25.053-38.318-31.556-15.502-8.6133-30.919-13.95-53.345-18.783-23.4-5.0431-30.796-6.166-35.313-13.524-6.1306-9.9867-7.2596-17.594-10.06-38.798-4.7477-35.947-26.621-17.973-39.169-31.877-5.1331-5.6881-13.529-14.658-24.402-21.738-11.036-7.1856-25.893-1.9522-29.302-.75141-2.1165.74556-15.665 5.7348-22.54 18.783-4.5205 8.5799-1.8502 12.473-7.5133 21.037-.87012 1.316-5.6152 8.3051-14.275 12.773-9.4056 4.8522-14.958 2.3596-26.297 3.7566-2.0426.25167-29.052 3.9245-42.826 22.54-7.2466 9.7935-4.2979 14.895-12.773 22.54-8.8664 7.9987-11.785 10.629-15.652 12.154-14.253 5.6214-22.421-6.7037-38.444-9.1484-6.6594-1.016-34.634 18.66-43.218 27.96-13.131 14.228-17.818-.8566-16.889-6.1714.36838-2.1082 3.7105-13.486 13.524-30.053 16.628-28.073 33.06-47.113 34.561-48.836 40.579-46.569 86.906-78.679 89.408-80.393 19.092-13.075 51.636-35.031 99.927-51.842 14.93-5.1973 53.158-17.49 104.44-21.037 16.042-1.1099 64.656-3.529 125.47 10.519 0 0 60.492 13.973 123.97 49.588z"/>
  <path class="cls-2" d="m719.85 183c10.107 9.8116 19.954 19.895 30.248 29.51 20.67 19.307 26.016 22.104 25.821 28.772-.39691 13.575-23.16 22.848-25.084 23.608-21.441 8.4764-30.486-3.1471-51.643 4.4265-18.86 6.7513-30.107 22.587-33.199 27.297-12.058 18.366-7.7188 31.449-16.231 34.675-9.2348 3.4994-16.891-10.935-44.265-27.297-8.0334-4.8016-25.108-14.847-47.954-20.657-26.968-6.8584-38.172-1.7601-46.479-11.804-5.1614-6.2406-4.9867-16.049-4.4266-35.412 1.0024-34.654 7.732-36.685 4.4266-53.118-4.4641-22.194-18.441-26.953-15.493-42.79 2.4048-12.919 13.767-20.827 16.968-22.87 9.7234-6.2076 19.957-6.7114 70.087 2.951 45.612 8.7915 60.291 13.671 69.349 16.968 26.475 9.6387 37.497 17.623 40.577 19.919 4.4469 3.3161 5.1819 4.3534 27.297 25.821z"/>
  <path class="cls-3" d="m559.75 135.78c-9.2693 2.1675-19.15 4.4778-22.133 11.804-3.1778 7.8056 5.074 12.464 8.8531 29.51 3.6126 16.295.39362 31.532-.7378 36.888-3.1225 14.78-7.5035 17.904-5.1642 24.346 3.0186 8.3133 13.342 11.453 27.297 15.493 27.792 8.0448 36.136 1.4062 53.856 11.066 9.6048 5.2362 11.082 9.3285 16.968 8.853 12.374-.99968 12.152-19.596 28.035-27.297 14.567-7.0633 23.326 4.4225 41.314-3.6888 2.299-1.0367 17.243-8.0272 17.706-18.444.26018-5.8527-4.2002-9.4294-18.444-22.133-26.105-23.281-22.052-21.015-36.15-32.461-13.832-11.23-20.748-16.845-28.035-20.657-13.746-7.1912-25.347-9.4322-37.626-11.804-14.919-2.8821-28.848-5.4255-45.741-1.4755z"/>
  <path class="cls-3" d="m633.2 181.38c-4.4224-2.2173-30.33-15.207-40.577-5.902-3.8225 3.4712-1.156 6.1319-4.4266 25.821-2.4913 14.998-5.2046 20.474-4.4266 32.461.50494 7.7803.75747 11.67 3.6888 14.755 5.6119 5.9058 13.189 1.216 30.248 4.4266 14.399 2.7099 15.228 7.223 22.87 5.902 11.293-1.9522 11.343-12.129 23.608-17.706 16.559-7.5301 32.445 3.7543 35.412-1.4756 3.4433-6.0687-16.618-23.607-19.182-25.821-4.8287-4.1713-6.6345-4.9921-22.133-15.493-21.782-14.759-20.414-14.627-25.084-16.968z"/>
  <path class="cls-3" d="m168.15 268.7c16.213-20.919 30.811-34 36.743-38.478 76.115-57.448 70.282-59.4 104.02-78.202 13.182-7.3452 2.9443-.84657 64.923-30.248 9.6742-4.5892 27.906-13.278 53.118-16.968 22.419-3.2813 29.245.47969 32.461 4.4266 6.0118 7.3767 2.6114 19.324 2.2133 20.657-4.5437 15.214-19.049 16.771-19.182 26.559-.14099 10.381 16.107 13.503 15.493 22.871-.56278 8.584-14.986 17.843-27.297 16.231-11.803-1.5458-12.923-11.939-28.773-19.182-3.9537-1.8067-16.169-6.7739-29.51-4.4265-5.0105.88166-13.623 3.401-42.79 33.199-20.962 21.415-20.079 23.757-28.035 27.297-18.083 8.0461-19.692-.2474-35.129 9.4952-6.8094 4.2977-27.356-2.4491-29.056 21.491-1.4929 21.026-7.7503 22.285-11.256 22.286-9.3115.00213-25.155.3344-33.777.94482-12.763.90366-25.677 9.5666-28.896 8.0633-2.0168-.94184-2.507-16.685 4.7241-26.015z"/>
  <path class="cls-3" d="m404.83 132.1c-14.533 9.3672-22.829 5.946-41.314 11.066-15.11 4.1853-14.266 7.7726-51.643 30.986-29.275 18.181-31.866 17.269-59.758 35.412-27.842 18.111-14.207 11.831-37.626 27.297-14.377 9.4951-22.729 13.984-22.133 19.919.58575 5.8283 9.6518 11.572 16.968 10.329 8.3218-1.4139 8.5834-10.881 19.182-22.133 13.129-13.939 30.542-18.322 36.888-19.919 17.197-4.3291 21.18.82977 33.199-5.1644 4.1537-2.0717 5.6714-3.6821 21.395-19.919 22.151-22.875 23.903-24.599 28.035-27.297 5.6464-3.6877 17.423-11.379 33.199-11.804 11.406-.30728 20.041 8.5027 33.845 13.346 11.422 4.0073 25.825 12.598 22.963 1.4094-.4805-1.8781-7.1252-5.6939-10.329-15.493-.45263-1.3845-3.2371-10.319.7378-18.444 5.3938-11.025 18.844-11.587 18.444-16.231-.31334-3.6364-8.8836-7.0297-16.968-6.6398-10.66.51414-15.942 7.3874-25.084 13.28z"/>
  <path class="cls-3" d="m479.67 105.88c-5.5401 7.1243-.14886 13.193-6.5387 26.155-5.2656 10.681-11.511 11.803-11.443 18.799.0823 8.4303 9.177 9.477 10.626 18.799 1.6684 10.736-9.6159 14.363-8.9908 26.155.49973 9.4279 7.8185 9.1077 13.077 22.886 5.659 14.826 1.0156 25.233 7.3562 28.607 3.3583 1.787 8.0449.66805 10.625-1.6348 4.9944-4.4569 2.7712-13.948 1.6348-18.799-3.2739-13.976-9.7741-14.275-12.26-26.972-.66369-3.3899-2.2526-11.506.81733-20.434 2.5777-7.4961 6.1732-8.9735 5.7215-13.895-.66156-7.2083-8.7648-8.2854-10.626-15.53-.77086-3.001-.66688-7.8252 8.1735-19.616 14.957-19.949 28.329-24.373 26.972-28.607-1.7244-5.3828-26.252-7.3505-35.146 4.0868z"/>
  <path class="cls-2" d="m234.37 443.45c-7.4327 1.3128-16.483-.14949-34.584-3.0742-28.704-4.6379-33.036-8.4523-43.806-5.3797-12.33 3.5173-19.853 12.281-23.824 16.908-13.139 15.306-15.172 32.831-16.139 42.269-2.0634 20.129 2.9513 35.981 13.065 66.862 8.3294 25.433 16.265 42.12 27.667 66.094.93253 1.9608 9.9103 20.632 25.362 43.038 15.129 21.939 20.689 24.581 24.593 23.824 1.9443-.37661 5.6468-2.0157 13.065-23.824 7.1053-20.889 5.4687-24.56 10.759-39.195 3.9764-11 8.7014-24.07 19.982-36.121 12.44-13.29 22.007-13.751 23.056-22.287 1.1572-9.4138-10.114-11.796-17.676-26.899-8.87-17.715-6.6198-40.917.76852-56.871 6.5621-14.17 14.131-16.046 16.908-30.741.17475-.92504 3.8395-21.334-4.6112-26.13-7.2339-4.1058-14.86 8.0442-34.584 11.528z"/>
  <path class="cls-3" d="m859.33 524.27c-4.1801 5.7995-5.0014 8.8407-7.5798 15.545-2.4564 6.3876-1.3979 10.075-2.2375 14.165-.7498 3.6532-1.5581 9.6204 1.4741 11.84 3.6399 2.6647 11.641-.7147 15.762-6.0045 3.808-4.8876 1.3221-7.5788 4.5036-18.764 2.8895-10.158 6.2039-12.383 5.254-18.764-.54779-3.68-5.1098-4.9884-8.5887-4.7592-4.4758.29503-7.2682 4.911-8.5876 6.7416z"/>
  <path class="cls-3" d="m578.53 719.02c-1.0148 1.8864-2.3477 5.7954 2.3587 18.196 3.8399 10.117 5.4994 9.5496 7.7501 16.511 2.0219 6.2537 4.9433 15.29 1.011 22.913-2.8023 5.4327-7.395 6.8708-8.424 13.478-.09633.619-.48676 3.3721.33684 6.7392 1.365 5.5806 4.8566 7.9072 7.413 11.457 3.3552 4.6582 3.5847 9.3953 4.0436 18.87.7413 15.305-3.9976 21.36 0 25.946 1.9724 2.2626 5.2721 3.2506 12.131 3.0326 16.004-.5085 27.18-6.8138 48.185-17.185 22.389-11.055 19.317-8.6431 28.641-13.815 3.97-2.2021 14.606-8.7988 35.718-21.902 16.829-10.446 18.138-11.294 21.902-12.467 9.0902-2.8347 17.428-2.8698 19.207-7.75.84423-2.3161.12717-5.2405-1.3478-7.0761-2.1484-2.6739-5.8394-2.9462-8.0869-3.0326-9.9072-.3807-14.861-.57105-23.924 2.6957-12.111 4.365-26.943 2.6854-56.609-.67392-14.61-1.6545-23.513-2.7323-34.707-7.4131-8.6543-3.6188-15.469-8.0496-21.228-11.794-6.9973-4.5491-10.549-6.896-13.141-10.446-3.2736-4.4818-4.8993-9.4552-8.0869-19.207-2.591-7.9259-3.1772-11.525-5.7282-12.13-2.6014-.61775-5.8786 2.2014-7.4133 5.0544z"/>
  <path class="cls-3" d="m559.11 698.07c1.3543 6.0944 3.1084 8.1672 6.9973 22.346 2.7575 10.054 4.8046 9.7969 7.2184 16.972 5.2074 15.479 7.3832 16.408 8.163 24.489.56373 5.8432 1.4968 15.512-4.8978 22.04-4.27 4.3591-11.442 1.4601-13.469 5.7141-1.2396 2.6022.16673 5.6262.40815 6.1223 1.8091 3.7172 5.5345 3.823 8.9794 6.1223 4.469 2.9827 5.8364 8.6548 8.5712 19.999 1.1362 4.7131 2.5892 10.921 2.4489 19.183-.11992 7.0675-.20537 12.095-2.4489 18.367-1.5683 4.3839-3.282 6.8348-2.0408 8.9793 1.8133 3.1331 8.1971 2.6126 10.204 2.4489 5.1654-.42121 7.6352-2.2624 13.469-4.4896 4.8255-1.8424 7.078-2.0877 13.469-3.6734 11.696-2.902 24.792-7.2008 31.836-9.7957 13.634-5.0223 22.777-10.358 39.999-20.408 12.195-7.1166 10.496-6.8826 26.53-16.326 16.285-9.5913 24.427-14.387 28.163-16.326 1.9388-1.0065 7.8828-4.0663 15.101-8.9793.6209-.42284 5.2185-3.5787 10.612-8.5714 6.1406-5.684 6.9888-7.8942 7.3467-9.3875.76093-3.1744.44521-7.858-2.4489-10.204-2.364-1.9161-5.4745-1.4829-9.7957-.81636-10.446 1.6111-15.668 2.4165-19.591 3.2652-3.4001.73554-10.884.63639-25.714.40818-11.629-.17915-18.66-.28725-28.979-.81636-3.2718-.16775-15.029-.79722-29.795-2.857-9.0564-1.2634-12.304-2.0967-15.918-4.0816-5.7068-3.1343-6.3751-5.8711-12.653-8.5712-5.2333-2.2508-6.4442-1.0694-12.653-3.2652-4.5375-1.6048-9.7998-3.0552-13.061-7.3467-5.5164-7.2596-1.4369-13.643-8.5712-22.04-2.3556-2.7727-4.7757-4.4829-9.7956-7.755-9.621-6.2709-13.156-5.141-16.734-10.204-2.6732-3.7827-2.4304-6.8631-6.1223-8.9793-2.439-1.3982-5.8096-1.9251-6.5304-.81636-.69301 1.0657 1.4066 7.9215 1.7022 9.2515z"/>
  <path class="cls-2" d="m840.08 772.28c.35075 10.889-8.9153 18.538-31.63 35.971-39.966 30.673-59.948 46.01-74.423 54.577-29.46 17.437-54.316 28.271-66.981 33.49-85.397 35.192-99.432 38.484-109.77 31.63-9.1336-6.0532-13.271-16.585-16.745-25.428-7.6362-19.437-5.5564-39.269-4.3414-50.856 1.6075-15.329 3.9382-15.095 2.4808-21.087-4.2919-17.644-24.184-18.362-29.149-35.971-2.4631-8.7353 10.573-16.407 14.091-26.61 7.014-20.339 10.082-18.669 13.254-34.527 1.2174-6.0871 8.167-8.9246.46224-25.163-5.9052-12.445-12.634-56.688-7.6352-55.8 16.335 2.904 35.482 1.033 45.646-4.9297 3.9748-2.3318 16.398 28.839 25.559 39.977 11.141 13.544 23.678 21.62 32.981 26.33 14.032 7.1044 27.091 16.477 43.108 16.765 13.018.23357 9.247-.66643 43.816 3.6606 47.549 5.9518 46.247-4.2891 61.524-4.6555 27.992-.67134 29.655 6.0162 34.264 8.2895 10.61 5.2329 23.045 20.389 23.494 34.337z"/>
  <path class="cls-3" d="m557.37 672.22c3.7218-.27949 6.5972 2.4508 11.963 7.5455 2.2535 2.1397 1.7504 2.0046 7.1564 7.8721 3.4834 3.7807 5.862 6.3517 9.0647 9.3033 2.4621 2.269 3.816 3.2928 7.3949 6.2022 8.8594 7.2022 9.5044 8.1975 13.359 11.212 5.4106 4.2315 10.127 6.7968 19.561 11.927 9.2576 5.0348 16.789 8.4048 20.515 10.019 6.2749 2.7185 13.343 5.7541 22.9 8.5877 2.4825.73605 9.9567 2.8886 20.992 4.7709 12.25 2.0894 31.976 5.454 55.943 2.7882 5.5888-.62163 14.007-1.8603 26.412-1.9809 11.882-.11557 16.398.90171 20.47 3.6317.958.64244 8.651 5.9786 9.9047 15.517 1.0713 8.1509-3.2154 14.378-6.2729 18.819-1.2787 1.8573-4.8316 6.6887-19.479 16.508-5.9908 4.016-8.2996 5.1539-16.178 9.9047-29.204 17.612-31.524 22.506-42.26 23.441-4.0599.35355-8.02.02738-13.536 2.3111-6.9901 2.8938-10.803 7.6286-13.206 10.235-6.6286 7.1898-9.625 5.8838-40.279 20.8-19.39 9.4351-16.904 9.3314-26.412 13.206-12.73 5.1878-21.197 7.0085-34.666 9.9046-19.969 4.2937-24.174 3.0183-26.743.66031-3.0006-2.7545-3.431-7.0088-4.292-15.517-.27748-2.7419-.57327-7.1184.66031-23.111.45254-5.8667.98838-11.708 1.3206-20.47.31584-8.3279.12247-10.718-.99044-13.536-1.2227-3.0969-2.4176-3.8306-9.5745-11.886-8.7643-9.8641-9.487-11.594-9.9047-12.876-2.4338-7.47.68221-14.486 1.3206-15.847 2.3965-5.1102 5.0641-5.5603 8.2539-9.9047 4.1912-5.7084 4.5082-11.636 4.9523-22.781.14545-3.6498.42603-14.811-2.3111-30.044-4.0257-22.405-4.6221-24.761-4.6222-24.762-1.2804-5.0595-2.5977-9.3977-.66031-14.197 1.4022-3.4734 4.8052-7.9205 9.2444-8.2539z"/>
  <path class="cls-3" d="m837.81 706.69c-5.4046.5618-10.869.22456-16.291.58179-2.6419.17406-5.0587.37464-6.9817-1.1636-2.1835-1.7466-2.2099-4.5185-2.909-8.7272-1e-5-5e-5-.74745-4.4996-3.4909-12.8-2.3324-7.0567-6.5599-11.55-10.473-15.709-2.8283-3.0062-9.5456-9.9923-20.363-13.963-7.2159-2.6489-8.0533-.94505-18.618-3.4909-6.7158-1.6183-12.326-4.01-23.272-8.7271-12.117-5.2218-20.755-9.6512-25.6-12.218-17.517-9.2802-20.428-12.735-22.109-15.127-1.3916-1.9806-6.1433-8.9386-5.8181-18.036.15821-4.4255 1.3909-5.8084 4.6545-14.545 4.1179-11.024 6.6636-17.839 7.5635-26.181 1.2414-11.508-1.4228-18.746 1.1636-19.782 2.2263-.89145 4.1921 4.4748 11.636 8.1453 8.2517 4.0687 16.46 2.7133 18.618 2.3272 3.3419-.5979 7.7269-1.3824 11.636-4.6545 5.5468-4.6426 4.1482-9.2815 10.473-22.109 3.3768-6.8489 5.1268-10.301 8.1453-11.636 6.7983-3.008 12.262 4.1433 19.782 1.7454 3.7022-1.1806 6.2033-5.2637 11.054-13.382 10.168-17.015 15.261-25.559 15.709-27.345 3.2529-12.965.05767-24.389-1.7454-30.836-2.7365-9.7843-8.0706-20.731-9.309-23.272-5.4403-11.165-8.6323-14.742-6.9817-18.618 1.9473-4.5729 8.5418-4.6482 18.618-6.9817 14.265-3.3037 24.41-7.8063 35.49-14.545 21.239-12.917 22.048-23.705 47.238-33.943 0 0 16.777-7.0296 27.356 4.126 9.3258 9.8345 15.041 26.395 18.732 40.026 1.4143 5.2231 2.5288 10.538 3.8711 15.817 7.0136 27.581-2.9065 32.259-1.3514 48.154 1.6577 16.944 8.7117 12.02 9.7215 32.217.67824 13.565 1.1024 30.277 1.0298 33.585-1.0217 46.598-9.111 88.219-23.349 128.64-4.6715 13.264-13.933 29.831-24.056 40.114-18.177 18.464-54.632 21.775-59.774 22.31z"/>
  <path class="cls-3" d="m865.34 528.26c-.7573.29411-2.2898 1.0564-3.9286 3.7019-.68052 1.0986-1.5801 2.8459-2.7198 9.6703-.92703 5.5508-.66721 6.4025-.07552 6.9505 1.2753 1.1812 4.0514.9135 5.3639-.4533.95094-.99022.45781-1.8535 1.1333-4.9862.27281-1.2653.7868-3.6489 2.1909-6.0439 1.4387-2.4542 2.3869-2.4891 2.7953-4.3063.30774-1.3691.29008-3.6652-1.1332-4.6084-1.2681-.84037-2.9932-.17039-3.6264.07552z"/>
  <path class="cls-5" d="m201.17 345.2c.63027.0478 10.085.42995 10.764.47379 10.427.67297 17.044.21299 19.625 0 7.0626-.5827 12.295-1.6572 13.738-1.9625 6.1952-1.311 11.563-3.3647 20.279-6.5418 6.1834-2.2538 7.7927-3.0222 11.121-3.2709 1.1142-.08324 5.6598-.35029 12.429 1.9625 4.9495 1.691 7.5722 3.56 17.663 10.467 12.147 8.3147 7.9575 5.3397 14.392 9.8127 7.9869 5.5522 9.0581 6.3928 17.663 12.429q16.087 11.286 20.279 14.392c6.623 4.9068 5.0296 5.0181 15.046 13.738 12.852 11.188 15.046 13.083 15.046 13.084 8.9529 7.735 10.973 9.4155 11.121 12.429.1241 2.5204-1.1574 4.0051-7.8501 12.429-9.6792 12.183-7.2463 9.3893-9.8127 12.429-8.2428 9.7644-8.8965 9.6318-15.046 17.009-4.0318 4.8363-8.3793 10.091-13.084 17.663-3.1397 5.0537-5.2798 8.4984-7.1959 13.738-1.7494 4.7833-3.9872 10.902-3.2709 18.971.28845 3.2492 1.0406 10.601 6.5418 17.663 5.4061 6.9396 12.264 9.5751 15.046 10.467 3.3672 1.0793 13.061 4.1863 18.971-.65417 2.065-1.6913 5.0644-4.5476 7.1485-11.247 3.9031-12.547 4.4145-14.044 6.41-17.912 3.7053-7.1825 12.966-7.4667 14.318-7.5155 2.7725-.09992 8.5525.9506 12.041 4.5201 2.8527 2.9186 2.0993 6.2832 1.7373 14.378-.54722 12.236-2.7628 21.076-3.0585 23.665-1.258 11.013-2.0668 18.094-1.3084 26.821.68549 7.8882 2.8556 14.853 7.1959 28.784 3.5579 11.419 5.3368 17.129 8.5043 24.205 7.3294 16.373 13.859 22.729 11.121 26.821-1.8858 2.8183-5.5481.64765-15.046 3.2709-3.1812.87862-11.394 3.2421-18.317 9.8126-5.6506 5.363-7.9056 11.122-10.467 17.663-3.1033 7.9253-.42692 5.7188-4.5792 22.242-.63116 2.5116-1.2744 4.876 0 6.5418 1.9481 2.5465 6.9141 1.5476 13.084.65417 6.7213-.97327 13.555-1.0115 20.279-1.9625 6.6318-.9379 18.748-2.6514 32.055-2.6167 6.4869.0169 13.047.66547 26.167 1.9626 20.796 2.056 16.802 2.2217 20.934 2.6167 2.8919.27646 6.8571 2.1634 9.4827 2.9966 3.6849 1.1694 2.0212 6.7326.41263 14.259-1.6091 7.528-2.3003 8.6513-5.316 15.454-1.38 3.1128-4.6766 9.7621-11.121 16.354-3.3528 3.4297-3.9194 3.1223-18.971 14.392-7.902 5.9164-10.324 7.9316-11.775 11.775-2.0795 5.5082-.64292 10.741 0 13.084 2.1783 7.9354 7.5905 12.825 13.084 17.663 5.6751 4.9982 6.7093 4.2447 15.046 11.121 4.7672 3.9322 7.4062 6.1088 10.467 9.8126 2.1413 2.5913 6.6127 8.1077 9.1585 16.354.51263 1.6606 1.2693 4.4754 1.9625 13.738.568 7.59.62336 13.229.65417 21.588.04222 11.45-.01695 13 0 28.13.00609 5.4405.01853 9.5236 0 16.354-.01445 5.3198-.04059 9.7033-.06123 12.658"/>
  <path class="cls-5" d="m67.916 372.37c3.6031.65398 7.7921 1.2198 13.839 1.4352 7.7666.27664 13.529-.40288 20.934-1.3084 6.4382-.78726 13.554-1.6574 22.896-3.9251 13.199-3.2039 26.036-12.348 32.405-16.701"/>
  <path class="cls-7" d="m168.52 341.6c2.1107 0 3.8218 1.7488 3.8218 3.9059s-1.7111 3.9059-3.8218 3.9059-3.8218-1.7488-3.8218-3.9059 1.7111-3.9059 3.8218-3.9059"/>
  <path class="cls-7" d="m184.44 333.03c2.1107 0 3.8218 1.7488 3.8218 3.9059s-1.7111 3.9059-3.8218 3.9059-3.8218-1.7488-3.8218-3.9059 1.7111-3.9059 3.8218-3.9059"/>
  <path class="cls-7" d="m177.14 355.56c-2.7525-.60195-5.0541-2.4003-6.3467-4.9477-1.0193.47435-2.165.61846-3.2681.41131 1.5657 3.9284 4.8852 6.782 8.9582 7.6737.89303.19514 1.8066.29122 2.7143.28521-.70208-.9427-1.0928-2.0805-1.1192-3.2649-.31432-.03603-.62864-.08857-.93709-.15612l-.00147-.0015z"/>
  <path class="cls-7" d="m183.58 351.67c2.1107 0 3.8218 1.7488 3.8218 3.9059s-1.7111 3.9059-3.8218 3.9059-3.8218-1.7488-3.8218-3.9059 1.7111-3.9059 3.8218-3.9059"/>
  <path class="cls-7" d="m188.9 354.14c1.1882-1.5311 2.0255-3.34 2.4294-5.2659.70355-3.3535.047-6.8736-1.8022-9.7287-.44064 1.0598-1.1868 1.9574-2.1503 2.5729 1.0311 1.986 1.3469 4.2782.88422 6.4848-.2262 1.0793-.62571 2.097-1.1897 3.0262.90037.75356 1.5349 1.7683 1.8301 2.9107h-.00147z"/>
  <path class="cls-7" d="m168.23 339.9c.09694-.006.19388-.0075.29082-.0075.38629 0 .77259.04203 1.1545.12609.62277.1351 1.2088.37828 1.7449.71753 1.7214-2.5294 4.496-4.0485 7.5055-4.104.01469-.29422.05288-.58994.11457-.87815.17626-.83762.53464-1.6182 1.0443-2.2877-4.8059-.38879-9.4767 2.1451-11.855 6.4338"/>
  <circle class="cls-6" cx="380.54" cy="309.93" r="4.8042"/>
  <path class="cls-6" d="m786.31 702.23c-20.179 9.3196-43.508 14.641-68.362 14.641-65.544 0-120.45-35.737-135.83-84.195l-.15996-.07919c-10.601 4.5229-22.001 7.5305-33.925 8.777-4.0849.42706-8.2281.65823-12.426.65823-8.0173 0-15.847-.80229-23.416-2.3231l13.344 59.395c-37.586-6.8936-66.508-8.8592-111.93 0 1.4012-12.78 9.7547-25.644 22.007-32.119 5.3802-2.8433 11.509-4.4602 18.017-4.4602 7.8232 0 15.098 2.3329 21.181 6.3308 0 0-77.903-130.03-14.923-199.42 17.864-18.838 43.893-28.966 71.238-23.402"/>
  <path class="cls-6" d="m786.08 701.73c-175.46-24.719-135.59-138.22-135.59-138.22 32.6-105.24-57.876-219.95-171.28-231.18 0 0-20.243-1.3103-35.504-17.927-11.458-12.477-14.857-22.533-16.17-41.553-1.5777-22.852-18.625-28.614-20.144-29.421-.7918-.4204-1.7749-.11073-2.1675.69514-.7475 1.5345-20.279 41.674-20.279 41.674l-66.557 24.51c-3.3878 1.2475-5.4948 4.637-5.1144 8.2268l1.7641 16.645c.13678 1.2906.90359 2.4257 2.0449 3.0437 40.492 21.926 76.235 51.5 105.29 86.787l.3556.2914.0031.00256-.05607.0694-48.65 60.222c-4.3477 5.2526-6.8135 9.4535-7.8572 15.372-1.8439 10.457 3.375 20.519 12.226 25.312 1.6256.88025 3.3731 1.5821 5.2225 2.076.89048.2378 1.7951-.34853 1.9552-1.2561l4.979-28.235 73.458-33.47"/>
  <circle class="cls-1" cx="500" cy="500" r="450"/>
</svg>
