<?xml version="1.0" encoding="UTF-8" standalone="no"?>
<!-- Created with Inkscape (http://www.inkscape.org/) -->

<svg
   xmlns:dc="http://purl.org/dc/elements/1.1/"
   xmlns:cc="http://creativecommons.org/ns#"
   xmlns:rdf="http://www.w3.org/1999/02/22-rdf-syntax-ns#"
   xmlns:svg="http://www.w3.org/2000/svg"
   xmlns="http://www.w3.org/2000/svg"
   xmlns:sodipodi="http://sodipodi.sourceforge.net/DTD/sodipodi-0.dtd"
   xmlns:inkscape="http://www.inkscape.org/namespaces/inkscape"
   width="243.13445mm"
   height="212.00534mm"
   viewBox="0 0 861.5 751.20002"
   id="svg4247"
   version="1.1"
   inkscape:version="0.91 r13725"
   sodipodi:docname="xenial.svg">
  <defs
     id="defs4249" />
  <sodipodi:namedview
     id="base"
     pagecolor="#ffffff"
     bordercolor="#666666"
     borderopacity="1.0"
     inkscape:pageopacity="0.0"
     inkscape:pageshadow="2"
     inkscape:zoom="0.35"
     inkscape:cx="-337.10714"
     inkscape:cy="364.17146"
     inkscape:document-units="px"
     inkscape:current-layer="layer1"
     showgrid="false"
     fit-margin-top="0"
     fit-margin-left="0"
     fit-margin-right="0"
     fit-margin-bottom="0"
     inkscape:window-width="1920"
     inkscape:window-height="1004"
     inkscape:window-x="0"
     inkscape:window-y="24"
     inkscape:window-maximized="1" />
  <metadata
     id="metadata4252">
    <rdf:RDF>
      <cc:Work
         rdf:about="">
        <dc:format>image/svg+xml</dc:format>
        <dc:type
           rdf:resource="http://purl.org/dc/dcmitype/StillImage" />
        <dc:title></dc:title>
      </cc:Work>
    </rdf:RDF>
  </metadata>
  <g
     inkscape:label="Layer 1"
     inkscape:groupmode="layer"
     id="layer1"
     transform="translate(16.46429,-145.33364)">
    <path
       id="path971"
       inkscape:connector-curvature="0"
       class="st0"
       d="m 323.23571,277.13364 143.59999,-56.8 -251.79999,-75 108.2,131.8 z"
       style="fill:#82a94e" />
    <path
       id="path973"
       inkscape:connector-curvature="0"
       class="st0"
       d="m 547.1357,338.23364 127.5,32.1 -207.9,-150 80.4,117.9 z"
       style="fill:#82a94e" />
    <path
       id="path975"
       inkscape:connector-curvature="0"
       class="st1"
       d="m 466.7357,220.33364 19.3,178.9 61.1,-61.1 -80.4,-117.8 z"
       style="fill:#637f3d" />
    <path
       id="path977"
       inkscape:connector-curvature="0"
       class="st2"
       d="m 323.23571,277.13364 162.89999,122.1 -19.3,-178.9 -143.59999,56.8 z"
       style="fill:#a8bd62" />
    <path
       id="path979"
       inkscape:connector-curvature="0"
       class="st2"
       d="m 486.0357,399.33364 188.6,-28.9 -127.5,-32.2 -61.1,61.1 z"
       style="fill:#a8bd62" />
    <path
       id="path981"
       inkscape:connector-curvature="0"
       class="st3"
       d="m 486.0357,399.33364 225,92.1 -36.4,-121.1 -188.6,29 z"
       style="fill:#68873f" />
    <path
       id="path983"
       inkscape:connector-curvature="0"
       class="st2"
       d="m 486.0357,399.33364 130.7,191.80002 94.3,-99.60002 -225,-92.2 z"
       style="fill:#a8bd62" />
    <path
       id="path985"
       inkscape:connector-curvature="0"
       class="st3"
       d="m 747.5357,662.83366 97.5,-13.9 -134,-157.50002 36.5,171.40002 z"
       style="fill:#68873f" />
    <path
       id="path987"
       inkscape:connector-curvature="0"
       class="st2"
       d="m 616.7357,591.13366 130.7,71.8 -36.4,-171.40002 -94.3,99.60002 z"
       style="fill:#a8bd62" />
    <path
       id="path989"
       inkscape:connector-curvature="0"
       class="st3"
       d="m 643.5357,691.83366 103.9,-28.9 -130.7,-71.8 26.8,100.7 z"
       style="fill:#68873f" />
    <path
       id="path991"
       inkscape:connector-curvature="0"
       class="st1"
       d="m 845.0357,648.93366 -170.4,-278.60002 36.4,121.1 134,157.50002 z"
       style="fill:#637f3d" />
    <path
       id="path997"
       inkscape:connector-curvature="0"
       class="st3"
       d="m 575.0357,838.63366 68.6,-146.8 -86.8,84.6 18.2,62.2 z"
       style="fill:#68873f" />
    <path
       id="path999"
       inkscape:connector-curvature="0"
       class="st1"
       d="m 575.0357,838.63366 172.5,-175.7 -103.9,28.9 -68.6,146.8 z"
       style="fill:#637f3d" />
    <path
       id="path1003"
       inkscape:connector-curvature="0"
       class="st2"
       d="m 575.0357,838.63366 270,-189.6 -97.5,13.9 -172.5,175.7 z"
       style="fill:#a8bd62" />
    <path
       id="path1149"
       inkscape:connector-curvature="0"
       sodipodi:nodetypes="cccc"
       class="st3"
       d="m 313.53571,693.93366 140.39999,41.8 -6.4,-106.1 -133.99999,64.3 z"
       style="fill:#68873f" />
    <path
       id="path1151"
       inkscape:connector-curvature="0"
       sodipodi:nodetypes="cccc"
       class="st2"
       d="m 453.9357,735.73366 102.9,40.7 -109.3,-146.8 6.4,106.1 z"
       style="fill:#a8bd62" />
    <path
       id="path1153"
       inkscape:connector-curvature="0"
       sodipodi:nodetypes="cccc"
       class="st4"
       d="m 367.13571,853.63366 86.79999,-117.9 -140.39999,-41.8 53.6,159.7 z"
       style="fill:#789c48" />
    <path
       id="path1157"
       inkscape:connector-curvature="0"
       sodipodi:nodetypes="cccc"
       class="st2"
       d="m 556.7357,776.43366 -18.2,120 36.4,-57.9 -18.2,-62.1 z"
       style="fill:#a8bd62" />
    <path
       id="path1159"
       inkscape:connector-curvature="0"
       sodipodi:nodetypes="cccc"
       class="st3"
       d="m 453.9357,735.73366 84.6,160.7 18.2,-120 -102.8,-40.7 z"
       style="fill:#68873f" />
    <path
       id="path1161"
       inkscape:connector-curvature="0"
       sodipodi:nodetypes="cccc"
       class="st4"
       d="m 367.13571,853.63366 171.39999,42.9 -84.6,-160.7 -86.79999,117.8 z"
       style="fill:#789c48" />
    <path
       id="path1163"
       inkscape:connector-curvature="0"
       sodipodi:nodetypes="cccc"
       class="st1"
       d="m 235.33571,896.43366 303.19999,0 -171.39999,-42.8 -131.8,42.8 z"
       style="fill:#637f3d" />
    <path
       id="path168"
       inkscape:connector-curvature="0"
       class="st1"
       d="m 313.53571,693.93366 -32.4,21.5 86,138.1 -53.6,-159.6 z"
       style="fill:#637f3d" />
    <path
       id="path1334"
       inkscape:connector-curvature="0"
       class="st2"
       d="m 250.03571,420.03364 69.7,-53.8 -74.2,-68.9 4.5,122.7 z"
       style="fill:#a8bd62" />
    <path
       id="path1336"
       inkscape:connector-curvature="0"
       sodipodi:nodetypes="cccc"
       class="st4"
       d="m 160.63571,408.63364 89.4,11.4 -4.5,-122.7 -84.9,111.3 z"
       style="fill:#789c48" />
    <path
       id="path1340"
       inkscape:connector-curvature="0"
       class="st4"
       d="m 417.43571,496.53364 91.69999,-55.3 -189.39999,-75 97.7,130.3 z"
       style="fill:#789c48" />
    <path
       id="path1342"
       inkscape:connector-curvature="0"
       class="st1"
       d="m 264.43571,500.33364 55.3,-134.1 -69.7,53.8 14.4,80.3 z"
       style="fill:#637f3d" />
    <path
       id="path1344"
       inkscape:connector-curvature="0"
       class="st2"
       d="m 264.43571,500.33364 153,-3.8 -97.7,-130.3 -55.3,134.1 z"
       style="fill:#a8bd62" />
    <path
       id="path1346"
       inkscape:connector-curvature="0"
       sodipodi:nodetypes="cccc"
       class="st5"
       d="m 160.63571,408.63364 103.8,91.7 -14.4,-80.3 -89.4,-11.4 z"
       style="fill:#87ad51" />
    <path
       id="path1350"
       inkscape:connector-curvature="0"
       class="st4"
       d="m 417.43571,496.53364 152.99999,92.40002 -61.3,-147.70002 -91.69999,55.3 z"
       style="fill:#789c48" />
    <path
       id="path1352"
       inkscape:connector-curvature="0"
       sodipodi:nodetypes="cccc"
       class="st3"
       d="m 447.5357,629.63366 123,-40.7 -152.99999,-92.40002 29.99999,133.10002 z"
       style="fill:#68873f" />
    <path
       id="path1354"
       inkscape:connector-curvature="0"
       sodipodi:nodetypes="cccc"
       class="st1"
       d="m 220.43571,543.53366 93.1,150.5 -49.1,-193.60002 -44,43.10002 z"
       style="fill:#637f3d" />
    <path
       id="path1358"
       inkscape:connector-curvature="0"
       sodipodi:nodetypes="cccc"
       class="st1"
       d="m 313.53571,693.93366 133.89999,-64.3 -29.99999,-133.10002 -103.9,197.40002 z"
       style="fill:#637f3d" />
    <path
       id="path1360"
       inkscape:connector-curvature="0"
       sodipodi:nodetypes="cccc"
       class="st4"
       d="m 447.5357,629.63366 109.3,146.8 13.7,-187.5 -123,40.7 z"
       style="fill:#789c48" />
    <path
       id="path166"
       inkscape:connector-curvature="0"
       class="st6"
       d="m 417.43571,496.53364 -153,3.8 49.1,193.60002 103.9,-197.40002 z"
       style="fill:#83a34b" />
    <path
       id="path1561"
       inkscape:connector-curvature="0"
       sodipodi:nodetypes="cccc"
       class="st1"
       d="m 126.63571,468.93364 61.6,21.4 -27.6,-81.7 -34,60.3 z"
       style="fill:#637f3d" />
    <path
       id="path1565"
       inkscape:connector-curvature="0"
       sodipodi:nodetypes="cccc"
       class="st3"
       d="m 188.23571,490.33364 76.2,9.9 -103.8,-91.7 27.6,81.8 z"
       style="fill:#68873f" />
    <path
       id="path1567"
       inkscape:connector-curvature="0"
       class="st4"
       d="m -16.46429,477.53364 143,-8.6 -132.3,-45 -10.7,53.6 z"
       style="fill:#789c48" />
    <path
       id="path1569"
       inkscape:connector-curvature="0"
       sodipodi:nodetypes="cccc"
       class="st1"
       d="m 220.43571,543.53366 43.9,-43.20002 -76.2,-9.9 32.3,53.10002 z"
       style="fill:#637f3d" />
    <path
       id="path1571"
       inkscape:connector-curvature="0"
       sodipodi:nodetypes="cccc"
       class="st1"
       d="m 188.23571,490.33364 2.7,71.80002 29.6,-18.7 -32.3,-53.10002 z"
       style="fill:#637f3d" />
    <path
       id="path1573"
       inkscape:connector-curvature="0"
       class="st4"
       d="m 126.63571,468.93364 64.3,93.20002 -2.7,-71.80002 -61.6,-21.4 z"
       style="fill:#789c48" />
    <path
       id="path1575"
       inkscape:connector-curvature="0"
       class="st3"
       d="m -16.46429,477.53364 207.3,84.60002 -64.3,-93.20002 -143,8.6 z"
       style="fill:#68873f" />
    <path
       id="path1902"
       inkscape:connector-curvature="0"
       sodipodi:nodetypes="cccc"
       class="st4"
       d="m 161.43571,323.73364 84.1,-26.5 -101.9,-51.9 17.8,78.4 z"
       style="fill:#789c48" />
    <path
       id="path1904"
       inkscape:connector-curvature="0"
       class="st1"
       d="m 68.53571,333.23364 75,-87.9 -90.9,36.6 15.9,51.3 z"
       style="fill:#637f3d" />
    <path
       id="path1906"
       inkscape:connector-curvature="0"
       class="st3"
       d="m 68.53571,333.23364 92.8,-9.5 -17.8,-78.4 -75,87.9 z"
       style="fill:#68873f" />
    <path
       id="path1908"
       inkscape:connector-curvature="0"
       class="st1"
       d="m -14.76429,386.33364 83.3,-53 -15.9,-51.3 -67.4,104.3 z"
       style="fill:#637f3d" />
    <path
       id="path1910"
       inkscape:connector-curvature="0"
       sodipodi:nodetypes="cccc"
       class="st6"
       d="m 68.53571,333.23364 92.1,75.4 0.8,-84.9 -92.9,9.5 z"
       style="fill:#83a34b" />
    <path
       id="path1912"
       inkscape:connector-curvature="0"
       class="st2"
       d="m -14.76429,386.33364 89,41.7 -5.7,-94.7 -83.3,53 z"
       style="fill:#a8bd62" />
    <path
       id="path1914"
       inkscape:connector-curvature="0"
       sodipodi:nodetypes="cccc"
       class="st1"
       d="m 74.23571,427.93364 86.4,-19.3 -92.1,-75.4 5.7,94.7 z"
       style="fill:#637f3d" />
    <path
       id="path1916"
       inkscape:connector-curvature="0"
       sodipodi:nodetypes="cccc"
       class="st5"
       d="m 160.63571,408.63364 84.9,-111.4 -84.1,26.5 -0.8,84.9 z"
       style="fill:#87ad51" />
  </g>
</svg>
