<?xml version="1.0" encoding="UTF-8" standalone="no"?>
<!-- Created with Inkscape (http://www.inkscape.org/) -->

<svg
   xmlns:dc="http://purl.org/dc/elements/1.1/"
   xmlns:cc="http://creativecommons.org/ns#"
   xmlns:rdf="http://www.w3.org/1999/02/22-rdf-syntax-ns#"
   xmlns:svg="http://www.w3.org/2000/svg"
   xmlns="http://www.w3.org/2000/svg"
   xmlns:sodipodi="http://sodipodi.sourceforge.net/DTD/sodipodi-0.dtd"
   xmlns:inkscape="http://www.inkscape.org/namespaces/inkscape"
   width="160.58444mm"
   height="88.025108mm"
   viewBox="0 0 568.99999 311.89999"
   id="svg4184"
   version="1.1"
   inkscape:version="0.91 r13725"
   sodipodi:docname="zapus.svg">
  <defs
     id="defs4186" />
  <sodipodi:namedview
     id="base"
     pagecolor="#ffffff"
     bordercolor="#666666"
     borderopacity="1.0"
     inkscape:pageopacity="0.0"
     inkscape:pageshadow="2"
     inkscape:zoom="0.98994949"
     inkscape:cx="287.57348"
     inkscape:cy="175.07929"
     inkscape:document-units="px"
     inkscape:current-layer="layer1"
     showgrid="false"
     fit-margin-top="0"
     fit-margin-left="0"
     fit-margin-right="0"
     fit-margin-bottom="0"
     inkscape:window-width="1920"
     inkscape:window-height="1004"
     inkscape:window-x="0"
     inkscape:window-y="24"
     inkscape:window-maximized="1" />
  <metadata
     id="metadata4189">
    <rdf:RDF>
      <cc:Work
         rdf:about="">
        <dc:format>image/svg+xml</dc:format>
        <dc:type
           rdf:resource="http://purl.org/dc/dcmitype/StillImage" />
        <dc:title></dc:title>
      </cc:Work>
    </rdf:RDF>
  </metadata>
  <g
     inkscape:label="Layer 1"
     inkscape:groupmode="layer"
     id="layer1"
     transform="translate(13.071429,-387.84078)">
    <path
       id="path618"
       inkscape:connector-curvature="0"
       class="st0"
       d="m 372.32857,403.94078 68.5,20.3 -28.8,-36.4 -39.7,16.1 z"
       style="fill:#a8bd62" />
    <path
       id="path620"
       inkscape:connector-curvature="0"
       class="st1"
       d="m 372.32857,403.94078 28.8,104.9 39.8,-84.6 -68.6,-20.3 z"
       style="fill:#87ad51" />
    <path
       id="path622"
       inkscape:connector-curvature="0"
       class="st0"
       d="m 304.72857,506.34078 67.7,-102.4 -79.6,12.7 11.9,89.7 z"
       style="fill:#a8bd62" />
    <path
       id="path626"
       inkscape:connector-curvature="0"
       class="st2"
       d="m 217.52857,502.94078 87.1,3.4 -11.8,-89.7 -75.3,86.3 z"
       style="fill:#637f3d" />
    <path
       id="path628"
       inkscape:connector-curvature="0"
       class="st2"
       d="m 304.72857,506.34078 96.4,2.5 -28.8,-104.9 -67.6,102.4 z"
       style="fill:#637f3d" />
    <path
       id="path630"
       inkscape:connector-curvature="0"
       class="st3"
       d="m 401.12857,508.84078 69.4,32.1 -29.6,-116.7 -39.8,84.6 z"
       style="fill:#68873f" />
    <path
       id="path632"
       inkscape:connector-curvature="0"
       class="st3"
       d="m 470.52857,541.04078 85.4,-39.8 -115,-77 29.6,116.8 z"
       style="fill:#68873f" />
    <path
       id="path634"
       inkscape:connector-curvature="0"
       class="st3"
       d="m 313.12857,597.74078 88,-88.8 -96.4,-2.5 8.4,91.3 z"
       style="fill:#68873f" />
    <path
       id="path636"
       inkscape:connector-curvature="0"
       class="st1"
       d="m 217.52857,502.94078 95.6,94.7 -8.5,-91.4 -87.1,-3.3 z"
       style="fill:#87ad51" />
    <path
       id="path638"
       inkscape:connector-curvature="0"
       class="st0"
       d="m 226.02857,661.14078 87.1,-63.4 -95.6,-94.7 8.5,158.1 z"
       style="fill:#a8bd62" />
    <path
       id="path640"
       inkscape:connector-curvature="0"
       class="st4"
       d="m 355.42857,657.74078 45.7,-148.9 -88,88.8 42.3,60.1 z"
       style="fill:#83a34b" />
    <path
       id="path642"
       inkscape:connector-curvature="0"
       sodipodi:nodetypes="cccc"
       class="st1"
       d="m 435.42857,564.24078 35.1,-23.3 -69.4,-32.1 34.3,55.4 z"
       style="fill:#87ad51" />
    <path
       id="path644"
       inkscape:connector-curvature="0"
       class="st3"
       d="m 314.82857,674.64078 40.6,-16.9 -42.3,-60.1 1.7,77 z"
       style="fill:#68873f" />
    <path
       id="path646"
       inkscape:connector-curvature="0"
       class="st3"
       d="m 240.42857,672.14078 72.7,-74.4 -87.1,63.4 14.4,11 z"
       style="fill:#68873f" />
    <path
       id="path648"
       inkscape:connector-curvature="0"
       class="st5"
       d="m 240.42857,672.14078 74.4,2.5 -1.7,-77 -72.7,74.5 z"
       style="fill:#789c48" />
    <path
       id="path719"
       inkscape:connector-curvature="0"
       sodipodi:nodetypes="cccc"
       class="st6"
       d="m 435.42857,564.24078 -34.3,-55.4 -45.7,148.9 80,-93.5 z"
       style="fill:#799f49" />
    <path
       id="path721"
       inkscape:connector-curvature="0"
       sodipodi:nodetypes="cccc"
       class="st3"
       d="m 435.42857,564.24078 62.2,-3.4 -27.1,-19.9 -35.1,23.3 z"
       style="fill:#68873f" />
    <path
       id="path713"
       inkscape:connector-curvature="0"
       class="st3"
       d="m 314.82857,674.64078 107.5,8.3 -66.9,-25.2 -40.6,16.9 z"
       style="fill:#68873f" />
    <path
       id="path715"
       inkscape:connector-curvature="0"
       sodipodi:nodetypes="cccc"
       class="st0"
       d="m 226.02857,661.14078 -239.099999,38.6 253.499999,-27.6 -14.4,-11 z"
       style="fill:#a8bd62" />
  </g>
</svg>
