<svg id="svg891" xmlns:rdf="http://www.w3.org/1999/02/22-rdf-syntax-ns#" xmlns="http://www.w3.org/2000/svg" height="128" width="128" version="1.1" xmlns:cc="http://creativecommons.org/ns#" xmlns:dc="http://purl.org/dc/elements/1.1/" viewBox="0 0 33.866665 33.866666">
 <metadata id="metadata888">
  <rdf:RDF>
   <cc:Work rdf:about="">
    <dc:format>image/svg+xml</dc:format>
    <dc:type rdf:resource="http://purl.org/dc/dcmitype/StillImage"/>
    <dc:title/>
   </cc:Work>
  </rdf:RDF>
 </metadata>
 <g id="layer1" transform="translate(-145.49 -253.61)">
  <path id="path2" style="stroke-width:.047318" d="m156.34 253.61c-.17129.005-.35583.0686-.56497.23363-.51245-.19762-1.0093-.26626-1.4536.13604-.6861-.089-.90906.0947-1.078.30904-.15061-.003-1.127-.15482-1.5748.51311-1.1253-.13315-1.4809.66188-1.0779 1.4032-.22982.35578-.46797.70726.0695 1.3855-.19012.37778-.0723.78778.37556 1.2837-.1182.53091.11413.90566.53086 1.1976-.0779.7268.66642 1.1493.88867 1.2998.0854.4235.26322.82286 1.1134 1.0438.14043.63121.65099.74004 1.1459.87253-1.6353.95061-3.0377 2.2012-3.0283 5.2698l-.23953.42727c-1.8752 1.1408-3.5623 4.806-.92415 7.7852.17228.93263.46129 1.6026.71861 2.3441.38488 2.9872 2.8965 4.3859 3.559 4.551.97095.73958 2.0048 1.4413 3.404 1.9329 1.3192 1.3604 2.7482 1.8785 4.1848 1.878.0208-.00053.0426 0 .0634 0 1.437.00053 2.8656-.51766 4.1848-1.878 1.3992-.49163 2.4331-1.1934 3.404-1.9329.66245-.16514 3.1741-1.5638 3.5592-4.551.25693-.74146.54604-1.4115.71828-2.3441 2.6384-2.9791.95108-6.6443-.92411-7.7852l-.23943-.42727c.01-3.0686-1.393-4.3192-3.0283-5.2698.49494-.13249 1.006-.24132 1.146-.87253.85029-.22097 1.0282-.62033 1.1134-1.0438.22239-.15047.9667-.57301.88862-1.2998.41687-.29195.6492-.6667.53091-1.1976.44762-.49589.56591-.90589.3757-1.2837.53752-.67825.29905-1.0297.0696-1.3855.40267-.74137.0473-1.5364-1.0784-1.4032-.44762-.66793-1.4238-.51623-1.5747-.51311-.16892-.21439-.39179-.39803-1.0779-.30904-.44431-.4023-.94115-.33366-1.4536-.13604-.6085-.48018-1.0112-.0953-1.4711.0503-.73673-.24074-.90518.089-1.2672.22328-.80345-.16978-1.0476.19987-1.4328.59001l-.44809-.009c-1.2118.71416-1.8142 2.1684-2.0271 2.9159-.21387-.74771-.81433-2.2019-2.0261-2.9159l-.4481.009c-.38517-.39014-.62932-.75978-1.4328-.59001-.36198-.13427-.52995-.46402-1.2672-.22328-.30189-.0955-.57964-.29405-.90613-.2839zm.0426.85772c.61513.22793.93216.5222 1.2662.81273.11309-.15269.28722-.26465.0767-.63306.43721.25187.76607.5486 1.0098.8811.27019-.17214.16088-.4075.1623-.62445.45425.36936.74242.76247 1.0949 1.1463.0714-.0517.13344-.22712.18832-.50469 1.0836 1.051 2.6143 3.6982.39369 4.7478-1.8889-1.5586-4.146-2.6916-6.6472-3.5415 3.2152 1.6578 5.0843 2.9988 6.1082 4.1405-.52428 2.1018-3.2602 2.1974-4.2605 2.1388.20488-.0956.3757-.20962.43627-.38517-.25079-.17838-1.1408-.0185-1.7621-.36765.23848-.0497.35015-.098.46182-.27397-.58674-.18691-1.2194-.34826-1.591-.65866.20067.002.38824.0449.6499-.13675-.52555-.28343-1.0865-.50772-1.5224-.94115.27184-.007.56497-.002.65014-.10267-.48121-.29811-.88725-.6298-1.2233-.99225.38044.0459.54108.007.63307-.0596-.36378-.37287-.82423-.68753-1.0438-1.1466.28248.0973.54098.13457.72722-.009-.12359-.27889-.65326-.44332-.95818-1.095.29739.0289.61276.0649.67588 0-.1383-.56251-.37508-.87869-.60736-1.2062.63642-.009 1.6006.003 1.5569-.0513l-.39349-.4021c.62161-.16737 1.2578.0269 1.7197.17105.20725-.16358-.004-.37045-.25693-.58168.52853.0705 1.006.19192 1.4375.35924.23044-.20815-.14999-.4163-.33406-.62445.81623.15482 1.1621.37239 1.5056.59024.24936-.23896.0147-.44209-.15379-.65015zm12.149 0c-.16845.20806-.40362.41119-.15426.65014.344-.21785.68942-.43541 1.5056-.59023-.18407.20815-.56403.41629-.33359.62445.43153-.16732.90897-.28869 1.4375-.35924-.25315.21123-.46419.4181-.25694.58168.46182-.14418 1.0978-.33842 1.7195-.17106l-.39368.40211c-.0435.0538.9208.0418 1.5572.0513-.23233.32753-.46939.64371-.60756 1.2062.0629.0649.37854.0289.67617 0-.3052.65166-.83468.81608-.95818 1.095.18595.14319.44431.10595.7268.009-.21956.45903-.67948.77369-1.0434 1.1466.0918.0663.25267.10552.6331.0596-.33642.36246-.74241.69415-1.2236.99225.0852.10032.37854.0961.65014.10268-.43579.43343-.99697.65772-1.5227.94115.26214.1817.44952.13911.65015.13674-.37192.31041-1.0041.47176-1.5913.65867.11167.17602.22334.22428.46229.27396-.62128.34921-1.5113.18927-1.7626.36766.0606.17555.23139.28958.43627.38517-1.0003.0587-3.7357-.0369-4.26-2.1388 1.024-1.1418 2.893-2.4828 6.1082-4.1405-2.5017.84987-4.7583 1.9828-6.6472 3.5415-2.2206-1.0495-.68989-3.6966.39321-4.7478.0549.27776.11734.45316.18832.50488.35299-.38384.64115-.77695 1.0949-1.1463.001.21696-.10789.45231.16277.62445.24321-.3325.57254-.62922 1.0093-.8811-.21056.36842-.036.48037.0771.63307.33359-.29053.65062-.5848 1.2662-.81273zm-6.2899 8.6577c.0554-.0010.11072-.0010.16608.00042 1.5747-.0175 3.5242 1.1749 3.5166 2.2982-.007.9913-1.3694 1.7938-3.5043 1.7787-2.091-.0251-3.4991-1.0083-3.4939-1.9694.004-.76607 1.6022-2.0692 3.3155-2.108zm-5.0597.66813c.3104.002.6298.0293.95487.0842 1.0954.18406-5.2494 5.7245-5.3474 4.4885-.0888-2.8712 1.8638-4.5865 4.3925-4.5728zm10.125.0946c2.5286-.0137 4.4814 1.7015 4.3925 4.5728-.0975 1.2359-6.4428-4.3045-5.3474-4.4885.32507-.0549.64446-.0823.95487-.0842zm-1.0684 3.4404a4.0755 3.4541 55.966 0 1 .15094 .002 4.0755 3.4541 55.966 0 1 2.6824 7.2893 4.0755 3.4541 55.966 1 1 -4.4933 -6.8 4.0755 3.4541 55.966 0 1 1.6599 -.49116zm-7.7785.19116a3.4541 4.0755 34.034 0 1 1.8108 .48926 3.4541 4.0755 34.034 1 1 -4.4933 6.8 3.4541 4.0755 34.034 0 1 2.6824 -7.2893zm13.592 2.0839c.0483-.001.0994.006.15331.0204 2.8584 1.6324 2.3621 5.2646.82001 6.5047-1.358.6033-2.4714-6.5-.97332-6.5251zm-19.603.0946c1.4982.0251.38455 7.1284-.97342 6.5251-1.5419-1.2402-2.0385-4.8723.8202-6.5047.0539-.0147.10491-.0213.15322-.0204zm10.163 4.9059a3.8512 3.5513 0 0 1 3.739 3.5498 3.8512 3.5513 0 0 1 -7.7024 0 3.8512 3.5513 0 0 1 3.9633 -3.5498zm8.3998 1.3206c.30047-.008.58201.0767.8361.27302.68374.68137 1.0845 3.2465-.11214 4.7829-1.6485 2.2873-3.88 2.3763-4.7114 1.7394-.86922-.82049-.20583-3.3666.9861-4.7625 1.023-1.155 2.0985-2.0091 3.0014-2.0328zm-17.409.54368c.99272-.0204 2.2112.76417 3.1987 1.9097 1.1016 1.3273 1.6036 3.6586.68421 4.3461-.8697.52475-2.9815.30851-4.4826-1.8478-1.0124-1.8099-.88185-3.651-.17105-4.1919.23252-.14196.49281-.21057.7708-.21624zm9.2089 6.3528c1.5028.01 3.3278.55078 3.3316 1.2544.0256.72916-1.8828 2.3758-3.73 2.3441-1.913.0823-3.7887-1.5672-3.7641-2.1388-.0289-.838 2.3294-1.4929 3.8668-1.4541.0965-.004.19542-.006.29573-.006z"/>
 </g>
</svg>
