<svg id="svg1483" xmlns:rdf="http://www.w3.org/1999/02/22-rdf-syntax-ns#" xmlns="http://www.w3.org/2000/svg" height="128" width="128" version="1.1" xmlns:cc="http://creativecommons.org/ns#" xmlns:dc="http://purl.org/dc/elements/1.1/" viewBox="0 0 33.866665 33.866668">
 <metadata id="metadata1480">
  <rdf:RDF>
   <cc:Work rdf:about="">
    <dc:format>image/svg+xml</dc:format>
    <dc:type rdf:resource="http://purl.org/dc/dcmitype/StillImage"/>
    <dc:title/>
   </cc:Work>
  </rdf:RDF>
 </metadata>
 <g id="layer1" transform="translate(-111.81 -72.205)">
  <path id="path2" style="stroke-width:.045059" d="m119.06 73.013c-.16312.0051-.33885.06531-.53801.22248-.48799-.18818-.96111-.25355-1.3842.12954-.65336-.08474-.86568.09013-1.0265.29429-.14342-.003-1.0733-.14743-1.4997.48862-1.0716-.12680-1.4102.63029-1.0265 1.3363-.21885.3388-.44563.67350.0662 1.3194-.18104.35975-.0688.75019.35764 1.2224-.11256.50556.10868.86243.50551 1.1404-.0742.69211.63462 1.0945.84626 1.2378.0813.40328.25066.78358 1.0603 0.994.13373.60109.61992.70473 1.0912.83089-1.5573.90524-2.8928 2.0962-2.8837 5.0182l-.22809.40688c-1.7857 1.0864-3.3923 4.5767-.88005 7.4136.16406.88812.43928 1.5262.68431 2.2322.36651 2.8446 2.7583 4.1765 3.3891 4.3338.92462.70428 1.9092 1.3725 3.2416 1.8407 1.2562 1.2954 2.617 1.7888 3.985 1.7884.0198-.00053.0405 0 .0604 0 1.3684.00053 2.7288-.49295 3.985-1.7884 1.3324-.46817 2.3169-1.1364 3.2416-1.8407.63083-.15726 3.0226-1.4892 3.3893-4.3338.24467-.70608.51998-1.3441.684-2.2322 2.5125-2.8369.90569-6.3272-.88-7.4136l-.228-.40688c.009-2.9221-1.3265-4.113-2.8838-5.0182.47132-.12616.95796-.22980 1.0913-.83089.80971-.21043.97913-.59072 1.0602-0.994.21177-.14329.92055-.54566.84621-1.2378.39697-.27801.61821-.63488.50556-1.1404.42626-.47222.53891-.86265.35777-1.2224.51187-.64588.28477-.98058.0662-1.3194.38345-.70598.0451-1.4631-1.0269-1.3363-.42626-.63605-1.3558-.49159-1.4996-.48862-.16086-.20416-.37309-.37904-1.0264-.29429-.42311-.38310-.89623-.31773-1.3842-.12954-.57946-.45726-.96291-.09071-1.4009.04787-.70157-.22925-.86198.08476-1.2067.21263-.7651-.16168-.99761.19033-1.3644.56184l-.42671-.0085c-1.154.68007-1.7276 2.0649-1.9303 2.7768-.20367-.71202-.77547-2.0968-1.9294-2.7768l-.42671.0085c-.36678-.37151-.59929-.72351-1.3644-.56184-.3447-.12787-.50466-.44187-1.2067-.21263-.28748-.09095-.55198-.28001-.86288-.27035zm.0405.81678c.58577.21705.88766.49727 1.2058.77393.10769-.14540.27351-.25201.073-.60284.41634.23985.7295.52241.96156.83904.25729-.16392.1532-.38805.15455-.59464.43257.35173.70698.72608 1.0427 1.0916.068-.04925.12706-.21628.17933-.48060 1.0319 1.0009 2.4895 3.5216.37489 4.5212-1.7988-1.4842-3.9481-2.5631-6.3299-3.3724 3.0618 1.5786 4.8416 2.8556 5.8167 3.9429-.49925 2.0015-3.1046 2.0925-4.0571 2.0367.19511-.09102.35777-.19961.41545-.36678-.23882-.16987-1.0864-.01756-1.678-.35011.22709-.04731.33343-.09327.43977-.26089-.55873-.17798-1.1612-.33163-1.5151-.62722.1911.0023.36971.04281.61889-.13022-.50047-.26990-1.0346-.48348-1.4498-.89623.25886-.0063.53801-.0023.61911-.09778-.45825-.28387-.8449-.59974-1.1649-.94489.36227.04371.51525.0063.60284-.05678-.34641-.35506-.78488-.65470-.99395-1.0918.269.09269.51516.12815.69251-.0082-.11769-.26558-.62209-.42216-.91245-1.0427.2832.0275.58352.06177.64363 0-.13171-.53566-.35719-.83675-.57838-1.1486.60604-.009 1.5242.0023 1.4826-.04884l-.37471-.38291c.59194-.15938 1.1978.0256 1.6376.16289.19736-.15577-.004-.35277-.24467-.55391.50331.06718.95796.18276 1.3689.34209.21944-.19821-.14284-.39643-.31812-.59464.77727.14743 1.1066.35462 1.4338.56206.23746-.22755.014-.42099-.14644-.61911zm11.569 0c-.16041.19812-.38435.39156-.14689.61911.32758-.20745.65651-.41463 1.4338-.56207-.17528.19822-.5371.39643-.31767.59464.41094-.15933.86559-.27490 1.3689-.34209-.24107.20115-.44203.39814-.24467.55391.43978-.13730 1.0454-.32226 1.6374-.16289l-.37489.38292c-.0414.05123.87684.03983 1.4829.04884-.22124.3119-.44699.61299-.57856 1.1486.0599.06178.36047.0275.6439 0-.29064.62056-.79485.77713-.91245 1.0427.17708.13635.4231.10089.6921.0082-.20907.43712-.64704.73676-.99355 1.0918.0874.06308.24062.10048.60289.05677-.32037.34515-.70697.66102-1.1652.94489.0811.09553.36048.09147.61912.09778-.415.41274-.9494.62632-1.45.89623.24962.17303.42806.13247.61911.13022-.35417.29559-.95616.44924-1.5153.62722.10634.16762.21268.21358.44023.26089-.59163.33254-1.4392.18024-1.6784.35011.0577.16717.22034.27576.41544.36678-.95255.05588-3.5574-.03514-4.0567-2.0367.97508-1.0873 2.7549-2.3643 5.8167-3.9429-2.3823.80931-4.5311 1.8882-6.3299 3.3724-2.1146-.99941-.65696-3.5202.37444-4.5212.0523.26450.11175.43153.17933.48078.33614-.36552.61055-.73987 1.0427-1.0916.001.20660-.10273.43072.155.59464.23161-.31663.54522-.59920.96112-.83905-.20052.35083-.0342.45744.0735.60285.31766-.27666.61956-.55689 1.2058-.77394zm-5.9896 8.2445c.0527-.0015.10544-.000873.15815.000582 1.4996-.01669 3.356 1.1188 3.3488 2.1885-.007.94399-1.304 1.7082-3.3371 1.6938-1.9912-.02388-3.3321-.96021-3.3272-1.8754.004-.72951 1.5257-1.9704 3.1573-2.0074zm-4.8182.63623c.29559.0018.59974.02794.90929.08021 1.0431.17528-4.9989 5.4512-5.0921 4.2743-.0846-2.7342 1.7749-4.3676 4.1828-4.3545zm9.6413.09012c2.408-.01309 4.2676 1.6203 4.1828 4.3545-.0928 1.1769-6.1352-4.099-5.0921-4.2743.30956-.05227.61371-.0784.90929-.08021zm-1.0174 3.2762a3.8809 3.2893 55.966 0 1 .14374 .0017 3.8809 3.2893 55.966 0 1 2.5544 6.9414 3.8809 3.2893 55.966 1 1 -4.2788 -6.4754 3.8809 3.2893 55.966 0 1 1.5807 -.46771zm-7.4073.18204a3.2893 3.8809 34.034 0 1 1.7244 .46591 3.2893 3.8809 34.034 1 1 -4.2788 6.4754 3.2893 3.8809 34.034 0 1 2.5544 -6.9414zm12.944 1.9844c.046-.000873.0946.0054.14599.01938 2.722 1.5545 2.2494 5.0133.78087 6.1943-1.2932.57450-2.3534-6.1898-.92686-6.2136zm-18.668.09012c1.4267.02388.36619 6.7882-.92696 6.2137-1.4683-1.181-1.9412-4.6397.78106-6.1943.0513-.01397.0999-.02028.1459-.01938zm9.6778 4.6717a3.6674 3.3818 0 0 1 3.5606 3.3803 3.6674 3.3818 0 0 1 -7.3347 0 3.6674 3.3818 0 0 1 3.7742 -3.3803zm7.9989 1.2576c.28613-.0072.55423.073.79619.25999.65111.64885 1.0328 3.0915-.10679 4.5546-1.5699 2.1782-3.6948 2.2629-4.4865 1.6564-.82774-.78133-.19601-3.206.93903-4.5352.97418-1.0999 1.9984-1.9132 2.8581-1.9357zm-16.578.51773c.94534-.01938 2.1056.72770 3.046 1.8186 1.049 1.2639 1.5271 3.484.65156 4.1387-.82819.49971-2.8392.29378-4.2687-1.7596-.96403-1.7235-.83976-3.4768-.16288-3.9918.22142-.13518.46929-.20051.73401-.20592zm8.7694 6.0496c1.4311.009 3.169.52449 3.1726 1.1945.0243.69436-1.7929 2.2624-3.552 2.2322-1.8217.0784-3.6079-1.4924-3.5844-2.0367-.0275-.79801 2.2183-1.4216 3.6822-1.3847.0919-.004.18609-.006.28162-.005z"/>
  <g id="text818" aria-label="64" style="fill:#000000" transform="matrix(.092207 0 0 .092207 96.148 70.678)">
   <path id="path822" d="m449.01 60.391q0-7.68 2.048-13.568 2.1333-5.9733 5.9733-9.984 3.9253-4.0107 9.472-6.144t12.544-2.2187l.59733 5.9733q-4.5227.08533-8.2773 1.024-3.6693.85333-6.5707 2.9013-2.9013 1.9627-4.864 5.12t-2.9867 7.7653q2.048-.93867 4.4373-1.536 2.4747-.59733 5.2053-.59733 4.4373 0 7.5093 1.3653 3.1573 1.3653 5.0347 3.6693 1.8773 2.2187 2.7307 5.2053.85333 2.9867.85333 6.144 0 2.9013-.93866 5.9733-.93867 2.9867-2.9013 5.5467-1.9627 2.4747-5.0347 4.096-3.072 1.536-7.3387 1.536-8.7893 0-13.141-5.888-4.352-5.888-4.352-16.384zm16.811-5.4613q-2.7307 0-5.0347.512-2.2187.512-4.5227 1.536-.0853.85333-.0853 1.7067 0 .768 0 1.7067 0 3.328.42667 6.3147.512 2.9013 1.6213 5.2053 1.1947 2.2187 3.1573 3.584 1.9627 1.28 5.0347 1.28 2.56 0 4.2667-1.024 1.7067-1.1093 2.816-2.7307 1.1093-1.6213 1.536-3.584.512-2.048.512-3.84 0-5.2053-2.3893-7.936-2.304-2.7307-7.3387-2.7307z"/>
   <path id="path824" d="m490.15 63.292q1.4507-3.4133 3.9253-7.8507 2.56-4.4373 5.7173-9.1307 3.1573-4.7787 6.7413-9.3013 3.584-4.608 7.2533-8.2773h6.8267v33.536h6.2293v5.8027h-6.2293v13.481h-6.84v-13.482h-23.63zm23.63-26.197q-2.304 2.4747-4.6933 5.4613-2.304 2.9867-4.5227 6.3147-2.2187 3.2427-4.1813 6.656-1.8773 3.4133-3.4133 6.7413h16.811z"/>
  </g>
 </g>
</svg>
