<svg width="128" height="128" version="1.0" xmlns="http://www.w3.org/2000/svg" xmlns:xlink="http://www.w3.org/1999/xlink"><defs><radialGradient id="radialGradient2480" cx="5" cy="41.5" r="5" gradientTransform="matrix(.59382 0 0 1.5367 41.141 -103.94)" gradientUnits="userSpaceOnUse" xlink:href="#linearGradient3681"/><linearGradient id="linearGradient2478" x1="17.554" x2="17.554" y1="46" y2="35" gradientTransform="matrix(1.757 0 0 1.397 -17.394 -16.412)" gradientUnits="userSpaceOnUse"><stop style="stop-opacity:0" offset="0"/><stop offset=".5"/><stop style="stop-opacity:0" offset="1"/></linearGradient><linearGradient id="linearGradient3681"><stop offset="0"/><stop style="stop-opacity:0" offset="1"/></linearGradient><radialGradient id="radialGradient2476" cx="5" cy="41.5" r="5" gradientTransform="matrix(.59382 0 0 1.5367 -6.6595 -103.94)" gradientUnits="userSpaceOnUse" xlink:href="#linearGradient3681"/><linearGradient id="linearGradient2509" x1="15.464" x2="15.464" y1="8.0321" y2="45.042" gradientTransform="matrix(2.7071 0 0 2.6646 -.96979 .92052)" gradientUnits="userSpaceOnUse"><stop style="stop-color:#c9af8b" offset="0"/><stop style="stop-color:#ad8757" offset=".25061"/><stop style="stop-color:#c2a57f" offset=".26044"/><stop style="stop-color:#9d7d53" offset="1"/></linearGradient><linearGradient id="linearGradient2507" x1="24.997" x2="24.997" y1="15.14" y2="38.516" gradientTransform="matrix(3.4711 0 0 4.1495 -17.402 -39.823)" gradientUnits="userSpaceOnUse"><stop style="stop-color:#dac197" offset="0"/><stop style="stop-color:#c1a581" offset=".24596"/><stop style="stop-color:#dac197" offset=".25642"/><stop style="stop-color:#a68b60" offset="1"/></linearGradient><radialGradient id="radialGradient2504" cx="24" cy="31" r="20" gradientTransform="matrix(4.5505 0 0 1.8 -45.213 27.2)" gradientUnits="userSpaceOnUse"><stop style="stop-color:#cbad7a" offset="0"/><stop style="stop-color:#cbae7d;stop-opacity:0" offset="1"/></radialGradient><linearGradient id="linearGradient2498" x1="44.995" x2="3.0052" y1="17.5" y2="17.5" gradientTransform="matrix(2.708 0 0 2.6575 -.99212 .99404)" gradientUnits="userSpaceOnUse" spreadMethod="reflect"><stop style="stop-color:#fff;stop-opacity:0" offset="0"/><stop style="stop-color:#fff" offset=".1"/><stop style="stop-color:#fff" offset=".9"/><stop style="stop-color:#fff;stop-opacity:0" offset="1"/></linearGradient><linearGradient id="linearGradient4799" x1="63.5" x2="63.5" y1="47.5" y2="23.5" gradientUnits="userSpaceOnUse"><stop style="stop-color:#ad8757" offset="0"/><stop style="stop-color:#c7ad88;stop-opacity:.39216" offset="1"/></linearGradient><linearGradient id="linearGradient2495" x1="26" x2="26" y1="22" y2="8" gradientTransform="matrix(3 0 0 2.7143 -8 .28571)" gradientUnits="userSpaceOnUse"><stop style="stop-color:#fff" offset="0"/><stop style="stop-color:#fff" offset=".32469"/><stop style="stop-color:#fff;stop-opacity:.6902" offset=".37369"/><stop style="stop-color:#fff;stop-opacity:0" offset="1"/></linearGradient><linearGradient id="linearGradient4803" x1="63.5" x2="63.5" y1="47.5" y2="23.5" gradientTransform="translate(1)" gradientUnits="userSpaceOnUse"><stop style="stop-color:#fff" offset="0"/><stop style="stop-color:#fff;stop-opacity:.31373" offset="1"/></linearGradient></defs><g><g transform="matrix(2.6759 0 0 2.6031 .046165 3.4479)" style="opacity:.3"><rect transform="scale(-1)" x="-3.6904" y="-47.848" width="2.9602" height="15.367" style="fill:url(#radialGradient2476);opacity:1"/><rect x="3.6904" y="32.482" width="40.412" height="15.367" style="fill:url(#linearGradient2478);opacity:1"/><rect transform="scale(1,-1)" x="44.11" y="-47.848" width="2.9602" height="15.367" style="fill:url(#radialGradient2480);opacity:1"/></g><path d="m23.423 23.57h79.857c4.66 0 6.75-.764 8.09 2.664l8.13 21.317v68.409c0 4.14.28 3.51-4.38 3.51h-102.24c-4.6584 0-4.3797.63-4.3797-3.51v-68.409l8.1257-21.317c1.302-3.359 2.135-2.664 6.797-2.664z" style="display:block;fill:url(#linearGradient2507);stroke-linecap:round;stroke-width:.9942;stroke:url(#linearGradient2509)"/><rect x="9" y="47" width="110" height="72" style="fill-rule:evenodd;fill:url(#radialGradient2504)"/><path d="m8.5 47.5h111" style="fill:none;opacity:.3;stroke-linecap:square;stroke-width:1px;stroke:url(#linearGradient2498)"/><path d="m63.5 24v23" style="fill:none;stroke-width:1px;stroke:url(#linearGradient4799)"/><path d="m58 22h12v38h-12v-38z" style="fill:url(#linearGradient2495);opacity:.4"/><path d="m64.5 24v23" style="fill:none;opacity:.3;stroke-width:1px;stroke:url(#linearGradient4803)"/></g><g transform="matrix(.27216 0 0 .27216 40.05 -173.81)" style="opacity:.5"><path d="m88 892.36c-39.765 0-72 32.234-72 72 0 39.763 32.235 72 72 72 39.764 0 72-32.237 72-72 0-39.766-32.236-72-72-72zm12.031 19.469 27.969 16.531-28 16.531zm-12.031 8.5c2.0513 0 4.0571.16348 6.0312.4375v6.125c-1.9633-.31757-3.974-.5-6.0312-.5-15.993 0-29.671 9.8014-35.281 23.75l-5.1875-3.0625c6.7361-15.703 22.338-26.75 40.469-26.75zm0 14.969c2.0539 0 4.0616.2445 6 .65625v6.2188c-1.913-.51143-3.9233-.78125-6-.78125-10.503 0-19.272 6.9793-22.031 16.562l-5.375-3.1875c3.976-11.313 14.777-19.469 27.406-19.469zm35.312 2.7812c5.4766 7.3423 8.7188 16.447 8.7188 26.281 0 9.9876-3.3661 19.225-9 26.625l-5.2188-3.0938c5.1065-6.4644 8.1562-14.625 8.1562-23.531 0-8.7392-2.9401-16.782-7.875-23.188zm-13.031 7.7188c4.2193 5.0467 6.7812 11.513 6.7812 18.562 0 7.209-2.6717 13.841-7.0625 18.938l-5.3438-3.1562c3.9062-4.1023 6.3125-9.6294 6.3125-15.781 0-5.9771-2.2607-11.391-5.9688-15.469zm-73.25 2.0312 27.969 16.531-28 16.531zm28.938 22.938c2.7592 9.5756 11.528 16.531 22.031 16.531 2.0771 0 4.0865-.27874 6-.78125v6.25c-1.9384.4118-3.9461.6563-6 .6563-12.639 0-23.439-8.1732-27.406-19.5zm-13.25 7.8125c5.6107 13.949 19.288 23.75 35.281 23.75 2.0373 0 4.0226-.1616 5.9688-.4687v6.0937c-1.9505.2713-3.942.4375-5.9688.4375-18.131 0-33.733-11.047-40.469-26.75zm47.281 5.7812 27.969 16.5-28 16.531z" style="fill:#ffffff"/></g></svg>
