<?xml version="1.0" encoding="UTF-8" standalone="no"?>
<svg
   xmlns:sketch="http://www.bohemiancoding.com/sketch/ns"
   xmlns:dc="http://purl.org/dc/elements/1.1/"
   xmlns:cc="http://creativecommons.org/ns#"
   xmlns:rdf="http://www.w3.org/1999/02/22-rdf-syntax-ns#"
   xmlns:svg="http://www.w3.org/2000/svg"
   xmlns="http://www.w3.org/2000/svg"
   xmlns:sodipodi="http://sodipodi.sourceforge.net/DTD/sodipodi-0.dtd"
   xmlns:inkscape="http://www.inkscape.org/namespaces/inkscape"
   enable-background="new 0 0 32 32"
   height="32px"
   id="Layer_1"
   version="1.0"
   viewBox="0 0 32 32"
   width="32px"
   xml:space="preserve"
   inkscape:version="0.91 r13725"
   sodipodi:docname="google+.svg"><metadata
     id="metadata29"><rdf:RDF><cc:Work
         rdf:about=""><dc:format>image/svg+xml</dc:format><dc:type
           rdf:resource="http://purl.org/dc/dcmitype/StillImage" /><dc:title></dc:title></cc:Work></rdf:RDF></metadata><defs
     id="defs27" /><sodipodi:namedview
     pagecolor="#ffffff"
     bordercolor="#666666"
     borderopacity="1"
     objecttolerance="10"
     gridtolerance="10"
     guidetolerance="10"
     inkscape:pageopacity="0"
     inkscape:pageshadow="2"
     inkscape:window-width="1920"
     inkscape:window-height="1004"
     id="namedview25"
     showgrid="false"
     inkscape:zoom="7.375"
     inkscape:cx="-6.8019079"
     inkscape:cy="27.650744"
     inkscape:window-x="0"
     inkscape:window-y="24"
     inkscape:window-maximized="1"
     inkscape:current-layer="g3" /><g
     id="g3"><path
       clip-rule="evenodd"
       d="M32,30c0,1.104-0.896,2-2,2H2c-1.104,0-2-0.896-2-2V2   c0-1.104,0.896-2,2-2h28c1.104,0,2,0.896,2,2V30z"
       fill="#E02F2F"
       fill-rule="evenodd"
       id="path5"
       style="fill:#ffffff" /><g
       id="g7"
       style="fill:#87a556;fill-opacity:1"><g
         id="g4165"
         transform="translate(1.0428939,1.1143815)"
         style="fill:#87a556;fill-opacity:1"><path
           sketch:type="MSShapeGroup"
           id="Shape"
           d="m 10.957106,13.885618 0,2.4 3.97,0 c -0.16,1.03 -1.2,3.02 -3.97,3.02 -2.3899998,0 -4.3399998,-1.98 -4.3399998,-4.42 0,-2.44 1.95,-4.42 4.3399998,-4.42 1.36,0 2.27,0.58 2.79,1.08 l 1.9,-1.8299995 c -1.22,-1.1399995 -2.8,-1.8299995 -4.69,-1.8299995 -3.8699998,0 -6.9999998,3.129999 -6.9999998,6.999999 0,3.87 3.13,7 6.9999998,7 4.04,0 6.72,-2.84 6.72,-6.84 0,-0.46 -0.05,-0.81 -0.11,-1.16 l -6.61,0 0,0 z"
           style="fill:#87a556;fill-opacity:1"
           inkscape:connector-curvature="0" /><path
           sketch:type="MSShapeGroup"
           id="Shape-Copy"
           d="m 25.957106,13.885618 -2,0 0,-2 -2,0 0,2 -2,0 0,2 2,0 0,2 2,0 0,-2 2,0"
           style="fill:#87a556;fill-opacity:1"
           inkscape:connector-curvature="0" /></g></g></g><g
     id="g13" /><g
     id="g15" /><g
     id="g17" /><g
     id="g19" /><g
     id="g21" /><g
     id="g23" /></svg>