<?xml version="1.0" encoding="UTF-8" standalone="no"?>
<svg
   xmlns:dc="http://purl.org/dc/elements/1.1/"
   xmlns:cc="http://creativecommons.org/ns#"
   xmlns:rdf="http://www.w3.org/1999/02/22-rdf-syntax-ns#"
   xmlns:svg="http://www.w3.org/2000/svg"
   xmlns="http://www.w3.org/2000/svg"
   xmlns:sodipodi="http://sodipodi.sourceforge.net/DTD/sodipodi-0.dtd"
   xmlns:inkscape="http://www.inkscape.org/namespaces/inkscape"
   version="1.1"
   width="32"
   height="32"
   viewBox="0 0 32 32"
   id="svg2"
   inkscape:version="0.91 r13725"
   sodipodi:docname="rss.svg">
  <metadata
     id="metadata10">
    <rdf:RDF>
      <cc:Work
         rdf:about="">
        <dc:format>image/svg+xml</dc:format>
        <dc:type
           rdf:resource="http://purl.org/dc/dcmitype/StillImage" />
        <dc:title></dc:title>
      </cc:Work>
    </rdf:RDF>
  </metadata>
  <defs
     id="defs8" />
  <sodipodi:namedview
     pagecolor="#ffffff"
     bordercolor="#666666"
     borderopacity="1"
     objecttolerance="10"
     gridtolerance="10"
     guidetolerance="10"
     inkscape:pageopacity="0"
     inkscape:pageshadow="2"
     inkscape:window-width="1920"
     inkscape:window-height="1004"
     id="namedview6"
     showgrid="false"
     fit-margin-top="0"
     fit-margin-left="0"
     fit-margin-right="0"
     fit-margin-bottom="0"
     inkscape:zoom="7.375"
     inkscape:cx="17.184257"
     inkscape:cy="15.381101"
     inkscape:window-x="0"
     inkscape:window-y="24"
     inkscape:window-maximized="1"
     inkscape:current-layer="svg2" />
  <path
     inkscape:connector-curvature="0"
     style="clip-rule:evenodd;fill:#ffffff;fill-rule:evenodd"
     d="m 32,30 c 0,1.104 -0.896,2 -2,2 L 2,32 C 0.896,32 0,31.104 0,30 L 0,2 C 0,0.896 0.896,0 2,0 l 28,0 c 1.104,0 2,0.896 2,2 l 0,28 z"
     id="path5" />
  <path
     d="m 4.4745763,4.4745763 0,4.3220337 c 10.3436377,0 18.7288137,8.385178 18.7288137,18.728814 l 4.322034,0 c 0,-12.73063 -10.320216,-23.0508477 -23.0508477,-23.0508477 z m 0,8.6440677 0,4.322034 c 5.5696517,0 10.0847457,4.515092 10.0847457,10.084746 l 4.322034,0 c 0,-7.956641 -6.450135,-14.40678 -14.4067797,-14.40678 z m 2.8813557,8.644068 c -1.591329,0 -2.8813557,1.290026 -2.8813557,2.881356 0,1.591329 1.2900267,2.881356 2.8813557,2.881356 1.591329,0 2.881356,-1.290027 2.881356,-2.881356 0,-1.59133 -1.290027,-2.881356 -2.881356,-2.881356 z"
     style="fill:#87a556;fill-opacity:1"
     id="path4"
     inkscape:connector-curvature="0" />
</svg>
