<?xml version="1.0" encoding="UTF-8" standalone="no"?>
<svg
   xmlns:dc="http://purl.org/dc/elements/1.1/"
   xmlns:cc="http://creativecommons.org/ns#"
   xmlns:rdf="http://www.w3.org/1999/02/22-rdf-syntax-ns#"
   xmlns:svg="http://www.w3.org/2000/svg"
   xmlns="http://www.w3.org/2000/svg"
   xmlns:sodipodi="http://sodipodi.sourceforge.net/DTD/sodipodi-0.dtd"
   xmlns:inkscape="http://www.inkscape.org/namespaces/inkscape"
   enable-background="new 0 0 32 32"
   height="32px"
   id="Layer_1"
   version="1.0"
   viewBox="0 0 32 32"
   width="32px"
   xml:space="preserve"
   inkscape:version="0.92.3 (unknown)"
   sodipodi:docname="youtube.svg"><metadata
     id="metadata25"><rdf:RDF><cc:Work
         rdf:about=""><dc:format>image/svg+xml</dc:format><dc:type
           rdf:resource="http://purl.org/dc/dcmitype/StillImage" /><dc:title></dc:title></cc:Work></rdf:RDF></metadata><defs
     id="defs23" /><sodipodi:namedview
     pagecolor="#ffffff"
     bordercolor="#666666"
     borderopacity="1"
     objecttolerance="10"
     gridtolerance="10"
     guidetolerance="10"
     inkscape:pageopacity="0"
     inkscape:pageshadow="2"
     inkscape:window-width="1920"
     inkscape:window-height="1004"
     id="namedview21"
     showgrid="false"
     inkscape:zoom="10.429825"
     inkscape:cx="9.1071589"
     inkscape:cy="25.083352"
     inkscape:window-x="0"
     inkscape:window-y="24"
     inkscape:window-maximized="1"
     inkscape:current-layer="g3" /><g
     id="g3"><path
       d="M32,30c0,1.104-0.896,2-2,2H2c-1.104,0-2-0.896-2-2V2c0-1.104,0.896-2,2-2h28c1.104,0,2,0.896,2,2V30z"
       fill="#55ACEE"
       id="path5"
       style="fill:#ffffff" /><path
       id="path820"
       d="M 27.498498,10.202878 C 27.222471,9.1635746 26.409224,8.345046 25.376644,8.0672648 23.50501,7.5625129 15.999995,7.5625129 15.999995,7.5625129 c 0,0 -7.5049704,0 -9.3766393,0.5047519 -1.0325792,0.2778241 -1.845836,1.0963098 -2.1218537,2.1356132 -0.5015021,1.883803 -0.5015021,5.814175 -0.5015021,5.814175 0,0 0,3.930379 0.5015021,5.814174 0.2760177,1.039312 1.0892745,1.823729 2.1218537,2.101509 1.871669,0.504751 9.3766393,0.504751 9.3766393,0.504751 0,0 7.504972,0 9.376649,-0.504751 1.03258,-0.27778 1.845827,-1.062197 2.121854,-2.10151 C 28,19.947432 28,16.017052 28,16.017052 c 0,0 0,-3.930371 -0.501502,-5.814174 z m -13.95306,9.382665 v -7.13698 l 6.272696,3.568577 z"
       inkscape:connector-curvature="0"
       style="fill:#87a556;fill-opacity:1;stroke-width:0.04394525" /></g><g
     id="g9" /><g
     id="g11" /><g
     id="g13" /><g
     id="g15" /><g
     id="g17" /><g
     id="g19" /></svg>