<svg width="32" height="32" version="1.1" viewBox="0 0 32 32" xmlns="http://www.w3.org/2000/svg"><path d="m29.5 5.125v5.9992c0 1.006-1.2169 1.4991-1.9205.79552l-1.6738-1.6739-11.415 11.415c-.43936.43936-1.1516.43936-1.591 0l-1.0606-1.0606c-.43936-.43936-.43936-1.1517 0-1.591l11.415-11.415-1.6736-1.6737c-.70645-.70646-.20611-1.9205.79552-1.9205h5.9989c.62133 0 1.125.50367 1.125 1.125zm-7.9205 11.568-.75.75a1.125 1.125 0 00-.32948.79551v6.761h-15v-15h12.375a1.1251 1.1251 0 00.79547-.32948l.75-.75c.7087-.70875.20676-1.9205-.79547-1.9205h-13.875c-1.2427 0-2.25 1.0073-2.25 2.25v16.5c0 1.2427 1.0073 2.25 2.25 2.25h16.5c1.2427 0 2.25-1.0073 2.25-2.25v-8.2611c0-1.0023-1.2118-1.5042-1.9205-.79547z" style="fill:#d4d3d0;stroke-width:.046875"/></svg>
