<svg id="svg4" xmlns:rdf="http://www.w3.org/1999/02/22-rdf-syntax-ns#" xmlns="http://www.w3.org/2000/svg" version="1.1" xmlns:cc="http://creativecommons.org/ns#" xmlns:dc="http://purl.org/dc/elements/1.1/" viewBox="0 0 512 512">
 <metadata id="metadata10">
  <rdf:RDF>
   <cc:Work rdf:about="">
    <dc:format>image/svg+xml</dc:format>
    <dc:type rdf:resource="http://purl.org/dc/dcmitype/StillImage"/>
    <dc:title/>
   </cc:Work>
  </rdf:RDF>
 </metadata>
 <path id="path2" style="stroke-width:.80645;fill:#87a556" d="m256 56c-110.45 0-200 89.58-200 200 0 110.48 89.55 200 200 200s200-89.52 200-200c0-110.42-89.55-200-200-200zm0 361.29c-89.14 0-161.29-72.12-161.29-161.29 0-89.11 72.15-161.29 161.29-161.29 89.106 0 161.29 72.154 161.29 161.29 0 89.137-72.122 161.29-161.29 161.29zm86.487-205.81c0 54.074-58.404 54.906-58.404 74.89v5.1105c0 5.3444-4.3331 9.6774-9.6774 9.6774h-36.812c-5.3444 0-9.6774-4.3331-9.6774-9.6774v-6.9831c0-28.827 21.855-40.35 38.37-49.61 14.162-7.9395 22.842-13.34 22.842-23.854 0-13.908-17.741-23.14-32.084-23.14-18.701 0-27.334 8.8524-39.469 24.169-3.2718 4.129-9.2419 4.896-13.44 1.7129l-22.439-17.015c-4.1186-3.1226-5.0411-8.9242-2.1323-13.196 19.054-27.979 43.323-43.698 81.109-43.698 39.573 0 81.815 30.89 81.815 71.613zm-52.616 134.84c0 18.677-15.194 33.871-33.871 33.871s-33.871-15.194-33.871-33.871 15.194-33.871 33.871-33.871 33.871 15.194 33.871 33.871z"/>
</svg>
