<svg id="svg4" xmlns:rdf="http://www.w3.org/1999/02/22-rdf-syntax-ns#" xmlns="http://www.w3.org/2000/svg" height="24" width="24" version="1.1" xmlns:cc="http://creativecommons.org/ns#" xmlns:dc="http://purl.org/dc/elements/1.1/" viewBox="0 0 24 24"><path id="path2" style="stroke-width:.043822" d="m22.094 3.5575h-20.188c-.4983 0-.906.3999-.906.8886v1.7774c0 .4888.4077.8887.9060.8887h20.188c.498 0 .906-0.4.906-.8887v-1.7774c0-.4887-.408-.8886-.906-.8886zm0 13.33h-20.188c-.4983 0-.906 0.4-.906.889v1.7773c0 .48879.40772.88867.90602.88867h20.188c.498 0 .906-0.4.906-.889v-1.7773c0-.48879-.40772-.88866-.90602-.88866zm0-6.6653h-20.188c-.4983 0-.906.399-.906.888v1.7773c0 .48878.40772.88866.90602.88866h20.188c.498 0 .906-0.4.906-.888v-1.7773c0-.48878-.40772-.88866-.90602-.88866z"/></svg>
