<svg version="1.1" viewBox="0 0 48 48" xmlns="http://www.w3.org/2000/svg"><path d="m38 13.5s-4.0128-3.1412-8.75-3.5l-.427.85488c4.2822 1.0491 6.2475 2.5489 8.302 4.3951-3.5411-1.8078-7.035-3.5-13.125-3.5s-9.5839 1.6922-13.125 3.5c2.0545-1.8462 4.3925-3.514 8.302-4.3951l-.427-.85488c-4.97.46812-8.75 3.5-8.75 3.5s-4.4809 6.4978-5.25 19.25c4.515 5.2089 11.375 5.25 11.375 5.25l1.435-1.911c-2.436-.847-5.1835-2.3581-7.56-5.089 2.8332 2.1438 7.1094 4.375 14 4.375s11.167-2.2312 14-4.375c-2.3756 2.7309-5.1231 4.242-7.56 5.089l1.435 1.911s6.86-.04113 11.375-5.25c-.76912-12.752-5.25-19.25-5.25-19.25zm-19.688 15.75c-1.6922 0-3.0625-1.5662-3.0625-3.5s1.3702-3.5 3.0625-3.5 3.0625 1.5662 3.0625 3.5-1.3702 3.5-3.0625 3.5zm11.375 0c-1.6922 0-3.0625-1.5662-3.0625-3.5s1.3702-3.5 3.0625-3.5 3.0625 1.5662 3.0625 3.5-1.3702 3.5-3.0625 3.5z" style="stroke-width:.875"/></svg>
