<svg id="Layer_1" xmlns:rdf="http://www.w3.org/1999/02/22-rdf-syntax-ns#" xmlns="http://www.w3.org/2000/svg" xml:space="preserve" height="32px" viewBox="0 0 32 32" width="32px" version="1.0" enable-background="new 0 0 32 32" xmlns:cc="http://creativecommons.org/ns#" xmlns:dc="http://purl.org/dc/elements/1.1/"><metadata id="metadata24"><rdf:RDF><cc:Work rdf:about=""><dc:format>image/svg+xml</dc:format><dc:type rdf:resource="http://purl.org/dc/dcmitype/StillImage"/><dc:title/></cc:Work></rdf:RDF></metadata><path id="path823" style="stroke-width:.048387;" d="m12.027 23.142c0 .09677-.11129.17419-.25162.17419-.15968.01452-.27097-.06291-.27097-.17419 0-.09677.11129-.17419.25161-.17419.14517-.01452.27097.06291.27097.17419zm-1.5048-.21774c-.03385.09678.06291.20807.20807.23710.1258.04838.27097 0 .3-.09678.02906-.09677-.06291-.20806-.20806-.25161-.1258-.03385-.26613.01452-.3.11129zm2.1387-.08226c-.14032.03385-.23710.1258-.22258.23710.01452.09677.14032.15968.28548.1258.14032-.03385.2371-.1258.22258-.22258-.01452-.09194-.14516-.15484-.28548-.14032zm3.184-18.542c-6.7113 0-11.845 5.0952-11.845 11.806 0 5.3661 3.3774 9.9581 8.2016 11.574.61936.11129.83710-.27097.83710-.58548 0-.3-.01452-1.9548-.01452-2.971 0 0-3.3871.72581-4.0984-1.4419 0 0-.55161-1.4081-1.3452-1.771 0 0-1.1081-.75968.07742-.74516 0 0 1.2048.09678 1.8677 1.2484 1.0597 1.8677 2.8355 1.3306 3.5274 1.0113.11129-.77420.42581-1.3113.77420-1.6306-2.7048-.3-5.4339-.69194-5.4339-5.3468 0-1.3306.36774-1.9984 1.1419-2.85-.1258-.31452-.53710-1.6113.1258-3.2855 1.0113-.31452 3.3387 1.3064 3.3387 1.3064.96774-.27097 2.0081-.41129 3.0387-.41129s2.071.14032 3.0387.41129 2.3274-1.6258 3.3387-1.3064c.66290 1.679.25162 2.971.12581 3.2855.77420.85645 1.2484 1.5242 1.2484 2.85 0 4.6694-2.85 5.0419-5.5548 5.3468.44516.38226.82258 1.1081.82258 2.2452 0 1.6306-.01452 3.6484-.01452 4.0452 0 .31452.22258.69677.83710.58548 4.8387-1.6065 8.1194-6.1984 8.1194-11.565 0-6.7113-5.4436-11.806-12.155-11.806zm-7.1418 16.689c-.06291.04838-.04838.15968.03385.25161.07742.07741.18871.11129.25161.04838.06291-.04838.04839-.15967-.03385-.25161-.07742-.07742-.18871-.11129-.25161-.04838zm-.52258-.39194c-.03385.06291.01452.14032.11129.18871.07741.04838.17419.03385.20806-.03385.03385-.06291-.01452-.14032-.11129-.18871-.09677-.029-.17419-.01452-.20806.03385zm1.5677 1.7226c-.07742.06291-.04838.20807.06291.3.11129.11129.25161.1258.31452.04838.06291-.06291.03385-.20807-.06291-.3-.10645-.11129-.25161-.1258-.31452-.04838zm-.55161-.71129c-.07742.04838-.07742.17419 0 .28548.07741.11129.20806.15968.27097.11129.07742-.06291.07742-.18871 0-.3-.06775-.11129-.19355-.15968-.27097-.09677z"/></svg>
