<svg width="32" height="32" version="1.1" viewBox="0 0 32 32" xmlns="http://www.w3.org/2000/svg"><g style="fill:#000000" aria-label="#irc"><path d="m5.9367 13.582h2.6465l.57178-2.9896h1.3723l-.57178 2.9896h1.4376v1.2089h-1.6827l-.55544 2.9242h2.2381v1.2089h-2.4668l-.57178 2.9896h-1.3723l.57178-2.9896h-2.6465l-.57178 2.9896h-1.3723l.57178-2.9896h-1.4376v-1.2089h1.6663l.55544-2.9242h-2.2218v-1.2089h2.4668l.57178-2.9896h1.3723zm-.80049 4.1331h2.6465l.57178-2.9242h-2.6465z" style="stroke-width:.40841px"/><path d="m15.02 21.914h-1.5193v-8.495h1.5193zm-.76782-10.031q-.40841 0-.70247-.26138-.27772-.27772-.27772-.73514t.27772-.71881q.29406-.27772.70247-.27772.40841 0 .68614.27772.29406.26138.29406.71881t-.29406.73514q-.27772.26138-.68614.26138z" style="stroke-width:.40841px"/><path d="m20.77 13.239q.19604 0 .44109.03267.26138.01634.50643.06535.24505.03267.44109.08168.21238.03267.31039.06535l-.26138 1.3233q-.1797-.06535-.60445-.14703-.40841-.09802-1.0619-.09802-.42475 0-.8495.09802-.40841.08168-.53911.11436v7.1391h-1.5193v-8.1356q.53911-.19604 1.3396-.3594.80049-.1797 1.797-.1797z" style="stroke-width:.40841px"/><path d="m27.632 22.11q-1.0292 0-1.8134-.32673-.76782-.32673-1.3069-.91485-.52277-.58812-.78415-1.3886-.26138-.81683-.26138-1.797t.27772-1.797q.29406-.81683.81683-1.4049.52277-.60445 1.2742-.93118.76782-.34307 1.699-.34307.57178 0 1.1436.09802t1.0945.31039l-.34307 1.2906q-.34307-.16336-.80049-.26138-.44109-.09802-.94752-.09802-1.2742 0-1.9604.80049-.6698.80049-.6698 2.3361 0 .68614.14703 1.2579.16337.57178.4901.98019.34307.40841.86584.63712.52277.21238 1.2742.21238.60445 0 1.0945-.11436.4901-.11436.76782-.24505l.21238 1.2742q-.13069.08168-.37574.16337-.24505.06535-.55544.11436-.31039.06535-.6698.09802-.34307.04901-.6698.04901z" style="stroke-width:.40841px"/></g></svg>
