<svg id="svg6" xmlns:rdf="http://www.w3.org/1999/02/22-rdf-syntax-ns#" xmlns="http://www.w3.org/2000/svg" height="32" viewBox="0 0 29.999995 29.999997" width="32" version="1.1" xmlns:cc="http://creativecommons.org/ns#" xmlns:dc="http://purl.org/dc/elements/1.1/"><g id="g830" transform="matrix(.10506 0 0 .10506 -.86463 26.442)"><path id="path2" style="stroke-width:.11206;" transform="matrix(8.9235 0 0 8.9235 8.2299 -251.68)" d="m15.961 3c-3.324.0271-6.5214.3884-8.3848 1.2441 0 0-3.6953 1.6528-3.6953 7.2929 0 1.292-.0253 2.835.0156 4.473.1341 5.515 1.0118 10.953 6.1135 12.302 2.351.623 4.37.752 5.996.663 2.948-.164 4.603-1.053 4.603-1.053l-.097-2.139s-2.109.665-4.475.584c-2.344-.080-4.818-.252-5.197-3.131-.035-.253-.053-.524-.053-.808 0 0 2.302.563 5.219.697 1.783.082 3.455-.104 5.154-.307 3.258-.389 6.093-2.396 6.449-4.23.562-2.889.516-7.051.516-7.051 0-5.6401-3.695-7.2929-3.695-7.2929-1.864-.8557-5.063-1.2169-8.387-1.2441h-.082zm-3.762 4.4082c1.385 0 2.434.5312 3.127 1.5957l.674 1.1311.674-1.1311c.693-1.0645 1.742-1.5957 3.127-1.5957 1.196 0 2.16.4197 2.896 1.2402.714.8206 1.071 1.9306 1.071 3.3266h-.002v6.83h-2.705v-6.629c0-1.398-.588-2.108-1.764-2.108-1.3 0-1.953.843-1.953 2.506v3.627h-2.69v-3.627c0-1.663-.651-2.506-1.951-2.506-1.176 0-1.764.710-1.764 2.108v6.629h-2.7046v-6.83c0-1.396.3545-2.5059 1.0683-3.3266.7363-.8206 1.6993-1.2402 2.8963-1.2402z"/></g></svg>
