<svg id="svg2" xmlns:rdf="http://www.w3.org/1999/02/22-rdf-syntax-ns#" xmlns="http://www.w3.org/2000/svg" height="32" width="32" version="1.1" xmlns:cc="http://creativecommons.org/ns#" xmlns:dc="http://purl.org/dc/elements/1.1/" viewBox="0 0 32 32"><path id="path4" d="m4.4746 4.4746v4.322c10.344 0 18.729 8.3852 18.729 18.729h4.322c0-12.731-10.32-23.051-23.051-23.051zm0 8.6441v4.322c5.5697 0 10.085 4.5151 10.085 10.085h4.322c0-7.9566-6.4501-14.407-14.407-14.407zm2.8814 8.6441c-1.5913 0-2.8814 1.29-2.8814 2.8814 0 1.5913 1.29 2.8814 2.8814 2.8814 1.5913 0 2.8814-1.29 2.8814-2.8814 0-1.5913-1.29-2.8814-2.8814-2.8814z"/></svg>
