<svg width="32" height="32" version="1.1" viewBox="0 0 32 32" xmlns="http://www.w3.org/2000/svg">
<path d="m3 13v3c7.1799 0 13 5.8203 13 13h3c0-8.8368-7.1632-16-16-16zm0 6v3c3.866 0 7.0001 3.134 7.0001 7.0001h3c0-5.5228-4.4771-10-10-10zm2 6c-1.1045 0-2 .89541-2 2 0 1.1045.89541 2 2 2 1.1045 0 2-.89541 2-2 0-1.1045-.89541-2-2-2z" style="stroke-width:.69411"/>
<path d="m22.139 2.7616c-4.4183 0-8 3.5816-8 8 0 4.4181 3.5817 8 8 8 4.4182 0 8-3.5819 8-8 0-4.4184-3.5818-8-8-8zm1.3368 2.1632 3.1076 1.8368-3.1111 1.8368zm-1.3368.94444c.22792 0 .45078.01816.67014.048615v.68056c-.21814-.03529-.44156-.055556-.67014-.055556-1.777 0-3.2967 1.089-3.9201 2.6389l-.57639-.34028c.74846-1.7448 2.482-2.9722 4.4965-2.9722zm0 1.6632c.22822 0 .45129.02717.66667.072918v.69097c-.21255-.056828-.43592-.08681-.66667-.08681-1.167 0-2.1413.77548-2.4479 1.8403l-.59722-.35417c.44178-1.257 1.6419-2.1632 3.0451-2.1632zm3.9236.30903c.60851.81581.96875 1.8274.96875 2.9201 0 1.1097-.37402 2.1361-1 2.9583l-.57986-.34375c.56739-.71827.90625-1.625.90625-2.6146 0-.97103-.32668-1.8646-.875-2.5764zm-1.4479.85764c.46881.56074.75347 1.2792.75347 2.0625 0 .801-.29686 1.5379-.78472 2.1042l-.59375-.35069c.43402-.45581.70139-1.0699.70139-1.7535 0-.66412-.25119-1.2657-.66319-1.7187zm-8.1389.22569 3.1076 1.8368-3.1111 1.8368zm3.2153 2.5486c.30658 1.064 1.2809 1.8368 2.4479 1.8368.23079 0 .45406-.03097.66667-.08681v.69444c-.21538.04576-.43845.07292-.66667.07292-1.4043 0-2.6043-.90813-3.0451-2.1667zm-1.4722.86806c.62341 1.5498 2.1431 2.6389 3.9201 2.6389.22637 0 .44696-.01796.66319-.05208v.67708c-.21673.03015-.438.04861-.66319.04861-2.0146 0-3.7481-1.2274-4.4965-2.9722zm5.2535.64236 3.1076 1.8333-3.1111 1.8368z" style="stroke-width:.11111"/>
</svg>
