<svg width="32" height="32" version="1.1" viewBox="0 0 32 32" xmlns="http://www.w3.org/2000/svg">
<path d="m3 13v3c7.1799 0 13 5.8203 13 13h3c0-8.8368-7.1632-16-16-16zm0 6v3c3.866 0 7.0001 3.134 7.0001 7.0001h3c0-5.5228-4.4771-10-10-10zm2 6c-1.1045 0-2 .8954-2 2 0 1.1045.89541 2 2 2 1.1045 0 2-.89541 2-2 0-1.1045-.89541-2-2-2z" style="stroke-width:.69411"/>
<path d="m25.366 7.3749c0-2.7625-2.9094-5-6.5-5s-6.5 2.2375-6.5 5c0 1.0719.44062 2.0594 1.1875 2.875-.41875.94375-1.1094 1.6937-1.1187 1.7031-.06877.07186-.0875.17813-.04687.27188s.12813.15.22813.15c1.1438 0 2.0906-.38438 2.7719-.78125 1.0062.49062 2.1969.78125 3.4781.78125 3.5906 0 6.5-2.2375 6.5-5zm3.8125 6.875c.74688-.8125 1.1875-1.8031 1.1875-2.875 0-2.0906-1.6719-3.8812-4.0406-4.6281.02813.20625.04063.41562.04063.62813 0 3.3094-3.3656 6-7.5 6-.3375 0-.66562-.025-.99062-.05938.98437 1.7969 3.2969 3.0594 5.9906 3.0594 1.2812 0 2.4719-.2875 3.4781-.78125.68125.39687 1.6281.78125 2.7719.78125.1 0 .19063-.05936.22813-.15.04062-.09062.02188-.19688-.04688-.27188-.0094-.0094-.7-.75625-1.1188-1.7031z" style="stroke-width:.03125"/>
</svg>
