<svg width="32" height="32" version="1.1" viewBox="0 0 32 32" xmlns="http://www.w3.org/2000/svg"><path d="m25.021 3.9985h-18.013c-1.6609 0-3.0057 1.3448-3.0057 3.0004-.00536 0 0-.21431 0 18.002 0 1.6556 1.3448 3.0004 3.0004 3.0004h18.013c1.6502-.0107 2.9843-1.3502 2.9843-3.0004v-18.002c.0054-1.6502-1.3287-2.9896-2.9789-3.0004zm-10.464 18.179c-.01072.78759-.6483 1.4252-1.4412 1.4252h-4.4309c-.79295.005-1.4412-.63222-1.4466-1.4252v-13.62c0-.79295.64294-1.4412 1.4412-1.4412h4.4416c.79296 0 1.4412.64294 1.4412 1.4412v13.62zm10.346-6.0007c0 .79295-.64294 1.4412-1.4412 1.4412h-4.3398c-.79296 0-1.4412-.64294-1.4412-1.4412v-7.6134c0-.79296.64294-1.4412 1.4359-1.4412h4.3452c.79296 0 1.4412.64294 1.4412 1.4412z" style="stroke-width:.053578"/></svg>
