<svg id="Layer_1" xmlns:rdf="http://www.w3.org/1999/02/22-rdf-syntax-ns#" xmlns="http://www.w3.org/2000/svg" version="1.0" xml:space="preserve" height="32px" viewBox="0 0 32 32" width="32px" enable-background="new 0 0 32 32" xmlns:cc="http://creativecommons.org/ns#" xmlns:dc="http://purl.org/dc/elements/1.1/"><metadata id="metadata25"><rdf:RDF><cc:Work rdf:about=""><dc:format>image/svg+xml</dc:format><dc:type rdf:resource="http://purl.org/dc/dcmitype/StillImage"/><dc:title/></cc:Work></rdf:RDF></metadata><g id="g3"><path id="path7" d="m25.987 9.894c-.736.322-1.525.537-2.357.635.85-.498 1.5-1.289 1.806-2.231-.792.461-1.67.797-2.605.978-.748-.785-1.814-1.276-2.993-1.276-2.266 0-4.1 1.807-4.1 4.038 0 .314.036.625.104.922-3.407-.172-6.429-1.779-8.452-4.221-.352.597-.556 1.29-.556 2.032 0 1.399.726 2.635 1.824 3.36-.671-.022-1.304-.203-1.856-.506-.001.017-.001.034-.001.052 0 1.955 1.414 3.589 3.29 3.96-.343.09-.705.142-1.081.142-.264 0-.52-.024-.77-.072.52 1.604 2.034 2.771 3.828 2.805-1.398 1.082-3.168 1.728-5.089 1.728-.33 0-.658-.018-.979-.056 1.814 1.145 3.971 1.813 6.287 1.813 7.541 0 11.666-6.154 11.666-11.491 0-.173-.005-.35-.012-.521 0.8-.571 1.497-1.282 2.046-2.091z"/></g></svg>
