<svg id="svg3367" xmlns:rdf="http://www.w3.org/1999/02/22-rdf-syntax-ns#" xmlns="http://www.w3.org/2000/svg" height="128" width="128" version="1.0" xmlns:cc="http://creativecommons.org/ns#" xmlns:xlink="http://www.w3.org/1999/xlink" xmlns:dc="http://purl.org/dc/elements/1.1/"><metadata id="metadata62"><rdf:RDF><cc:Work rdf:about=""><dc:format>image/svg+xml</dc:format><dc:type rdf:resource="http://purl.org/dc/dcmitype/StillImage"/><dc:title/></cc:Work></rdf:RDF></metadata><defs id="defs3369"><linearGradient id="linearGradient6036"><stop id="stop6038" style="stop-color:#fff" offset="0"/><stop id="stop6040" style="stop-color:#fff;stop-opacity:0" offset="1"/></linearGradient><linearGradient id="linearGradient3519"><stop id="stop3521" style="stop-color:#fcd9cd" offset="0"/><stop id="stop3523" style="stop-color:#fcd9cd;stop-opacity:0" offset="1"/></linearGradient><linearGradient id="linearGradient3511"><stop id="stop3513" style="stop-color:#ebeec7" offset="0"/><stop id="stop3515" style="stop-color:#ebeec7;stop-opacity:0" offset="1"/></linearGradient><linearGradient id="linearGradient3503"><stop id="stop3505" style="stop-color:#c4ebdd" offset="0"/><stop id="stop3507" style="stop-color:#c4ebdd;stop-opacity:0" offset="1"/></linearGradient><linearGradient id="linearGradient3495"><stop id="stop3497" style="stop-color:#c1cbe4" offset="0"/><stop id="stop3499" style="stop-color:#c1cbe4;stop-opacity:0" offset="1"/></linearGradient><linearGradient id="linearGradient3487"><stop id="stop3489" style="stop-color:#e6cde2" offset="0"/><stop id="stop3491" style="stop-color:#e6cde2;stop-opacity:0" offset="1"/></linearGradient><radialGradient id="radialGradient2584" gradientUnits="userSpaceOnUse" cy="41.636" cx="23.335" gradientTransform="matrix(2.6517 0 0 .79542 2.125 72.882)" r="22.627"><stop id="stop23421" offset="0"/><stop id="stop23423" style="stop-opacity:0" offset="1"/></radialGradient><linearGradient id="linearGradient2642" x1="10.502" xlink:href="#linearGradient6036" gradientUnits="userSpaceOnUse" y1="3.61" gradientTransform="matrix(2.7529,0,0,2.7529,-3.0238,-4.8214)" x2="48.799" y2="54.698"/><linearGradient id="linearGradient2651" x1="18.776" xlink:href="#linearGradient6036" gradientUnits="userSpaceOnUse" y1="4.0378" gradientTransform="matrix(1.086,0,0,1.086,37.559,36.85)" x2="18.203" y2="45.962"/><linearGradient id="linearGradient2654" x1="21.448" gradientUnits="userSpaceOnUse" y1="15.5" gradientTransform="matrix(2.5381,0,0,2.5381,3.0854,3.0854)" x2="21.448" y2="32.509"><stop id="stop3430" style="stop-color:#aaa" offset="0"/><stop id="stop3432" style="stop-color:#d4d4d4" offset="1"/></linearGradient><linearGradient id="linearGradient2658" x1="12.274" gradientUnits="userSpaceOnUse" y1="32.416" gradientTransform="matrix(0,3.1715,-3.1715,0,137.26,-12.115)" x2="35.391" y2="14.203"><stop id="stop3265" style="stop-color:#dedbde" offset="0"/><stop id="stop3267" style="stop-color:#e6e6e6" offset=".5"/><stop id="stop3269" style="stop-color:#d2d2d2" offset="1"/></linearGradient><linearGradient id="linearGradient2660" x1="-21.916" gradientUnits="userSpaceOnUse" y1="3" gradientTransform="matrix(2.7073 0 0 2.7073 135.11 -.97559)" x2="-21.916" y2="45.033"><stop id="stop3774" style="stop-color:#b4b4b4" offset="0"/><stop id="stop3776" style="stop-color:#969696" offset="1"/></linearGradient><linearGradient id="linearGradient2672" x1="20.58" xlink:href="#linearGradient3487" spreadMethod="reflect" gradientUnits="userSpaceOnUse" y1="10.775" x2="24.274" y2="9.8622"/><linearGradient id="linearGradient2674" x1="17.495" xlink:href="#linearGradient3495" spreadMethod="reflect" gradientUnits="userSpaceOnUse" y1="11.2" x2="21.047" y2="9.7956"/><linearGradient id="linearGradient2676" x1="14.085" xlink:href="#linearGradient3503" spreadMethod="reflect" gradientUnits="userSpaceOnUse" y1="13.046" x2="16.994" y2="10.732"/><linearGradient id="linearGradient2678" x1="12.372" xlink:href="#linearGradient3511" spreadMethod="reflect" gradientUnits="userSpaceOnUse" y1="16.188" x2="14.609" y2="13.462"/><linearGradient id="linearGradient2680" x1="10.609" xlink:href="#linearGradient3519" spreadMethod="reflect" gradientUnits="userSpaceOnUse" y1="17.886" x2="9.7298" y2="20.613"/><linearGradient id="linearGradient3506"><stop id="stop3508" style="stop-color:#3c3c3c" offset="0"/><stop id="stop3510" style="stop-color:#3c3c3c;stop-opacity:.22745" offset="1"/></linearGradient><linearGradient id="linearGradient3494"><stop id="stop3496" style="stop-color:#282828;stop-opacity:.82353" offset="0"/><stop id="stop3498" style="stop-color:#282828;stop-opacity:0" offset="1"/></linearGradient><radialGradient id="radialGradient7374" gradientUnits="userSpaceOnUse" cy="41.636" cx="23.335" gradientTransform="matrix(.57452 0 0 .15462 10.594 37.062)" r="22.627"><stop id="stop23421-3" offset="0"/><stop id="stop23423-6" style="stop-opacity:0" offset="1"/></radialGradient><linearGradient id="linearGradient7469" y2="9.1187" xlink:href="#linearGradient3494" gradientUnits="userSpaceOnUse" x2="20.405" gradientTransform="matrix(1.3252 0 0 1.3105 -.0052421 -50.962)" y1="6.9878" x1="20.405"/><linearGradient id="linearGradient7471" y2="10.01" xlink:href="#linearGradient3506" gradientUnits="userSpaceOnUse" x2="21.718" gradientTransform="matrix(1.3252 0 0 1.3105 -.0052421 -50.962)" y1="6.1797" x1="21.718"/><linearGradient id="linearGradient7475" y2="9.1187" xlink:href="#linearGradient3494" gradientUnits="userSpaceOnUse" x2="20.405" gradientTransform="matrix(1.3252,0,0,1.3105,-6.0052,-50.962)" y1="6.9878" x1="20.405"/><linearGradient id="linearGradient7477" y2="10.01" xlink:href="#linearGradient3506" gradientUnits="userSpaceOnUse" x2="21.718" gradientTransform="matrix(1.3252,0,0,1.3105,-6.0052,-50.962)" y1="6.1797" x1="21.718"/><linearGradient id="linearGradient8579" y2="1.25" gradientUnits="userSpaceOnUse" x2="15" y1="36" x1="15"><stop id="stop3823" style="stop-color:gray" offset="0"/><stop id="stop3825" style="stop-color:#999" offset="1"/></linearGradient><linearGradient id="linearGradient8838" y2="35.875" gradientUnits="userSpaceOnUse" x2="25" y1="1.125" x1="25"><stop id="stop3145" style="stop-color:#e6e6e6" offset="0"/><stop id="stop3147" style="stop-color:#afafaf" offset="1"/></linearGradient><radialGradient id="radialGradient9547" gradientUnits="userSpaceOnUse" cy="-36.857" cx="21.333" gradientTransform="matrix(1.625,-2.2661e-7,1.9175e-7,1.375,-12.667,13.679)" r="8"><stop id="stop9129" style="stop-color:#f0f0f0" offset="0"/><stop id="stop9131" style="stop-color:#a9a9a9" offset="1"/></radialGradient><linearGradient id="linearGradient9563" y2="-44" gradientUnits="userSpaceOnUse" x2="24" y1="-35" x1="24"><stop id="stop9559" style="stop-color:#eeeeec" offset="0"/><stop id="stop9561" style="stop-color:#eeeeec;stop-opacity:0" offset="1"/></linearGradient><linearGradient id="linearGradient9571" y2="-40" gradientUnits="userSpaceOnUse" x2="32" y1="-40" x1="16"><stop id="stop9575" style="stop-color:#8f8f8f" offset="0"/><stop id="stop9577" style="stop-color:#5f5f5f" offset=".12709"/><stop id="stop9579" style="stop-color:#616161" offset=".87578"/><stop id="stop9581" style="stop-color:#9e9e9e" offset="1"/></linearGradient><filter id="filter10041" color-interpolation-filters="sRGB"><feGaussianBlur id="feGaussianBlur10043" stdDeviation="0.51"/></filter></defs><g id="g981" transform="matrix(.93662 0 0 .93662 .25354 .50707)"><path id="path23417" style="opacity:.3;fill-rule:evenodd;fill:url(#radialGradient2584)" d="m124 106c0 9.94-26.861 18-60 18s-60.003-8.06-60-18c-.0031-9.941 26.861-18 60-18s60.003 8.0591 60 18z"/><path id="path2781" style="stroke:url(#linearGradient2660);fill:url(#linearGradient2658)" d="m119.5 64c0-30.763-24.737-55.5-55.5-55.5s-55.5 24.737-55.5 55.5 24.737 55.5 55.5 55.5c30.763-.00001 55.5-24.737 55.5-55.5zm-35.195 0c0 11.176-8.905 20.305-20.305 20.305-11.623 0-20.305-9.355-20.305-20.305 0-11.174 8.234-20.305 20.305-20.305s20.305 9.3523 20.305 20.305z"/><path id="path2474" style="opacity:.5;fill:#ffffff" d="m64 43c-11.592 0-21 9.408-21 21s9.408 21 21 21 21-9.408 21-21-9.408-21-21-21zm0 10.5c5.796 0 10.5 4.704 10.5 10.5s-4.704 10.5-10.5 10.5-10.5-4.704-10.5-10.5 4.704-10.5 10.5-10.5z"/><path id="path3418" style="stroke-linejoin:round;stroke:url(#linearGradient2654);fill:none" d="m64 43.695c-11.208 0-20.305 9.097-20.305 20.305s9.097 20.305 20.305 20.305 20.305-9.097 20.305-20.305-9.097-20.305-20.305-20.305zm0 10.152c5.6041 0 10.152 4.5483 10.152 10.152 0 5.6041-4.5483 10.152-10.152 10.152-5.6041 0-10.152-4.5483-10.152-10.152 0-5.6041 4.5483-10.152 10.152-10.152z"/><g id="g3527" transform="matrix(2.732,0,0,2.732,-1.0901,-1.0743)"><path id="path3296" style="opacity:.8;fill:url(#linearGradient2672)" transform="matrix(.9996 .028243 -.028243 .9996 .69241 -.67083)" d="m15.857 5.7308 4.768 10.613c1.035-.459 2.17-.719 3.375-.719.03206 0 .06178-.00036.09375 0l.014-11.62c-2.9422-.070687-5.543.65729-8.2511 1.726z"/><path id="path3308" style="opacity:.8;fill:url(#linearGradient2674)" d="m12.121 7.906 6.931 9.3601c.91311-.66976 1.9659-1.1671 3.1426-1.4252.03132-.0069.06026-.01359.09157-.02009l-2.429-11.395c-2.889.56132-5.3195 1.8556-7.7357 3.4797z"/><path id="path3310" style="opacity:.8;fill:url(#linearGradient2676)" d="m8.2524 11.647 9.2137 7.1558c.70865-.88326 1.5969-1.6361 2.6667-2.19.02847-.01474.05469-.02872.08325-.0431l-5.35-10.319c-2.645 1.2895-4.7 3.2014-6.6136 5.396z"/><path id="path3312" style="opacity:.8;fill:url(#linearGradient2678)" d="m5.6329 16.074c7.1748 2.2422 7.8503 7.0315 12.777 1.7541l-7.91-8.6959c-2.2213 1.9309-3.5867 4.3269-4.8671 6.9419z"/><path id="path3314" style="opacity:.8;fill:url(#linearGradient2680)" d="m7.1553 13.193c-1.1831 1.752-1.9077 3.637-2.5251 5.644l11.339 2.975c.215-.763.518-1.514.969-2.218.017-.027.044-.067.062-.094l-9.8445-6.307z"/></g><path id="path3272" style="opacity:.5;stroke:url(#linearGradient2642);fill:none" d="m64 9.5c-30.209 0-54.5 24.291-54.5 54.5s24.291 54.5 54.5 54.5 54.5-24.291 54.5-54.5-24.291-54.5-54.5-54.5z"/><g id="g3297" transform="matrix(-2.7073,0,0,-2.7073,128.98,128.95)"><path id="path3299" style="opacity:.8;fill:url(#linearGradient2672)" transform="matrix(.9996 .028243 -.028243 .9996 .69241 -.67083)" d="m15.857 5.7308 4.768 10.613c1.035-.459 2.17-.719 3.375-.719.03206 0 .06178-.00036.09375 0l.014-11.62c-2.9422-.070687-5.543.65729-8.2511 1.726z"/><path id="path3301" style="opacity:.8;fill:url(#linearGradient2674)" d="m12.121 7.906 6.931 9.3601c.91311-.66976 1.9659-1.1671 3.1426-1.4252.03132-.0069.06026-.01359.09157-.02009l-2.429-11.395c-2.889.56132-5.3195 1.8556-7.7357 3.4797z"/><path id="path3303" style="opacity:.8;fill:url(#linearGradient2676)" d="m8.2524 11.647 9.2137 7.1558c.70865-.88326 1.5969-1.6361 2.6667-2.19.02847-.01474.05469-.02872.08325-.0431l-5.35-10.319c-2.645 1.2895-4.7 3.2014-6.6136 5.396z"/><path id="path3305" style="opacity:.8;fill:url(#linearGradient2678)" d="m5.6329 16.074c7.1748 2.2422 7.8503 7.0315 12.777 1.7541l-7.91-8.6959c-2.2213 1.9309-3.5867 4.3269-4.8671 6.9419z"/><path id="path3307" style="opacity:.8;fill:url(#linearGradient2680)" d="m7.1553 13.193c-1.1831 1.752-1.9077 3.637-2.5251 5.644l11.339 2.975c.215-.763.518-1.514.969-2.218.017-.027.044-.067.062-.094l-9.8445-6.307z"/></g><path id="path3281" style="opacity:.8;stroke:url(#linearGradient2651);fill:none" d="m64 42.5c-11.917 0-21.5 9.583-21.5 21.5s9.583 21.5 21.5 21.5 21.5-9.583 21.5-21.5-9.583-21.5-21.5-21.5z"/></g><g id="g961" transform="matrix(1.7334 0 0 1.7334 59.185 44.489)"><path id="path23417-7" style="opacity:.4;fill-rule:evenodd;fill:url(#radialGradient7374)" d="m37 43.5a13 3.4986 0 1 1 -26 0 13 3.4986 0 1 1 26 0z"/><rect id="rect4383" style="fill:#ffffff" rx=".625" ry=".625" height="9.5716" width="12.167" y="33.072" x="18.027"/><rect id="rect3448" style="stroke:url(#linearGradient9571);fill:url(#radialGradient9547)" transform="scale(1,-1)" rx=".56471" ry=".56471" height="15" width="15" y="-44.5" x="16.5"/><rect id="rect3450" style="opacity:.88172;stroke:url(#linearGradient7477);stroke-width:0.92;fill:url(#linearGradient7475)" transform="scale(1,-1)" height="3.08" width="3.08" y="-41.54" x="19.46"/><rect id="rect3458" style="opacity:.71505;stroke:url(#linearGradient9563);fill:none" transform="scale(1,-1)" height="13" width="13" y="-43.5" x="17.5"/><rect id="rect2874" style="opacity:.88172;stroke:url(#linearGradient7471);stroke-width:0.92;fill:url(#linearGradient7469)" transform="scale(1,-1)" height="3.08" width="3.08" y="-41.54" x="25.46"/><rect id="rect5391" style="stroke-linejoin:round;stroke:url(#linearGradient8579);stroke-linecap:round;fill:url(#linearGradient8838)" rx="1.625" ry="1.6208" height="34" width="21" y="1.5" x="13.5"/><rect id="rect8840" style="opacity:.3;filter:url(#filter10041);fill:#ffffff" rx="1.625" ry="1.6208" height="33" width="18" y="2" x="15"/><path id="path8593" style="opacity:.95;fill:#ffffff" d="m22.678 28.32c0-1.2774.42456-1.6088.94461-2.0548.4175-.20154.48421-.33913.47872-.9873-.006-.71628-.07462-.63446-1.4022-1.7869-2.027-1.7595-2.2996-2.1838-2.5376-3.9494-.17556-1.3022-.05242-1.0157-.55638-1.5166-.92759-.92193-.76867-2.274.33557-2.8551.99478-.52348 2.1732.03328 2.5366 1.1985.17911.57427-.25029 1.566-.82688 1.9097-.52764.31455-.74654-.20987-.62588.94961.06678.64174.22952 1.3798.36164 1.6401.22691.44704 2.4489 2.5515 2.6906 2.5515v-12.432h-1.2317c.57-.9882 1.125-1.9924 1.677-2.987l1.7577 2.9874h-1.1972v8.42c.16651 0 1.799-1.6568 2.3483-2.4027.23734-.32228.38137-.77989.38137-1.2117 0-.65124.21476-.78818-.28196-.78818h-.5292v-3.0516h2.9988v3.0516h-.4851c-.43284.05068-.74221.2713-.82392.99341-.12186 1.0769-.58309 1.7837-2.2805 3.4947l-1.3278 1.4319v5.1064l.39238.23418c.26681.1288.63426.54499.81656.92487.649 1.355-.254 2.811-1.743 2.811-1.079-.04-1.871-.594-1.871-1.68z"/><path id="path8591" style="opacity:.95;fill:#464646" d="m22.678 29.32c0-1.2774.42456-1.6088.94461-2.0548.4175-.20154.48421-.33913.47872-.9873-.006-.71628-.07462-.63446-1.4022-1.7869-2.027-1.7595-2.2996-2.1838-2.5376-3.9494-.17556-1.3022-.05242-1.0157-.55638-1.5166-.92759-.92193-.76867-2.274.33557-2.8551.99478-.52348 2.1732.03328 2.5366 1.1985.17911.57427-.25029 1.566-.82688 1.9097-.52764.31455-.74654-.20987-.62588.94961.06678.64174.22952 1.3798.36164 1.6401.22691.44704 2.4489 2.5515 2.6906 2.5515v-12.432h-1.2317c.57-.988 1.125-1.9924 1.677-2.987l1.7577 2.9874h-1.1972v8.42c.16651 0 1.799-1.6568 2.3483-2.4027.23734-.32228.38137-.77989.38137-1.2117 0-.65124.21476-.78818-.28196-.78818h-.5292v-3.0516h2.9988v3.0516h-.4851c-.43284.05068-.74221.2713-.82392.99341-.12186 1.0769-.58309 1.7837-2.2805 3.4947l-1.3278 1.4319v5.1064l.39238.23418c.26681.1288.63426.54499.81656.92487.649 1.355-.254 2.811-1.743 2.811-1.079-.04-1.871-.594-1.871-1.68z"/><path id="path3690" style="opacity:.95;fill:#aaaaaa" d="m22.678 28.82c0-1.2774.42456-1.6088.94461-2.0548.4175-.20154.48421-.33913.47872-.9873-.006-.71628-.07462-.63446-1.4022-1.7869-2.027-1.7595-2.2996-2.1838-2.5376-3.9494-.17556-1.3022-.05242-1.0157-.55638-1.5166-.92759-.92193-.76867-2.274.33557-2.8551.99478-.52348 2.1732.03328 2.5366 1.1985.17911.57427-.25029 1.566-.82688 1.9097-.52764.31455-.74654-.20987-.62588.94961.06678.64174.22952 1.3798.36164 1.6401.22691.44704 2.4489 2.5515 2.6906 2.5515v-12.432h-1.2317c.57-.988 1.125-1.9924 1.677-2.987l1.7577 2.9874h-1.1972v8.42c.16651 0 1.799-1.6568 2.3483-2.4027.23734-.32228.38137-.77989.38137-1.2117 0-.65124.21476-.78818-.28196-.78818h-.5292v-3.0516h2.9988v3.0516h-.4851c-.43284.05068-.74221.2713-.82392.99341-.12186 1.0769-.58309 1.7837-2.2805 3.4947l-1.3278 1.4319v5.1064l.39238.23418c.26681.1288.63426.54499.81656.92487.649 1.355-.254 2.811-1.743 2.811-1.079-.04-1.871-.594-1.871-1.68z"/></g></svg>
