<svg width="594.17" height="244.31" version="1.1" viewBox="0 0 594.17 244.31" xmlns="http://www.w3.org/2000/svg"><path d="m545.36 112.12-2.7717-72.29c-.20014-5.2195-5.195-8.9025-10.24-7.5506l-128.68 34.478-6.9362-13.875c-1.7286-3.4585-5.6524-5.2234-9.3873-4.2227l-33.588 9c-4.3423 1.1635-6.9192 5.6268-5.7557 9.9691l1.4045 5.2416c1.1635 4.3423 5.6268 6.9192 9.9691 5.7557l22.894-6.1343 53.16 106.34c-4.6572 4.6415-6.7766 11.572-4.9527 18.379 2.7149 10.132 13.129 16.145 23.261 13.43 10.132-2.7148 16.145-13.129 13.43-23.261-1.3759-5.1348-4.7309-9.208-9.0228-11.627l68.68-18.403c-2.5069 4.2408-3.3758 9.4459-2 14.581 2.7149 10.132 13.129 16.145 23.261 13.43 10.132-2.7149 16.145-13.129 13.43-23.261-1.9463-7.2635-7.8502-12.409-14.77-13.741l-.3236-8.4371c-.20018-5.2195-5.1951-8.9025-10.24-7.5506l-87.934 23.562-4.9531-9.9087 96.034-25.732c3.671-.98367 6.1727-4.3766 6.027-8.1742z" style="fill:#c0c0c0;opacity:.5;stroke-width:.33916"/><path d="m36.057 208.31h387.08" style="fill:none;opacity:.5;stroke-dasharray:8, 16;stroke-linecap:round;stroke-width:8;stroke:#c0c0c0"/></svg>
