<svg width="100" height="100" enable-background="new -0.835 -0.92 761 101" version="1.1" viewBox="-.835 -.92 100 100" xml:space="preserve" xmlns="http://www.w3.org/2000/svg">









<path d="m49.165 80.666c-17.445 0-31.587-14.138-31.587-31.587 0-17.446 14.142-31.586 31.587-31.586 17.446 0 31.587 14.14 31.587 31.586 0 17.449-14.141 31.587-31.587 31.587z" style="fill:#772953"/>
<path d="m98.771 49.08c0 27.396-22.21 49.605-49.606 49.605-27.398 0-49.606-22.21-49.606-49.605 0-27.397 22.208-49.606 49.606-49.606 27.396-.001 49.606 22.208 49.606 49.606zm-49.607-37.54c-20.734 0-37.539 16.808-37.539 37.54 0 20.735 16.805 37.538 37.539 37.538s37.539-16.803 37.539-37.538c0-20.733-16.805-37.54-37.539-37.54z" style="fill:#772953"/>
</svg>
