<?xml version="1.0" encoding="UTF-8" standalone="no"?>
<svg
   xmlns:dc="http://purl.org/dc/elements/1.1/"
   xmlns:cc="http://creativecommons.org/ns#"
   xmlns:rdf="http://www.w3.org/1999/02/22-rdf-syntax-ns#"
   xmlns:svg="http://www.w3.org/2000/svg"
   xmlns="http://www.w3.org/2000/svg"
   version="1.1"
   width="720"
   height="720"
   id="svg30">
  <metadata
     id="metadata36">
    <rdf:RDF>
      <cc:Work
         rdf:about="">
        <dc:format>image/svg+xml</dc:format>
        <dc:type
           rdf:resource="http://purl.org/dc/dcmitype/StillImage" />
        <dc:title></dc:title>
      </cc:Work>
    </rdf:RDF>
  </metadata>
  <defs
     id="defs34" />
  <path
     d="m 231.48438,1.65625 c -3.6193,0.1123192 -7.51715,1.4493266 -11.9375,4.9375 C 208.71992,2.4174496 198.21979,0.9665612 188.82813,9.46875 174.33427,7.5879922 169.61784,11.469494 166.04688,16 162.86433,15.934135 142.22803,12.72793 132.76563,26.84375 108.98398,24.030329 101.46885,40.831625 109.98438,56.5 c -4.85691,7.518955 -9.88951,14.947226 1.46875,29.28125 -4.01801,7.983514 -1.52743,16.64403 7.9375,27.125 -2.49786,11.2226 2.41207,19.14086 11.21875,25.3125 -1.64709,15.35756 14.0835,24.28743 18.78125,27.46875 1.80367,8.94868 5.56291,17.3927 23.53125,22.0625 2.96323,13.3361 13.76206,15.63906 24.21875,18.4375 -34.56193,20.08954 -64.20067,46.52266 -64,111.375 l -5.0625,9.03125 C 88.44726,350.69604 52.792831,428.16001 108.54688,491.125 c 3.64187,19.70838 9.74959,33.86396 15.1875,49.53125 8.13383,63.13058 61.21763,92.69161 75.21875,96.1875 20.51653,15.62812 42.36818,30.45672 71.9375,40.84375 27.87515,28.74946 58.07388,39.7064 88.4375,39.6875 0.44515,-2.8e-4 0.89853,0.005 1.34375,0 30.36363,0.0189 60.56235,-10.93804 88.4375,-39.6875 29.56932,-10.38703 51.42097,-25.21563 71.9375,-40.84375 14.00112,-3.49589 67.08492,-33.05692 75.21875,-96.1875 5.43791,-15.66729 11.54562,-29.82287 15.1875,-49.53125 55.75404,-62.96499 20.09961,-140.42896 -19.53125,-164.53125 l -5.0625,-9.03125 c 0.20067,-64.85234 -29.43807,-91.28546 -64,-111.375 10.45669,-2.79844 21.25552,-5.1014 24.21875,-18.4375 17.96834,-4.6698 21.72758,-13.11382 23.53125,-22.0625 4.69775,-3.18132 20.42834,-12.11119 18.78125,-27.46875 8.80668,-6.17164 13.71661,-14.0899 11.21875,-25.3125 9.46494,-10.48097 11.9555,-19.141487 7.9375,-27.125 C 619.90513,71.447226 614.87254,64.018955 610.01563,56.5 618.53116,40.831625 611.01603,24.030329 587.23438,26.84375 577.77198,12.72793 557.13568,15.934135 553.95313,16 550.38217,11.469494 545.66574,7.587992 531.17188,9.46875 521.78022,0.96656132 511.28009,2.41745 500.45313,6.59375 487.59393,-3.5536631 479.08087,4.580454 469.35938,7.65625 453.78553,2.568472 450.22636,9.5371578 442.57813,12.375 425.60288,8.7869238 420.44253,16.598532 412.29688,24.84375 l -9.46875,-0.1875 c -25.61054,15.093115 -38.33378,45.825501 -42.84375,61.625 -4.51206,-15.801979 -17.20647,-46.534542 -42.8125,-61.625 l -9.46875,0.1875 C 299.55748,16.598532 294.39713,8.7869235 277.42188,12.375 269.77365,9.5371583 266.21448,2.5684729 250.64063,7.65625 c -6.37973,-2.0184911 -12.24667,-6.2144276 -19.15625,-6 z"
     style="fill:#000000"
     id="path2" />
  <path
     d="m 180.50122,68.055583 c 67.94767,35.031357 107.44689,63.368967 129.08717,87.504467 -11.08235,44.41759 -68.89638,46.44464 -90.03559,45.19858 4.32842,-2.01474 7.93988,-4.42778 9.22051,-8.13574 -5.30449,-3.76981 -24.11289,-0.39719 -37.24363,-7.77416 5.04407,-1.04499 7.40348,-2.06302 9.76289,-5.78542 -12.40571,-3.9567 -25.76862,-7.36642 -33.62775,-13.92116 4.24125,0.0524 8.20116,0.9488 13.74037,-2.89271 -11.1117,-5.98819 -22.96911,-10.73351 -32.18139,-19.88738 5.74521,-0.14063 11.93945,-0.0568 13.74037,-2.16953 -10.17044,-6.30068 -18.75124,-13.30787 -25.85359,-20.97215 8.03998,0.97052 11.43528,0.13478 13.37878,-1.26556 -7.6878,-7.87419 -17.41756,-14.52319 -22.05691,-24.22644 5.9696,2.057484 11.43125,2.84506 15.36752,-0.180795 -2.61237,-5.893453 -13.80542,-9.369618 -20.24897,-23.141676 6.28436,0.609377 12.94961,1.371108 14.28275,0 -2.9223,-11.888563 -7.92745,-18.570024 -12.83639,-25.492003 13.45004,-0.199729 33.82775,0.05235 32.90457,-1.084766 l -8.31654,-8.497335 c 13.13761,-3.537241 26.58065,0.568164 36.33966,3.615887 4.38186,-3.457681 -0.0776,-7.82998 -5.42383,-12.294015 11.16496,1.490646 21.25382,4.057389 30.37345,7.593362 4.87238,-4.399329 -3.16389,-8.798658 -7.05098,-13.197987 17.24936,3.272568 24.55716,7.87068 31.81981,12.47481 5.26935,-5.050799 0.30166,-9.343299 -3.2543,-13.740371 13.00566,4.817048 19.70478,11.035551 26.75756,17.175463 2.39119,-3.227053 6.07494,-5.592408 1.62715,-13.378781 9.23416,5.322725 16.18926,11.59506 21.33374,18.621817 5.71336,-3.637941 3.40387,-8.613023 3.43509,-13.197987 9.59665,7.806516 15.68687,16.11395 23.14168,24.226443 1.50169,-1.093437 2.81661,-4.80171 3.97747,-10.666867 22.89539,22.211815 55.24591,78.158241 8.31654,100.340861 C 281.05966,109.95728 233.3623,86.016909 180.50122,68.055583 Z"
     style="fill:#75a928"
     id="path4" />
  <path
     d="m 541.03425,68.055583 c -67.94767,35.031357 -107.44689,63.368967 -129.08717,87.504467 11.08235,44.41759 68.89638,46.44464 90.03559,45.19858 -4.32842,-2.01474 -7.93988,-4.42778 -9.22051,-8.13574 5.30449,-3.76981 24.11289,-0.39719 37.24363,-7.77416 -5.04407,-1.04499 -7.40348,-2.06302 -9.76289,-5.78542 12.40571,-3.9567 25.76862,-7.36642 33.62775,-13.92116 -4.24126,0.0524 -8.20116,0.9488 -13.74037,-2.89271 11.11169,-5.98819 22.96911,-10.73351 32.18139,-19.88738 -5.74521,-0.14063 -11.93945,-0.0568 -13.74037,-2.16953 10.17044,-6.30068 18.75124,-13.30787 25.85359,-20.97215 -8.03998,0.97052 -11.43528,0.13478 -13.37878,-1.26556 7.68779,-7.87419 17.41756,-14.52319 22.05691,-24.22644 -5.96961,2.057484 -11.43125,2.84506 -15.36752,-0.180795 2.61237,-5.893453 13.80541,-9.369618 20.24897,-23.141676 -6.28436,0.609377 -12.94961,1.371108 -14.28276,0 2.92231,-11.888563 7.92746,-18.570024 12.8364,-25.492003 -13.45004,-0.199729 -33.82775,0.05235 -32.90457,-1.084766 l 8.31654,-8.497335 c -13.13762,-3.537241 -26.58065,0.568164 -36.33966,3.615887 -4.38186,-3.457681 0.0776,-7.82998 5.42383,-12.294015 -11.16496,1.490646 -21.25382,4.057389 -30.37345,7.593362 -4.87238,-4.399329 3.16389,-8.798658 7.05098,-13.197987 -17.24936,3.272568 -24.55716,7.87068 -31.81981,12.47481 -5.26935,-5.050799 -0.30166,-9.343299 3.2543,-13.740371 -13.00566,4.817048 -19.70478,11.035551 -26.75756,17.175463 -2.39119,-3.227053 -6.07494,-5.592408 -1.62715,-13.378781 -9.23416,5.322725 -16.18926,11.59506 -21.33374,18.621817 -5.71336,-3.637941 -3.40387,-8.613023 -3.43509,-13.197987 -9.59665,7.806516 -15.68687,16.11395 -23.14168,24.226443 -1.50169,-1.093437 -2.81661,-4.80171 -3.97747,-10.666867 -22.89539,22.211815 -55.24591,78.158241 -8.31654,100.340861 39.91877,-32.94716 87.61613,-56.887531 140.47721,-74.848857 z"
     style="fill:#75a928"
     id="path6" />
  <path
     d="m 443.05572,520.36104 a 81.390111,75.051762 0 1 1 -162.78022,0 81.390111,75.051762 0 1 1 162.78022,0 z"
     style="fill:#bc1142;stroke-width:1.12958"
     id="path8" />
  <path
     d="M 314.5634,305.96242 A 72.998839,86.129674 34.034226 1 1 219.59556,449.67468 72.998839,86.129674 34.034226 1 1 314.5634,305.96242 Z"
     style="fill:#bc1142;stroke-width:1.90077"
     id="path10" />
  <path
     d="M 405.59558,301.96242 A 86.129673,72.998838 55.965774 1 0 500.56341,445.67468 86.129673,72.998838 55.965774 1 0 405.59558,301.96242 Z"
     style="fill:#bc1142;stroke-width:1.90077"
     id="path12" />
  <path
     d="m 146.01963,342.0878 c 36.41422,-9.75692 12.29159,150.63651 -17.33338,137.47577 C 96.099481,453.35089 85.603179,376.58814 146.01963,342.0878 Z"
     style="fill:#bc1142"
     id="path14" />
  <path
     d="m 566.78766,340.0878 c -36.41422,-9.75692 -12.2916,150.63651 17.33338,137.47577 32.58677,-26.21268 43.08307,-102.97543 -17.33338,-137.47577 z"
     style="fill:#bc1142"
     id="path16" />
  <path
     d="m 443.08096,220.6534 c 62.83486,-10.61013 115.11594,26.72229 113.01138,94.85796 -2.06693,26.12112 -136.15872,-90.96907 -113.01138,-94.85796 z"
     style="fill:#bc1142"
     id="path18" />
  <path
     d="m 269.46913,218.6534 c -62.83486,-10.61013 -115.11594,26.72229 -113.01138,94.85796 2.06693,26.12112 136.15872,-90.96907 113.01138,-94.85796 z"
     style="fill:#bc1142"
     id="path20" />
  <path
     d="m 359.7287,202.75568 c -37.50259,-0.97548 -73.49548,27.83418 -73.58158,44.54443 -0.10462,20.30426 29.6512,41.09266 73.83726,41.62035 45.12305,0.32321 73.91561,-16.64049 74.0611,-37.59409 0.16484,-23.73996 -41.03879,-48.93744 -74.31678,-48.57069 z"
     style="fill:#bc1142"
     id="path22" />
  <path
     d="m 362.01875,619.11675 c 32.69744,-1.42711 76.57083,10.53196 76.6568,26.39598 0.5427,15.4052 -39.78969,50.21055 -78.82634,49.53765 -40.42729,1.74391 -80.06908,-33.11559 -79.54951,-45.19859 -0.60506,-17.71593 49.226,-31.54796 81.71905,-30.73504 z"
     style="fill:#bc1142"
     id="path24" />
  <path
     d="m 241.24812,525.10369 c 23.2791,28.04573 33.89066,77.31899 14.46355,91.84353 -18.37917,11.08784 -63.01228,6.52162 -94.73624,-39.05157 -21.39505,-38.24168 -18.63758,-77.15663 -3.61589,-88.58924 22.46443,-13.68429 57.17343,4.79902 83.88858,35.79728 z"
     style="fill:#bc1142"
     id="path26" />
  <path
     d="m 478.13028,516.21177 c -25.18682,29.50165 -39.21227,83.30951 -20.83785,100.6428 17.56828,13.46361 64.7292,11.58162 99.56566,-36.75574 25.29599,-32.46471 16.82013,-86.68225 2.37077,-101.07511 -21.46408,-16.60213 -52.27691,4.64489 -81.09858,37.18805 z"
     style="fill:#bc1142"
     id="path28" />
</svg>
