<svg id="svg867" xmlns:rdf="http://www.w3.org/1999/02/22-rdf-syntax-ns#" xmlns="http://www.w3.org/2000/svg" height="160" width="160" version="1.1" xmlns:cc="http://creativecommons.org/ns#" xmlns:dc="http://purl.org/dc/elements/1.1/" viewBox="0 0 42.333332 42.333332">
 <metadata id="metadata864">
  <rdf:RDF>
   <cc:Work rdf:about="">
    <dc:format>image/svg+xml</dc:format>
    <dc:type rdf:resource="http://purl.org/dc/dcmitype/StillImage"/>
    <dc:title/>
   </cc:Work>
  </rdf:RDF>
 </metadata>
 <g id="layer1" transform="translate(0 -254.67)">
  <g id="layer1-3" transform="matrix(.26458 0 0 .26458 2.6667e-7 18.569)">
   <g id="g3769">
    <path id="path3171-7-3-3-8-7-0-9-6" style="fill:#87a556" d="m152 972.36c0 39.763-32.236 71.999-72 71.999-39.765 0-72-32.3-72-72.04 0-39.76 32.234-72 71.999-72 39.761 0 72.001 32.24 72.001 72z"/>
    <path id="path9" style="color:#000000;fill:#ffffff;text-transform:none;text-indent:0" transform="translate(0,892.36)" d="m80 35.969c-18.131 0-33.733 11.047-40.469 26.75l5.188 3.062c5.61-13.948 19.288-23.75 35.281-23.75 2.057 0 4.068.183 6.031.5v-6.125c-1.974-.274-3.98-.437-6.031-.437zm18.031 3.875-.031 6.718c1 .538 1.963 1.129 2.91 1.75l5.68-3.343c-2.64-2.012-5.5-3.745-8.559-5.125zm-18.031 11.094c-12.629 0-23.43 8.155-27.406 19.468l5.375 3.188c2.759-9.583 11.528-16.563 22.031-16.563 2.077 0 4.087.27 6 .781v-6.218c-1.938-.412-3.946-.656-6-.656zm35.31 2.781-5.22 3.093c4.94 6.406 7.88 14.449 7.88 23.188 0 8.907-3.05 17.067-8.16 23.53l5.22 3.09c5.64-7.395 9-16.632 9-26.62 0-9.834-3.24-18.939-8.72-26.281zm-13.03 7.719-5.28 3.093c3.71 4.078 5.97 9.492 5.97 15.469 0 6.152-2.41 11.679-6.314 15.781l5.344 3.157c4.39-5.097 7.06-11.729 7.06-18.938 0-7.05-2.56-13.516-6.78-18.562zm-65.968 13.281c-.217 1.73-.343 3.491-.343 5.281 0 1.783.135 3.526.343 5.25l5.782-3.406c-.030-.611-.063-1.225-.063-1.844s.033-1.233.063-1.844zm21.657 11.687-5.375 3.156c3.967 11.328 14.767 19.498 27.406 19.498 2.054 0 4.062-.24 6-.65v-6.25c-1.913.5-3.923.78-6 .78-10.503 0-19.272-6.958-22.031-16.534zm-13.25 7.813-5.188 3.062c6.736 15.699 22.338 26.749 40.469 26.749 2.027 0 4.018-.16 5.969-.44v-6.09c-1.946.31-3.932.47-5.969.47-15.993 0-29.671-9.8-35.281-23.751zm55.781 17.751c-.806.52-1.653 1.01-2.5 1.47l-.031 6.72c2.921-1.32 5.681-2.92 8.221-4.82z"/>
    <path id="path5227" style="fill-rule:evenodd;enable-background:new;fill:#ffffff" transform="translate(0,892.36)" d="m92.031 27.469-.031 33.062 28-16.531zm-63 36l-.031 33.062 28-16.531zm62.969 36.531-.031 33.03 28.001-16.53z"/>
   </g>
  </g>
 </g>
</svg>
