<svg width="32" height="32" version="1.1" viewBox="0 0 32 32" xmlns="http://www.w3.org/2000/svg"><path d="m25.844 1h-19.688c-.77666 0-1.4062.62959-1.4062 1.4062v.9375c0 .77666.62959 1.4062 1.4062 1.4062 0 5.33 2.9892 9.8282 7.0806 11.25-4.0914 1.4218-7.0806 5.92-7.0806 11.25-.77666 0-1.4062.62959-1.4062 1.4062v.9375c0 .77666.62959 1.4062 1.4062 1.4062h19.688c.77666 0 1.4062-.62959 1.4062-1.4062v-.9375c0-.77666-.62959-1.4062-1.4062-1.4062 0-5.33-2.9892-9.8282-7.0806-11.25 4.0914-1.4218 7.0806-5.92 7.0806-11.25.77666 0 1.4062-.62959 1.4062-1.4062v-.9375c0-.77666-.62959-1.4062-1.4062-1.4062zm-4.3991 22.5h-10.889c.99955-2.742 3.0525-4.6875 5.4445-4.6875 2.3919 0 4.445 1.9451 5.4446 4.6875zm.0011-15h-10.89c-.41543-1.1398-.6491-2.4171-.6491-3.75h12.188c0 1.3362-.23361 2.6125-.64799 3.75z" style="fill:#d29034;stroke-width:.058594"/></svg>
