<svg width="32" height="32" version="1.1" viewBox="0 0 32 32" xmlns="http://www.w3.org/2000/svg"><path d="m30 16c0 7.732-6.268 14-14 14s-14-6.268-14-14 6.268-14 14-14 14 6.268 14 14zm-15.62 7.4129 10.387-10.387c.35271-.3527.35271-.92461 0-1.2773l-1.2773-1.2773c-.35271-.35276-.92461-.35276-1.2774 0l-8.471 8.471-3.9549-3.9549c-.35271-.35271-.92461-.35271-1.2774 0l-1.2773 1.2773c-.35271.35271-.35271.92461 0 1.2773l5.871 5.871c.35276.35276.92461.35276 1.2774 5.3e-5z" style="fill:#519839;stroke-width:.056452"/></svg>
