<svg width="32" height="32" version="1.1" viewBox="0 0 8.4667 8.4667" xmlns="http://www.w3.org/2000/svg"><g transform="translate(99.54 -142.86)"><path d="m-91.073 147.09c0 2.338-1.8953 4.2333-4.2333 4.2333s-4.2333-1.8953-4.2333-4.2333c0-2.338 1.8953-4.2333 4.2333-4.2333s4.2333 1.8953 4.2333 4.2333zm-4.723 2.2415 3.1409-3.1409c.10665-.10665.10665-.27959 0-.38624l-.38624-.38624c-.10665-.10667-.27959-.10667-.38626 0l-2.5615 2.5615-1.1959-1.1959c-.10665-.10666-.27959-.10666-.38626 0l-.38624.38624c-.10665.10665-.10665.27958 0 .38624l1.7753 1.7753c.10667.10667.27959.10667.38626 1e-5z" style="fill:#d4af37;stroke-width:.01707"/></g></svg>
